<?xml version="1.0" encoding="UTF-8"?>
<svg width="15px" height="12px" viewBox="0 0 15 12" version="1.1" xmlns="http://www.w3.org/2000/svg" xmlns:xlink="http://www.w3.org/1999/xlink">
    <!-- Generator: Sketch 58 (84663) - https://sketch.com -->
    <title>camera (1)</title>
    <desc>Created with Sketch.</desc>
    <g id="Page-1" stroke="none" stroke-width="1" fill="none" fill-rule="evenodd">
        <g id="landing-page" transform="translate(-222.000000, -222.000000)" fill="#FFFFFF" fill-rule="nonzero">
            <g id="camera-(1)" transform="translate(222.000000, 222.000000)">
                <path d="M14.5009506,1.86956522 C14.2015209,1.55072464 13.7880228,1.36231884 13.3174905,1.36231884 L10.9505703,1.36231884 L10.9505703,1.33333333 C10.9505703,0.971014493 10.8079848,0.623188406 10.5655894,0.391304348 C10.3231939,0.144927536 9.99524715,0 9.63878327,0 L5.36121673,0 C4.9904943,0 4.66254753,0.144927536 4.42015209,0.391304348 C4.17775665,0.637681159 4.0351711,0.971014493 4.0351711,1.33333333 L4.0351711,1.36231884 L1.68250951,1.36231884 C1.21197719,1.36231884 0.798479087,1.55072464 0.49904943,1.86956522 C0.199619772,2.17391304 0,2.60869565 0,3.07246377 L0,10.2898551 C0,10.7681159 0.185361217,11.1884058 0.49904943,11.4927536 C0.798479087,11.7971014 1.22623574,12 1.68250951,12 L13.3174905,12 C13.7880228,12 14.2015209,11.8115942 14.5009506,11.4927536 C14.8003802,11.1884058 15,10.7536232 15,10.2898551 L15,3.07246377 C15,2.5942029 14.8146388,2.17391304 14.5009506,1.86956522 Z M14.2585551,10.2898551 L14.2442966,10.2898551 C14.2442966,10.5507246 14.1444867,10.7826087 13.973384,10.9565217 C13.8022814,11.1304348 13.5741445,11.2318841 13.3174905,11.2318841 L1.68250951,11.2318841 C1.42585551,11.2318841 1.19771863,11.1304348 1.02661597,10.9565217 C0.855513308,10.7826087 0.755703422,10.5507246 0.755703422,10.2898551 L0.755703422,3.07246377 C0.755703422,2.8115942 0.855513308,2.57971014 1.02661597,2.4057971 C1.19771863,2.23188406 1.42585551,2.13043478 1.68250951,2.13043478 L4.43441065,2.13043478 C4.64828897,2.13043478 4.81939163,1.95652174 4.81939163,1.73913043 L4.81939163,1.31884058 C4.81939163,1.15942029 4.87642586,1.01449275 4.97623574,0.913043478 C5.07604563,0.811594203 5.21863118,0.753623188 5.37547529,0.753623188 L9.63878327,0.753623188 C9.79562738,0.753623188 9.93821293,0.811594203 10.0380228,0.913043478 C10.1378327,1.01449275 10.1948669,1.15942029 10.1948669,1.31884058 L10.1948669,1.73913043 C10.1948669,1.95652174 10.3659696,2.13043478 10.5798479,2.13043478 L13.331749,2.13043478 C13.588403,2.13043478 13.8165399,2.23188406 13.9876426,2.4057971 C14.1587452,2.57971014 14.2585551,2.8115942 14.2585551,3.07246377 L14.2585551,10.2898551 Z" id="Shape"></path>
                <path d="M7.5,3 C6.53252033,3 5.6504065,3.39837398 5.02439024,4.02439024 C4.38414634,4.66463415 4,5.53252033 4,6.5 C4,7.46747967 4.39837398,8.3495935 5.02439024,8.97560976 C5.66463415,9.61585366 6.53252033,10 7.5,10 C8.46747967,10 9.3495935,9.60162602 9.97560976,8.97560976 C10.6158537,8.33536585 11,7.46747967 11,6.5 C11,5.53252033 10.601626,4.6504065 9.97560976,4.02439024 C9.3495935,3.39837398 8.46747967,3 7.5,3 Z M9.43495935,8.44918699 C8.93699187,8.93292683 8.25406504,9.24593496 7.5,9.24593496 C6.74593496,9.24593496 6.06300813,8.93292683 5.56504065,8.44918699 C5.06707317,7.95121951 4.76829268,7.26829268 4.76829268,6.51422764 C4.76829268,5.7601626 5.08130081,5.07723577 5.56504065,4.57926829 C6.06300813,4.08130081 6.74593496,3.78252033 7.5,3.78252033 C8.25406504,3.78252033 8.93699187,4.09552846 9.43495935,4.57926829 C9.93292683,5.07723577 10.2317073,5.7601626 10.2317073,6.51422764 C10.245935,7.26829268 9.93292683,7.95121951 9.43495935,8.44918699 Z" id="Shape"></path>
                <circle id="Oval" cx="13" cy="4" r="1"></circle>
            </g>
        </g>
    </g>
</svg>