<?xml version="1.0" encoding="UTF-8"?>
<svg width="22px" height="15px" viewBox="0 0 22 15" version="1.1" xmlns="http://www.w3.org/2000/svg" xmlns:xlink="http://www.w3.org/1999/xlink">
    <title>credit-card (1)</title>
    <g id="Page-1" stroke="none" stroke-width="1" fill="none" fill-rule="evenodd">
        <g id="landing-page" transform="translate(-17.000000, -588.000000)" fill="#5B5A5A" fill-rule="nonzero">
            <g id="credit-card-(1)" transform="translate(17.000000, 588.000000)">
                <path d="M19.7083861,0 L2.29165682,0 C1.02850201,0 0,1.05187295 0,2.34377472 L0,12.6562692 C0,13.9481271 1.02850201,15 2.29165682,15 L19.7083432,15 C20.971498,15 22,13.9481271 22,12.6562692 L22,2.34377472 C22,1.05187295 20.971541,0 19.7083861,0 Z M21.0833888,12.6562253 C21.0833888,13.4315509 20.4664853,14.0624725 19.7083861,14.0624725 L2.29165682,14.0624725 C1.53355768,14.0624725 0.916654134,13.4315509 0.916654134,12.6562253 L0.916654134,2.34377472 C0.916654134,1.56844909 1.53355768,0.937527466 2.29165682,0.937527466 L19.7083432,0.937527466 C20.4664423,0.937527466 21.0833888,1.56844909 21.0833888,2.34377472 L21.0833888,12.6562253 L21.0833888,12.6562253 Z" id="Shape"></path>
                <path d="M21.5416103,3 L0.458346761,3 C0.205347255,3 0,3.22401387 0,3.50001172 L0,6.49998828 C0,6.77598613 0.205347255,7 0.458346761,7 L21.5416532,7 C21.7946527,7 22,6.77598613 22,6.49998828 L22,3.50001172 C22,3.22401387 21.7946098,3 21.5416103,3 Z M21.0833065,5.99997656 L0.916650553,5.99997656 L0.916650553,3.99997656 L21.0833065,3.99997656 L21.0833065,5.99997656 L21.0833065,5.99997656 Z" id="Shape"></path>
                <path d="M9.49998661,9 L3.50001339,9 C3.22401462,9 3,9.22401913 3,9.50002344 C3,9.77602775 3.22401462,10 3.50001339,10 L9.49998661,10 C9.77598538,10 10,9.77598087 10,9.49997656 C10,9.22397225 9.77598538,9 9.49998661,9 Z" id="Path"></path>
                <path d="M9.49998661,11 L3.50001339,11 C3.22401462,11 3,11.2240086 3,11.5 C3,11.7759914 3.22401462,12 3.50001339,12 L9.49998661,12 C9.77598538,12 10,11.7759914 10,11.5 C10,11.2240086 9.77598538,11 9.49998661,11 Z" id="Path"></path>
                <path d="M17.5,8 L16.5,8 C15.672987,8 15,8.672987 15,9.5 L15,10.5 C15,11.327013 15.672987,12 16.5,12 L17.5,12 C18.327013,12 19,11.327013 19,10.5 L19,9.5 C19,8.67303388 18.327013,8 17.5,8 Z M18.0000117,10.5000352 C18.0000117,10.7760421 17.7759952,11.0000586 17.4999883,11.0000586 L16.5000059,11.0000586 C16.2240048,11.0000586 15.9999883,10.7760421 15.9999883,10.5000352 L15.9999883,9.50005273 C15.9999883,9.22405166 16.2240048,9.00003516 16.5000059,9.00003516 L17.4999883,9.00003516 C17.7759952,9.00003516 18.0000117,9.22405166 18.0000117,9.50005273 L18.0000117,10.5000352 Z" id="Shape"></path>
            </g>
        </g>
    </g>
</svg>