<svg height="512pt" viewBox="0 -18 512 512" width="512pt" xmlns="http://www.w3.org/2000/svg">
    <path fill="#807F7F" d="m432 0h-352c-44.113281 0-80 35.886719-80 80v280c0 44.113281 35.886719 80 80 80h189.480469.035156.023437 22.460938c11.046875 0 20-8.953125 20-20s-8.953125-20-20-20h-12.664062l-45.984376-59.65625 145.246094-184.742188 91.15625 107.34375c3.800782 4.476563 9.375 7.054688 15.246094 7.054688h7c11.046875 0 20-8.953125 20-20v-170c0-44.113281-35.886719-80-80-80zm40 203.792969-78.753906-92.738281c-3.886719-4.578126-9.609375-7.183594-15.625-7.050782-6 .113282-11.632813 2.917969-15.34375 7.636719l-154.117188 196.023437-52.320312-67.875c-3.785156-4.910156-9.636719-7.789062-15.839844-7.789062-.003906 0-.007812 0-.011719 0-6.203125.003906-12.058593 2.886719-15.839843 7.808594l-44.015626 57.21875c-6.734374 8.753906-5.097656 21.3125 3.65625 28.046875 8.757813 6.734375 21.3125 5.097656 28.046876-3.660157l28.179687-36.632812 88.816406 115.21875h-148.832031c-22.054688 0-40-17.945312-40-40v-280c0-22.054688 17.945312-40 40-40h352c22.054688 0 40 17.945312 40 40zm-332-131.792969c-33.085938 0-60 26.914062-60 60s26.914062 60 60 60 60-26.914062 60-60-26.914062-60-60-60zm0 80c-11.027344 0-20-8.972656-20-20s8.972656-20 20-20 20 8.972656 20 20-8.972656 20-20 20zm366.144531 188.144531-50.859375 50.855469 50.855469 50.855469c7.8125 7.8125 7.8125 20.476562 0 28.285156-3.902344 3.90625-9.023437 5.859375-14.140625 5.859375s-10.238281-1.953125-14.144531-5.855469l-50.855469-50.859375-50.855469 50.855469c-3.90625 3.90625-9.027343 5.859375-14.144531 5.859375s-10.238281-1.953125-14.144531-5.855469c-7.808594-7.8125-7.808594-20.476562 0-28.285156l50.859375-50.859375-50.855469-50.855469c-7.8125-7.8125-7.8125-20.476562 0-28.285156 7.808594-7.8125 20.472656-7.8125 28.285156 0l50.855469 50.855469 50.855469-50.855469c7.8125-7.8125 20.476562-7.8125 28.285156 0 7.8125 7.808594 7.8125 20.472656.003906 28.285156zm0 0"/>
</svg>