<svg xmlns="http://www.w3.org/2000/svg" width="24" height="24" viewBox="0 0 24 24">
  <g fill="none" fill-rule="evenodd">
    <rect width="24" height="24" fill="#FFEAC8" fill-opacity=".3" rx="4"/>
    <g fill-rule="nonzero" transform="matrix(1 0 0 -1 4 21)">
      <path fill="#455A64" d="M9.6487761,0.68321677 L9.31678964,0.351227195 C9.09126534,0.127200795 8.78661629,0.00101250633 8.46876729,0 L7.53119522,0 C7.21308371,0.000825005156 6.90809716,0.127013294 6.68238537,0.351189695 L6.3511864,0.68317927 C6.1271996,0.908668179 6.0010125,1.21332008 6,1.53117207 L6,4 L10,4 L10,1.53120957 C9.99895,1.21335758 9.8727629,0.908705679 9.6487761,0.68321677 Z"/>
      <path fill="#FFE082" d="M8.01536449 2.98838372C7.79514019 2.98838372 7.61659813 3.15498837 7.61659813 3.36048837L7.61659813 5.59304651C7.61659813 5.79854651 7.79514019 5.96515116 8.01536449 5.96515116 8.23558879 5.96515116 8.41413084 5.79854651 8.41413084 5.59304651L8.41413084 3.36048837C8.41413084 3.15495349 8.23558879 2.98838372 8.01536449 2.98838372zM5.02471028 2.24417442C4.83398131 2.14144186 4.59013084 2.20238372 4.48 2.38036047L3.28373832 4.31525581C3.16560748 4.48869767 3.22048598 4.71865116 3.40631776 4.82888372 3.59214953 4.93911628 3.83861682 4.88790698 3.95674766 4.7145 3.96276636 4.70567442 3.96837383 4.69660465 3.97357009 4.68736047L5.16983178 2.75246512C5.28011215 2.57469767 5.21514019 2.34718605 5.02471028 2.24417442zM2.29084112.0615L.217308411 1.17777907C.0221682243 1.27304651-.053271028 1.49787209.0488224299 1.67996512.150915888 1.86205814.391850467 1.93245349.586990654 1.83718605.596934579 1.83233721.606616822 1.82710465.616074766 1.82148837L2.68960748.705209302C2.87547664.594976744 2.93035514.364988372 2.81218692.191581395 2.70104673.0283953488 2.47446729-.0281511628 2.29084112.0615zM11.550729 2.37666279C11.4325981 2.20322093 11.1861308 2.15201163 11.0002991 2.26227907 10.8254206 2.36602326 10.7648598 2.5774186 10.8608972 2.74876744L12.0571589 4.68366279C12.1592523 4.86575581 12.4001869 4.93615116 12.5953271 4.84088372 12.7904673 4.74561628 12.8659065 4.5207907 12.7638131 4.33869767 12.7586168 4.3294186 12.7530093 4.32038372 12.7469907 4.31155814L11.550729 2.37666279zM15.8118131 1.17777907L13.7382804.0615C13.5524486-.0487325581 13.3059813.00247674419 13.1878505.175883721 13.0697196.349325581 13.1245981.57927907 13.3104299.689511628 13.3198879.695127907 13.3296075.700360465 13.339514.705209302L15.4130467 1.82148837C15.6081869 1.91675581 15.8491215 1.84636047 15.951215 1.66426744 16.0472523 1.4929186 15.9866542 1.28148837 15.8118131 1.17777907z" transform="translate(0 13)"/>
      <path fill="#FFC107" d="M11.2467087,6.18256592 C11.2018517,6.14772661 11.1707221,6.09713647 11.1590845,6.040171 C11.0053457,5.20894016 10.593382,3 9.31897514,3 L6.68408646,3 C5.40661708,3 4.99771591,5.21370291 4.83936534,6.04815892 C4.82657479,6.10268676 4.79584145,6.15080177 4.75249771,6.18417851 C2.73371706,7.87214151 2.41179161,10.9439267 4.03348883,13.0451987 C4.15566557,13.2034945 4.28721004,13.3537273 4.42736561,13.4949597 C5.38020731,14.469523 6.66567528,15.0107512 8.00151279,14.9998381 L8.08452524,14.9998381 C9.44587178,14.9718617 10.7395906,14.3770806 11.676363,13.348552 C12.5610005,12.4010651 13.0378897,11.1201108 12.9976445,9.7995545 C12.9350609,8.38948098 12.2982358,7.0739874 11.2467087,6.18256592 Z"/>
    </g>
  </g>
</svg>
