<?xml version="1.0" encoding="UTF-8"?>
<svg width="166px" height="102px" viewBox="0 0 166 102" version="1.1" xmlns="http://www.w3.org/2000/svg" xmlns:xlink="http://www.w3.org/1999/xlink">
    <title>Group 142</title>
    <defs>
        <polygon id="path-1" points="0 0.210770642 160.064942 0.210770642 160.064942 1.42414679 0 1.42414679"></polygon>
        <path d="M1.51423077,1.65943182 C-1.75846154,5.15525 0.975769231,10.3622727 8.84807692,13.1923864 L8.84807692,13.1923864 C16.7196154,16.0225 38.9534615,16.8922045 38.9534615,16.8922045 L38.9534615,16.8922045 C39.6346154,15.2323864 39.855,13.5246591 39.6296154,11.7709545 L39.6296154,11.7709545 C39.6296154,11.7709545 24.38,6.48704545 18.7269231,4.40647727 L18.7269231,4.40647727 C14.6403846,2.90197727 9.17730769,0.31025 5.22692308,0.309863636 L5.22692308,0.309863636 C3.71269231,0.309863636 2.42115385,0.690431818 1.51423077,1.65943182" id="path-3"></path>
        <polygon id="path-5" points="0.031130597 0.123268482 12.6165541 0.123268482 12.6165541 17.2077507 0.031130597 17.2077507"></polygon>
    </defs>
    <g id="Page-1" stroke="none" stroke-width="1" fill="none" fill-rule="evenodd">
        <g id="landing-page" transform="translate(-88.000000, -436.000000)">
            <g id="Group-142" transform="translate(88.000000, 436.000000)">
                <g id="Group-114" transform="translate(0.000000, 18.000000)">
                    <path d="M119.619677,5.42601468 C119.619677,5.42601468 124.898169,-0.945655046 135.019162,3.11447339 C145.14054,7.17498716 155.045849,23.8466752 145.839589,44.0159229" id="Stroke-1" stroke="#274D79" stroke-width="0.782"></path>
                    <path d="M120.648376,9.86772661 C120.185425,11.0579835 115.584028,9.26662569 116.04698,8.07636881 L116.691722,6.41910275 C117.186256,5.14754312 118.617091,4.51831376 119.887318,5.01306606 C121.158316,5.50781835 121.787652,6.93890092 121.293119,8.21046055 L120.648376,9.86772661 Z" id="Fill-3" fill="#03AA99"></path>
                    <path d="M116.046864,8.07640734 C115.521903,9.24046239 120.18531,11.058022 120.648261,9.86776514 C120.999903,8.94877431 116.425082,7.23794862 116.046864,8.07640734" id="Fill-5" fill="#3B55CE"></path>
                    <path d="M117.863929,8.96992844 C117.813474,9.11866239 117.593553,9.17877248 117.372091,9.10363486 C117.150244,9.02888257 117.011205,8.84778165 117.061659,8.69904771 C117.111729,8.55031376 117.332035,8.49020367 117.553497,8.56534128 C117.775344,8.64009358 117.913998,8.8211945 117.863929,8.96992844" id="Fill-7" fill="#000E5B"></path>
                    <path d="M119.497045,9.57311009 C119.44659,9.72184404 119.226284,9.78156881 119.004822,9.70681651 C118.782975,9.63206422 118.644321,9.4509633 118.694776,9.30184404 C118.744845,9.15349541 118.965152,9.09338532 119.186613,9.16813761 C119.40846,9.24327523 119.547115,9.42437615 119.497045,9.57311009" id="Fill-9" fill="#000E5B"></path>
                    <path d="M145.104297,67.7302404 C145.104297,67.7302404 143.114608,67.1823138 141.81742,65.3616716 C140.519847,63.540644 141.211963,59.1915248 143.460474,57.9473229 C145.709755,56.7035064 147.439852,55.2323505 147.093987,51.8573229 C146.748121,48.4819101 147.872376,45.7989193 150.727499,45.4529009 C153.582237,45.1064972 154.706877,45.0644972 157.561615,42.489011 C160.415968,39.9142954 162.751523,39.5066257 163.876163,40.9650661 C165.000803,42.4235064 164.135755,44.3948092 163.530297,46.1356899 C162.92484,47.8761853 165.087462,49.6525156 165.519987,51.4038 C165.952511,53.1554697 165.60626,55.4149927 163.357365,56.6649743 C161.108084,57.914956 159.550919,58.9164055 159.810511,61.1855615 C160.069717,63.4539468 158.772144,66.900644 153.928103,67.7302404 L145.104297,67.7302404 Z" id="Fill-11" fill="#3DC19A"></path>
                    <path d="M160.24292,44.6079688 C160.24292,44.6079688 149.705194,52.8804275 147.837212,67.7303174" id="Stroke-13" stroke="#3B55CE" stroke-width="1.575" stroke-linecap="round"></path>
                    <path d="M135.242703,38.4379376 C133.582318,39.4817725 133.685539,41.2912404 133.772198,43.5885248 C133.858471,45.8854239 133.200249,46.7208 131.885729,48.2505248 C130.571209,49.7802495 131.280272,52.1168367 133.564601,53.1552771 C135.848161,54.1941028 137.83785,55.7989651 136.626935,58.501222 C135.415636,61.2038642 135.848161,66.1217174 141.817228,67.730433 L149.492513,67.7477725 C149.492513,67.7477725 154.879618,64.6093321 155.571734,58.8823046 C156.26385,53.1552771 151.679014,52.6493505 150.381441,50.7389284 C149.083868,48.8281211 149.469404,46.2245064 149.492513,43.5885248 C149.516393,40.9521578 147.526703,39.6181761 144.844898,39.7661394 C142.163478,39.9141028 141.116253,39.7626716 139.732021,38.8155523 C138.348174,37.868433 136.626935,37.5674972 135.242703,38.4379376" id="Fill-15" fill="#91DBAC"></path>
                    <path d="M137.911336,41.837356 C137.927513,41.9132642 147.246622,48.2490991 146.790218,67.7008789" id="Stroke-17" stroke="#3B55CE" stroke-width="1.575" stroke-linecap="round"></path>
                    <g id="Group-21" transform="translate(0.000000, 67.431193)">
                        <mask id="mask-2" fill="white">
                            <use xlink:href="#path-1"></use>
                        </mask>
                        <g id="Clip-20"></g>
                        <path d="M159.458329,1.42414679 L0.606728074,1.42414679 C0.271261717,1.42414679 -0.000269605568,1.15249541 -0.000269605568,0.817266055 C-0.000269605568,0.482422018 0.271261717,0.210770642 0.606728074,0.210770642 L159.458329,0.210770642 C159.79341,0.210770642 160.064942,0.482422018 160.064942,0.817266055 C160.064942,1.15249541 159.79341,1.42414679 159.458329,1.42414679" id="Fill-19" fill="#638BE2" mask="url(#mask-2)"></path>
                    </g>
                    <path d="M137.538973,83.9999229 L39.3035619,83.9999229 C32.574207,83.9999229 27.1189309,78.5422349 27.1189309,71.8095193 L27.1189309,68.8552624 L149.723989,68.8552624 L149.723989,71.8095193 C149.723989,78.5422349 144.268713,83.9999229 137.538973,83.9999229" id="Fill-22" fill="#E5F7FF"></path>
                    <path d="M79.7279513,62.4780055 C81.0251392,63.5233817 84.7295197,67.7195284 98.8799606,67.7195284 C102.826601,67.7195284 107.089835,67.8844459 110.552341,66.9438771 C119.504016,64.5125009 125.364086,61.2553817 125.364086,61.2553817 L108.050787,55.3611248 L92.529594,55.4497486 L79.7279513,62.4780055 Z" id="Fill-24" fill="#1E4174"></path>
                    <polygon id="Fill-26" fill="#FF9A8D" points="91.6390483 60.0050147 84.8688673 61.2946844 85.1138232 64.982978 92.7020645 64.7960972"></polygon>
                    <path d="M91.6390483,60.0050147 C91.6390483,60.0050147 108.05071,55.3611248 113.153958,54.0637486 C118.997081,52.5783358 127.861327,48.5455651 130.849712,52.2831798 C133.837712,56.0211798 130.192645,60.9999138 122.108714,63.1823725 C114.025554,65.3648312 91.9051875,65.1505927 91.9051875,65.1505927 L91.6390483,60.0050147 Z" id="Fill-28" fill="#1E4174"></path>
                    <path d="M78.4991661,59.0390917 C78.4991661,59.0390917 78.2337972,59.8864128 78.2761638,61.6827798 C78.3181452,63.4791468 79.2274863,64.8416422 79.3203077,67.4614404 C79.3203077,67.4614404 80.3371058,65.7883761 80.2881916,63.0730183 C80.2385072,60.3580459 78.4991661,59.0390917 78.4991661,59.0390917" id="Fill-30" fill="#8FC9C6"></path>
                    <path d="M88.3167374,65.0653596 C87.2564172,65.178644 85.4839531,66.0066991 84.3959021,66.5827541 C83.3086213,67.1588092 82.7278139,67.7614514 80.7881944,67.7475798 C80.7881944,67.7475798 80.7804914,62.6162587 80.5728951,61.0291211 C80.3649137,59.4419835 80.0444682,59.1695615 80.0444682,59.1695615 C80.0444682,59.1695615 81.8415819,59.2843872 82.7355169,59.7633413 C83.6290668,60.2426807 83.729206,60.4623138 85.3060135,60.5235798 C86.8828209,60.5848459 87.5279485,60.6700018 88.2158278,60.6572862 C89.2618974,62.2933596 88.8455494,64.2808459 88.3167374,65.0653596" id="Fill-32" fill="#03AA99"></path>
                    <path d="M83.7276654,65.6723174 C83.7276654,65.6723174 84.3296561,63.007822 83.4476608,61.1852532" id="Stroke-34" stroke="#AAEEED" stroke-width="0.924" stroke-linecap="round"></path>
                    <path d="M84.8402506,65.3615174 C84.8402506,65.3615174 85.4245244,63.336655 84.5664084,61.3973339" id="Stroke-36" stroke="#AAEEED" stroke-width="0.924" stroke-linecap="round"></path>
                    <path d="M86.0912204,64.858789 C86.0912204,64.858789 86.6204176,63.5055413 85.9179026,61.5061101" id="Stroke-38" stroke="#AAEEED" stroke-width="0.924" stroke-linecap="round"></path>
                    <path d="M80.7882715,67.7475413 C80.1739559,67.7367523 79.4240673,67.7186422 79.3200766,67.461633 C79.2160858,67.2046239 79.9336218,65.6729725 79.6482251,62.6381835 C79.494935,61.0075046 78.3518074,59.092844 78.4993202,59.0388991 C78.6464478,58.9849541 79.5446195,58.6485688 80.0445452,59.1695229 C80.544471,59.6912477 83.0795336,63.0196514 80.7882715,67.7475413" id="Fill-40" fill="#AAEEED"></path>
                    <path d="M121.461545,26.081345 C123.596051,24.5708862 128.195907,21.0563725 130.61581,13.5098587 C131.383415,11.1147028 131.451972,9.4720789 131.431559,8.3727578 C130.183671,7.32083119 130.314622,5.33373028 129.175731,4.09993211 C127.575044,2.36483119 126.140742,0.162721101 129.272019,0.162721101 C131.017907,0.162721101 132.624371,0.233620183 133.483258,1.06514312 C134.164204,1.72442752 135.451763,3.67453761 135.688246,4.35347339 C136.221295,5.88859266 135.601972,7.82174862 135.535341,10.1571798 C135.46871,12.4929963 133.934654,27.1066844 122.662445,33.2460055 L121.461545,26.081345 Z" id="Fill-42" fill="#E04805"></path>
                    <path d="M97.0319299,20.5771486 C97.0319299,20.5771486 96.98109,22.4474972 96.8185564,23.2196807 C96.6560227,23.9922495 96.8185564,24.3987633 94.4618186,24.8052771 C94.4618186,24.8052771 95.4193035,27.895167 99.5030575,28.4234422 C103.587582,28.9521028 105.253359,25.7404514 105.131266,25.7404514 C105.009559,25.7404514 103.871823,25.2722862 103.506315,25.0353138 C103.140037,24.7983413 103.410798,20.2927817 103.410798,20.2927817 L97.0319299,20.5771486 Z" id="Fill-44" fill="#E04805"></path>
                    <path d="M103.355683,21.4330239 C103.355683,21.4330239 102.856527,23.0163083 100.378082,23.1789138 C97.8988659,23.3419046 96.9756594,21.7782716 96.9756594,21.7782716 L97.0318914,20.5772257 L103.410759,20.2928587 L103.355683,21.4330239 Z" id="Fill-46" fill="#C43E0A"></path>
                    <path d="M93.1333949,13.787945 C93.1333949,13.787945 91.8527684,13.5871927 91.289678,14.5300734 C90.7262023,15.4729541 91.430258,17.2346422 92.7640353,17.5282569 C94.0419657,17.8099266 94.46178,17.092844 94.46178,17.092844 L93.1333949,13.787945 Z" id="Fill-48" fill="#E04805"></path>
                    <path d="M92.0140311,14.7292073 C92.3079012,14.5770055 92.7731633,14.530767 93.0612561,14.7060881 C93.1679429,14.7712073 93.0238965,14.9530789 92.9268385,14.9307303 C92.3772283,14.8070422 91.732871,14.865611 91.5568571,15.5133358 C91.5476135,15.5476294 91.5198826,15.5164183 91.5214232,15.4940697 C91.5426065,15.1468954 91.7005183,14.8918128 92.0140311,14.7292073" id="Fill-50" fill="#C43E0A"></path>
                    <path d="M92.2649183,14.7450055 C92.3192246,14.709556 92.470974,14.8367119 92.4644265,14.8787119 C92.3847002,14.9299596 92.261452,15.045556 92.2121527,15.1684734 C92.1278046,15.3796294 92.118561,15.5534092 92.1678603,15.7780514 C92.2803244,16.2943817 92.6238789,16.6299963 93.1488394,16.6800881 C93.1584682,16.6808587 93.1773406,16.7055193 93.1627049,16.7112991 C92.734032,16.8812257 92.1705564,16.4905101 92.0153406,16.1071156 C91.8431782,15.6824917 91.7896422,15.054033 92.2649183,14.7450055" id="Fill-52" fill="#C43E0A"></path>
                    <path d="M105.52593,11.4071229 C105.52593,11.4071229 106.642868,10.7455266 107.515234,11.4125174 C108.387601,12.0798936 108.38606,13.9768294 107.255643,14.7440037 C106.172984,15.4791963 105.517842,14.9690312 105.517842,14.9690312 L105.52593,11.4071229 Z" id="Fill-54" fill="#E04805"></path>
                    <path d="M106.916094,11.866233 C106.587175,11.8334807 106.137704,11.9633339 105.934729,12.2330587 C105.859625,12.3328569 106.060674,12.4484532 106.142711,12.391811 C106.607588,12.0731505 107.228066,11.888967 107.630934,12.4249486 C107.652502,12.4534624 107.666753,12.414545 107.657124,12.3941229 C107.508456,12.0797009 107.267736,11.9009119 106.916094,11.866233" id="Fill-56" fill="#C43E0A"></path>
                    <path d="M106.688893,11.9738532 C106.625343,11.9611376 106.531752,12.1353028 106.552935,12.1719083 C106.646527,12.1900183 106.803283,12.252055 106.894564,12.348 C107.05132,12.5125321 107.124114,12.6705138 107.161858,12.8970826 C107.248132,13.4188073 107.053631,13.8576881 106.584517,14.0988991 C106.575659,14.1031376 106.567571,14.1328073 106.582977,14.1328073 C107.044387,14.132422 107.422606,13.5602202 107.424916,13.1463853 C107.427613,12.6886239 107.244666,12.0848257 106.688893,11.9738532" id="Fill-58" fill="#C43E0A"></path>
                    <path d="M100.935703,5.19516881 C99.9408585,4.85377431 98.8805383,4.74549908 97.8602738,4.9412422 C96.839239,5.13775596 95.8347657,5.59166422 95.0375035,6.27753578 C93.1760696,7.87777431 92.4577633,10.4085633 92.9107007,12.7809853 C92.911471,12.7840679 92.9122413,12.7875358 92.9126265,12.7910037 C93.0424223,13.4695541 93.2118886,14.1403982 93.4198701,14.7989119 L93.7110441,15.7198294 C93.9390534,16.4407651 94.4532297,17.8186734 95.2751415,19.0786734 C96.9054849,21.5786367 99.5526265,21.9890037 101.075898,21.696545 C102.599555,21.4037009 104.906608,20.0412055 105.495503,17.1150771 C105.79207,15.6400679 105.759332,14.1696826 105.70464,13.4156092 L105.633773,12.4523064 C105.583318,11.7637376 105.492422,11.0778661 105.361856,10.3993156 C105.361086,10.3958477 105.360316,10.3923798 105.359545,10.3889119 C104.902371,8.01764587 103.256622,5.99162752 100.935703,5.19516881" id="Fill-60" fill="#E04805"></path>
                    <path d="M101.851938,12.292745 C101.782611,11.9324697 102.018709,11.5849101 102.378439,11.5155523 C102.738555,11.4465798 103.086347,11.6823963 103.155289,12.0422862 C103.224231,12.4025615 102.988518,12.7505064 102.628787,12.8194789 C102.268671,12.8888367 101.921265,12.6530202 101.851938,12.292745" id="Fill-62" fill="#001C45"></path>
                    <path d="M102.012161,9.8856055 L105.13766,10.4782294 C105.13766,10.4782294 104.915428,9.61934862 103.803883,9.1696789 C103.318978,8.97316514 102.773604,8.99088991 102.440064,9.17507339 C101.95901,9.44133028 102.012161,9.8856055 102.012161,9.8856055" id="Fill-64" fill="#001C45"></path>
                    <path d="M96.6471258,10.8395064 L94.3616408,13.0531761 C94.3616408,13.0531761 94.0750886,12.2131761 94.7571907,11.2263688 C95.0545271,10.7955798 95.5197893,10.5104422 95.899548,10.4811578 C96.4472325,10.4387725 96.6471258,10.8395064 96.6471258,10.8395064" id="Fill-66" fill="#001C45"></path>
                    <path d="M97.6837206,13.1858807 C97.6143935,12.8256055 97.2666023,12.589789 96.9064863,12.6591468 C96.5467555,12.7281193 96.3110432,13.0760642 96.3799852,13.4363394 C96.4493123,13.7962294 96.7967183,14.0324312 97.1572195,13.9630734 C97.5169503,13.8941009 97.7526626,13.546156 97.6837206,13.1858807" id="Fill-68" fill="#001C45"></path>
                    <path d="M99.9905044,12.5337633 C99.6893165,12.6139101 99.4693954,15.6980202 99.8868988,16.1369009 C100.060217,16.3183872 100.492741,16.4486257 100.728839,16.3808092 C100.973409,16.3561486 101.327363,16.0748642 101.420569,15.8421303 C101.645883,15.2799468 100.300166,12.4967725 99.9905044,12.5337633" id="Fill-70" fill="#C43E0A"></path>
                    <path d="M89.620781,6.98629541 C89.620781,6.98629541 91.9917694,6.52391009 92.894948,7.74075413" id="Stroke-72" stroke="#001C45" stroke-width="1.715" stroke-linecap="round"></path>
                    <path d="M89.5519545,4.65121101 C89.5519545,4.65121101 92.4945067,5.14673394 92.9374302,7.96111927" id="Stroke-74" stroke="#001C45" stroke-width="1.715" stroke-linecap="round"></path>
                    <path d="M93.8833991,7.74584037 C93.8833991,7.74584037 95.5422436,10.2442624 98.2691114,10.9825376 C100.995979,11.7208128 102.536968,8.56310642 102.260814,7.12662936 C102.260814,7.12662936 104.926443,11.4198771 105.526123,11.4071615 C105.526123,11.4071615 106.175872,9.67552844 105.963269,7.74083119 C105.751051,5.80651927 104.836318,4.84437248 103.848021,4.12998716 C102.908253,3.45066606 101.991209,3.86026239 101.613376,4.10532661 C101.117687,3.17092294 99.6564246,1.19306972 96.779348,1.51596881 C93.561413,1.87662936 92.310058,4.09993211 92.7791717,7.4926844 C92.7791717,7.4926844 91.5709536,7.15167523 90.8476404,8.55501468 C90.123942,9.95835413 90.9292923,12.683345 91.8917842,13.9757119 C91.8917842,13.9757119 92.7310278,13.7109963 93.1335104,13.7880606 C93.1335104,13.7880606 92.5684942,11.5435651 93.099232,9.57573028 C93.5306009,7.97433578 93.8833991,7.74584037 93.8833991,7.74584037" id="Fill-76" fill="#001C45"></path>
                    <path d="M95.4747652,24.591578 C95.7632432,25.755633 97.4086074,27.6013211 99.8000088,27.7130642 C102.191025,27.8248073 104.165693,26.2184037 104.491916,25.5109541 C106.488538,25.6951376 109.023986,26.2372844 109.875554,26.3925688 C111.081461,26.6118165 112.250779,27.6880183 111.819795,31.0842385 C111.401522,34.3814312 108.786348,55.2265321 108.786348,55.2265321 C108.786348,55.2265321 101.87289,57.9102936 92.5299021,55.449633 C92.5299021,55.449633 86.8758882,32.8243486 86.3724961,30.8673028 C85.8698742,28.9102569 85.2547884,26.8410826 87.0430436,26.2257248 C88.8320691,25.6111376 95.4747652,24.591578 95.4747652,24.591578" id="Fill-78" fill="#3ED9C7"></path>
                    <path d="M103.191339,48.6617394 C103.32306,48.6871706 103.455937,48.706822 103.589585,48.7210789 C104.907186,48.8590239 104.307891,47.3693725 103.894239,46.7829138 C103.261821,45.8870422 98.8799606,42.4888954 98.8799606,42.4888954 L95.4748422,42.7767303 L91.6391253,44.3580881 L90.062703,45.5826385 C90.3812227,46.8561248 90.6904988,48.0926202 90.9762807,49.2354826 C92.4101972,48.3369138 95.87771,46.2068587 96.6472413,46.1355743 C97.1282947,46.0908771 97.5627448,46.2573358 97.9964246,46.4442165 C98.6207541,46.713556 99.2470093,46.9578495 99.8855893,47.1913541 C100.175223,47.2969321 100.465241,47.4028954 100.742935,47.5373725 C101.244401,47.7805101 101.698879,48.1130422 102.204968,48.3461615 C102.519251,48.4910422 102.851251,48.5954642 103.191339,48.6617394" id="Fill-80" fill="#03AA99"></path>
                    <line x1="117.906796" y1="41.5291761" x2="120.387937" y2="42.7128826" id="Stroke-82" stroke="#274D79" stroke-width="2.1" stroke-linecap="round"></line>
                    <line x1="116.857414" y1="43.5886018" x2="119.338941" y2="44.7723083" id="Stroke-84" stroke="#274D79" stroke-width="2.1" stroke-linecap="round"></line>
                    <path d="M82.2119044,52.2831798 C85.4752872,52.759822 91.2579415,52.8765743 96.3681225,48.2504092 C100.482689,44.5251248 104.237139,37.4136385 113.79273,40.5397486" id="Stroke-86" stroke="#274D79" stroke-width="0.782"></path>
                    <path d="M118.289674,40.1857927 C119.418166,40.7834257 117.109187,45.1494991 115.98031,44.5518661 L114.40928,43.7203431 C113.204143,43.0822514 112.744273,41.5875908 113.381697,40.3819211 C114.019507,39.1762514 115.513507,38.716178 116.718644,39.3542697 L118.289674,40.1857927 Z" id="Fill-88" fill="#03AA99"></path>
                    <path d="M84.5160306,29.6470679 C84.5160306,29.6470679 76.7848984,43.6269028 75.3787128,45.9846826 C73.9732974,48.3424624 74.2625457,50.9896183 74.5521791,51.6512147 C74.8414274,52.3131963 78.8520028,52.7682606 82.5313485,51.3614532 C86.2106942,49.9554165 95.685019,45.1396734 96.3879193,44.7674532 C96.3879193,44.7674532 97.2876316,45.3604624 98.192736,45.7897101 C99.4568009,46.3884991 100.480532,46.4131596 101.299362,47.0335266 C102.118193,47.6538936 103.01752,48.836444 104.600875,48.0715817 C105.543339,47.6169028 103.452741,44.6830679 102.516824,43.0643339 C101.602091,42.2805908 98.3340863,40.9273431 96.6956548,41.1608477 C94.3789726,41.4902972 82.7431814,45.4529394 82.7431814,45.4529394 L86.9594274,38.1746092 L84.5160306,29.6470679 Z" id="Fill-90" fill="#E04805"></path>
                    <path d="M87.4434079,26.0971431 C85.5453847,26.6940055 84.8139833,27.624556 82.9567861,31.0026661 C81.0992037,34.3811615 78.6434821,38.4913817 78.6434821,38.4913817 C78.6434821,38.4913817 80.6393336,41.6036202 85.0389114,42.4890881 L88.0253708,37.4421523 L87.4434079,26.0971431 Z" id="Fill-92" fill="#3ED9C7"></path>
                    <path d="M109.875439,26.3925303 C112.146288,26.7632092 117.926631,28.4590073 121.461545,26.0811908 C121.461545,26.0811908 123.796329,29.6427138 123.395773,34.1132092 C123.395773,34.1132092 118.604497,38.3868055 111.115624,36.6725119 L109.875439,26.3925303 Z" id="Fill-94" fill="#3ED9C7"></path>
                    <polygon id="Fill-96" fill="#E04805" points="110.552457 61.0601394 117.198234 62.8877174 116.658638 66.5448 109.110067 65.7510385"></polygon>
                    <path d="M110.552457,61.0601394 C110.552457,61.0601394 95.2819972,55.7908734 89.6206654,53.7155339 C83.9597188,51.6401945 75.6620297,47.4891303 72.3840111,50.9759009 C69.1067629,54.4626716 71.8448,59.6552587 79.7280668,62.4781211 C87.6109485,65.3005982 109.875361,66.167956 109.875361,66.167956 C110.557464,64.5126165 110.778155,62.8094972 110.552457,61.0601394" id="Fill-98" fill="#85B8ED"></path>
                    <path d="M123.727696,61.1493028 C123.727696,61.1493028 123.924508,62.0155046 123.73848,63.8026239 C123.552837,65.5897431 122.53758,66.874789 122.235621,69.4791743 C122.235621,69.4791743 121.355552,67.7298165 121.621691,65.0271743 C121.888215,62.3249174 123.727696,61.1493028 123.727696,61.1493028" id="Fill-100" fill="#8FC9C6"></path>
                    <path d="M113.459498,66.3707119 C114.507493,66.5683817 116.208319,67.5355376 117.246301,68.1967486 C118.283897,68.8579596 118.81425,69.5056844 120.749632,69.6467119 C120.749632,69.6467119 121.167906,64.532345 121.501447,62.9671706 C121.835373,61.401611 122.176616,61.1557761 122.176616,61.1557761 C122.176616,61.1557761 120.376036,61.1264917 119.446667,61.5322349 C118.517684,61.9387486 118.400213,62.1491339 116.823405,62.0844 C115.246983,62.0192807 114.597233,62.0524183 113.912435,61.9842165 C112.739266,63.5316661 112.995006,65.5461248 113.459498,66.3707119" id="Fill-102" fill="#03AA99"></path>
                    <path d="M117.985405,67.3426844 C117.985405,67.3426844 117.598329,64.6385009 118.62283,62.892611" id="Stroke-104" stroke="#AAEEED" stroke-width="0.924" stroke-linecap="round"></path>
                    <path d="M116.901398,66.9438 C116.901398,66.9438 116.480813,64.8788642 117.491064,63.0146807" id="Stroke-106" stroke="#AAEEED" stroke-width="0.924" stroke-linecap="round"></path>
                    <path d="M115.694066,66.3428532 C115.694066,66.3428532 115.275022,64.9514587 116.135449,63.0144495" id="Stroke-108" stroke="#AAEEED" stroke-width="0.924" stroke-linecap="round"></path>
                    <path d="M120.749555,69.6467119 C121.36233,69.685244 122.111449,69.727244 122.235467,69.4790972 C122.359871,69.2313358 121.767124,67.6472807 122.294395,64.645244 C122.577481,63.0319046 123.870432,61.2151156 123.727542,61.1492257 C123.584651,61.0833358 122.716521,60.6764367 122.176539,61.1557761 C121.636558,61.6355009 118.843444,64.750822 120.749555,69.6467119" id="Fill-110" fill="#AAEEED"></path>
                    <path d="M110.532506,63.8025468 L110.188951,63.8025468 C110.188951,63.8025468 100.235499,63.1555927 89.5764501,61.3973725 C79.105355,59.669978 72.0262831,56.1473725 71.0768863,53.5557028 C70.6108538,56.6899046 73.627355,60.2938128 79.7281439,62.4778128 C87.6110255,65.3006752 109.875439,66.168033 109.875439,66.168033 C110.162376,65.4810055 110.391926,64.7084367 110.532506,63.8025468" id="Fill-112" fill="#4E7EAC"></path>
                </g>
                <g id="Group-117" transform="translate(71.000000, 67.000000)">
                    <mask id="mask-4" fill="white">
                        <use xlink:href="#path-3"></use>
                    </mask>
                    <g id="Clip-116"></g>
                    <path d="M37.655,10.8731614 C37.6419231,12.2559568 37.3592308,15.3611614 36.7526923,17.2705705" id="Stroke-115" stroke="#274D79" stroke-width="0.782" mask="url(#mask-4)"></path>
                </g>
                <g id="Group-141" transform="translate(9.000000, 0.000000)">
                    <path d="M79.3820616,55.1517058 C79.3820616,55.1517058 80.5665616,52.0033518 79.7567817,47.3588265 C79.7567817,47.3588265 81.2414422,53.0249393 79.630722,56.1470988 L79.3820616,55.1517058 Z" id="Fill-118" fill="#03AA99"></path>
                    <path d="M102.423008,54.3820482 C102.423008,54.3820482 102.856146,50.801484 102.080956,47.4636047 C102.080956,47.4636047 103.022944,49.3835113 102.97375,54.4983829 L102.423008,54.3820482 Z" id="Fill-120" fill="#03AA99"></path>
                    <path d="M55.0470049,72.7421568 C56.4267437,72.4632619 58.843016,72.2198066 60.5594265,73.7236821 C61.6562996,74.6851763 61.137072,74.8519739 60.157419,74.8346393 C58.5078817,74.8049778 57.1938631,76.1929039 57.1938631,76.1929039 C57.1938631,76.1929039 55.0481578,76.4382852 54.5212437,74.7294759 C53.7579675,72.2544759 55.0470049,72.7421568 55.0470049,72.7421568" id="Fill-122" fill="#E09B36"></path>
                    <path d="M49.8023063,85.335342 L60.3967019,85.335342 C62.8156646,85.3904276 64.4652019,85.203984 65.6527765,84.1504237 C67.030978,82.926984 67.2707989,80.7451319 67.0509631,79.0759996 C66.7942317,78.4041864 65.3295563,78.9014977 63.524366,78.5956377 C61.8863586,78.3182837 60.9393735,77.5779023 60.002381,76.326342 C59.0726907,75.0836416 58.5726795,74.5840191 56.7317466,73.6857 C55.7194257,73.1914704 54.9011907,73.241163 54.9011907,73.241163 C54.9011907,73.241163 55.5514743,71.8170268 56.5365078,70.9040696 C57.7275414,69.8004315 55.6041272,69.3616728 53.1836272,70.4518284 C51.7470078,71.0993732 50.2415937,72.364416 49.1835377,73.5712914 C48.4971272,74.3540463 46.7030825,74.236556 44.7587653,72.7396144 C42.8144481,71.2426728 35.9956944,65.029556 28.5289631,66.0746416 C21.0622317,67.1197272 15.8776422,73.2480969 15.116672,77.6537895 C14.3560862,82.0594821 15.8211459,84.5618323 17.0894295,85.3439969 L49.8023063,85.335342 Z" id="Fill-124" fill="#FABA50"></path>
                    <path d="M15.7546955,77.6901152 C13.6762478,76.5602825 8.36252388,76.4878623 4.35974403,79.6847533 C0.456505224,82.8015198 -1.16920373,89.3050879 2.04608731,94.2127144 C5.26137836,99.1199556 11.6239343,99.273656 12.4448597,98.5798856 C13.2657851,97.88573 9.05239328,95.3802981 7.90901642,92.1810957 C7.90901642,92.1810957 10.1873149,93.6345082 11.4871134,93.7716444 C12.7869119,93.9087805 9.50282612,90.5462475 9.16115821,86.9818623 C8.81910597,83.417477 10.5743336,79.5063992 14.896106,79.6789751 L15.7546955,77.6901152 Z" id="Fill-126" fill="#FABA50"></path>
                    <path d="M66.9364332,81.4568533 C66.7039146,81.5019233 66.7896198,80.2149233 66.5079071,80.3381918 C66.2258101,80.4614603 66.6823922,81.1201763 66.6823922,81.1201763 C65.8806832,80.9221763 64.7503735,79.769616 65.2008063,79.0561996 C65.6654593,78.3208261 66.9667951,78.655577 67.2719519,78.7834681 C67.7366049,78.9780012 68.0571347,80.5296432 66.9364332,81.4568533" id="Fill-128" fill="#001C45"></path>
                    <path d="M27.248919,71.6956074 C27.248919,71.6956074 30.112934,71.9321288 31.2098071,75.0357981 C32.3062959,78.1394673 31.0872063,80.0039031 30.1840347,81.00623 C30.1840347,81.00623 34.2483071,80.6183195 36.054266,81.8147942 C37.8606093,83.0104984 37.6991914,85.3387319 37.6991914,85.3387319 L38.6827663,85.3441249 C38.6827663,85.3441249 38.7253481,82.4946969 36.8225384,81.2986074 C34.9193444,80.1025179 33.3124675,79.9530549 32.2482623,80.027016 C32.2482623,80.027016 33.3658892,77.6097981 32.0872287,74.7669187 C30.8085683,71.9251949 28.3780757,71.5338175 27.248919,71.6956074" id="Fill-130" fill="#E09B36"></path>
                    <path d="M42.2009063,80.8395479 C42.2009063,80.8395479 46.4308243,80.3684311 48.2225631,81.7228436 C50.0143019,83.077256 49.8021526,85.3353805 49.8021526,85.3353805 L50.8075556,85.3438553 C50.8075556,85.3438553 51.0715892,82.9304895 49.2506414,81.4582016 C47.4293093,79.9859136 43.4053914,80.4277541 42.2009063,80.8395479" id="Fill-132" fill="#E09B36"></path>
                    <path d="M54.3620549,78.8807346 C54.3620549,78.8807346 54.1864168,77.8240926 55.4327937,77.5463533 C56.7783272,77.247042 57.1388272,78.2559175 57.1388272,78.2559175 C57.1388272,78.2559175 56.4577974,77.993972 55.5615437,78.2139292 C54.9035735,78.3753339 54.3620549,78.8807346 54.3620549,78.8807346" id="Fill-134" fill="#001C45"></path>
                    <path d="M70.2955399,19.2910938 C70.5403571,19.5087397 70.7259877,19.7579732 70.8535847,20.040335 C70.9811817,20.3230821 71.0542041,20.6139187 71.0718832,20.91323 C71.0895623,21.2129265 71.0507451,21.509156 70.9554317,21.8023039 C70.859734,22.0954518 70.7063869,22.3620198 70.494622,22.6012377 C70.2774765,22.8466191 70.0295847,23.0342183 69.7505623,23.1644206 C69.4715399,23.294623 69.1829093,23.3681988 68.8839019,23.3866891 C68.5852787,23.4047942 68.2897302,23.3662728 67.9972563,23.2703545 C67.7047825,23.1744362 67.4365213,23.0180393 67.1917041,22.8003934 C66.9530362,22.5881405 66.7650996,22.3400626 66.629816,22.0553895 C66.4945325,21.7707163 66.4176668,21.4787241 66.3996034,21.1794128 C66.3815399,20.8797163 66.4192041,20.5823311 66.5118272,20.2864868 C66.6044504,19.9910276 66.759719,19.7206074 66.9764802,19.4756113 C67.1882451,19.2360082 67.434984,19.0522611 67.7163123,18.92437 C67.998025,18.7968642 68.2881929,18.7236735 68.5875847,18.7059537 C68.8865922,18.6878486 69.1855996,18.7279109 69.4869131,18.8257553 C69.7870735,18.9235996 70.056872,19.0788409 70.2955399,19.2910938 L70.2955399,19.2910938 Z M59.4459504,8.66535058 L67.6098534,17.1431405 L64.8749728,20.2348681 L55.8244243,12.7597903 L59.4459504,8.66535058 Z" id="Fill-136" fill="#3B55CE"></path>
                    <g id="Group-140" transform="translate(67.257463, 0.000000)">
                        <mask id="mask-6" fill="white">
                            <use xlink:href="#path-5"></use>
                        </mask>
                        <g id="Clip-139"></g>
                        <path d="M10.3707164,14.2919405 C10.4498881,14.6101272 10.4625709,14.9209949 10.4087649,15.2260844 C10.3541903,15.5315591 10.2500373,15.8127654 10.0959216,16.0697031 C9.94180597,16.3270261 9.74233955,16.5492946 9.49829104,16.737279 C9.25462687,16.9248782 8.97752612,17.057777 8.66775746,17.1352051 C8.35030224,17.2145591 8.04014925,17.2288121 7.73652985,17.1779638 C7.43291045,17.1271156 7.15350373,17.0246486 6.89638806,16.8701778 C6.63965672,16.715707 6.41789925,16.5165514 6.23073134,16.2715553 C6.0431791,16.0269444 5.91058582,15.7457381 5.83102985,15.4279366 C5.75377985,15.1174541 5.73917537,14.8062012 5.78798507,14.4949482 C5.83679478,14.1833101 5.93825746,13.8990222 6.09198881,13.6420844 C6.24687313,13.3843763 6.44518657,13.1605669 6.68808209,12.9687304 C6.93136194,12.7776642 7.21153731,12.6424541 7.52899254,12.5631 C7.83876119,12.485672 8.14583955,12.4741156 8.45022761,12.5280455 C8.75461567,12.5827459 9.03479104,12.6867537 9.29152239,12.8412245 C9.54825373,12.9956953 9.77308582,13.1987031 9.96601866,13.4494774 C10.1585672,13.700637 10.2934664,13.981458 10.3707164,14.2919405 M9.1181903,11.5669366 L5.4643806,12.4814346 C5.22302239,11.7283412 5.10695522,11.0761739 5.11541045,10.5257031 C5.12348134,9.97484708 5.20226866,9.49910778 5.3506194,9.09732957 C5.49935448,8.69555136 5.6934403,8.35155525 5.93172388,8.06534125 C6.17077612,7.77951245 6.40944403,7.52411556 6.64849627,7.29915058 C6.88716418,7.07457082 7.09508582,6.86347354 7.27149254,6.66585875 C7.44828358,6.46785875 7.54859328,6.25098327 7.57434328,6.01446187 C7.59240672,5.87193268 7.56973134,5.7182323 7.50554851,5.55374591 C7.44136567,5.39002996 7.32760448,5.24750078 7.16349627,5.12731401 C6.99977239,5.00712724 6.78070522,4.92584708 6.50552612,4.88347354 C6.23111567,4.8411 5.89559701,4.86922062 5.49935448,4.96860584 C5.23993284,5.03332179 4.93746642,5.13386265 4.59272388,5.26984319 C4.24759701,5.40620895 3.89286194,5.57146576 3.52775,5.76676926 C3.16340672,5.96168755 2.80905597,6.17663696 2.46585075,6.41238794 C2.12264552,6.6477537 1.82248507,6.89352023 1.56460075,7.15007276 L0.031130597,3.02211946 C0.258268657,2.79638405 0.518074627,2.55716615 0.810932836,2.30331012 C1.10379104,2.0498393 1.43508209,1.80561362 1.8051903,1.57101829 C2.17606716,1.33642296 2.58768284,1.11608054 3.04195896,0.910761479 C3.49585075,0.705057198 3.9966306,0.533636965 4.54468284,0.396500778 C5.4305597,0.175002724 6.29914179,0.087559144 7.14889179,0.136096109 C7.99941045,0.18424786 8.77959701,0.37261751 9.48906716,0.701590272 C10.1985373,1.03056304 10.8130784,1.4997537 11.3326903,2.1103179 C11.8523022,2.7208821 12.2243321,3.47744241 12.4491642,4.38038405 C12.6201903,5.06645019 12.6601604,5.64118949 12.5690746,6.10575759 C12.4776045,6.56955525 12.3142649,6.97287432 12.077903,7.31571479 C11.8423097,7.65894047 11.559444,7.96749689 11.229306,8.24176926 C10.8995522,8.51604163 10.5828657,8.80456693 10.2792463,9.10695992 C9.97601119,9.40935292 9.7131306,9.75296381 9.49137313,10.1381778 C9.27,10.523777 9.14509328,11.0002868 9.1181903,11.5669366" id="Fill-138" fill="#3B55CE" mask="url(#mask-6)"></path>
                    </g>
                </g>
            </g>
        </g>
    </g>
</svg>