<svg xmlns="http://www.w3.org/2000/svg" width="58" height="74" viewBox="0 0 58 74">
  <g fill="#E0AAA5" transform="translate(0 .518)">
    <path d="M48.8687294,41.6636623 C40.5453269,38.9084322 37.0854004,35.4821429 37.0854004,35.4821429 L36.8068232,35.751257 C34.335024,38.1090447 31.6012348,39.49514 29.1107749,39.49514 L28.8757392,39.49514 C26.3854274,39.49514 23.6516382,38.1090447 21.179839,35.751257 L20.9011137,35.4821429 C20.9011137,35.4821429 17.4414834,38.9082821 9.11793278,41.6636623 C-3.1690864,46.3152989 0.520247949,65.2458927 0.516693534,65.3925321 C0.903680433,67.5008678 1.12923767,68.2255097 1.32576718,68.3068593 C13.6646216,73.873904 44.3221887,73.873904 56.6611912,68.3068593 C56.8577207,68.2255097 57.083278,67.5008678 57.4702649,65.3925321 C57.4667105,65.2458927 61.2053623,46.3904947 48.8687294,41.6636623 Z"/>
    <path d="M41.6951605,18.8169175 L41.5905108,18.7029298 C40.888636,18.0576535 40.9435169,18.0946429 40.9435169,18.0946429 C40.9435169,18.0946429 42.1677382,11.892049 41.1860457,8.95886516 C39.6448681,4.27449745 30.4391516,1.13492783 28.5927458,0.770016085 C28.5930465,0.766543611 27.469716,0.540832787 27.3979949,0.540379856 C27.3979949,0.540379856 25.9456794,0.245521502 24.2624128,0.982742875 C23.1661469,1.40623375 17.4349212,4.01587361 15.8081895,8.95886516 C14.8266474,11.892049 16.0508686,18.0946429 16.0508686,18.0946429 C16.0508686,18.0946429 16.1057496,18.0576535 15.4037244,18.7029298 L15.2992251,18.8169175 C14.824392,19.3583215 14.9416719,21.052285 15.4607104,22.8146412 C15.9310327,24.5803188 16.5440454,25.05484 16.690946,25.4683664 C18.179949,32.4883504 23.3575537,38.4821429 28.6337937,38.4821429 C33.9100338,38.4821429 38.8141359,32.4883504 40.3031389,25.4683664 C40.4501898,25.0549909 41.0632025,24.5803188 41.5335248,22.8146412 C42.0525633,21.052134 42.1835258,19.2419181 41.6951605,18.8169175 Z"/>
  </g>
</svg>
