<?xml version="1.0" encoding="UTF-8"?>
<svg width="21px" height="17px" viewBox="0 0 21 17" version="1.1" xmlns="http://www.w3.org/2000/svg" xmlns:xlink="http://www.w3.org/1999/xlink">
    <title>Shape</title>
    <g id="Page-1" stroke="none" stroke-width="1" fill="none" fill-rule="evenodd">
        <g id="landing-page" transform="translate(-124.000000, -210.000000)" fill="#717070" fill-rule="nonzero">
            <path d="M135.339531,220.81817 L139.914531,226.710185 C140.11357,226.966317 140.447904,227.065014 140.748393,226.956347 C141.048883,226.847679 141.25,226.555344 141.25,226.227233 L141.25,220.81817 L144.25,220.81817 C144.664214,220.81817 145,220.47221 145,220.045447 C145,219.618683 144.664214,219.272723 144.25,219.272723 L141.25,219.272723 L141.25,217.727277 L144.25,217.727277 C144.664214,217.727277 145,217.381317 145,216.954553 C145,216.52779 144.664214,216.18183 144.25,216.18183 L141.25,216.18183 L141.25,210.772767 C141.25,210.346004 140.914214,210 140.5,210 C140.085786,210 139.75,210.346004 139.75,210.772767 L139.75,216.18183 L133.660469,216.18183 L129.085469,210.289815 C128.88643,210.033683 128.552096,209.934986 128.251607,210.043653 C127.951117,210.152321 127.75,210.444656 127.75,210.772767 L127.75,216.18183 L124.75,216.18183 C124.335786,216.18183 124,216.52779 124,216.954553 C124,217.381317 124.335786,217.727277 124.75,217.727277 L127.75,217.727277 L127.75,219.272723 L124.75,219.272723 C124.335786,219.272723 124,219.618683 124,220.045447 C124,220.47221 124.335786,220.81817 124.75,220.81817 L127.75,220.81817 L127.75,226.227233 C127.75,226.653996 128.085786,227 128.5,227 C128.914214,227 129.25,226.653996 129.25,226.227233 L129.25,220.81817 L135.339531,220.81817 Z M139.75,224.024392 L137.260469,220.81817 L139.75,220.81817 L139.75,224.024392 Z M139.75,217.727277 L139.75,219.272723 L136.060469,219.272723 L134.860469,217.727277 L139.75,217.727277 Z M129.25,212.975608 L131.739531,216.18183 L129.25,216.18183 L129.25,212.975608 Z M129.25,217.727277 L132.939531,217.727277 L134.139531,219.272723 L129.25,219.272723 L129.25,217.727277 Z" id="Shape"></path>
        </g>
    </g>
</svg>