<?xml version="1.0" encoding="UTF-8"?>
<svg width="81px" height="128px" viewBox="0 0 81 128" version="1.1" xmlns="http://www.w3.org/2000/svg" xmlns:xlink="http://www.w3.org/1999/xlink">
    <!-- Generator: Sketch 58 (84663) - https://sketch.com -->
    <title>Group 57</title>
    <desc>Created with Sketch.</desc>
    <g id="Page-1" stroke="none" stroke-width="1" fill="none" fill-rule="evenodd">
        <g id="landing-page" transform="translate(-138.000000, -244.000000)">
            <g id="Group-57" transform="translate(138.000000, 244.000000)">
                <path d="M77,121 L65.9099266,121 L58.8643775,68.6234869 C58.8643775,68.6234869 48.6850832,57.3327736 37,55.2182118 L48.129443,54 L73.2140168,54.6923531 L77,121 Z" id="Fill-1" fill="#5E544E"></path>
                <path d="M33.0707756,92.0249625 C33.0707756,92.0249625 26.992304,101.158194 29.6907147,109 L41,92.0249625 L39.5313786,90 L33.0707756,92.0249625 Z" id="Fill-3" fill="#111023"></path>
                <path d="M66.6650355,121 L66.3107601,123.18778 C66.3107601,123.18778 63.175233,123.617356 63,128 L71.1551896,128 L75.5862978,123.766141 L76,121 L66.6650355,121 Z" id="Fill-5" fill="#111023"></path>
                <path d="M52.6797354,68.4101353 L38.8898476,67.8826102 L41.1309762,89.561578 L31.7838792,93 L26.3963107,66.2276861 C24.8212785,61.2389355 28.1151134,56.02239 33.1917831,55.4564167 L37.3007203,55 L37.3055529,55 C48.8998193,57.1208495 59,68.4477566 59,68.4477566 L52.6797354,68.4101353 Z" id="Fill-7" fill="#5E544E"></path>
                <path d="M27,9.25734814 L27,9.87949053 L26.2606191,9.97705748 C26.0701967,9.55780536 25.8678231,9.22346506 25.665051,9.04139451 C24.677882,8.16900718 23.9918831,7.48358916 23.2855673,7.90243305 C22.7525438,8.22003592 22.7939746,9.71456564 22.8433729,10.4216199 L20.8315877,10.6841117 L3.00796747,13 L3,12.9661169 C4.15687609,12.6864794 5.05321603,10.5612345 5.05321603,7.97877204 C5.05321603,5.43019268 4.18157523,3.330258 3.04979666,3 L27,5.76902351 L27,6.2642064 L27,9.25734814 Z" id="Fill-9" fill="#E04805"></path>
                <path d="M4,4.25512761 C3.94911777,4.32454756 3.90233894,4.39359629 3.85966352,4.46672854 C3.59581453,4.92853828 3.47230201,5.45605568 3.14485023,5.87962877 C2.90644235,6.19554524 2.56175626,6.43795824 2.17029134,6.57642691 C1.75748872,6.72269142 1.30652442,6.74607889 0.863766927,6.79990719 C0.57037341,6.83443155 0.2679524,6.88825986 0,7 C0.140336479,4.78227378 1.10627821,3.0575406 2.29380386,3 L2.67665162,3.03860789 C3.18752565,3.16928074 3.6471071,3.60807425 4,4.25512761" id="Fill-11" fill="#5E544E"></path>
                <path d="M4,7.02774058 C3.99274862,7.03577578 3.98929558,7.04381098 3.9820442,7.05146355 C3.72790055,7.42873541 3.60600829,7.90089918 3.36982044,8.28964989 C3.09392265,8.74612588 2.65366022,9.07939545 2.1698895,9.20260187 C1.72237569,9.31356419 1.23895028,9.25387412 0.830455801,9.48000765 C0.622928177,9.59938779 0.45441989,9.78190166 0.32941989,10 C0.121892265,9.25808303 0,8.36885403 0,7.41266501 C0,7.21446336 0.00345303867,7.01970538 0.0179558011,6.8291563 C0.243439227,6.71436771 0.497582873,6.65888655 0.744820442,6.62291946 C1.11705801,6.5674383 1.49689227,6.54371532 1.84426796,6.39295963 C2.17368785,6.24985651 2.46374309,6 2.66436464,5.67476564 C2.93991713,5.23818634 3.04350829,4.69447102 3.26588398,4.21848096 C3.30179558,4.14272049 3.34116022,4.07155156 3.3839779,4 C3.73135359,4.77788406 3.96063536,5.83738282 4,7.02774058" id="Fill-13" fill="#5E544E"></path>
                <path d="M4,7.37802495 C4,9.75514805 3.15492958,11.7114084 2.06422535,11.9688111 C1.98647887,11.9883511 1.90046948,12 1.81859155,12 C1.05915493,12 0.389483568,11.173681 0,9.91898392 C0.135962441,9.70441906 0.318873239,9.52517661 0.544976526,9.40831204 C0.988920188,9.18623178 1.51511737,9.24447618 2.00187793,9.13550278 C2.52769953,9.01450473 3.00657277,8.68720878 3.30666667,8.23929055 C3.56394366,7.85713212 3.69615023,7.3938073 3.97295775,7.02329776 C3.98046948,7.01540658 3.98460094,7.00789118 3.99211268,7 C3.99624413,7.12475575 4,7.2495115 4,7.37802495" id="Fill-15" fill="#5E544E"></path>
                <path d="M42,6 L49,6 C48.2693094,6.30099404 47.647371,6.64333996 47.3663958,6.91530815 C47.1454083,7.12604374 47.2417759,7.50934394 47.5146238,8 L42,8 L42,6 Z" id="Fill-17" fill="#111023"></path>
                <path d="M58,7.20421555 L58,8 L54.6461328,8 C54.3230664,7.13422152 54.0817933,6.40405647 54,6 L58,6 L58,7.20421555 Z" id="Fill-19" fill="#111023"></path>
                <polygon id="Fill-21" fill="#E04805" points="41 8.54582651 41 9 27 9 27 6 41 6 41 6.48772504"></polygon>
                <path d="M28,13.582969 L24.76876,16 C24.76876,16 20.8456145,11.9559958 21.0047113,9.90241591 L23.0974147,9.64042148 C23.0460397,8.9347071 23.0025366,7.44300945 23.5568896,7.12600842 C24.2918838,6.70795822 25.0049194,7.39248487 26.0320054,8.2628116 C26.2428915,8.44453713 26.4533634,8.77824387 26.6509915,9.19670153 C27.4071157,10.7898558 28,13.582969 28,13.582969" id="Fill-23" fill="#776A62"></path>
                <path d="M6.09360366,3.20951231 C5.89534406,2.74065612 5.25375923,3.14088919 5.45049669,3.60563621 C6.67087779,6.48945105 6.51409669,9.66214048 5.05207479,12.4054217 C4.81423937,12.8508557 5.45468259,13.2514997 5.69289855,12.8052439 C7.29077203,9.80719415 7.42281826,6.35138297 6.09360366,3.20951231" id="Fill-25" fill="#5E544E"></path>
                <polygon id="Fill-27" fill="#E04805" points="62 17.3474938 62 20 59 17"></polygon>
                <path d="M62.4946656,19.0340825 L65.4513632,21.9108812 L68.2730537,24.6565533 C68.2730537,24.6565533 74.7366746,19.9931555 77.244708,19.9536494 C77.4225422,19.9494466 77.591811,19.9624752 77.7565932,19.9885324 C79.9693239,20.3113055 81.3226585,22.9481258 80.9335442,25.4760942 C80.5146549,28.2003322 80.5909278,31.216663 78.0441462,31.704605 C75.4977724,32.1971701 64.2799416,35 64.2799416,35 L52,17.8354514 L53.4463305,16.7935838 L56.6701874,14.4707107 L57.3211585,14 L58.7385297,15.377249 L59.5591775,16.1749355 L62.4946656,19.0340825 Z" id="Fill-29" fill="#E04805"></path>
                <path d="M70.8474925,18 L78,20.7137108 C77.8393052,20.6893985 77.6742351,20.6774354 77.5012099,20.6816804 C75.0549902,20.7175699 68.7516988,25 68.7516988,25 L66,22.4784718 L70.8474925,18 Z" id="Fill-31" fill="#E04805"></path>
                <path d="M78,31.987951 L73.7684515,43.6150675 L73.2011655,54.9367559 C73.2011655,54.9367559 72.7056007,55.0258902 71.8437311,55.1489609 C67.8095171,55.7295604 55.7194365,57.1205457 48.1591348,54.2498496 L51.1053752,40.1846245 L49.7438888,29.0919048 L33.3124493,30.923655 L23,17.4815521 L24.3740478,16.4254336 L27.5342361,14 L37.2798046,23.6048315 L52.5300735,16.8792824 C53.0847982,17.282431 53.5633445,17.4815521 53.5633445,17.4815521 L52.1260848,18.4951478 L64.3259758,35.1935139 C64.3259758,35.1935139 75.4703096,32.4671499 78,31.987951" id="Fill-33" fill="#E04805"></path>
                <path d="M57,14.7057931 L53.7825185,17 C53.7825185,17 53.3013008,16.7978873 52.7439514,16.3886818 C52.0176466,15.8595368 51.1602486,14.9855137 51.0548041,13.754577 C50.9155686,12.1019844 48.1797118,9.41185251 47.2844516,7.80615668 C46.9974309,7.29444229 46.8960576,6.89395211 47.128524,6.6744088 C47.4240943,6.39012303 48.0783386,6.0332095 48.846984,5.7190426 C50.548345,5.03053152 52.8156048,4.56114873 53.0224226,5.63271933 C53.0264938,5.65886532 53.0354504,5.68874645 53.0435929,5.7190426 C53.1408949,6.14069858 53.4279156,6.90266744 53.8122383,7.80615668 C54.9774202,10.5784617 57,14.7057931 57,14.7057931" id="Fill-35" fill="#776A62"></path>
                <path d="M73.7477644,43 C54.9911829,39.0239758 52,18 52,18 L64.2595336,34.6308576 L78,31.4283901 L73.7477644,43 Z" id="Fill-37" fill="#C13B06"></path>
                <path d="M70.9971681,7.41432578 C71.3898906,7.30705772 71.786641,7.38572096 71.9453411,8.00350549 C72.3130905,9.41706006 70.7047409,11.114279 70.7047409,11.114279 L71.1018941,17.3894602 L66.1930646,22 L68.1147865,16.5777986 L63.2732233,16.8908624 L60.3743273,16.5777986 L59.5639092,15.8237439 C59.5639092,15.8237439 59,10.6200514 59,7.56688479 C59,6.86209395 59.029001,6.27291423 59.104726,5.88992755 L59.1292963,5.74173872 C62.5216129,6.30588923 67.2294491,5 67.2294491,5 C67.2294491,5 67.8892229,11.3367609 68.7914776,11.4480019 C69.6941351,11.5552699 69.9736729,8.00350549 69.9736729,8.00350549 C69.9736729,8.00350549 70.4876359,7.55019864 70.9971681,7.41432578" id="Fill-39" fill="#6D665C"></path>
                <path d="M70,2.77103543 L69.9621396,7.69012476 C69.4530378,7.83521562 68.9387001,8.31927607 68.9387001,8.31927607 C68.9387001,8.31927607 68.6591774,12.1120021 67.7569718,11.9974567 C66.8543634,11.8786689 66.1946255,5.11200438 66.1946255,5.11200438 C66.1946255,5.11200438 61.4870454,6.50648877 58.0949133,5.90364048 L58.0949133,5.89939806 C57.0299884,5.71442842 56.0983805,5.32751946 55.480128,4.64109544 C52.8862868,1.76346 53.7884924,0.131399919 57.506063,1.02018751 C61.2236335,1.90855086 68.9306447,-2.80350823 70,2.77103543" id="Fill-41" fill="#111023"></path>
                <polygon id="Fill-43" fill="#685F5A" points="67 17 65.4123128 22 63 19.4923066 63 17.288687"></polygon>
                <path d="M58.2119463,6.3101525 C59.0335029,5.94647924 59.8874077,5.90307308 60.7510613,6.17758773 C61.278825,6.34534669 60.8808974,7.03006913 60.3602237,6.86465646 C59.8165075,6.6918139 59.2023341,6.72622599 58.6865348,6.9549882 C58.1911194,7.1743653 57.7112133,6.53226692 58.2119463,6.3101525" id="Fill-45" fill="#111023"></path>
                <path d="M65.9984525,7.96494725 C66.0199938,8.51672997 65.8141151,8.97980778 65.5386685,8.99936101 C65.2632218,9.01891425 65.0227357,8.58731238 65.0015475,8.03505275 C64.9800062,7.48327003 65.1858849,7.02019222 65.4613315,7.00063899 C65.7367782,6.98108575 65.9769112,7.41268762 65.9984525,7.96494725" id="Fill-47" fill="#111023"></path>
                <path d="M66.7540745,6.19471033 C65.8954927,5.90350765 65.0413389,5.93970908 64.2150813,6.29814297 C63.7107365,6.51734062 64.1867423,7.17294446 64.6853308,6.95692936 C65.2051735,6.73096881 65.8193318,6.70869101 66.3586575,6.89128941 C66.8771718,7.06712491 67.278788,6.37253491 66.7540745,6.19471033" id="Fill-49" fill="#111023"></path>
                <path d="M60.0310777,10.0505624 C60.3316035,9.05770378 61.0666476,8.04747937 61.5633767,7.09369395 C61.6672208,6.89498865 62.0864257,7.04493601 61.9840172,7.24096964 C61.6710492,7.84276282 61.3571241,8.44388809 61.0441561,9.04568128 C60.936005,9.25407137 60.6718485,9.59871652 60.6412217,9.81912912 C60.5392918,10.568198 61.0302783,10.5097553 61.5858683,10.6900928 C61.8610313,10.7795937 61.6490361,11.0724753 61.3748302,10.9833084 C60.6914689,10.76156 59.8243465,10.7318377 60.0310777,10.0505624" id="Fill-51" fill="#91867E"></path>
                <path d="M60.9164988,8.82409559 C60.4747873,8.3827159 59.9735407,8.09263235 59.4084381,8.00328424 C59.0613104,7.94788841 58.9167939,8.61085142 59.2692029,8.66624725 C59.5543949,8.71211262 59.824223,8.81277816 60.0762867,8.9640743 L59.1928636,9.32027545 C58.8558186,9.45608459 58.9969742,10.1184519 59.3359398,9.9814515 C59.8208622,9.78607696 60.3062647,9.59129807 60.790707,9.39532787 C60.9673916,9.32444503 61.0893424,8.99743093 60.9164988,8.82409559" id="Fill-53" fill="#111023"></path>
                <path d="M63,14.5 C63,15.3287338 62.5521688,16 61.9996092,16 C61.4474404,16 61,15.3287338 61,14.5 C61,13.6712662 61.4474404,13 61.9996092,13 C62.5521688,13 63,13.6712662 63,14.5" id="Fill-55" fill="#FFFFFF"></path>
            </g>
        </g>
    </g>
</svg>