<?xml version="1.0" encoding="UTF-8"?>
<svg width="20px" height="29px" viewBox="0 0 20 29" version="1.1" xmlns="http://www.w3.org/2000/svg" xmlns:xlink="http://www.w3.org/1999/xlink">
    <!-- Generator: Sketch 58 (84663) - https://sketch.com -->
    <title>money (6)</title>
    <desc>Created with Sketch.</desc>
    <g id="Page-1" stroke="none" stroke-width="1" fill="none" fill-rule="evenodd">
        <g id="landing-page" transform="translate(-45.000000, -126.000000)" fill="#571D04" fill-rule="nonzero">
            <g id="money-(6)" transform="translate(45.000000, 126.000000)">
                <path d="M14.5,25 C14.2238667,25 14,25.2225242 14,25.4971497 L14,28.5028503 C14,28.7774758 14.2238667,29 14.5,29 C14.7761333,29 15,28.7774758 15,28.5028503 L15,25.4971497 C15,25.2225905 14.7761333,25 14.5,25 Z" id="Path"></path>
                <path d="M19.5228335,15.3543172 C19.2635376,15.0721291 18.9339109,14.8832862 18.5712992,14.8046678 C19.2677865,14.0809588 19.2623076,12.9180514 18.5548626,12.2012528 C18.2605131,11.9029784 17.8835892,11.7188934 17.476308,11.6709747 C17.745108,11.0117805 17.6372078,10.2264455 17.1425442,9.68846422 C16.8451757,9.36487111 16.4553374,9.16402022 16.0293273,9.11134359 C16.123139,8.88619348 16.1723929,8.64212509 16.1723929,8.39035346 C16.1723929,7.8954197 15.9821979,7.43010947 15.6367496,7.08012141 C15.2914131,6.73030327 14.8329211,6.53772204 14.3459726,6.53772204 C14.1856877,6.53687242 14.0288132,6.55760322 13.8779206,6.59759215 L7.6380473,0.275773487 C7.27515605,-0.091943376 6.68466809,-0.0918867345 6.32177684,0.275716845 L5.00634499,1.60843559 C4.84259388,1.77439529 4.84259388,2.04332931 5.00634499,2.20923238 C5.1700961,2.3750788 5.43559765,2.3750788 5.59929285,2.20923238 L6.9146688,0.876513635 C6.9506728,0.840036485 7.00909544,0.840036485 7.04504353,0.876513635 L13.1111025,7.02223376 C13.0906965,7.04115203 13.0705142,7.06046679 13.0507791,7.08046126 L12.6177247,7.51920661 L7.27633009,2.10761746 C7.11257898,1.94177103 6.84707744,1.94177103 6.68338223,2.10761746 L2.08079638,6.77068869 C2.00213547,6.85038333 1.95796907,6.95839874 1.95796907,7.0711154 C1.95796907,7.18383206 2.00213547,7.29179083 2.08079638,7.37154212 L4.28598546,9.60565429 C4.36783307,9.6885775 4.47517418,9.73003911 4.58245939,9.73003911 C4.6897446,9.73003911 4.79708572,9.6885775 4.87893332,9.60565429 C5.04268443,9.43969458 5.04268443,9.17076056 4.87893332,9.0048575 L2.97021817,7.0711154 L6.97985616,3.00878432 L12.024721,8.11994676 L11.2787561,8.87571479 C11.2286636,8.3351846 10.9968739,7.83368043 10.6131853,7.44494955 L10.6131853,7.44500619 C10.1772238,7.00325884 9.59758176,6.75998344 8.98104122,6.75998344 C8.36450067,6.75998344 7.78485864,7.00325884 7.34889716,7.44494955 C6.91293569,7.88664026 6.67281584,8.47389973 6.67281584,9.0985426 C6.67281584,9.72318548 6.91287978,10.3104449 7.34889716,10.7521357 C7.74326396,11.1516851 8.24592228,11.3760988 8.76199825,11.4254903 L8.01513888,12.1821646 L6.29919048,10.4436658 C6.13543937,10.2778194 5.86993783,10.2778194 5.70624262,10.4436658 C5.54249151,10.6096255 5.54249151,10.8785596 5.70624262,11.0444626 L7.42219102,12.7829047 L6.93032271,13.281237 L0.86560548,7.13721608 C0.843298654,7.1146161 0.83860248,7.08884421 0.83860248,7.07117205 C0.83860248,7.05349989 0.843298654,7.02772799 0.86560548,7.00518465 L4.17903569,3.648154 C4.3427868,3.48219429 4.3427868,3.21326027 4.17903569,3.04735721 C4.01528458,2.88151079 3.74978304,2.88151079 3.58608783,3.04735721 L0.27265762,6.40438786 C0.0968306331,6.5825255 0,6.81928713 0,7.07117205 C0,7.32300032 0.0968306331,7.55981859 0.272601713,7.73795623 L3.70433078,11.2147837 L3.70433078,13.9895394 C3.70433078,14.7018067 3.86131717,15.4201913 4.15829426,16.0670377 L7.05533039,22.3754323 L6.91506015,28.5654461 C6.909749,28.7999987 7.09312341,28.9945058 7.3246336,29 C7.3279321,29 7.3311747,29 7.3344732,29 C7.56156675,29 7.74823966,28.8161982 7.75349491,28.5849308 L7.89600142,22.295851 C7.897455,22.2307132 7.88414917,22.1660286 7.85697845,22.1068948 L4.91868308,15.7086667 C4.67291665,15.1733475 4.54298917,14.5789512 4.54298917,13.9895394 L4.54298917,12.0641802 L6.33720713,13.8820337 L5.65011216,14.5781582 C5.48636105,14.7440613 5.48636105,15.013052 5.65011216,15.1788984 C5.73201567,15.2618782 5.83930088,15.3033398 5.946642,15.3033398 C6.05392721,15.3033398 6.16126833,15.2618782 6.24311593,15.178955 L13.6438387,7.68125805 C13.830903,7.49167882 14.0795766,7.38734511 14.3444631,7.38734511 L14.3455813,7.38734511 C14.6089584,7.38734511 14.8569611,7.49162218 15.0438576,7.6809182 C15.230866,7.87044078 15.3338464,8.12238234 15.3338464,8.39035346 C15.3338464,8.65832457 15.230866,8.91026613 15.0438576,9.09967543 L12.9783797,11.192297 C12.8146286,11.3582567 12.8146286,11.6271908 12.9783797,11.7930938 C13.0602273,11.876017 13.1675684,11.9174787 13.2748536,11.9174787 C13.3821388,11.9174787 13.48948,11.876017 13.5713276,11.7930938 C13.5713276,11.7930938 15.0870177,10.2574285 15.1033984,10.2408891 C15.2952147,10.046552 15.5518271,9.94301129 15.8214657,9.94714612 C16.0923902,9.95207393 16.3435796,10.0657535 16.5289108,10.2673974 C16.8874972,10.6573744 16.8653581,11.2926658 16.4795451,11.6834358 L14.2873264,13.9048036 C14.1235753,14.0707633 14.1235753,14.3396974 14.2873264,14.5056004 C14.369174,14.5885236 14.4765151,14.6299852 14.5838003,14.6299852 C14.6910855,14.6299852 14.7984266,14.5885236 14.8802742,14.5056004 C14.8802742,14.5056004 16.5476955,12.8159267 16.5615045,12.8019363 L16.5615045,12.8018796 C16.7485687,12.6123004 16.9972423,12.5079667 17.2616257,12.5079667 C17.526065,12.5079667 17.7747386,12.612357 17.9618029,12.8018796 C18.3478396,13.1930461 18.3478396,13.8295837 17.9618029,14.2206935 L15.7854058,16.4256353 C15.6216547,16.591595 15.6216547,16.860529 15.7854058,17.0264321 C15.8672534,17.1093553 15.9745946,17.1508169 16.0818798,17.1508169 C16.189165,17.1508169 16.2965061,17.1093553 16.3783537,17.0264321 C16.3783537,17.0264321 17.4636171,15.9269632 17.4835759,15.9067421 C17.6753922,15.712405 17.9306628,15.6088643 18.201755,15.6129991 C18.4726236,15.6178703 18.723813,15.7316065 18.9090883,15.9331371 C19.2676747,16.3231707 19.2455356,16.9584622 18.8597784,17.3492322 L14.3928226,21.8748911 C14.3141616,21.9545857 14.2699952,22.0626011 14.2699952,22.1753178 L14.2699952,23.9717608 C14.2699952,24.2064267 14.4577304,24.3965723 14.6892965,24.3965723 C14.9208626,24.3965723 15.1085977,24.2064267 15.1085977,23.9717608 L15.1085977,22.351303 L19.4527822,17.9500856 C20.1540775,17.2396308 20.1854971,16.0750808 19.5228335,15.3543172 Z M7.94190093,10.1513955 C7.66432351,9.87017027 7.51147423,9.49633612 7.51147423,9.09859925 C7.51147423,8.70086237 7.66432351,8.32702822 7.94195684,8.04574634 C8.21947835,7.76452111 8.58851935,7.60966314 8.98109712,7.60966314 C9.3736749,7.60966314 9.7427159,7.76452111 10.0202374,8.04574634 L10.0202374,8.04580298 C10.2978148,8.32702822 10.4506641,8.70086237 10.4506641,9.09859925 C10.4506641,9.49106846 10.3015606,9.86014472 10.0309156,10.1400106 L10.0094474,10.1617609 C9.43561967,10.7316881 8.51136792,10.7284029 7.94190093,10.1513955 Z" id="Shape"></path>
            </g>
        </g>
    </g>
</svg>