<?xml version="1.0" encoding="UTF-8"?>
<svg width="25px" height="23px" viewBox="0 0 25 23" version="1.1" xmlns="http://www.w3.org/2000/svg" xmlns:xlink="http://www.w3.org/1999/xlink">
    <!-- Generator: Sketch 58 (84663) - https://sketch.com -->
    <title>Group 2</title>
    <desc>Created with Sketch.</desc>
    <g id="Page-1" stroke="none" stroke-width="1" fill="none" fill-rule="evenodd">
        <g id="landing-page" transform="translate(-127.000000, -128.000000)" fill="#571D04" fill-rule="nonzero">
            <g id="Group-2" transform="translate(127.000000, 128.000000)">
                <path d="M2.5,13 C2.224,13 2,13.224 2,13.5 C2,13.776 2.224,14 2.5,14 C2.776,14 3,13.776 3,13.5 C3,13.224 2.776,13 2.5,13 Z" id="Path"></path>
                <path d="M24.1994141,15.497187 C23.697998,15.152313 23.054541,15.0681391 22.4782227,15.2720217 C22.4740234,15.2735043 22.469873,15.2750348 22.4657227,15.2766609 L17.851416,17.0499087 C17.8641113,16.9619565 17.8710938,16.8727609 17.8710938,16.7826087 C17.8710938,15.7277565 16.9949219,14.8695652 15.9179688,14.8695652 L12.7558594,14.8695652 C12.6720215,14.8695652 12.589209,14.8483783 12.5162109,14.8080609 L9.93647461,13.3868609 C9.42636719,13.1053087 8.84677734,12.9565217 8.26025391,12.9565217 L5.02929688,12.9565217 L5.02929688,12.4782609 C5.02929688,12.2141174 4.81069336,12 4.54101562,12 L0.48828125,12 C0.218603516,12 0,12.2141174 0,12.4782609 L0,21.0869565 C0,21.3511 0.218603516,21.5652174 0.48828125,21.5652174 L4.54101562,21.5652174 C4.81069336,21.5652174 5.02929688,21.3511 5.02929688,21.0869565 L5.02929688,20.6086957 L5.39663086,20.6086957 L10.0552246,22.455787 C10.966748,22.8168739 11.9271484,23 12.909668,23 C14.0044434,23 15.0644531,22.7748826 16.0601562,22.3310087 C16.0626465,22.3299087 16.0650879,22.3288087 16.0675293,22.3276609 L23.8319336,18.7118174 C24.5420898,18.4264391 25,17.7585957 25,17.0059565 C25,16.4059304 24.7007324,15.8419174 24.1994141,15.497187 Z M4.05273438,20.6086957 L0.9765625,20.6086957 L0.9765625,12.9565217 L4.05273438,12.9565217 L4.05273438,20.6086957 Z M23.4537598,17.8298087 C23.4442383,17.8335391 23.4348145,17.8375565 23.4255859,17.8418609 L15.6521484,21.461913 C14.7853516,21.8478217 13.8626465,22.0434783 12.909668,22.0434783 C12.0531738,22.0434783 11.2160156,21.8838348 10.4214844,21.5690913 L5.67490234,19.6871348 C5.61669922,19.6640826 5.55449219,19.6522217 5.49169922,19.6522217 L5.02929687,19.6522217 L5.02929687,13.9130435 L8.26025391,13.9130435 C8.67915039,13.9130435 9.09301758,14.0192652 9.45742187,14.2203739 L12.037207,15.6416217 C12.2559082,15.762287 12.5044434,15.826087 12.7558594,15.826087 L15.9179687,15.826087 C16.4564453,15.826087 16.8945312,16.2551826 16.8945312,16.7826087 C16.8945312,17.1138043 16.7173828,17.4222348 16.4293457,17.5963696 L16.4257812,17.5977565 C16.3888184,17.6120087 16.3549805,17.6305652 16.323877,17.6519913 C16.1976074,17.7089043 16.0590332,17.7391304 15.9179687,17.7391304 L10.9541016,17.7391304 C10.1463867,17.7391304 9.48925781,18.3827739 9.48925781,19.173913 C9.48925781,19.4380565 9.70786133,19.6521739 9.97753906,19.6521739 C10.2472168,19.6521739 10.4658203,19.4380565 10.4658203,19.173913 C10.4658203,18.9102 10.6848633,18.6956522 10.9541016,18.6956522 L15.9179687,18.6956522 C16.2455566,18.6956522 16.5673828,18.6141087 16.8511719,18.4617826 L22.8155273,16.1696696 C23.0953613,16.0726304 23.3949707,16.1127087 23.6382812,16.2800043 C23.8830566,16.4483522 24.0234375,16.7129261 24.0234375,17.0059565 C24.0234375,17.3707261 23.7998047,17.6941261 23.4537598,17.8298087 Z" id="Shape"></path>
                <path d="M2.5,15 C2.22385,15 2,15.22385 2,15.5 L2,18.5 C2,18.77615 2.22385,19 2.5,19 C2.77615,19 3,18.77615 3,18.5 L3,15.5 C3,15.22385 2.77615,15 2.5,15 Z" id="Path"></path>
                <path d="M19,8 C17.3458,8 16,9.3458 16,11 C16,12.6542 17.3458,14 19,14 C20.6542,14 22,12.6542 22,11 C22,9.3458 20.6542,8 19,8 Z M19,13 C17.8972,13 17,12.1028 17,11 C17,9.8972 17.8972,9 19,9 C20.1028,9 21,9.8972 21,11 C21,12.1028 20.1028,13 19,13 Z" id="Shape"></path>
                <path d="M17,0 C15.3458,0 14,1.3458 14,3 C14,4.6542 15.3458,6 17,6 C18.6542,6 20,4.6542 20,3 C20,1.3458 18.6542,0 17,0 Z M17,5 C15.8972,5 15,4.1028 15,3 C15,1.8972 15.8972,1 17,1 C18.1028,1 19,1.8972 19,3 C19,4.1028 18.1028,5 17,5 Z" id="Shape"></path>
                <path d="M12,6 C10.3458,6 9,7.3458 9,9 C9,10.6542 10.3458,12 12,12 C13.6542,12 15,10.6542 15,9 C15,7.3458 13.6542,6 12,6 Z M12,11 C10.8972,11 10,10.1028 10,9 C10,7.8972 10.8972,7 12,7 C13.1028,7 14,7.8972 14,9 C14,10.1028 13.1028,11 12,11 Z" id="Shape"></path>
            </g>
        </g>
    </g>
</svg>