<?xml version="1.0" encoding="UTF-8"?>
<svg width="21px" height="18px" viewBox="0 0 21 18" version="1.1" xmlns="http://www.w3.org/2000/svg" xmlns:xlink="http://www.w3.org/1999/xlink">
    <!-- Generator: Sketch 58 (84663) - https://sketch.com -->
    <title>cash (1)</title>
    <desc>Created with Sketch.</desc>
    <g id="Page-1" stroke="none" stroke-width="1" fill="none" fill-rule="evenodd">
        <g id="landing-page" transform="translate(-20.000000, -202.000000)" fill="#807F7F" fill-rule="nonzero">
            <g id="cash-(1)" transform="translate(20.000000, 202.000000)">
                <path d="M20.65,11.1034483 L11.9,11.1034483 L11.9,8.34482759 C11.9,8.15438457 11.7432997,8 11.55,8 L0.35,8 C0.156700338,8 0,8.15438457 0,8.34482759 L0,14.5517241 C0,14.7421672 0.156700338,14.8965517 0.35,14.8965517 L9.1,14.8965517 L9.1,17.6551724 C9.1,17.8456154 9.25670034,18 9.45,18 L20.65,18 C20.8432997,18 21,17.8456154 21,17.6551724 L21,11.4482759 C21,11.2578328 20.8432997,11.1034483 20.65,11.1034483 Z M11.2,8.68965517 L11.2,9.31724138 C10.9036859,9.21150098 10.6703265,8.98159023 10.563,8.68965517 L11.2,8.68965517 Z M0.7,8.68965517 L1.337,8.68965517 C1.2296735,8.98159023 0.996314082,9.21150098 0.7,9.31724138 L0.7,8.68965517 Z M0.7,14.2068966 L0.7,13.5793103 C0.996314082,13.6850507 1.2296735,13.9149615 1.337,14.2068966 L0.7,14.2068966 Z M2.065,14.2068966 C1.9239374,13.5300067 1.38704322,13.0010469 0.7,12.862069 L0.7,10.0344828 C1.38704322,9.89550483 1.9239374,9.36654504 2.065,8.68965517 L9.835,8.68965517 C9.9760626,9.36654504 10.5129568,9.89550483 11.2,10.0344828 L11.2,12.862069 C10.5129568,13.0010469 9.9760626,13.5300067 9.835,14.2068966 L2.065,14.2068966 Z M11.2,13.5793103 L11.2,14.2068966 L10.563,14.2068966 C10.6703265,13.9149615 10.9036859,13.6850507 11.2,13.5793103 L11.2,13.5793103 Z M9.8,17.3103448 L9.8,16.6827586 C10.0963141,16.788499 10.3296735,17.0184098 10.437,17.3103448 L9.8,17.3103448 Z M20.3,17.3103448 L19.663,17.3103448 C19.7703265,17.0184098 20.0036859,16.788499 20.3,16.6827586 L20.3,17.3103448 Z M20.3,15.9655172 C19.6129568,16.1044952 19.0760626,16.633455 18.935,17.3103448 L11.165,17.3103448 C11.0239374,16.633455 10.4870432,16.1044952 9.8,15.9655172 L9.8,14.8965517 L11.55,14.8965517 C11.7432997,14.8965517 11.9,14.7421672 11.9,14.5517241 L11.9,11.7931034 L18.935,11.7931034 C19.0760626,12.4699933 19.6129568,12.9989531 20.3,13.137931 L20.3,15.9655172 Z M20.3,12.4206897 C20.0036859,12.3149493 19.7703265,12.0850385 19.663,11.7931034 L20.3,11.7931034 L20.3,12.4206897 Z" id="Shape"></path>
                <path d="M15.5,17 C16.8807119,17 18,15.8807119 18,14.5 C18,13.1192881 16.8807119,12 15.5,12 C14.1192881,12 13,13.1192881 13,14.5 C13.0015745,15.8800592 14.1199408,16.9984255 15.5,17 Z M15.5,12.7142857 C16.4862228,12.7142857 17.2857143,13.5137772 17.2857143,14.5 C17.2857143,15.4862228 16.4862228,16.2857143 15.5,16.2857143 C14.5137772,16.2857143 13.7142857,15.4862228 13.7142857,14.5 C13.7154665,13.5142667 14.5142667,12.7154665 15.5,12.7142857 Z" id="Shape"></path>
                <path d="M5.5,9 C4.11928813,9 3,10.1192881 3,11.5 C3,12.8807119 4.11928813,14 5.5,14 C6.88071187,14 8,12.8807119 8,11.5 C7.99842549,10.1199408 6.88005916,9.00157451 5.5,9 L5.5,9 Z M5.5,13.2857143 C4.51377723,13.2857143 3.71428571,12.4862228 3.71428571,11.5 C3.71428571,10.5137772 4.51377723,9.71428571 5.5,9.71428571 C6.48622277,9.71428571 7.28571429,10.5137772 7.28571429,11.5 C7.28453353,12.4857333 6.48573327,13.2845335 5.5,13.2857143 L5.5,13.2857143 Z" id="Shape"></path>
                <path d="M17.2142859,9.86666667 C17.2817339,9.95060195 17.3875868,10 17.5,10 C17.6124132,10 17.7182661,9.95060195 17.7857141,9.86666667 L19.9285694,7.2 C20.0097348,7.09899412 20.0227905,6.96385681 19.9622934,6.8509288 C19.9017963,6.73800079 19.778131,6.66666667 19.6428554,6.66666667 L18.9285703,6.66666667 L18.9285703,4 L18.2142851,4 L18.2142851,7 C18.2142851,7.18409492 18.3741833,7.33333333 18.5714277,7.33333333 L18.9285703,7.33333333 L17.5,9.111 L16.0714297,7.33333333 L16.4285723,7.33333333 C16.6258167,7.33333333 16.7857149,7.18409492 16.7857149,7 L16.7857149,6 L16.0714297,6 L16.0714297,6.66666667 L15.3571446,6.66666667 C15.221869,6.66666667 15.0982037,6.73800079 15.0377066,6.8509288 C14.9772095,6.96385681 14.9902652,7.09899412 15.0714306,7.2 L17.2142859,9.86666667 Z" id="Path"></path>
                <polygon id="Path" points="16 4 17 4 17 5 16 5"></polygon>
                <path d="M1.35714462,3.33003263 L2.07142975,3.33003263 L2.07142975,6 L2.78571487,6 L2.78571487,2.9962867 C2.78571487,2.81196392 2.6258167,2.66254078 2.42857231,2.66254078 L2.07142975,2.66254078 L3.5,0.882673782 L4.92857025,2.66254078 L4.57142769,2.66254078 C4.3741833,2.66254078 4.21428513,2.81196392 4.21428513,2.9962867 L4.21428513,3.99752447 L4.92857025,3.99752447 L4.92857025,3.33003263 L5.64285538,3.33003263 C5.778131,3.33003263 5.9017963,3.25861021 5.9622934,3.14554242 C6.0227905,3.03247463 6.0097348,2.89717006 5.92856943,2.79603915 L3.78571405,0.126071777 C3.71543075,0.0462494976 3.6106164,0 3.5,0 C3.3893836,0 3.28456925,0.0462494976 3.21428595,0.126071777 L1.07143057,2.79603915 C0.990265196,2.89717006 0.977209503,3.03247463 1.0377066,3.14554242 C1.0982037,3.25861021 1.221869,3.33003263 1.35714462,3.33003263 Z" id="Path"></path>
                <polygon id="Path" points="4 5 5 5 5 6 4 6"></polygon>
            </g>
        </g>
    </g>
</svg>