<?xml version="1.0" encoding="UTF-8"?>
<svg width="8px" height="18px" viewBox="0 0 8 18" version="1.1" xmlns="http://www.w3.org/2000/svg" xmlns:xlink="http://www.w3.org/1999/xlink">
    <title>Path</title>
    <g id="Page-1" stroke="none" stroke-width="1" fill="none" fill-rule="evenodd">
        <g id="landing-page" transform="translate(-329.000000, -474.000000)" fill="#D94F00" fill-rule="nonzero">
            <g id="up-and-down" transform="translate(329.000000, 474.000000)">
                <path d="M7.42853763,4.55174236 C7.2769467,4.55192139 7.13152895,4.49195212 7.02446884,4.38509256 L3.9999886,1.37361685 L0.975508352,4.38509256 C0.75234732,4.6072923 0.390531808,4.6072923 0.167370781,4.38509256 C-0.0557902457,4.16289282 -0.0557902495,3.80263586 0.167370773,3.58043612 L3.59591981,0.16665588 C3.7030836,0.059948208 3.84843221,0 3.9999886,0 C4.15154499,0 4.2968936,0.059948208 4.40405739,0.16665588 L7.83260642,3.58043612 C7.99604157,3.74315886 8.04493432,3.98788748 7.956485,4.2005 C7.86803568,4.41311252 7.65966388,4.55174236 7.42853763,4.55174236 Z M4.40405739,17.8333441 L7.83260642,14.4195639 C8.05576745,14.1973641 8.05576744,13.8371072 7.83260642,13.6149074 C7.60944539,13.3927077 7.24762987,13.3927077 7.02446884,13.6149074 L3.9999886,16.6263832 L0.975508352,13.6149074 C0.752347321,13.3927077 0.390531803,13.3927077 0.167370773,13.6149074 C-0.0557902576,13.8371072 -0.0557902576,14.1973641 0.167370773,14.4195639 L3.59591981,17.8333441 C3.7030836,17.9400518 3.84843221,18 3.9999886,18 C4.15154499,18 4.2968936,17.9400518 4.40405739,17.8333441 Z" id="Shape"></path>
            </g>
        </g>
    </g>
</svg>