<svg width="1872.000000pt" height="961.000000pt" viewBox="0 0 1872.000000 961.000000" xmlns="http://www.w3.org/2000/svg">
  <g transform="translate(0.000000,961.000000) scale(0.100000,-0.100000)" fill="#cfd2e1" stroke="none">
    <path d="M4090 9575 c0 -19 -4 -35 -9 -35 -5 0 -11 -30 -14 -67 -5 -75 -26
-187 -52 -278 -9 -33 -19 -75 -22 -92 -3 -18 -9 -33 -14 -33 -5 0 -9 -9 -9
-19 0 -11 -4 -23 -10 -26 -5 -3 -10 -16 -10 -28 0 -12 -9 -37 -20 -55 -11 -18
-20 -39 -20 -46 0 -13 -15 -47 -42 -96 -4 -8 -26 -53 -49 -100 -23 -47 -46
-86 -50 -88 -5 -2 -9 -12 -9 -22 0 -11 -6 -23 -13 -27 -16 -9 -87 -119 -87
-133 0 -6 -4 -10 -8 -10 -5 0 -15 -11 -22 -25 l-13 -25 -19 0 -18 0 0 -25 c0
-14 -4 -25 -10 -25 -5 0 -10 -7 -10 -15 0 -8 -4 -15 -8 -15 -5 0 -44 -36 -88
-80 -159 -162 -177 -180 -181 -180 -2 0 -11 -6 -18 -12 -35 -32 -45 -38 -60
-38 -8 0 -15 -5 -15 -12 0 -16 -51 -68 -66 -68 -7 0 -41 -19 -76 -43 -35 -23
-75 -48 -90 -54 -16 -7 -28 -17 -28 -23 0 -5 -7 -10 -15 -10 -15 0 -56 -19
-65 -31 -9 -11 -179 -89 -195 -89 -8 0 -15 -7 -15 -15 l0 -15 -19 0 c-21 0
-123 -31 -131 -40 -9 -10 -50 -30 -60 -30 -11 0 -87 -35 -235 -106 -38 -18
-83 -35 -100 -36 l-30 -3 -11 -23 -12 -24 -4 13 -4 13 -45 -14 c-24 -8 -46
-17 -49 -20 -3 -4 -25 -14 -50 -24 -58 -23 -174 -79 -180 -88 -3 -3 -19 -10
-35 -14 -17 -4 -52 -17 -80 -29 -27 -12 -58 -25 -68 -28 -9 -4 -22 -17 -27
-29 -5 -13 -9 -17 -9 -10 l-1 12 -24 0 c-14 0 -28 -4 -31 -10 -3 -5 -15 -10
-26 -10 -10 0 -19 -4 -19 -8 0 -5 -30 -22 -67 -37 -38 -15 -92 -39 -120 -51
-29 -13 -65 -27 -80 -30 -16 -4 -56 -20 -91 -36 l-63 -28 -9 -23 c-5 -12 -9
-16 -9 -9 -1 6 -10 12 -21 12 -19 0 -70 -19 -80 -30 -3 -3 -36 -19 -75 -34
-120 -50 -158 -68 -173 -82 -7 -8 -34 -19 -58 -25 -24 -6 -47 -15 -50 -20 -3
-5 -15 -9 -28 -9 -12 0 -27 -5 -33 -11 -7 -7 -38 -20 -70 -31 -32 -11 -61 -24
-64 -29 -3 -5 -29 -15 -57 -21 -29 -7 -52 -16 -52 -20 0 -5 -7 -8 -15 -8 -14
0 -95 -38 -105 -49 -3 -4 -18 -13 -35 -21 l-30 -16 -3 -3252 -2 -3252 4185 0
4185 0 18 9 c9 6 46 22 82 36 36 15 72 31 80 36 8 5 22 12 30 15 39 16 107 46
122 55 10 5 23 9 29 9 6 0 17 7 25 15 9 8 26 15 39 15 27 0 138 40 143 52 2 4
10 8 17 8 7 0 42 13 77 30 34 16 73 30 86 30 12 0 22 4 22 8 0 10 129 72 150
72 8 0 24 7 34 15 11 8 28 15 38 15 10 0 18 4 18 10 0 5 23 17 50 27 28 10 50
21 50 25 0 5 9 8 20 8 12 0 37 8 58 19 20 10 58 24 85 32 26 7 47 16 47 20 0
9 48 29 69 29 10 0 24 7 31 15 7 8 21 15 30 15 10 0 31 6 47 14 70 34 141 66
147 66 4 0 14 7 22 15 9 8 24 15 33 15 10 0 44 11 75 25 31 14 63 25 71 25 8
0 15 3 15 8 0 10 58 42 76 42 8 0 41 13 74 29 32 16 72 32 88 36 17 3 36 13
43 21 6 8 19 14 29 14 10 0 23 7 30 15 7 8 20 15 29 15 10 0 26 7 37 15 10 8
30 15 43 15 24 0 91 20 101 30 3 3 16 10 30 16 14 6 59 27 100 47 41 21 80 37
85 37 6 0 42 16 80 35 39 19 76 35 83 35 8 0 26 6 40 13 15 8 42 21 60 30 19
9 42 17 53 17 10 0 19 3 19 8 0 7 47 32 61 32 4 0 20 5 36 12 31 13 78 24 262
62 l125 26 160 0 c89 0 193 -5 231 -11 69 -11 129 -17 173 -18 l22 -1 0 -15 0
-15 48 0 48 0 59 -30 c33 -16 66 -30 74 -30 14 0 129 -51 171 -75 14 -8 49
-26 79 -40 l53 -26 5 -19 5 -19 29 -6 c16 -4 29 -10 29 -15 0 -5 16 -14 35
-20 19 -6 35 -17 35 -25 0 -7 15 -20 33 -28 38 -18 219 -195 262 -256 17 -24
39 -53 51 -64 12 -12 29 -37 38 -54 9 -18 21 -33 26 -33 6 0 10 -9 10 -20 0
-11 4 -20 8 -20 5 0 14 -10 20 -22 7 -13 23 -41 37 -63 47 -76 95 -185 95
-217 0 -10 5 -18 10 -18 6 0 10 -5 10 -12 0 -6 11 -34 24 -63 14 -28 28 -75
32 -103 l7 -52 2493 0 2494 0 -2 3258 c-2 1791 -4 3175 -5 3075 l-3 -183 -35
0 -35 0 0 -20 0 -20 -75 0 -75 0 0 -20 0 -20 -40 0 -40 0 0 -20 0 -20 -40 0
-40 0 0 -20 0 -20 -40 0 -40 0 0 -20 0 -20 -40 0 -40 0 0 -20 0 -20 -35 0 -35
0 0 -20 0 -20 -40 0 -40 0 0 -15 0 -15 -40 0 -40 0 0 -14 0 -14 -80 -7 -80 -7
0 -19 0 -19 -35 0 -35 0 0 -20 0 -20 -40 0 -40 0 0 -20 0 -20 -40 0 -40 0 0
-20 0 -20 -33 0 c-18 0 -50 -9 -72 -20 l-39 -20 -43 0 -43 0 0 -20 0 -20 -40
0 -40 0 0 -20 0 -20 -40 0 -40 0 0 -20 0 -20 -40 0 -40 0 0 -15 0 -15 -40 0
-40 0 0 -20 0 -20 -28 0 c-15 0 -45 -9 -67 -20 l-39 -20 -48 0 -48 0 0 -20 0
-20 -40 0 -40 0 0 -20 0 -20 -40 0 -40 0 0 -20 0 -20 -40 0 -40 0 0 -15 0 -15
-35 0 -35 0 0 -25 0 -25 -80 0 -80 0 0 -20 0 -20 -40 0 -40 0 0 -20 0 -20 -40
0 -40 0 0 -20 0 -20 -35 0 -35 0 0 -20 0 -20 -37 0 c-21 0 -57 -7 -80 -16
l-43 -17 0 -18 0 -19 -80 0 -80 0 0 -20 0 -20 -35 0 -35 0 0 -20 0 -20 -40 0
-40 0 0 -20 0 -20 -40 0 -40 0 0 -20 0 -20 -40 0 -40 0 0 -15 0 -15 -40 0 -40
0 0 -25 0 -25 -75 0 -75 0 0 -20 0 -20 -40 0 -40 0 0 -20 0 -20 -40 0 -40 0 0
-15 0 -15 -40 0 -40 0 0 -20 0 -20 -26 0 c-14 0 -48 -10 -75 -22 l-49 -23 0
-17 0 -18 -80 0 -80 0 0 -20 0 -20 -40 0 -40 0 0 -20 0 -20 -35 0 -35 0 0 -20
0 -20 -40 0 -40 0 0 -20 0 -20 -31 0 c-37 0 -129 -40 -129 -56 l0 -11 -55 -6
-55 -6 -16 -15 -15 -16 -45 0 -44 0 0 -20 0 -20 -80 0 -80 0 0 -15 0 -15 -30
0 -30 0 0 15 0 15 -45 0 -45 0 0 -15 0 -15 35 0 c19 0 35 -4 35 -10 0 -5 -16
-10 -35 -10 l-35 0 0 -14 0 -14 -167 -7 c-238 -11 -351 -11 -485 -1 l-118 9 0
13 0 12 -75 7 -75 7 0 19 0 19 -80 0 -80 0 0 14 0 15 -42 4 -43 4 43 1 42 2 0
15 0 15 -50 0 -50 0 0 -10 c0 -5 -9 -10 -19 -10 -11 0 -23 5 -26 10 -3 6 -24
10 -46 10 l-39 0 0 13 0 14 -40 13 -40 13 0 14 0 13 -40 0 -40 0 0 13 0 14
-40 13 -40 13 0 14 0 13 -35 0 -35 0 0 16 c0 20 -45 64 -64 64 -8 0 -40 26
-72 57 -32 32 -69 66 -83 75 l-26 18 -37 0 -38 0 0 25 c0 14 -4 25 -10 25 -5
0 -10 7 -10 15 l0 15 -25 0 -25 0 0 16 c0 20 -45 64 -66 64 l-14 0 0 20 c0 26
-34 60 -60 60 l-20 0 0 40 0 40 -14 0 c-7 0 -16 9 -19 21 -3 11 -15 23 -26 26
-12 3 -21 11 -21 18 0 8 -10 29 -22 49 l-23 35 -17 1 -18 0 0 40 0 40 -14 0
-13 0 -7 40 -6 40 -13 0 c-7 0 -25 19 -40 42 l-27 42 0 38 0 38 -29 0 -29 0
-7 75 -7 75 -19 0 -19 0 0 40 0 40 -14 0 -14 0 -7 80 -7 80 -19 0 -19 0 0 75
0 75 -13 0 -14 0 -6 122 c-16 291 -1 718 25 718 4 0 8 36 8 80 l0 80 20 0 20
0 0 35 c0 19 5 35 10 35 l10 0 0 40 0 40 10 0 10 0 0 40 0 40 20 0 20 0 0 40
0 40 20 0 20 0 0 40 0 40 20 0 20 0 0 35 0 35 20 0 20 0 0 40 0 40 15 0 15 0
6 40 7 40 13 0 14 0 0 40 0 40 14 0 c21 0 66 44 66 64 0 9 6 16 13 16 7 0 19
16 26 35 l12 35 15 0 c8 0 14 6 14 14 0 7 9 16 21 19 11 3 23 15 26 26 3 12
12 21 19 21 8 0 14 6 14 14 0 7 9 16 21 19 11 3 23 15 26 26 3 12 12 21 19 21
8 0 14 6 14 14 0 7 9 16 21 19 11 3 23 15 26 26 3 12 9 21 13 21 3 0 42 34 85
75 43 41 86 75 96 75 23 0 69 42 69 64 l0 16 38 0 38 0 42 40 c22 22 47 40 53
40 6 0 18 8 25 18 l13 17 1 -12 c0 -22 21 -15 66 22 23 19 48 35 55 35 6 0 18
8 25 18 l13 17 1 -12 c0 -22 21 -15 66 22 23 19 49 35 57 35 8 0 17 7 21 15 3
8 13 15 22 15 31 0 84 24 84 37 l0 13 37 0 c21 0 57 7 80 16 l43 17 0 18 0 19
38 0 c20 0 46 7 56 15 25 19 36 19 36 0 l0 -15 30 0 30 0 0 15 c0 9 -10 19
-22 24 l-23 8 43 8 c23 4 42 11 42 16 0 5 8 9 18 9 10 0 22 4 28 9 5 4 33 16
62 27 l52 18 0 13 0 13 31 0 c17 0 53 10 80 22 l49 23 0 17 0 18 29 0 c16 0
44 8 61 18 l32 17 5 -12 c7 -20 23 -15 69 22 l42 35 36 0 c20 0 36 4 36 8 0 5
18 15 40 22 l40 13 0 14 0 13 34 0 c19 0 37 4 41 9 3 5 28 17 56 26 28 10 53
23 56 31 l5 14 35 0 36 0 13 18 13 17 1 -12 c0 -22 21 -15 66 22 l42 35 31 0
31 0 0 13 0 14 40 13 40 13 0 14 0 13 39 0 c22 0 42 4 46 9 3 5 28 17 56 26
28 10 53 23 56 31 l5 14 34 0 34 0 0 11 0 10 20 -6 19 -6 29 15 c16 8 34 22
41 30 l13 16 39 0 39 0 0 13 0 14 40 13 40 13 0 14 0 13 33 0 c17 0 50 9 72
19 22 10 57 26 78 35 20 9 37 20 37 26 l0 10 -5485 0 -5485 0 0 -35z" />
    <path d="M15000 9535 l0 -15 35 0 35 0 0 15 0 15 -35 0 -35 0 0 -15z" />
    <path d="M12870 4145 l0 -15 45 0 45 0 0 15 0 15 -45 0 -45 0 0 -15z" />
  </g>
  <g transform="translate(0.000000,961.000000) scale(0.100000,-0.100000)" fill="#d5d9e4" stroke="none">
    <path d="M2 8052 c-1 -860 1 -1562 6 -1560 4 2 20 10 37 18 17 8 32 17 35 20
10 11 91 50 104 50 8 0 17 7 20 16 l6 16 -27 -7 c-15 -3 -30 -10 -33 -14 -3
-4 -27 -14 -55 -23 -27 -9 -58 -19 -67 -23 l-18 -7 -3 1538 -2 1539 -3 -1563z" />
    <path d="M4070 9565 l0 -44 15 5 15 6 0 39 0 39 -15 0 -15 0 0 -45z" />
    <path d="M15020 9590 c-95 -47 -128 -60 -157 -60 l-33 0 0 -13 0 -14 -40 -13
-40 -13 0 -14 0 -13 -39 0 -39 0 -13 -16 c-17 -20 -69 -47 -69 -35 0 5 -9 7
-20 4 -11 -3 -20 -9 -20 -14 0 -5 -15 -9 -34 -9 l-34 0 -5 -14 c-3 -8 -28 -21
-56 -31 -28 -9 -53 -21 -56 -26 -4 -5 -24 -9 -46 -9 l-39 0 0 -13 0 -14 -40
-13 -40 -13 0 -14 0 -13 -31 0 -31 0 -43 -36 -43 -35 -4 18 -3 18 -23 -23 -22
-22 -34 0 -34 0 -5 -14 c-3 -8 -28 -21 -56 -31 -28 -9 -53 -21 -56 -26 -4 -5
-22 -9 -41 -9 l-34 0 0 -13 0 -14 -40 -13 c-22 -7 -40 -17 -40 -22 0 -4 -16
-8 -36 -8 l-36 0 -44 -36 -44 -36 0 16 0 17 -22 -6 c-13 -4 -33 -13 -45 -21
-12 -8 -36 -14 -53 -14 l-30 0 0 -18 0 -17 -49 -23 c-27 -12 -63 -22 -80 -22
l-31 0 0 -13 0 -13 -52 -18 c-29 -11 -57 -23 -62 -27 -6 -5 -18 -9 -28 -9 -10
0 -18 -4 -18 -9 0 -5 -16 -12 -35 -15 -20 -4 -57 -18 -82 -32 -25 -13 -61 -24
-79 -24 l-34 0 0 -19 0 -18 -43 -17 c-23 -9 -59 -16 -80 -16 l-37 0 0 -13 c0
-15 -65 -41 -80 -32 -5 3 -15 -3 -22 -15 -7 -11 -19 -20 -26 -20 -8 0 -33 -16
-57 -36 l-43 -35 -4 18 -3 18 -23 -23 c-12 -12 -27 -22 -33 -22 -6 0 -30 -16
-54 -36 l-43 -35 -4 18 -3 18 -23 -23 c-12 -12 -27 -22 -32 -22 -6 0 -30 -18
-52 -40 l-42 -40 -38 0 -38 0 0 -16 c0 -22 -46 -64 -69 -64 -10 0 -53 -34 -96
-75 -43 -41 -82 -75 -85 -75 -4 0 -10 -9 -13 -21 -3 -11 -15 -23 -26 -26 -12
-3 -21 -12 -21 -19 0 -8 -6 -14 -14 -14 -7 0 -16 -9 -19 -21 -3 -11 -15 -23
-26 -26 -12 -3 -21 -12 -21 -19 0 -8 -6 -14 -14 -14 -7 0 -16 -9 -19 -21 -3
-11 -15 -23 -26 -26 -12 -3 -21 -12 -21 -19 0 -8 -6 -14 -14 -14 l-15 0 -12
-35 c-7 -19 -19 -35 -26 -35 -7 0 -13 -7 -13 -16 0 -20 -45 -64 -66 -64 l-14
0 0 -40 0 -40 -14 0 -13 0 -7 -40 -6 -40 -15 0 -15 0 0 -40 0 -40 -20 0 -20 0
0 -35 0 -35 -20 0 -20 0 0 -40 0 -40 -20 0 -20 0 0 -40 0 -40 -20 0 -20 0 0
-40 0 -40 -10 0 -10 0 0 -40 0 -40 -10 0 c-5 0 -10 -16 -10 -35 l0 -35 -20 0
-20 0 0 -80 c0 -44 -4 -80 -8 -80 -26 0 -41 -443 -25 -738 l6 -122 14 0 13 0
0 -75 0 -75 19 0 19 0 7 -80 7 -80 14 0 14 0 0 -40 0 -40 19 0 19 0 7 -75 7
-75 29 0 29 0 0 -38 0 -38 27 -42 c15 -23 33 -42 40 -42 l13 0 6 -40 7 -40 13
0 14 0 0 -40 0 -40 18 0 17 -1 23 -35 c12 -20 22 -41 22 -49 0 -7 9 -15 21
-18 11 -3 23 -15 26 -26 3 -12 12 -21 19 -21 l14 0 0 -40 0 -40 20 0 c26 0 60
-34 60 -60 l0 -20 14 0 c21 0 66 -44 66 -64 l0 -16 25 0 25 0 0 -15 c0 -8 5
-15 10 -15 6 0 10 -11 10 -25 l0 -25 38 0 37 0 26 -18 c14 -9 51 -43 83 -75
32 -31 64 -57 72 -57 19 0 64 -44 64 -64 l0 -16 35 0 35 0 0 -13 0 -14 40 -13
40 -13 0 -14 0 -13 40 0 40 0 0 -13 0 -14 40 -13 40 -13 0 -14 0 -13 39 0 c22
0 43 -4 46 -10 3 -5 17 -10 30 -10 13 0 27 -5 30 -10 3 -5 24 -10 46 -10 l39
0 0 -15 0 -15 80 0 80 0 0 -19 0 -19 75 -7 75 -7 0 -12 0 -13 118 -9 c135 -10
269 -10 505 1 l167 7 0 14 0 14 35 0 c19 0 35 5 35 10 l0 10 40 0 40 0 0 15 0
15 80 0 80 0 0 20 0 20 44 0 45 0 15 16 16 15 55 6 55 6 0 11 c0 16 92 56 129
56 l31 0 0 20 0 20 40 0 40 0 0 20 0 20 35 0 35 0 0 20 0 20 40 0 40 0 0 20 0
20 80 0 80 0 0 18 0 17 49 23 c27 12 61 22 75 22 l26 0 0 20 0 20 40 0 40 0 0
15 0 15 40 0 40 0 0 20 0 20 40 0 40 0 0 20 0 20 75 0 75 0 0 25 0 25 40 0 40
0 0 15 0 15 40 0 40 0 0 20 0 20 40 0 40 0 0 20 0 20 40 0 40 0 0 20 0 20 35
0 35 0 0 20 0 20 80 0 80 0 0 19 0 18 43 17 c23 9 59 16 80 16 l37 0 0 20 0
20 35 0 35 0 0 20 0 20 40 0 40 0 0 20 0 20 40 0 40 0 0 20 0 20 80 0 80 0 0
25 0 25 35 0 35 0 0 15 0 15 40 0 40 0 0 20 0 20 40 0 40 0 0 20 0 20 40 0 40
0 0 20 0 20 48 0 48 0 39 20 c22 11 52 20 67 20 l28 0 0 20 0 20 40 0 40 0 0
15 0 15 40 0 40 0 0 20 0 20 40 0 40 0 0 20 0 20 40 0 40 0 0 20 0 20 43 0 43
0 39 20 c22 11 54 20 72 20 l33 0 0 20 0 20 40 0 40 0 0 20 0 20 40 0 40 0 0
20 0 20 35 0 35 0 0 19 0 19 80 7 80 7 0 14 0 14 40 0 40 0 0 15 0 15 40 0 40
0 0 20 0 20 35 0 35 0 0 20 0 20 40 0 40 0 0 20 0 20 40 0 40 0 0 20 0 20 40
0 40 0 0 20 0 20 40 0 40 0 0 20 0 20 75 0 75 0 0 20 0 20 35 0 35 0 0 1735 0
1735 -1832 -1 -1833 -1 -35 -18z m33 -57 c-7 -2 -21 -2 -30 0 l-18 5 30 0 c17
0 24 -2 18 -5z m-2068 -853 l6 -10 -20 0 c-12 0 -21 5 -21 10 0 6 6 10 14 10
8 0 18 -4 21 -10z m-362 -4467 c-13 -2 -33 -2 -45 0 -13 2 -3 4 22 4 25 0 35
-2 23 -4z m315 -70 c-10 -2 -28 -2 -40 0 l-23 4 40 0 c22 1 32 -1 23 -4z m860
0 c-10 -2 -28 -2 -40 0 l-23 4 40 0 c22 1 32 -1 23 -4z" />
    <path d="M4060 9446 c0 -7 -3 -29 -6 -47 l-5 -34 15 19 c18 22 22 76 6 76 -5
0 -10 -6 -10 -14z" />
    <path d="M4035 9323 c-18 -86 -59 -242 -70 -265 -7 -15 -16 -41 -20 -58 -4
-16 -11 -32 -16 -35 -5 -4 -9 -17 -9 -30 0 -13 -4 -25 -10 -27 -5 -1 -13 -19
-16 -38 l-7 -35 16 14 c9 7 17 22 17 32 0 10 9 33 20 51 11 18 20 43 20 55 0
12 5 25 10 28 6 3 10 15 10 26 0 10 4 19 9 19 5 0 11 15 14 33 3 17 14 66 26
107 12 41 23 92 26 113 l5 37 -10 0 c-5 0 -12 -12 -15 -27z" />
    <path d="M4043 9063 c4 -3 10 -3 14 0 3 4 0 7 -7 7 -7 0 -10 -3 -7 -7z" />
    <path d="M3890 8980 l0 -20 15 0 15 0 0 20 0 20 -15 0 -15 0 0 -20z" />
    <path d="M3972 8930 c0 -14 2 -19 5 -12 2 6 2 18 0 25 -3 6 -5 1 -5 -13z" />
    <path d="M3841 8766 c-17 -35 -31 -69 -31 -75 0 -6 -4 -11 -9 -11 -5 0 -15
-16 -21 -35 -6 -19 -16 -35 -21 -35 -5 0 -9 -6 -9 -14 0 -7 -7 -19 -15 -26 -8
-7 -15 -20 -15 -30 0 -10 -7 -20 -15 -24 -8 -3 -15 -1 -15 4 0 6 -7 10 -15 10
-8 0 -15 -7 -15 -15 0 -8 7 -15 15 -15 l16 0 -10 -19 c-6 -10 -26 -37 -46 -60
-19 -24 -35 -47 -35 -52 0 -19 27 -8 40 16 7 14 17 25 22 25 4 0 8 4 8 10 0
14 71 124 87 133 7 4 13 16 13 27 0 10 4 20 9 22 4 2 27 42 50 90 22 48 46 90
51 93 13 8 13 45 1 45 -6 0 -24 -29 -40 -64z" />
    <path d="M3547 8313 c-6 -15 -32 -46 -56 -68 -25 -22 -58 -54 -75 -72 -17 -17
-57 -59 -90 -92 -32 -34 -64 -61 -71 -61 -12 0 -45 -31 -45 -43 0 -11 20 -8
35 6 28 24 44 37 48 37 4 0 23 18 181 180 44 44 83 80 88 80 4 0 8 7 8 15 0 8
5 15 10 15 6 0 10 7 10 15 0 25 -30 17 -43 -12z" />
    <path d="M3110 7965 c0 -8 7 -15 15 -15 8 0 15 7 15 15 0 8 -7 15 -15 15 -8 0
-15 -7 -15 -15z" />
    <path d="M3153 7937 c-41 -34 -128 -87 -141 -87 -7 0 -17 -9 -24 -20 -7 -11
-19 -20 -27 -20 -24 0 -81 -41 -81 -58 l0 -16 12 12 c7 7 20 12 30 12 10 0 18
5 18 10 0 6 12 16 28 23 15 6 55 31 90 54 35 24 69 43 76 43 13 0 66 51 66 63
0 13 -19 7 -47 -16z" />
    <path d="M3175 7900 l-6 -10 15 0 c9 0 16 5 16 10 0 6 -4 10 -9 10 -6 0 -13
-4 -16 -10z" />
    <path d="M3068 7813 c7 -3 16 -2 19 1 4 3 -2 6 -13 5 l-19 -1 13 -5z" />
    <path d="M2830 7740 c-8 -5 -36 -19 -62 -31 -27 -12 -48 -26 -48 -31 0 -4 -8
-8 -17 -8 -9 0 -43 -8 -75 -17 l-58 -17 0 -13 c0 -6 -10 -13 -22 -15 -12 -2
-24 -9 -26 -17 l-5 -14 19 8 c11 4 40 13 67 18 l47 11 0 13 c0 7 7 13 15 13
24 0 194 83 199 97 6 15 -11 16 -34 3z" />
    <path d="M2390 7575 c0 -8 6 -15 13 -16 16 0 -122 -69 -140 -69 -7 0 -13 -4
-13 -10 0 -5 -5 -10 -12 -10 -6 0 -34 -11 -63 -24 -28 -14 -75 -28 -103 -32
l-52 -7 0 -13 0 -14 -19 0 c-11 0 -23 -5 -26 -11 -11 -17 2 -21 26 -8 l23 12
4 -12 c6 -19 27 -12 37 12 l10 22 30 3 c17 1 62 18 100 36 140 68 224 106 233
106 14 0 62 25 62 33 0 10 -14 9 -44 -3 l-26 -10 0 15 0 15 -20 0 -20 0 0 -15z" />
    <path d="M2428 7503 c7 -3 16 -2 19 1 4 3 -2 6 -13 5 l-19 -1 13 -5z" />
    <path d="M1840 7346 c0 -8 5 -16 12 -18 6 -2 -3 -10 -20 -17 -18 -8 -32 -17
-32 -22 0 -5 -9 -9 -19 -9 -11 0 -23 -4 -26 -10 -3 -5 -14 -10 -23 -10 -9 -1
-35 -9 -57 -20 -22 -11 -48 -19 -57 -20 -9 0 -19 -4 -22 -9 -4 -5 -32 -17 -64
-27 -31 -10 -60 -23 -64 -30 -4 -6 -19 -15 -33 -18 -14 -4 -25 -11 -25 -16 0
-14 16 -13 41 3 l22 12 4 -12 c7 -20 30 -15 36 7 3 11 13 23 24 26 10 4 41 17
68 29 28 12 63 25 80 29 16 4 32 11 35 14 7 9 146 76 193 93 38 13 50 29 21
29 -8 0 -24 -5 -35 -10 l-19 -11 0 16 0 15 -20 0 -20 0 0 -14z" />
    <path d="M2113 7353 c4 -3 10 -3 14 0 3 4 0 7 -7 7 -7 0 -10 -3 -7 -7z" />
    <path d="M1878 7273 c6 -2 18 -2 25 0 6 3 1 5 -13 5 -14 0 -19 -2 -12 -5z" />
    <path d="M1300 7106 c0 -8 5 -16 11 -18 12 -4 -122 -68 -144 -68 -15 -1 -98
-31 -160 -58 -27 -12 -55 -22 -63 -22 -8 0 -14 -4 -14 -9 0 -5 -13 -14 -30
-20 -16 -5 -30 -15 -30 -22 l0 -11 18 7 c9 4 25 10 35 12 l17 5 0 -11 c0 -19
27 -12 33 9 l5 19 63 29 c35 16 76 32 92 36 15 3 51 17 80 30 28 12 82 36 120
51 37 15 67 32 67 37 0 11 -17 10 -41 -2 l-19 -11 0 16 0 15 -20 0 -20 0 0
-14z" />
    <path d="M1338 7033 c6 -2 18 -2 25 0 6 3 1 5 -13 5 -14 0 -19 -2 -12 -5z" />
    <path d="M750 6875 c0 -8 6 -15 13 -15 18 -1 -54 -37 -110 -56 -26 -8 -75 -28
-108 -44 -112 -53 -177 -81 -270 -119 l-29 -13 -4 11 c-2 6 -15 11 -28 11
l-24 0 0 -15 c0 -8 6 -15 14 -15 8 0 16 -5 18 -11 l4 -11 42 13 c23 6 42 15
42 19 0 4 26 15 58 25 31 11 64 25 73 32 8 7 23 13 31 13 9 0 28 7 44 14 15 8
31 13 36 10 7 -4 57 22 68 37 6 8 68 35 167 75 70 28 91 44 57 44 -8 0 -24 -5
-35 -10 l-19 -11 0 16 0 15 -20 0 -20 0 0 -15z" />
    <path d="M788 6803 c6 -2 18 -2 25 0 6 3 1 5 -13 5 -14 0 -19 -2 -12 -5z" />
    <path d="M11693 1403 c4 -3 10 -3 14 0 3 4 0 7 -7 7 -7 0 -10 -3 -7 -7z" />
    <path d="M12228 1403 c7 -3 16 -2 19 1 4 3 -2 6 -13 5 l-19 -1 13 -5z" />
    <path d="M11638 1393 c7 -3 16 -2 19 1 4 3 -2 6 -13 5 l-19 -1 13 -5z" />
    <path d="M11728 1386 c-31 -6 -60 -15 -65 -20 l-8 -8 40 6 c22 3 79 9 128 12
48 4 87 11 87 15 0 12 -112 9 -182 -5z" />
    <path d="M12090 1390 l0 -10 46 0 45 0 -6 10 c-3 6 -24 10 -46 10 -21 0 -39
-4 -39 -10z" />
    <path d="M11558 1383 c7 -3 16 -2 19 1 4 3 -2 6 -13 5 l-19 -1 13 -5z" />
    <path d="M12200 1382 c0 -10 46 -22 88 -22 l26 0 -9 9 c-6 5 -31 12 -57 16
l-48 7 0 -10z" />
    <path d="M12326 1372 c-3 -5 4 -12 17 -16 34 -9 67 -7 67 4 0 6 -8 10 -17 10
-10 0 -28 3 -39 6 -12 3 -24 1 -28 -4z" />
    <path d="M11625 1360 l-6 -10 15 0 c9 0 16 5 16 10 0 6 -4 10 -9 10 -6 0 -13
-4 -16 -10z" />
    <path d="M11565 1350 l-6 -10 25 0 c14 0 26 5 26 10 0 6 -9 10 -19 10 -11 0
-23 -4 -26 -10z" />
    <path d="M11480 1333 c-14 -2 -39 -11 -57 -19 -17 -8 -35 -14 -40 -14 -15 0
-63 -25 -63 -32 0 -11 34 -10 46 1 10 9 93 37 137 46 15 3 27 10 27 15 0 10
-6 11 -50 3z" />
    <path d="M12440 1331 c0 -4 26 -15 58 -24 82 -22 132 -41 132 -49 0 -5 8 -8
18 -8 10 0 22 -4 28 -8 5 -5 32 -17 59 -27 28 -9 70 -29 95 -44 81 -48 111
-63 117 -58 10 11 -10 29 -60 53 -29 13 -63 31 -77 39 -42 24 -157 75 -171 75
-8 0 -41 14 -74 30 -56 28 -125 40 -125 21z" />
    <path d="M11260 1245 l-12 -15 10 0 c18 0 42 12 42 21 0 14 -26 10 -40 -6z" />
    <path d="M11138 1233 c7 -3 16 -2 19 1 4 3 -2 6 -13 5 l-19 -1 13 -5z" />
    <path d="M11186 1215 c-11 -8 -27 -15 -35 -15 -9 0 -47 -16 -86 -35 -38 -19
-75 -35 -81 -35 -13 0 -104 -47 -118 -61 l-10 -9 20 0 c10 0 28 7 38 15 11 8
28 15 38 15 10 0 18 3 18 8 0 4 15 12 33 19 78 27 108 40 119 51 7 7 18 12 26
12 21 0 82 31 82 41 0 13 -23 10 -44 -6z" />
    <path d="M10828 1093 c7 -3 16 -2 19 1 4 3 -2 6 -13 5 l-19 -1 13 -5z" />
    <path d="M12998 1093 c-10 -2 -18 -7 -18 -10 0 -10 43 -43 55 -43 7 0 20 -11
29 -25 9 -14 25 -25 34 -25 l18 0 111 -107 c60 -60 113 -115 117 -123 3 -8 22
-35 41 -60 20 -25 44 -59 56 -77 19 -29 47 -49 56 -39 3 2 -5 14 -16 25 -12
12 -21 25 -21 31 0 5 -12 23 -27 39 -16 17 -41 49 -58 72 -44 62 -225 238
-262 256 -18 8 -33 21 -33 28 0 8 -16 19 -35 25 -36 12 -44 25 -22 33 15 7 -2
6 -25 0z" />
    <path d="M10793 1046 c-13 -6 -23 -14 -23 -18 0 -13 33 -9 53 6 33 26 13 34
-30 12z" />
    <path d="M10658 1013 c6 -2 18 -2 25 0 6 3 1 5 -13 5 -14 0 -19 -2 -12 -5z" />
    <path d="M10720 1010 c-8 -5 -28 -10 -45 -10 -16 0 -39 -7 -49 -15 -11 -8 -27
-15 -37 -15 -9 0 -22 -7 -29 -15 -7 -8 -20 -15 -30 -15 -10 0 -23 -6 -29 -14
-7 -8 -26 -18 -43 -21 -16 -4 -56 -20 -88 -36 -33 -16 -66 -29 -74 -29 -18 0
-76 -32 -76 -42 0 -16 14 -11 140 45 25 11 61 27 80 35 19 8 48 21 63 28 16 8
37 14 47 14 10 0 20 6 23 14 5 13 55 32 145 56 23 6 42 15 42 20 0 13 -21 12
-40 0z" />
    <path d="M13173 1003 c4 -3 10 -3 14 0 3 4 0 7 -7 7 -7 0 -10 -3 -7 -7z" />
    <path d="M13240 946 c0 -2 7 -6 15 -10 8 -3 15 -1 15 4 0 6 -7 10 -15 10 -8 0
-15 -2 -15 -4z" />
    <path d="M10228 863 c7 -3 16 -2 19 1 4 3 -2 6 -13 5 l-19 -1 13 -5z" />
    <path d="M10131 764 c-29 -13 -62 -24 -72 -24 -9 0 -24 -6 -31 -14 -8 -7 -25
-17 -38 -21 -13 -4 -37 -16 -54 -26 -17 -11 -38 -19 -47 -19 -9 0 -27 -9 -40
-20 l-24 -19 18 -1 c9 0 25 4 35 8 87 43 109 52 123 52 9 0 24 9 34 20 10 11
28 20 39 20 12 0 30 6 41 14 11 7 37 19 58 25 20 7 37 17 37 22 0 14 -20 10
-79 -17z" />
    <path d="M13400 781 c0 -6 5 -13 10 -16 l10 -6 0 15 c0 9 -4 16 -10 16 -5 0
-10 -4 -10 -9z" />
    <path d="M13485 700 c3 -5 8 -10 11 -10 2 0 4 5 4 10 0 6 -5 10 -11 10 -5 0
-7 -4 -4 -10z" />
    <path d="M9780 615 c-7 -8 -16 -13 -20 -10 -11 7 -80 -26 -80 -37 0 -12 15
-10 57 8 73 32 83 37 83 46 0 13 -27 9 -40 -7z" />
    <path d="M9608 544 c-21 -7 -53 -21 -70 -31 l-33 -17 18 -4 c10 -2 28 3 41 11
12 9 42 20 64 27 23 6 42 15 42 20 0 13 -16 11 -62 -6z" />
    <path d="M13500 549 c0 -6 8 -23 19 -37 10 -15 22 -37 25 -49 4 -13 11 -23 16
-23 5 0 12 -9 15 -20 7 -21 25 -28 25 -9 0 6 -9 24 -21 40 l-20 29 12 0 c6 0
0 9 -14 20 -14 11 -29 29 -32 40 -7 21 -25 28 -25 9z" />
    <path d="M9503 533 c4 -3 10 -3 14 0 3 4 0 7 -7 7 -7 0 -10 -3 -7 -7z" />
    <path d="M9470 492 c0 -4 -22 -15 -50 -25 -27 -10 -50 -22 -50 -27 0 -6 -9
-10 -19 -10 -10 0 -29 -9 -42 -20 l-24 -19 22 -1 c12 0 25 5 28 10 3 6 15 10
26 10 10 0 19 4 19 8 0 5 27 20 60 35 57 24 78 47 45 47 -8 0 -15 -3 -15 -8z" />
    <path d="M13630 446 c0 -9 5 -16 10 -16 6 0 10 4 10 9 0 6 -4 13 -10 16 l-10
6 0 -15z" />
    <path d="M9195 368 c-68 -34 -71 -36 -62 -44 3 -3 20 1 39 10 18 8 50 22 71
30 20 8 37 20 37 25 0 17 -20 12 -85 -21z" />
    <path d="M13651 384 l1 -19 5 13 c3 7 2 16 -1 19 -3 4 -6 -2 -5 -13z" />
    <path d="M13601 385 c-1 -21 38 -120 48 -123 14 -5 14 5 -2 49 -13 38 -46 90
-46 74z" />
    <path d="M9022 290 c-35 -17 -70 -30 -77 -30 -7 0 -15 -7 -19 -15 -6 -17 6
-19 32 -6 36 18 108 49 130 56 23 7 31 25 10 25 -7 0 -42 -14 -76 -30z" />
    <path d="M8743 233 c4 -3 10 -3 14 0 3 4 0 7 -7 7 -7 0 -10 -3 -7 -7z" />
    <path d="M8863 222 c-49 -20 -63 -32 -38 -32 31 0 85 23 85 37 0 7 -1 13 -2
12 -2 0 -22 -8 -45 -17z" />
    <path d="M13660 220 c0 -11 3 -20 8 -20 7 0 34 -82 47 -142 3 -16 10 -28 16
-28 l11 0 -7 42 c-4 24 -18 66 -31 94 -13 28 -24 56 -24 62 0 7 -4 12 -10 12
-5 0 -10 -9 -10 -20z" />
    <path d="M8745 184 c-9 -9 -14 -19 -11 -22 8 -7 66 19 66 29 0 15 -38 10 -55
-7z" />
    <path d="M8638 163 c7 -3 16 -2 19 1 4 3 -2 6 -13 5 l-19 -1 13 -5z" />
    <path d="M8690 160 c-8 -5 -37 -18 -65 -30 -27 -12 -57 -26 -65 -31 -8 -5 -22
-12 -30 -15 -8 -3 -40 -17 -71 -30 -31 -13 -61 -24 -67 -24 -5 0 -15 -7 -22
-15 -7 -8 -8 -15 -3 -15 10 0 158 55 193 73 14 6 27 15 30 18 3 3 28 14 55 24
55 20 75 33 75 46 0 11 -10 11 -30 -1z" />
    <path d="M13730 10 c0 -5 5 -10 11 -10 5 0 7 5 4 10 -3 6 -8 10 -11 10 -2 0
-4 -4 -4 -10z" />
  </g>
  <g transform="translate(0.000000,961.000000) scale(0.100000,-0.100000)" fill="#dbdfeb" stroke="none">
    <path d="M0 8070 l0 -1540 20 0 20 0 0 16 0 15 27 -2 c35 -3 93 11 93 21 0 5
13 11 30 15 16 3 47 15 69 26 22 10 45 19 51 19 5 0 18 4 28 10 9 5 46 22 82
38 36 16 89 40 117 53 29 13 53 30 53 38 l0 13 20 -5 c21 -5 70 11 175 57 132
59 155 72 161 88 l5 18 37 0 c21 0 46 6 57 14 11 7 35 17 53 21 18 4 36 13 39
21 l5 14 23 -6 22 -5 144 65 144 65 9 20 9 21 42 0 41 0 20 15 c10 8 26 15 34
15 8 0 33 9 55 20 22 11 45 19 52 20 6 0 40 15 75 34 34 18 86 41 113 51 28
10 54 22 60 27 5 4 17 8 26 8 l17 0 5 20 5 20 33 0 c36 0 88 14 132 36 16 8
35 14 43 14 8 0 14 5 14 10 0 6 6 10 13 10 8 0 42 14 77 31 35 17 89 40 119
51 31 11 60 24 66 29 5 5 17 9 26 9 l17 0 6 24 6 23 61 6 c34 3 65 9 68 14 3
4 29 18 56 31 28 13 58 27 67 33 10 5 22 9 27 9 6 0 22 11 37 25 15 14 39 28
53 32 14 3 32 15 39 25 7 10 18 18 24 18 17 0 121 68 168 111 25 22 61 51 80
64 19 13 54 43 77 67 92 94 112 114 152 153 24 21 49 52 57 67 8 15 19 28 24
28 6 0 10 4 10 9 0 6 14 25 31 43 17 18 48 58 67 88 52 78 61 93 68 113 3 9
10 17 14 17 5 0 14 16 20 35 6 19 15 35 19 35 4 0 13 17 20 38 7 20 25 57 40
82 26 45 54 121 46 128 -2 2 5 13 15 24 10 12 22 34 25 49 4 16 14 43 22 60 9
17 16 50 16 73 1 22 7 46 14 51 11 9 20 43 59 230 l15 70 -7 68 -6 67 -2034 0
-2034 0 0 -1540z m3915 910 c3 -5 1 -10 -4 -10 -6 0 -11 5 -11 10 0 6 2 10 4
10 3 0 8 -4 11 -10z m-1498 -1407 c-4 -3 -10 -3 -14 0 -3 4 0 7 7 7 7 0 10 -3
7 -7z m-550 -230 c-4 -3 -10 -3 -14 0 -3 4 0 7 7 7 7 0 10 -3 7 -7z m-540
-240 c-4 -3 -10 -3 -14 0 -3 4 0 7 7 7 7 0 10 -3 7 -7z m-550 -230 c-4 -3 -10
-3 -14 0 -3 4 0 7 7 7 7 0 10 -3 7 -7z m-550 -239 c-3 -3 -12 -4 -19 -1 l-13
5 19 1 c11 1 17 -2 13 -5z" />
    <path d="M11858 1393 c-54 -5 -66 -23 -15 -23 71 0 187 13 187 21 0 9 -76 9
-172 2z" />
    <path d="M12160 1380 c0 -5 7 -10 15 -10 8 0 15 5 15 10 0 6 -7 10 -15 10 -8
0 -15 -4 -15 -10z" />
    <path d="M11650 1360 c0 -5 9 -10 20 -10 11 0 20 5 20 10 0 6 -9 10 -20 10
-11 0 -20 -4 -20 -10z" />
    <path d="M12280 1362 c0 -8 87 -32 116 -32 8 0 14 6 14 14 l0 13 -37 7 c-53 8
-93 7 -93 -2z" />
    <path d="M11550 1340 c0 -5 9 -10 20 -10 11 0 20 5 20 10 0 6 -9 10 -20 10
-11 0 -20 -4 -20 -10z" />
    <path d="M12484 1318 c-9 -13 -1 -18 40 -25 l36 -6 0 10 c0 5 -16 14 -35 20
l-35 11 -6 -10z" />
    <path d="M11430 1310 c-8 -5 -12 -12 -8 -15 8 -8 58 5 58 16 0 12 -31 11 -50
-1z" />
    <path d="M12570 1285 c0 -8 7 -15 15 -15 8 0 15 4 15 9 0 5 -7 11 -15 15 l-15
5 0 -14z" />
    <path d="M11355 1280 l-6 -10 20 0 c12 0 21 5 21 10 0 6 -6 10 -14 10 -8 0
-18 -4 -21 -10z" />
    <path d="M11273 1248 c-26 -13 -30 -28 -7 -28 21 0 54 18 54 30 0 13 -19 12
-47 -2z" />
    <path d="M12710 1224 l0 -14 20 0 c11 0 20 4 20 9 0 5 -9 11 -20 14 l-20 5 0
-14z" />
    <path d="M11213 1223 c-18 -7 -16 -23 2 -23 8 0 15 7 15 15 0 8 -1 15 -2 14
-2 0 -9 -3 -15 -6z" />
    <path d="M12790 1195 c0 -8 7 -15 15 -15 8 0 15 4 15 9 0 5 -7 11 -15 15 l-15
5 0 -14z" />
    <path d="M11120 1180 c0 -5 9 -10 20 -10 11 0 20 5 20 10 0 6 -9 10 -20 10
-11 0 -20 -4 -20 -10z" />
    <path d="M11050 1150 c-8 -5 -12 -12 -8 -15 9 -9 48 4 48 16 0 12 -21 11 -40
-1z" />
    <path d="M12870 1145 c0 -14 57 -41 67 -31 8 7 -24 33 -49 39 l-18 5 0 -13z" />
    <path d="M10956 1105 c-6 -16 3 -19 28 -9 22 8 20 24 -3 24 -10 0 -21 -7 -25
-15z" />
    <path d="M10898 1082 c-28 -17 -37 -32 -19 -32 24 0 61 21 61 35 0 19 -8 19
-42 -3z" />
    <path d="M12950 1090 c0 -5 8 -14 18 -19 l17 -10 -17 -1 c-16 0 -35 -36 -25
-46 10 -10 58 9 67 27 l10 18 -22 21 c-23 21 -48 27 -48 10z" />
    <path d="M10823 1053 c-18 -7 -16 -23 2 -23 8 0 15 7 15 15 0 8 -1 15 -2 14
-2 0 -9 -3 -15 -6z" />
    <path d="M13042 1033 c2 -10 11 -19 21 -21 l19 -4 -12 21 c-13 25 -33 28 -28
4z" />
    <path d="M10640 980 c-8 -5 -12 -12 -8 -15 9 -9 48 4 48 16 0 12 -21 11 -40
-1z" />
    <path d="M13131 975 c2 -11 14 -24 27 -30 12 -5 22 -13 22 -17 0 -14 34 -48
47 -48 25 0 20 7 -56 75 l-43 39 3 -19z" />
    <path d="M10587 963 c-13 -12 -7 -23 13 -23 l20 0 0 15 c0 15 -21 21 -33 8z" />
    <path d="M10510 920 c0 -5 9 -10 20 -10 11 0 20 5 20 10 0 6 -9 10 -20 10 -11
0 -20 -4 -20 -10z" />
    <path d="M10409 874 l-13 -16 18 3 c11 2 21 10 24 17 5 17 -13 15 -29 -4z" />
    <path d="M10345 852 c-16 -10 -42 -22 -57 -25 -16 -4 -28 -12 -28 -18 l0 -11
25 6 25 6 0 -15 0 -15 25 0 25 0 0 14 c0 8 -8 17 -17 19 l-18 4 33 14 c17 7
32 19 32 26 0 17 -9 16 -45 -5z" />
    <path d="M13280 827 c0 -18 36 -50 50 -45 l11 3 -21 28 c-23 29 -40 35 -40 14z" />
    <path d="M10143 763 c-18 -7 -16 -23 2 -23 8 0 15 7 15 15 0 8 -1 15 -2 14 -2
0 -9 -3 -15 -6z" />
    <path d="M13350 736 c0 -17 26 -39 40 -34 l10 3 -15 23 c-18 25 -35 29 -35 8z" />
    <path d="M10035 719 c-4 -6 -5 -13 -2 -16 8 -7 47 7 47 18 0 13 -37 11 -45 -2z" />
    <path d="M9950 675 l-12 -15 10 0 c18 0 42 12 42 21 0 14 -26 10 -40 -6z" />
    <path d="M13425 648 l5 -28 -10 0 c-5 0 -10 -9 -10 -20 0 -11 5 -20 10 -20 6
0 10 -7 10 -15 0 -8 7 -15 15 -15 8 0 15 7 15 15 0 8 -4 15 -10 15 -5 0 -10 5
-10 12 l0 11 23 -21 c13 -12 26 -22 30 -22 14 0 6 24 -15 45 -13 13 -31 33
-41 46 l-18 24 6 -27z" />
    <path d="M9865 639 c-4 -6 -4 -13 -1 -16 8 -8 36 5 36 17 0 13 -27 13 -35 -1z" />
    <path d="M9794 616 c-10 -8 -16 -17 -12 -21 11 -11 48 5 48 21 0 18 -11 18
-36 0z" />
    <path d="M9733 593 c-20 -8 -15 -23 7 -23 l20 0 0 15 c0 15 -6 17 -27 8z" />
    <path d="M9593 533 c-18 -7 -16 -23 2 -23 8 0 15 7 15 15 0 8 -1 15 -2 14 -2
0 -9 -3 -15 -6z" />
    <path d="M13510 518 c1 -19 29 -53 37 -45 8 8 -17 57 -29 57 -4 0 -8 -6 -8
-12z" />
    <path d="M9485 489 c-4 -6 -5 -13 -2 -16 8 -7 47 7 47 18 0 13 -37 11 -45 -2z" />
    <path d="M9400 450 c-8 -5 -12 -12 -8 -15 9 -9 48 4 48 16 0 12 -21 11 -40 -1z" />
    <path d="M13570 410 c0 -11 4 -20 8 -20 5 0 15 -18 22 -40 l13 -40 14 0 13 0
-14 33 c-28 67 -39 87 -48 87 -4 0 -8 -9 -8 -20z" />
    <path d="M9325 409 c-4 -6 -4 -13 -1 -16 8 -8 36 5 36 17 0 13 -27 13 -35 -1z" />
    <path d="M9233 376 c-24 -11 -43 -24 -43 -29 l0 -9 28 6 c50 12 82 28 82 42 0
18 -15 16 -67 -10z" />
    <path d="M9043 293 c-18 -7 -16 -23 2 -23 8 0 15 7 15 15 0 8 -1 15 -2 14 -2
0 -9 -3 -15 -6z" />
    <path d="M8947 253 c-12 -11 -8 -23 8 -23 8 0 15 7 15 15 0 16 -12 20 -23 8z" />
    <path d="M8878 218 c-16 -5 -28 -14 -28 -20 l0 -10 27 7 c33 8 36 11 32 23
l-4 9 -27 -9z" />
    <path d="M8774 186 c-10 -8 -16 -18 -12 -22 9 -8 68 15 68 27 0 14 -34 11 -56
-5z" />
    <path d="M13670 175 c0 -8 7 -15 15 -15 l14 0 -5 15 c-4 8 -10 15 -15 15 -5 0
-9 -7 -9 -15z" />
    <path d="M8701 157 c-6 -8 -29 -19 -51 -26 -22 -6 -40 -16 -40 -21 0 -6 3 -10
8 -10 6 0 55 16 115 36 9 4 17 13 17 20 0 18 -34 18 -49 1z" />
    <path d="M13690 128 c0 -19 18 -43 25 -36 9 9 -4 48 -16 48 -5 0 -9 -6 -9 -12z" />
    <path d="M8498 63 c-24 -6 -23 -23 2 -23 l20 0 0 15 c0 8 -1 14 -2 14 -2 -1
-11 -3 -20 -6z" />
    <path d="M8408 28 c-16 -5 -28 -14 -28 -20 l0 -10 27 7 c33 8 36 11 32 23 l-4
9 -27 -9z" />
  </g>
  <g transform="translate(0.000000,961.000000) scale(0.100000,-0.100000)" fill="#e0e5ea" stroke="none">
    <path d="M3910 8972 c0 -10 6 -19 13 -19 7 0 14 9 14 19 l2 18 -15 0 -14 0 0
-18z" />
    <path d="M3900 8926 c0 -8 5 -18 10 -21 l10 -6 0 20 c0 12 -4 21 -10 21 -5 0
-10 -6 -10 -14z" />
    <path d="M3820 8810 c0 -11 5 -20 10 -20 6 0 10 9 10 20 0 11 -4 20 -10 20 -5
0 -10 -9 -10 -20z" />
    <path d="M2030 7410 c0 -5 9 -10 20 -10 11 0 20 5 20 10 0 6 -9 10 -20 10 -11
0 -20 -4 -20 -10z" />
    <path d="M1475 7180 c3 -5 15 -10 26 -10 10 0 19 5 19 10 0 6 -12 10 -26 10
l-25 0 6 -10z" />
    <path d="M1090 7009 c0 -5 5 -7 10 -4 6 3 10 8 10 11 0 2 -4 4 -10 4 -5 0 -10
-5 -10 -11z" />
    <path d="M940 6950 c0 -5 9 -10 20 -10 11 0 20 5 20 10 0 6 -9 10 -20 10 -11
0 -20 -4 -20 -10z" />
    <path d="M545 6790 c3 -5 15 -10 26 -10 10 0 19 5 19 10 0 6 -12 10 -26 10
l-25 0 6 -10z" />
    <path d="M0 6560 c0 -5 9 -10 20 -10 11 0 20 5 20 10 0 6 -9 10 -20 10 -11 0
-20 -4 -20 -10z" />
    <path d="M11917 1387 l5 -9 -79 4 -80 5 -49 -13 c-27 -7 -52 -10 -56 -8 -4 3
-16 0 -27 -5 -10 -6 -38 -13 -61 -16 -24 -3 -49 -10 -56 -16 -7 -6 -26 -11
-43 -11 -17 -1 -31 -5 -31 -10 0 -5 -4 -7 -8 -4 -4 2 -21 -2 -37 -9 -17 -8
-42 -19 -57 -24 l-28 -11 0 -35 0 -35 -27 0 c-16 0 -39 6 -53 13 l-25 13 -33
-18 c-18 -10 -38 -18 -45 -18 -7 0 -22 -8 -33 -18 -10 -9 -26 -17 -34 -16 -8
0 -34 -10 -57 -23 -23 -12 -51 -23 -62 -23 l-21 0 3 -12 2 -13 -17 1 c-10 1
-18 -2 -18 -8 0 -5 -4 -7 -9 -4 -15 10 -41 -5 -41 -22 l0 -16 -11 11 -10 10
-50 -23 c-27 -13 -56 -24 -65 -24 -9 0 -18 -9 -21 -20 -5 -20 -23 -28 -23 -11
0 12 -24 8 -44 -8 l-15 -13 -12 8 -12 7 -13 -18 c-8 -10 -22 -19 -31 -21 -28
-3 -83 -27 -83 -36 0 -4 -18 -11 -40 -14 -21 -4 -39 -9 -38 -13 0 -3 0 -18 -1
-33 l-1 -27 -22 -6 -21 -7 -18 23 -19 24 -9 -13 c-4 -8 -10 -12 -13 -10 -6 4
-112 -45 -116 -54 -2 -4 -9 -5 -17 -2 l-13 5 -14 -20 -14 -20 -32 -3 c-18 -1
-32 -5 -32 -9 0 -9 -60 -30 -60 -21 0 4 -4 3 -8 -3 -7 -10 -78 -49 -94 -51 -4
-1 -17 -2 -28 -3 l-20 -1 0 -16 0 -15 -17 2 c-10 1 -28 1 -41 0 l-23 -1 7 -11
7 -12 -14 5 c-8 3 -35 -5 -61 -18 -26 -13 -54 -24 -63 -24 -8 0 -15 -4 -15
-10 0 -5 -6 -7 -14 -4 l-14 5 -14 -20 c-8 -10 -27 -21 -43 -24 -41 -5 -85 -24
-85 -36 0 -5 -9 -8 -20 -6 l-20 4 -19 -20 c-18 -20 -36 -27 -74 -28 -9 -1 -16
-4 -16 -9 1 -4 1 -19 0 -34 l-1 -28 -40 0 -40 0 0 16 c0 9 -3 14 -7 12 -83
-37 -123 -60 -123 -69 l0 -11 -24 6 -25 6 -13 -19 c-13 -18 -43 -28 -90 -30
l-18 -1 0 -16 0 -16 -15 6 c-8 3 -15 1 -15 -5 0 -6 -3 -8 -8 -5 -4 2 -25 -4
-47 -14 -21 -10 -44 -16 -51 -13 -15 5 -34 -27 -34 -56 l0 -21 -39 0 -39 0 -6
17 -7 17 -8 -13 c-5 -7 -12 -13 -17 -13 -16 0 -99 -41 -106 -52 -4 -6 -10 -7
-14 -4 -3 4 -27 -4 -52 -17 -25 -13 -49 -22 -53 -19 -4 2 -10 0 -14 -6 l-6
-10 2685 0 2686 0 0 16 c0 8 -5 24 -10 34 -6 10 -11 30 -12 44 -1 15 -5 26 -8
26 -3 0 -7 10 -7 22 -1 13 -7 24 -13 26 -5 2 -8 7 -5 12 4 7 -11 47 -36 92 -5
10 -9 25 -9 33 0 8 -3 15 -7 15 -5 0 -14 4 -22 9 l-15 9 13 16 13 16 -10 0
c-5 0 -9 8 -8 18 l1 17 -14 -3 -13 -3 5 16 6 15 -34 36 c-20 20 -34 41 -33 48
1 6 -4 21 -11 34 l-12 23 -30 -3 -30 -3 -8 14 c-5 7 -7 30 -4 50 l5 36 -39 39
c-21 22 -31 35 -23 31 l15 -8 -17 20 c-10 11 -18 24 -18 29 0 6 -16 16 -36 23
l-36 13 11 11 10 10 -32 31 c-18 17 -33 29 -33 26 -3 -10 -44 33 -44 46 0 6
-17 16 -37 21 l-38 9 2 15 3 14 -39 19 -39 18 -44 -3 -43 -4 3 31 c4 35 -14
78 -29 69 -5 -4 -9 -1 -9 5 0 6 -4 9 -9 6 -4 -3 -21 6 -37 19 -16 14 -39 28
-51 31 -13 4 -23 10 -23 14 0 8 -49 25 -64 21 -5 -1 -12 2 -15 6 -8 11 -48 33
-60 33 -5 0 -20 4 -33 9 -13 5 -27 9 -31 9 -4 1 -14 8 -22 16 l-15 14 -21 -5
-22 -6 8 13 8 13 -16 -6 c-9 -3 -29 1 -45 8 -16 8 -42 16 -58 16 -25 2 -154
30 -206 45 l-18 5 -1 -23 0 -23 -9 23 -9 22 -38 2 c-21 1 -79 2 -130 2 l-91 1
5 -8z m-380 -114 c-4 -3 -10 -3 -14 0 -3 4 0 7 7 7 7 0 10 -3 7 -7z m-2054
-840 c-7 -2 -19 -2 -25 0 -7 3 -2 5 12 5 14 0 19 -2 13 -5z" />
  </g>
  <g transform="translate(0.000000,961.000000) scale(0.100000,-0.100000)" fill="#d9dde9" stroke="none">
    <path d="M4064 9503 l1 -107 6 30 c4 16 7 64 8 107 l1 77 -9 0 -9 0 2 -107z" />
    <path d="M4001 9364 l1 -19 5 13 c3 7 2 16 -1 19 -3 4 -6 -2 -5 -13z" />
    <path d="M4045 9339 c-4 -6 -5 -12 -2 -15 2 -3 7 2 10 11 7 17 1 20 -8 4z" />
    <path d="M3982 9275 l0 -30 5 18 c2 9 2 23 0 30 -3 6 -5 -1 -5 -18z" />
    <path d="M4032 9280 c0 -14 2 -19 5 -12 2 6 2 18 0 25 -3 6 -5 1 -5 -13z" />
    <path d="M4021 9234 l1 -19 5 13 c3 7 2 16 -1 19 -3 4 -6 -2 -5 -13z" />
    <path d="M3983 9170 c2 -28 7 -53 9 -56 3 -2 11 15 17 40 13 52 13 70 1 41
l-9 -20 0 23 c-1 12 -6 22 -11 22 l-11 0 4 -50z" />
    <path d="M3981 9084 l1 -19 5 13 c3 7 2 16 -1 19 -3 4 -6 -2 -5 -13z" />
    <path d="M3921 9044 l1 -19 5 13 c3 7 2 16 -1 19 -3 4 -6 -2 -5 -13z" />
    <path d="M3966 9043 l-7 -18 12 12 c7 7 10 15 7 18 -3 3 -9 -2 -12 -12z" />
    <path d="M3951 9004 l1 -19 5 13 c3 7 2 16 -1 19 -3 4 -6 -2 -5 -13z" />
    <path d="M3933 8972 l1 -22 10 10 10 10 -11 11 -12 12 2 -21z" />
    <path d="M3908 8974 c-4 -5 -3 -25 1 -44 l8 -35 7 15 c7 18 -8 78 -16 64z" />
    <path d="M3900 8880 c0 -7 3 -10 7 -7 3 4 3 10 0 14 -4 3 -7 0 -7 -7z" />
    <path d="M3862 8815 c4 -4 3 -14 -4 -22 -6 -7 -9 -15 -7 -18 3 -2 10 4 17 15
l12 19 -13 7 -12 7 7 -8z" />
    <path d="M3820 8730 c0 -5 5 -10 11 -10 5 0 7 5 4 10 -3 6 -8 10 -11 10 -2 0
-4 -4 -4 -10z" />
    <path d="M3785 8660 c3 -5 8 -10 11 -10 2 0 4 5 4 10 0 6 -5 10 -11 10 -5 0
-7 -4 -4 -10z" />
    <path d="M3775 8619 c-4 -6 -5 -12 -2 -15 2 -3 7 2 10 11 7 17 1 20 -8 4z" />
    <path d="M3685 8590 c3 -5 10 -10 16 -10 5 0 9 5 9 10 0 6 -7 10 -16 10 l-15
0 6 -10z" />
    <path d="M3745 8570 c-4 -6 -11 -7 -17 -4 l-11 7 7 -12 8 -12 14 12 c14 11 18
19 10 19 -3 0 -8 -5 -11 -10z" />
    <path d="M3716 8523 l-7 -18 12 12 c7 7 10 15 7 18 -3 3 -9 -2 -12 -12z" />
    <path d="M3673 8465 c0 -8 4 -12 9 -9 5 3 6 10 3 15 -9 13 -12 11 -12 -6z" />
    <path d="M3656 8433 c-4 -5 -12 -8 -17 -8 -5 0 -9 -4 -10 -10 0 -5 -10 -20
-21 -32 -12 -13 -17 -23 -12 -23 8 0 80 80 71 80 -2 0 -7 -3 -11 -7z" />
    <path d="M3563 8328 c-6 -7 -16 -24 -22 -38 l-11 -25 12 19 c7 11 21 28 31 38
9 10 13 18 8 18 -5 0 -13 -6 -18 -12z" />
    <path d="M3468 8273 c7 -3 16 -2 19 1 4 3 -2 6 -13 5 l-19 -1 13 -5z" />
    <path d="M3479 8223 l-14 -18 20 15 c11 8 22 16 24 17 2 2 0 3 -6 3 -6 0 -17
-8 -24 -17z" />
    <path d="M3435 8190 l-6 -10 15 6 c18 7 21 14 7 14 -6 0 -13 -4 -16 -10z" />
    <path d="M3374 8125 l-11 -23 13 5 c15 6 26 31 16 37 -4 2 -12 -6 -18 -19z" />
    <path d="M3318 8123 c7 -3 16 -2 19 1 4 3 -2 6 -13 5 l-19 -1 13 -5z" />
    <path d="M3329 8073 l-14 -18 20 15 c11 8 22 16 24 17 2 2 0 3 -6 3 -6 0 -17
-8 -24 -17z" />
    <path d="M3224 7995 c-21 -20 -30 -32 -18 -26 11 5 26 17 34 25 7 9 18 16 26
16 7 0 16 5 19 10 3 6 0 10 -8 10 -7 0 -31 -16 -53 -35z" />
    <path d="M3124 7958 l-7 -11 11 7 c7 4 12 9 12 12 0 8 -9 4 -16 -8z" />
    <path d="M3165 7951 c3 -5 -7 -19 -21 -30 -15 -12 -23 -21 -19 -21 4 0 20 11
36 24 l28 24 -15 6 -15 6 6 -9z" />
    <path d="M3084 7878 l-7 -11 11 7 c7 4 12 9 12 12 0 8 -9 4 -16 -8z" />
    <path d="M3045 7860 c3 -5 8 -10 11 -10 2 0 4 5 4 10 0 6 -5 10 -11 10 -5 0
-7 -4 -4 -10z" />
    <path d="M2990 7829 c0 -5 5 -7 10 -4 6 3 10 8 10 11 0 2 -4 4 -10 4 -5 0 -10
-5 -10 -11z" />
    <path d="M2933 7793 c-10 -10 -13 -14 -7 -10 7 5 25 12 41 17 l28 8 -21 1
c-12 1 -30 -7 -41 -16z" />
    <path d="M2650 7725 c0 -8 4 -15 9 -15 5 0 11 7 15 15 l5 15 -14 0 c-8 0 -15
-7 -15 -15z" />
    <path d="M2733 7733 c4 -3 10 -3 14 0 3 4 0 7 -7 7 -7 0 -10 -3 -7 -7z" />
    <path d="M2819 7727 l11 -11 10 10 10 10 -22 1 -21 2 12 -12z" />
    <path d="M2769 7703 l-14 -18 15 11 c8 6 22 14 30 17 l15 5 -16 1 c-9 1 -23
-7 -30 -16z" />
    <path d="M2706 7675 c-3 -8 -1 -15 5 -15 6 0 17 7 25 15 l15 15 -19 0 c-11 0
-22 -7 -26 -15z" />
    <path d="M2598 7653 c-10 -2 -18 -9 -18 -14 0 -14 34 -11 56 6 l19 14 -20 0
c-11 -1 -28 -3 -37 -6z" />
    <path d="M2500 7635 c0 -8 6 -15 14 -15 22 0 28 17 10 24 -22 9 -24 8 -24 -9z" />
    <path d="M2524 7595 c-10 -8 -14 -15 -8 -15 5 0 14 4 20 9 5 5 18 11 29 14
l20 5 -21 1 c-11 0 -29 -6 -40 -14z" />
    <path d="M2378 7573 c7 -3 16 -2 19 1 4 3 -2 6 -13 5 l-19 -1 13 -5z" />
    <path d="M2435 7560 c3 -5 8 -10 11 -10 3 0 2 5 -1 10 -3 6 -8 10 -11 10 -3 0
-2 -4 1 -10z" />
    <path d="M2463 7563 c4 -3 10 -3 14 0 3 4 0 7 -7 7 -7 0 -10 -3 -7 -7z" />
    <path d="M2375 7530 l-6 -10 15 6 c18 7 21 14 7 14 -6 0 -13 -4 -16 -10z" />
    <path d="M2340 7520 c0 -5 5 -10 11 -10 5 0 7 5 4 10 -3 6 -8 10 -11 10 -2 0
-4 -4 -4 -10z" />
    <path d="M2110 7490 c0 -5 4 -10 9 -10 6 0 13 5 16 10 l6 10 -15 0 c-9 0 -16
-4 -16 -10z" />
    <path d="M2285 7490 c3 -5 8 -10 11 -10 3 0 2 5 -1 10 -3 6 -8 10 -11 10 -3 0
-2 -4 1 -10z" />
    <path d="M2216 7463 c-4 -5 -11 -8 -14 -9 -25 -2 -132 -40 -132 -47 0 -5 10
-6 23 -2 67 18 97 29 97 37 0 4 3 7 8 6 4 0 14 1 22 5 8 3 22 8 30 10 l15 5
-21 1 c-11 1 -24 -2 -28 -6z" />
    <path d="M1950 7400 c0 -5 7 -10 16 -10 l15 0 -6 10 c-3 6 -10 10 -16 10 -5 0
-9 -4 -9 -10z" />
    <path d="M1974 7365 c-10 -8 -14 -15 -8 -15 5 0 14 4 20 9 5 5 18 11 29 14
l20 5 -21 1 c-11 0 -29 -6 -40 -14z" />
    <path d="M1828 7343 c7 -3 16 -2 19 1 4 3 -2 6 -13 5 l-19 -1 13 -5z" />
    <path d="M1933 7343 c4 -3 10 -3 14 0 3 4 0 7 -7 7 -7 0 -10 -3 -7 -7z" />
    <path d="M1825 7300 l-6 -10 15 6 c18 7 21 14 7 14 -6 0 -13 -4 -16 -10z" />
    <path d="M1618 7263 c7 -3 16 -2 19 1 4 3 -2 6 -13 5 l-19 -1 13 -5z" />
    <path d="M1689 7244 c-19 -15 -27 -24 -19 -20 8 3 23 9 33 12 9 4 17 11 17 16
l0 9 19 -6 c11 -3 22 -2 24 2 3 5 -5 10 -17 11 l-23 2 -34 -26z" />
    <path d="M1603 7213 c-7 -2 -13 -9 -13 -15 l0 -10 13 10 c6 5 21 12 32 15 l20
5 -20 0 c-11 0 -26 -2 -32 -5z" />
    <path d="M1477 7171 l14 -14 47 16 47 16 -61 -2 -60 -2 13 -14z" />
    <path d="M1413 7125 l0 -13 14 5 c7 3 13 6 13 8 0 2 -6 5 -13 8 l-14 5 0 -13z" />
    <path d="M1453 7133 c4 -3 10 -3 14 0 3 4 0 7 -7 7 -7 0 -10 -3 -7 -7z" />
    <path d="M1288 7103 c7 -3 16 -2 19 1 4 3 -2 6 -13 5 l-19 -1 13 -5z" />
    <path d="M1285 7060 l-6 -10 15 6 c18 7 21 14 7 14 -6 0 -13 -4 -16 -10z" />
    <path d="M1250 7050 c0 -5 5 -10 11 -10 5 0 7 5 4 10 -3 6 -8 10 -11 10 -2 0
-4 -4 -4 -10z" />
    <path d="M1060 7026 c0 -2 9 -6 20 -9 11 -3 20 -1 20 4 0 5 -9 9 -20 9 -11 0
-20 -2 -20 -4z" />
    <path d="M1132 7023 c-6 -2 -10 -9 -6 -14 3 -5 0 -9 -7 -9 -7 0 -10 -3 -7 -6
4 -3 20 2 37 11 18 9 36 13 41 10 6 -3 10 -1 10 4 0 11 -44 14 -68 4z" />
    <path d="M1053 6983 c-7 -2 -13 -9 -13 -15 l0 -10 13 10 c6 5 21 12 32 15 l20
5 -20 0 c-11 0 -26 -2 -32 -5z" />
    <path d="M963 6953 c-25 -5 -32 -23 -9 -23 7 0 29 7 47 15 l34 14 -25 -1 c-14
0 -35 -3 -47 -5z" />
    <path d="M903 6903 c4 -3 10 -3 14 0 3 4 0 7 -7 7 -7 0 -10 -3 -7 -7z" />
    <path d="M860 6885 c-14 -8 -20 -14 -14 -15 5 0 19 7 30 15 24 18 16 19 -16 0z" />
    <path d="M738 6873 c7 -3 16 -2 19 1 4 3 -2 6 -13 5 l-19 -1 13 -5z" />
    <path d="M735 6830 l-6 -10 15 6 c18 7 21 14 7 14 -6 0 -13 -4 -16 -10z" />
    <path d="M700 6820 c0 -5 5 -10 11 -10 5 0 7 5 4 10 -3 6 -8 10 -11 10 -2 0
-4 -4 -4 -10z" />
    <path d="M528 6793 c7 -3 16 -2 19 1 4 3 -2 6 -13 5 l-19 -1 13 -5z" />
    <path d="M582 6793 c-6 -2 -10 -9 -6 -14 3 -5 -4 -9 -16 -9 -12 0 -19 -4 -16
-9 3 -5 -5 -12 -19 -15 -14 -4 -25 -11 -25 -16 0 -5 26 4 57 20 32 17 63 30
71 30 7 0 10 5 7 10 -6 10 -31 12 -53 3z" />
    <path d="M443 6703 c4 -3 10 -3 14 0 3 4 0 7 -7 7 -7 0 -10 -3 -7 -7z" />
    <path d="M406 6688 c3 -5 10 -6 15 -3 13 9 11 12 -6 12 -8 0 -12 -4 -9 -9z" />
    <path d="M353 6663 c4 -3 10 -3 14 0 3 4 0 7 -7 7 -7 0 -10 -3 -7 -7z" />
    <path d="M320 6650 l-15 -10 12 0 c6 0 15 5 18 10 8 12 4 12 -15 0z" />
    <path d="M173 6633 c-27 -9 -11 -21 25 -20 21 1 39 7 39 12 0 10 -42 15 -64 8z" />
    <path d="M265 6630 l-6 -10 15 6 c18 7 21 14 7 14 -6 0 -13 -4 -16 -10z" />
    <path d="M37 6563 c-9 -2 -15 -9 -12 -14 4 -5 -1 -9 -9 -9 -9 0 -16 -5 -16
-11 l0 -11 18 7 c9 4 32 13 50 20 48 17 23 32 -31 18z" />
    <path d="M11908 1393 c6 -2 18 -2 25 0 6 3 1 5 -13 5 -14 0 -19 -2 -12 -5z" />
    <path d="M12038 1393 c12 -2 32 -2 45 0 12 2 2 4 -23 4 -25 0 -35 -2 -22 -4z" />
    <path d="M11760 1380 c0 -13 30 -13 50 0 l15 10 -32 0 c-18 0 -33 -4 -33 -10z" />
    <path d="M12175 1380 c-3 -5 1 -10 9 -10 8 0 18 5 21 10 3 6 -1 10 -9 10 -8 0
-18 -4 -21 -10z" />
    <path d="M11640 1366 c0 -2 7 -7 16 -10 l15 -6 -6 10 c-6 10 -25 14 -25 6z" />
    <path d="M12326 1361 l-6 -9 20 5 c23 6 26 13 6 13 -8 0 -17 -4 -20 -9z" />
    <path d="M11595 1350 l-6 -10 26 0 26 0 -6 10 c-3 6 -12 10 -20 10 -8 0 -17
-4 -20 -10z" />
    <path d="M12367 1353 c-3 -5 6 -8 19 -8 13 0 24 3 24 8 0 4 -9 7 -19 7 -11 0
-22 -3 -24 -7z" />
    <path d="M11445 1310 c3 -5 11 -10 16 -10 6 0 7 5 4 10 -3 6 -11 10 -16 10 -6
0 -7 -4 -4 -10z" />
    <path d="M12513 1313 c4 -3 10 -3 14 0 3 4 0 7 -7 7 -7 0 -10 -3 -7 -7z" />
    <path d="M12550 1300 c0 -13 18 -22 24 -11 3 5 -1 11 -9 15 -8 3 -15 1 -15 -4z" />
    <path d="M12595 1280 c3 -5 8 -10 11 -10 3 0 2 5 -1 10 -3 6 -8 10 -11 10 -3
0 -2 -4 1 -10z" />
    <path d="M11275 1240 c3 -5 8 -10 11 -10 3 0 2 5 -1 10 -3 6 -8 10 -11 10 -3
0 -2 -4 1 -10z" />
    <path d="M11227 1225 c-8 -8 -17 -12 -19 -9 -3 2 -11 -4 -19 -13 l-14 -18 18
14 c9 7 17 11 17 8 0 -3 13 -1 30 4 16 6 27 15 24 20 -8 13 -20 11 -37 -6z" />
    <path d="M12734 1218 c-4 -7 -4 -10 1 -6 4 4 16 3 26 -3 11 -5 19 -7 19 -5 0
3 -9 10 -19 16 l-20 10 -7 -12z" />
    <path d="M12805 1190 l-6 -10 16 0 16 0 -6 10 c-3 6 -8 10 -10 10 -2 0 -7 -4
-10 -10z" />
    <path d="M11115 1180 l-6 -10 16 0 16 0 -6 10 c-3 6 -8 10 -10 10 -2 0 -7 -4
-10 -10z" />
    <path d="M11060 1150 c0 -5 5 -10 11 -10 5 0 7 5 4 10 -3 6 -8 10 -11 10 -2 0
-4 -4 -4 -10z" />
    <path d="M11030 1140 l-15 -10 12 0 c6 0 15 5 18 10 8 12 4 12 -15 0z" />
    <path d="M12896 1142 c-3 -5 1 -9 9 -9 8 0 12 4 9 9 -3 4 -7 8 -9 8 -2 0 -6
-4 -9 -8z" />
    <path d="M12930 1120 c0 -5 5 -10 11 -10 5 0 7 5 4 10 -3 6 -8 10 -11 10 -2 0
-4 -4 -4 -10z" />
    <path d="M10965 1110 c3 -5 8 -10 11 -10 3 0 2 5 -1 10 -3 6 -8 10 -11 10 -3
0 -2 -4 1 -10z" />
    <path d="M10906 1087 l-17 -13 19 0 c10 0 19 6 19 13 0 7 -1 13 -2 13 -1 0 -9
-6 -19 -13z" />
    <path d="M12966 1092 l-7 -11 20 -11 20 -10 7 12 7 13 -8 -7 c-4 -4 -13 0 -20
9 l-12 16 -7 -11z" />
    <path d="M10836 1055 c-8 -9 -19 -16 -23 -16 -4 0 -10 -2 -12 -5 -2 -2 6 -2
17 1 23 4 62 23 62 30 0 11 -30 4 -44 -10z" />
    <path d="M13020 1045 c0 -8 7 -15 15 -15 8 0 17 0 20 0 3 0 5 3 6 7 0 4 -9 10
-20 15 l-21 7 0 -14z" />
    <path d="M13106 991 c-3 -5 1 -12 10 -15 20 -8 29 -1 19 13 -8 13 -22 14 -29
2z" />
    <path d="M10650 980 c0 -5 5 -10 11 -10 5 0 7 5 4 10 -3 6 -8 10 -11 10 -2 0
-4 -4 -4 -10z" />
    <path d="M10603 969 c-37 -11 -50 -25 -23 -25 10 0 16 5 13 10 l-6 9 16 -6 16
-6 11 15 c7 8 11 14 9 13 -2 0 -18 -5 -36 -10z" />
    <path d="M10501 916 l-12 -14 13 2 c14 2 23 15 15 22 -2 2 -10 -2 -16 -10z" />
    <path d="M13196 921 c-4 -5 -2 -12 3 -15 5 -4 12 -2 15 3 4 5 2 12 -3 15 -5 4
-12 2 -15 -3z" />
    <path d="M10435 890 l-6 -10 15 0 c9 0 16 5 16 10 0 6 -4 10 -9 10 -6 0 -13
-4 -16 -10z" />
    <path d="M13230 891 c0 -5 5 -13 10 -16 6 -3 10 -2 10 4 0 5 -4 13 -10 16 -5
3 -10 2 -10 -4z" />
    <path d="M10350 850 c0 -6 -4 -8 -10 -5 -5 3 -10 1 -10 -4 0 -13 10 -14 29 -2
l13 9 -11 6 -11 7 0 -11z" />
    <path d="M13270 842 c0 -14 46 -53 53 -45 4 3 -3 17 -15 30 -22 23 -38 30 -38
15z m35 -22 c10 -11 16 -20 13 -20 -3 0 -13 9 -23 20 -10 11 -16 20 -13 20 3
0 13 -9 23 -20z" />
    <path d="M10280 826 c0 -2 7 -7 16 -10 l15 -6 -6 10 c-6 10 -25 14 -25 6z" />
    <path d="M10244 805 c-10 -8 -14 -15 -8 -15 6 0 17 7 24 15 16 19 9 19 -16 0z" />
    <path d="M10116 752 c-2 -4 4 -8 14 -8 10 0 16 4 14 8 -3 4 -9 8 -14 8 -5 0
-11 -4 -14 -8z" />
    <path d="M13363 742 c10 -10 14 -22 10 -27 l-8 -8 13 7 13 8 -17 19 c-9 10
-19 19 -22 19 -3 0 2 -8 11 -18z" />
    <path d="M10030 715 l-12 -15 11 0 c6 0 11 4 11 10 l0 9 17 -6 16 -6 -7 11
c-10 16 -21 15 -36 -3z" />
    <path d="M9965 680 c3 -5 8 -10 11 -10 3 0 2 5 -1 10 -3 6 -8 10 -11 10 -3 0
-2 -4 1 -10z" />
    <path d="M13422 655 c6 -13 15 -22 19 -19 5 2 1 14 -9 24 -9 11 -18 20 -19 20
-1 0 2 -11 9 -25z" />
    <path d="M9933 663 c4 -3 10 -3 14 0 3 4 0 7 -7 7 -7 0 -10 -3 -7 -7z" />
    <path d="M9866 642 c-3 -5 1 -9 9 -9 8 0 12 4 9 9 -3 4 -7 8 -9 8 -2 0 -6 -4
-9 -8z" />
    <path d="M9815 620 c3 -5 8 -10 11 -10 2 0 4 5 4 10 0 6 -5 10 -11 10 -5 0 -7
-4 -4 -10z" />
    <path d="M9785 609 c-10 -15 3 -25 16 -12 l11 11 -10 6 c-6 3 -14 1 -17 -5z" />
    <path d="M9740 596 c0 -2 7 -7 16 -10 l15 -6 -6 10 c-6 10 -25 14 -25 6z" />
    <path d="M13477 594 c-3 -4 5 -21 18 -39 14 -17 22 -35 17 -40 l-7 -8 13 7 12
7 -19 27 c-10 15 -19 31 -19 35 0 13 -8 18 -15 11z" />
    <path d="M9714 578 l-7 -11 11 7 c12 7 16 16 8 16 -3 0 -8 -5 -12 -12z" />
    <path d="M9566 522 c-2 -4 4 -8 14 -8 10 0 16 4 14 8 -3 4 -9 8 -14 8 -5 0
-11 -4 -14 -8z" />
    <path d="M9480 485 l-12 -15 11 0 c6 0 11 4 11 10 l0 9 17 -6 16 -6 -7 11
c-10 16 -21 15 -36 -3z" />
    <path d="M13530 489 c0 -5 5 -7 10 -4 6 3 10 8 10 11 0 2 -4 4 -10 4 -5 0 -10
-5 -10 -11z" />
    <path d="M9384 438 l-7 -11 11 7 c12 7 16 16 8 16 -3 0 -8 -5 -12 -12z" />
    <path d="M13575 430 c3 -5 8 -10 11 -10 3 0 2 5 -1 10 -3 6 -8 10 -11 10 -3 0
-2 -4 1 -10z" />
    <path d="M9326 412 c-3 -5 1 -9 9 -9 8 0 12 4 9 9 -3 4 -7 8 -9 8 -2 0 -6 -4
-9 -8z" />
    <path d="M13584 399 l-7 -12 11 7 c5 3 13 0 15 -6 l5 -13 1 12 c1 17 -16 25
-25 12z" />
    <path d="M9265 391 c-3 -5 0 -13 6 -17 l12 -7 -7 11 c-3 5 0 13 6 15 l13 5
-12 1 c-6 1 -14 -3 -18 -8z" />
    <path d="M9245 370 c3 -5 8 -10 11 -10 3 0 2 5 -1 10 -3 6 -8 10 -11 10 -3 0
-2 -4 1 -10z" />
    <path d="M9210 360 c0 -6 -4 -9 -9 -6 -5 3 -21 0 -36 -8 l-26 -14 10 -6 c5 -4
12 -2 16 4 4 6 10 8 13 6 4 -2 18 1 31 8 l24 13 -12 7 -11 7 0 -11z" />
    <path d="M13606 362 c-2 -4 -1 -14 3 -21 l9 -13 6 11 7 11 -11 0 c-6 0 -8 5
-5 10 3 6 4 10 1 10 -3 0 -7 -4 -10 -8z" />
    <path d="M9016 282 c-2 -4 4 -8 14 -8 10 0 16 4 14 8 -3 4 -9 8 -14 8 -5 0
-11 -4 -14 -8z" />
    <path d="M8946 252 c-2 -4 4 -9 15 -9 10 -1 19 2 19 8 0 11 -27 12 -34 1z" />
    <path d="M8875 210 c3 -5 8 -10 11 -10 3 0 2 5 -1 10 -3 6 -8 10 -11 10 -3 0
-2 -4 1 -10z" />
    <path d="M13666 201 c-3 -5 1 -11 9 -15 8 -3 15 -1 15 4 0 13 -18 22 -24 11z" />
    <path d="M8795 190 c3 -5 11 -10 16 -10 6 0 7 5 4 10 -3 6 -11 10 -16 10 -6 0
-7 -4 -4 -10z" />
    <path d="M8760 180 l-15 -9 22 2 c12 0 19 5 17 9 -6 10 -6 10 -24 -2z" />
    <path d="M8701 156 l-12 -14 10 -6 c5 -4 12 -2 16 4 3 5 3 10 -2 10 -4 0 -1 5
7 10 l15 10 -11 0 c-6 0 -17 -6 -23 -14z" />
    <path d="M13695 140 c3 -5 8 -10 11 -10 3 0 2 5 -1 10 -3 6 -8 10 -11 10 -3 0
-2 -4 1 -10z" />
    <path d="M8660 130 c0 -5 5 -10 11 -10 5 0 7 5 4 10 -3 6 -8 10 -11 10 -2 0
-4 -4 -4 -10z" />
    <path d="M8635 120 c3 -5 8 -10 11 -10 3 0 2 5 -1 10 -3 6 -8 10 -11 10 -3 0
-2 -4 1 -10z" />
    <path d="M8606 112 c-3 -5 1 -9 9 -9 8 0 12 4 9 9 -3 4 -7 8 -9 8 -2 0 -6 -4
-9 -8z" />
    <path d="M13704 108 l-7 -11 11 7 c12 7 16 16 8 16 -3 0 -8 -5 -12 -12z" />
    <path d="M8458 47 c-16 -6 -28 -14 -28 -19 0 -12 12 -9 34 7 10 8 23 12 29 8
l10 -6 -7 11 c-4 7 -8 12 -9 11 -1 -1 -14 -6 -29 -12z" />
    <path d="M8400 20 c0 -5 5 -10 11 -10 5 0 7 5 4 10 -3 6 -8 10 -11 10 -2 0 -4
-4 -4 -10z" />
    <path d="M8374 8 l-7 -11 11 7 c12 7 16 16 8 16 -3 0 -8 -5 -12 -12z" />
  </g>
  <g transform="translate(0.000000,961.000000) scale(0.100000,-0.100000)" fill="#e2e7ec" stroke="none">
    <path d="M11725 1370 c3 -4 18 -10 33 -12 l29 -4 0 12 0 12 -34 0 c-18 0 -31
-4 -28 -8z" />
    <path d="M11910 1370 l-15 -10 23 0 c12 0 22 5 22 10 0 13 -11 13 -30 0z" />
    <path d="M12020 1370 l0 -10 64 0 c35 0 78 -3 95 -6 l31 -7 -6 17 -6 16 -89 0
-89 0 0 -10z" />
    <path d="M11660 1355 l-45 -14 51 2 51 2 -4 13 c-3 6 -6 12 -7 11 0 -1 -21 -7
-46 -14z" />
    <path d="M11830 1366 c0 -2 9 -6 20 -9 l20 -5 -6 9 c-5 9 -34 13 -34 5z" />
    <path d="M12240 1357 l0 -12 50 0 c58 0 54 10 -7 18 l-43 5 0 -11z" />
    <path d="M11963 1343 c15 -2 37 -2 50 0 12 2 0 4 -28 4 -27 0 -38 -2 -22 -4z" />
    <path d="M11475 1314 l-49 -24 -18 6 -18 5 0 -10 0 -11 36 0 35 0 15 15 c9 8
29 15 45 15 16 0 29 4 29 9 0 19 -28 17 -75 -5z" />
    <path d="M12410 1318 c0 -4 18 -11 40 -14 22 -4 40 -10 40 -15 0 -5 10 -9 23
-9 l22 1 -19 14 c-11 8 -33 15 -49 15 -15 0 -26 4 -23 8 2 4 -4 8 -15 8 -10 0
-19 -4 -19 -8z" />
    <path d="M11518 1293 l-17 -4 6 -15 c3 -8 14 -14 24 -14 l19 0 0 20 c0 20 -2
21 -32 13z" />
    <path d="M12557 1276 l-6 -16 44 0 45 0 0 11 0 12 -29 -6 -28 -6 -10 10 -10
10 -6 -15z" />
    <path d="M11356 1268 c3 -4 14 -8 25 -8 11 0 18 4 14 9 -3 6 -14 9 -25 8 -10
-1 -16 -5 -14 -9z" />
    <path d="M12413 1263 c4 -3 10 -3 14 0 3 4 0 7 -7 7 -7 0 -10 -3 -7 -7z" />
    <path d="M12640 1238 c0 -4 6 -8 14 -8 8 0 17 4 20 8 2 4 -4 8 -15 8 -10 0
-19 -4 -19 -8z" />
    <path d="M11217 1213 c-12 -11 -8 -21 13 -26 l20 -5 0 19 c0 18 -20 26 -33 12z" />
    <path d="M12702 1209 c2 -7 -8 -16 -22 -20 l-25 -7 38 -1 38 -1 -6 10 c-3 6 1
10 9 10 28 0 24 16 -5 18 l-29 2 2 -11z" />
    <path d="M12830 1170 c-7 -5 -15 -15 -16 -23 l-2 -14 24 5 c30 6 38 17 21 30
l-13 11 -14 -9z m25 -10 c3 -5 4 -10 1 -10 -3 0 -8 5 -11 10 -3 6 -4 10 -1 10
3 0 8 -4 11 -10z" />
    <path d="M11106 1158 c3 -5 0 -9 -7 -7 -28 3 -39 -1 -39 -16 0 -17 16 -20 25
-5 3 6 17 10 30 10 33 0 40 17 10 22 l-24 5 5 -9z" />
    <path d="M11145 1110 c-3 -5 -1 -10 4 -10 6 0 11 5 11 10 0 6 -2 10 -4 10 -3
0 -8 -4 -11 -10z" />
    <path d="M12904 1108 c-3 -4 2 -8 10 -8 8 0 17 4 20 8 3 5 -2 9 -10 9 -8 0
-17 -4 -20 -9z" />
    <path d="M12873 1103 c4 -3 10 -3 14 0 3 4 0 7 -7 7 -7 0 -10 -3 -7 -7z" />
    <path d="M10900 1055 l-12 -15 21 0 21 0 0 15 c0 8 -4 15 -9 15 -5 0 -14 -7
-21 -15z" />
    <path d="M10825 1040 c-4 -6 -11 -7 -17 -4 l-11 7 7 -11 c4 -7 18 -12 31 -12
l24 0 -5 15 c-7 17 -20 20 -29 5z" />
    <path d="M13051 1007 c5 -12 23 -30 40 -39 l29 -17 0 19 0 20 -19 0 c-11 0
-23 5 -27 12 l-7 11 13 -8 13 -8 -7 12 c-4 6 -12 9 -17 6 -5 -4 -9 -1 -9 4 0
6 -4 11 -10 11 l-10 0 11 -23z" />
    <path d="M10730 1000 c0 -5 10 -10 23 -10 l22 0 -15 10 c-19 13 -30 13 -30 0z" />
    <path d="M10656 975 c-8 -8 -21 -12 -29 -9 l-14 5 -5 -13 -5 -13 43 4 44 3 0
19 c0 23 -13 24 -34 4z" />
    <path d="M10563 945 l7 -9 -32 -14 c-18 -8 -39 -14 -47 -13 l-13 2 7 -10 c3
-6 17 -11 31 -11 l24 0 0 15 0 15 25 -6 25 -6 0 10 c0 5 -8 16 -17 23 -10 7
-15 9 -10 4z" />
    <path d="M13190 904 c0 -3 7 -12 16 -21 l15 -16 12 13 12 13 -13 -7 -12 -7 -6
15 c-6 15 -24 23 -24 10z" />
    <path d="M10430 880 c0 -5 9 -10 21 -10 l20 0 -6 10 c-3 6 -13 10 -21 10 -8 0
-14 -4 -14 -10z" />
    <path d="M10593 873 c4 -3 10 -3 14 0 3 4 0 7 -7 7 -7 0 -10 -3 -7 -7z" />
    <path d="M13270 828 l0 -26 15 -6 15 -5 0 12 c0 7 -7 21 -15 31 l-15 20 0 -26z" />
    <path d="M10287 809 c-9 -5 -22 -7 -29 -3 l-11 7 7 -11 c4 -7 18 -12 32 -12
l24 0 0 15 c0 18 0 17 -23 4z" />
    <path d="M10196 768 l7 -11 -17 6 -17 7 6 -10 c8 -12 45 -13 45 -1 0 5 -7 12
-16 15 l-15 6 7 -12z" />
    <path d="M10116 738 c7 -10 34 -10 34 0 0 4 -9 8 -19 8 -11 0 -17 -4 -15 -8z" />
    <path d="M10055 710 c4 -6 11 -8 16 -5 14 9 11 15 -7 15 l-15 0 6 -10z" />
    <path d="M13354 708 l-7 -11 11 7 c12 7 16 16 8 16 -3 0 -8 -5 -12 -12z" />
    <path d="M13385 686 c-3 -9 -7 -22 -9 -30 l-5 -14 19 5 c25 7 32 29 15 43
l-15 12 -5 -16z m20 -6 c3 -5 4 -10 1 -10 -3 0 -8 5 -11 10 -3 6 -4 10 -1 10
3 0 8 -4 11 -10z" />
    <path d="M9974 679 c-10 -16 9 -28 31 -19 l20 9 -18 0 -18 1 6 10 c3 6 2 10
-4 10 -5 0 -13 -5 -17 -11z" />
    <path d="M9767 589 c-21 -11 -43 -17 -49 -13 l-11 7 7 -11 c4 -7 18 -12 32
-12 14 0 23 4 20 9 -3 5 10 12 29 15 19 4 35 11 35 16 0 15 -21 11 -63 -11z" />
    <path d="M9656 538 l7 -11 -17 6 -17 7 6 -10 c8 -12 45 -13 45 -1 0 5 -7 12
-16 15 l-15 6 7 -12z" />
    <path d="M13502 516 l2 -36 18 0 c22 0 23 13 3 30 -8 7 -13 16 -10 20 3 5 1
12 -5 15 l-11 7 3 -36z" />
    <path d="M9566 508 c3 -4 12 -8 20 -8 8 0 14 4 14 8 0 4 -9 8 -19 8 -11 0 -17
-4 -15 -8z" />
    <path d="M9500 470 l0 -21 -40 3 c-38 2 -59 -6 -48 -17 3 -3 22 -8 41 -12 l36
-5 14 13 c7 8 16 24 19 37 l6 22 -14 0 -14 0 0 -20z" />
    <path d="M13542 461 l-13 -8 7 -26 c3 -15 9 -27 13 -27 3 0 12 9 19 20 l12 20
-15 6 c-8 3 -12 10 -9 15 6 11 3 11 -14 0z" />
    <path d="M9505 410 c-3 -5 -1 -10 4 -10 6 0 11 5 11 10 0 6 -2 10 -4 10 -3 0
-8 -4 -11 -10z" />
    <path d="M13500 410 c0 -7 3 -10 7 -7 3 4 3 10 0 14 -4 3 -7 0 -7 -7z" />
    <path d="M13583 365 l10 -45 14 0 c18 0 17 25 -2 40 -8 7 -15 18 -15 26 0 7
-4 15 -9 18 -4 3 -3 -15 2 -39z" />
    <path d="M9185 340 c-3 -5 -12 -7 -20 -3 l-15 5 0 -11 0 -11 35 0 35 0 0 15
c0 17 -25 21 -35 5z" />
    <path d="M9097 297 c2 -4 -6 -5 -20 -2 l-24 6 -7 -16 -6 -17 -18 7 -17 6 10
-9 10 -10 53 5 52 6 0 16 0 17 -19 0 c-11 0 -17 -4 -14 -9z" />
    <path d="M13581 254 l1 -19 5 13 c3 7 2 16 -1 19 -3 4 -6 -2 -5 -13z" />
    <path d="M13633 263 c-15 -5 -17 -23 -4 -23 5 0 11 7 15 15 3 8 4 15 3 14 -1
0 -8 -3 -14 -6z" />
    <path d="M8960 210 c0 -22 2 -40 4 -40 2 0 6 18 8 40 2 22 0 40 -4 40 -5 0 -8
-18 -8 -40z" />
    <path d="M8814 188 l-7 -11 11 7 c7 4 12 9 12 12 0 8 -9 4 -16 -8z" />
    <path d="M13660 180 c0 -11 2 -20 4 -20 2 0 6 9 9 20 3 11 1 20 -4 20 -5 0 -9
-9 -9 -20z" />
    <path d="M13685 160 c3 -5 8 -10 11 -10 2 0 4 5 4 10 0 6 -5 10 -11 10 -5 0
-7 -4 -4 -10z" />
    <path d="M8641 116 c-13 -7 -32 -11 -41 -9 l-17 5 -7 -18 c-3 -9 -4 -19 -1
-22 3 -3 5 0 5 6 l0 12 45 0 45 0 0 20 c0 11 -1 20 -2 20 -2 -1 -14 -7 -27
-14z" />
    <path d="M13690 79 c0 -24 5 -51 10 -59 l10 -15 10 15 c13 20 13 33 -1 24
l-12 -7 5 32 5 31 -14 11 -13 11 0 -43z" />
    <path d="M8500 51 c-8 -6 -19 -7 -25 -3 -5 3 -4 -1 2 -10 7 -8 10 -18 6 -21
-3 -4 14 -6 38 -6 l44 1 -30 7 c-31 6 -36 18 -13 32 7 5 9 9 3 9 -5 0 -17 -4
-25 -9z" />
    <path d="M8570 40 c0 -7 3 -10 7 -7 3 4 3 10 0 14 -4 3 -7 0 -7 -7z" />
  </g>
  <g transform="translate(0.000000,961.000000) scale(0.100000,-0.100000)" fill="#dde2e6" stroke="none">
    <path d="M4063 9570 c0 -25 2 -35 4 -22 2 12 2 32 0 45 -2 12 -4 2 -4 -23z" />
    <path d="M3988 9191 c-5 -18 -8 -41 -8 -49 l0 -16 11 11 c6 6 9 28 7 49 l-3
39 -7 -34z" />
    <path d="M3906 8965 c-4 -14 -2 -33 3 -42 l9 -16 4 41 c4 46 -6 57 -16 17z" />
    <path d="M3828 8810 c-4 -14 -8 -36 -8 -49 l0 -25 11 11 c6 6 9 28 7 49 l-3
39 -7 -25z" />
    <path d="M2580 7650 c0 -13 30 -13 50 0 l15 10 -32 0 c-18 0 -33 -4 -33 -10z" />
    <path d="M2045 7410 l-20 -9 25 0 c14 0 34 4 45 9 l20 9 -25 0 c-14 0 -34 -4
-45 -9z" />
    <path d="M1495 7180 l-20 -9 25 0 c14 0 34 4 45 9 l20 9 -25 0 c-14 0 -34 -4
-45 -9z" />
    <path d="M1090 7020 c0 -12 47 -12 75 0 l20 9 -47 0 -48 1 0 -10z" />
    <path d="M955 6950 l-20 -9 25 0 c14 0 32 4 40 9 l15 10 -20 -1 c-11 0 -29 -4
-40 -9z" />
    <path d="M575 6790 c-7 -12 12 -12 40 0 l20 9 -27 0 c-15 1 -30 -3 -33 -9z" />
    <path d="M25 6560 l-6 -10 18 1 c10 0 27 4 38 9 l20 9 -32 0 c-17 1 -35 -3
-38 -9z" />
    <path d="M11706 1371 l-5 -8 24 5 c14 2 25 6 25 8 0 8 -39 4 -44 -5z" />
    <path d="M11783 1373 c4 -3 10 -3 14 0 3 4 0 7 -7 7 -7 0 -10 -3 -7 -7z" />
    <path d="M12229 1371 l14 -9 -74 -6 c-41 -3 -92 -8 -114 -9 -22 -2 12 -4 76
-5 l117 -2 5 14 c7 17 -1 26 -22 26 l-16 0 14 -9z" />
    <path d="M11745 1350 l-40 -7 65 -1 65 -1 -20 9 c-11 5 -22 8 -25 8 -3 -1 -23
-4 -45 -8z" />
    <path d="M11860 1349 c0 -5 11 -9 25 -9 14 0 25 2 25 4 0 2 -11 6 -25 8 -14 3
-25 1 -25 -3z" />
    <path d="M11510 1330 l-15 -10 12 0 c6 0 15 5 18 10 8 12 4 12 -15 0z" />
    <path d="M12435 1330 c3 -5 16 -10 28 -9 l22 0 -20 9 c-28 12 -37 12 -30 0z" />
    <path d="M11393 1293 c4 -3 10 -3 14 0 3 4 0 7 -7 7 -7 0 -10 -3 -7 -7z" />
    <path d="M12555 1290 c3 -5 8 -10 11 -10 3 0 2 5 -1 10 -3 6 -8 10 -11 10 -3
0 -2 -4 1 -10z" />
    <path d="M12418 1283 c7 -3 16 -2 19 1 4 3 -2 6 -13 5 l-19 -1 13 -5z" />
    <path d="M11333 1270 c-13 -5 -23 -11 -23 -14 0 -7 40 6 46 15 6 10 6 10 -23
-1z" />
    <path d="M12608 1273 c6 -2 18 -2 25 0 6 3 1 5 -13 5 -14 0 -19 -2 -12 -5z" />
    <path d="M11408 1263 c12 -2 32 -2 45 0 12 2 2 4 -23 4 -25 0 -35 -2 -22 -4z" />
    <path d="M11518 1263 c6 -2 18 -2 25 0 6 3 1 5 -13 5 -14 0 -19 -2 -12 -5z" />
    <path d="M12508 1263 c12 -2 30 -2 40 0 9 3 -1 5 -23 4 l-40 0 23 -4z" />
    <path d="M12674 1245 c11 -8 27 -15 35 -15 l16 0 -29 15 c-36 19 -47 19 -22 0z" />
    <path d="M12643 1203 c4 -3 10 -3 14 0 3 4 0 7 -7 7 -7 0 -10 -3 -7 -7z" />
    <path d="M12778 1203 c7 -3 16 -2 19 1 4 3 -2 6 -13 5 l-19 -1 13 -5z" />
    <path d="M11155 1190 c-3 -5 -15 -10 -25 -10 -10 0 -21 -4 -24 -8 -3 -5 8 -6
25 -4 16 2 29 8 29 12 0 5 8 11 18 13 l17 5 -17 1 c-9 0 -20 -3 -23 -9z" />
    <path d="M12728 1183 c6 -2 18 -2 25 0 6 3 1 5 -13 5 -14 0 -19 -2 -12 -5z" />
    <path d="M12800 1179 c0 -5 5 -7 10 -4 6 3 10 8 10 11 0 2 -4 4 -10 4 -5 0
-10 -5 -10 -11z" />
    <path d="M12852 1164 c10 -10 20 -16 22 -13 3 3 -5 11 -17 18 l-22 13 17 -18z" />
    <path d="M11074 1148 l-7 -11 11 7 c12 7 16 16 8 16 -3 0 -8 -5 -12 -12z" />
    <path d="M12800 1130 c0 -13 28 -25 38 -16 3 4 0 11 -8 16 -20 13 -30 12 -30
0z" />
    <path d="M11107 1123 c-12 -11 -8 -23 7 -23 8 0 16 7 20 15 l5 15 -13 0 c-7 0
-16 -3 -19 -7z" />
    <path d="M10990 1108 c0 -4 21 -8 48 -7 52 1 48 6 -10 11 -21 2 -38 0 -38 -4z" />
    <path d="M12933 1113 c4 -3 10 -3 14 0 3 4 0 7 -7 7 -7 0 -10 -3 -7 -7z" />
    <path d="M10845 1050 l-6 -10 15 6 c18 7 21 14 7 14 -6 0 -13 -4 -16 -10z" />
    <path d="M10765 1021 c-22 -11 -37 -20 -34 -20 10 -1 79 29 79 34 0 7 0 7 -45
-14z" />
    <path d="M10868 1023 c12 -2 32 -2 45 0 12 2 2 4 -23 4 -25 0 -35 -2 -22 -4z" />
    <path d="M13075 1010 c3 -5 8 -10 11 -10 3 0 2 5 -1 10 -3 6 -8 10 -11 10 -3
0 -2 -4 1 -10z" />
    <path d="M10613 963 c4 -3 10 -3 14 0 3 4 0 7 -7 7 -7 0 -10 -3 -7 -7z" />
    <path d="M13058 953 c7 -3 16 -2 19 1 4 3 -2 6 -13 5 l-19 -1 13 -5z" />
    <path d="M10595 940 c3 -5 8 -10 11 -10 2 0 4 5 4 10 0 6 -5 10 -11 10 -5 0
-7 -4 -4 -10z" />
    <path d="M10543 923 c4 -3 10 -3 14 0 3 4 0 7 -7 7 -7 0 -10 -3 -7 -7z" />
    <path d="M10483 903 c4 -3 10 -3 14 0 3 4 0 7 -7 7 -7 0 -10 -3 -7 -7z" />
    <path d="M10583 900 c-30 -12 -29 -18 2 -12 14 2 25 8 25 13 0 5 -1 9 -2 8 -2
0 -13 -4 -25 -9z" />
    <path d="M10459 877 c5 -5 26 -7 47 -5 l39 3 -47 5 -47 5 8 -8z" />
    <path d="M13235 880 c3 -5 8 -10 11 -10 3 0 2 5 -1 10 -3 6 -8 10 -11 10 -3 0
-2 -4 1 -10z" />
    <path d="M10200 785 c-30 -13 -50 -24 -44 -25 14 0 104 39 104 45 0 7 2 7 -60
-20z" />
    <path d="M10088 734 c-16 -8 -28 -17 -28 -19 0 -3 21 -4 48 -4 l47 2 -23 4
-24 5 6 14 c6 17 8 17 -26 -2z" />
    <path d="M10000 694 l-25 -14 17 0 c23 0 48 11 48 21 0 12 -9 10 -40 -7z" />
    <path d="M13390 703 c0 -6 8 -17 18 -24 l17 -14 -15 20 c-8 11 -16 22 -17 24
-2 2 -3 0 -3 -6z" />
    <path d="M13360 646 c0 -9 5 -16 10 -16 6 0 10 4 10 9 0 6 -4 13 -10 16 l-10
6 0 -15z" />
    <path d="M13415 641 c-3 -5 -1 -12 5 -16 l10 -6 0 15 c0 18 -6 21 -15 7z" />
    <path d="M9998 633 c6 -2 18 -2 25 0 6 3 1 5 -13 5 -14 0 -19 -2 -12 -5z" />
    <path d="M9685 568 c-11 -7 -36 -18 -55 -25 l-35 -12 20 0 c11 0 40 11 65 24
25 13 41 24 35 24 -5 0 -19 -5 -30 -11z" />
    <path d="M9768 563 c6 -2 18 -2 25 0 6 3 1 5 -13 5 -14 0 -19 -2 -12 -5z" />
    <path d="M13505 540 c3 -5 8 -10 11 -10 3 0 2 5 -1 10 -3 6 -8 10 -11 10 -3 0
-2 -4 1 -10z" />
    <path d="M9538 504 c-16 -8 -28 -17 -28 -19 0 -3 21 -4 48 -4 l47 2 -23 4 -24
5 6 14 c6 17 8 17 -26 -2z" />
    <path d="M9445 466 l-20 -14 28 5 c15 3 30 9 33 14 8 14 -20 10 -41 -5z" />
    <path d="M13565 440 c3 -5 8 -10 11 -10 2 0 4 5 4 10 0 6 -5 10 -11 10 -5 0
-7 -4 -4 -10z" />
    <path d="M9373 433 c4 -3 10 -3 14 0 3 4 0 7 -7 7 -7 0 -10 -3 -7 -7z" />
    <path d="M9360 409 c0 -5 11 -9 25 -9 14 0 25 2 25 4 0 2 -11 6 -25 8 -14 3
-25 1 -25 -3z" />
    <path d="M9153 333 c4 -3 10 -3 14 0 3 4 0 7 -7 7 -7 0 -10 -3 -7 -7z" />
    <path d="M9075 305 c-16 -8 -23 -14 -14 -15 8 0 24 7 35 15 23 18 18 18 -21 0z" />
    <path d="M13631 304 c0 -11 6 -29 14 -40 8 -10 15 -14 15 -8 0 5 -4 14 -9 20
-5 5 -11 18 -14 29 l-5 20 -1 -21z" />
    <path d="M8988 264 c-16 -8 -28 -17 -28 -19 0 -3 21 -4 48 -4 l47 2 -23 4 -24
5 6 14 c6 17 8 17 -26 -2z" />
    <path d="M13660 230 c0 -7 3 -10 7 -7 3 4 3 10 0 14 -4 3 -7 0 -7 -7z" />
    <path d="M8810 178 c0 -4 16 -8 35 -8 19 0 35 2 35 4 0 2 -16 6 -35 8 -19 2
-35 0 -35 -4z" />
    <path d="M13662 145 l0 -30 5 18 c2 9 2 23 0 30 -3 6 -5 -1 -5 -18z" />
    <path d="M13691 154 l1 -19 5 13 c3 7 2 16 -1 19 -3 4 -6 -2 -5 -13z" />
    <path d="M8588 103 c7 -3 16 -2 19 1 4 3 -2 6 -13 5 l-19 -1 13 -5z" />
    <path d="M8545 80 c-3 -5 -1 -10 4 -10 6 0 11 5 11 10 0 6 -2 10 -4 10 -3 0
-8 -4 -11 -10z" />
    <path d="M13660 80 c0 -7 3 -10 7 -7 3 4 3 10 0 14 -4 3 -7 0 -7 -7z" />
    <path d="M13720 50 c0 -8 5 -22 10 -30 l10 -15 0 15 c0 8 -5 22 -10 30 l-10
15 0 -15z" />
    <path d="M8429 23 l-14 -16 23 12 c23 12 28 21 13 21 -5 0 -15 -7 -22 -17z" />
    <path d="M8518 33 c7 -3 16 -2 19 1 4 3 -2 6 -13 5 l-19 -1 13 -5z" />
    <path d="M8473 13 c9 -2 23 -2 30 0 6 3 -1 5 -18 5 l-30 0 18 -5z" />
  </g>
  <g transform="translate(0.000000,961.000000) scale(0.100000,-0.100000)" fill="#e0e4ef" stroke="none">
    <path d="M3980 9370 c0 -7 3 -10 7 -7 3 4 3 10 0 14 -4 3 -7 0 -7 -7z" />
    <path d="M4030 9369 c0 -5 5 -7 10 -4 6 3 10 8 10 11 0 2 -4 4 -10 4 -5 0 -10
-5 -10 -11z" />
    <path d="M3925 8980 c3 -5 8 -10 11 -10 2 0 4 5 4 10 0 6 -5 10 -11 10 -5 0
-7 -4 -4 -10z" />
    <path d="M3860 8820 c0 -7 3 -10 7 -7 3 4 3 10 0 14 -4 3 -7 0 -7 -7z" />
    <path d="M3821 8734 l1 -19 5 13 c3 7 2 16 -1 19 -3 4 -6 -2 -5 -13z" />
    <path d="M3670 8560 l0 -24 12 12 12 12 -12 12 -12 12 0 -24z" />
    <path d="M3717 8573 c-4 -3 -7 -11 -7 -17 l0 -10 12 12 c6 6 9 14 7 17 -3 3
-9 2 -12 -2z" />
    <path d="M3670 8480 c0 -7 3 -10 7 -7 3 4 3 10 0 14 -4 3 -7 0 -7 -7z" />
    <path d="M3610 8425 c0 -8 -4 -15 -10 -15 -5 0 -10 -5 -10 -10 l0 -10 25 16
c28 18 33 34 10 34 -8 0 -15 -7 -15 -15z" />
    <path d="M3382 8150 c0 -14 2 -19 5 -12 2 6 2 18 0 25 -3 6 -5 1 -5 -13z" />
    <path d="M3154 7961 c3 -5 15 -7 26 -4 28 7 25 13 -6 13 -14 0 -23 -4 -20 -9z" />
    <path d="M3120 7929 c0 -5 5 -7 10 -4 6 3 10 8 10 11 0 2 -4 4 -10 4 -5 0 -10
-5 -10 -11z" />
    <path d="M3044 7875 l-19 -14 16 -1 c9 0 19 7 23 15 7 19 5 19 -20 0z" />
    <path d="M2953 7803 c4 -3 10 -3 14 0 3 4 0 7 -7 7 -7 0 -10 -3 -7 -7z" />
    <path d="M2890 7790 c0 -7 3 -10 7 -7 3 4 3 10 0 14 -4 3 -7 0 -7 -7z" />
    <path d="M2813 7733 c4 -3 10 -3 14 0 3 4 0 7 -7 7 -7 0 -10 -3 -7 -7z" />
    <path d="M2420 7570 c0 -5 4 -10 9 -10 6 0 13 5 16 10 l6 10 -15 0 c-9 0 -16
-4 -16 -10z" />
    <path d="M2340 7529 c0 -5 5 -7 10 -4 6 3 10 8 10 11 0 2 -4 4 -10 4 -5 0 -10
-5 -10 -11z" />
    <path d="M2260 7490 c0 -5 7 -7 15 -4 8 4 15 8 15 10 0 2 -7 4 -15 4 -8 0 -15
-4 -15 -10z" />
    <path d="M1870 7340 c0 -7 3 -10 7 -7 3 4 3 10 0 14 -4 3 -7 0 -7 -7z" />
    <path d="M1728 7263 c7 -3 16 -2 19 1 4 3 -2 6 -13 5 l-19 -1 13 -5z" />
    <path d="M1630 7240 l-15 -10 18 0 c9 0 17 5 17 10 0 12 -1 12 -20 0z" />
    <path d="M1400 7140 c0 -5 4 -10 9 -10 6 0 13 5 16 10 l6 10 -15 0 c-9 0 -16
-4 -16 -10z" />
    <path d="M1330 7100 c0 -7 3 -10 7 -7 3 4 3 10 0 14 -4 3 -7 0 -7 -7z" />
    <path d="M1250 7059 c0 -5 5 -7 10 -4 6 3 10 8 10 11 0 2 -4 4 -10 4 -5 0 -10
-5 -10 -11z" />
    <path d="M1178 7023 c7 -3 16 -2 19 1 4 3 -2 6 -13 5 l-19 -1 13 -5z" />
    <path d="M860 6910 c0 -5 7 -7 15 -4 8 4 15 8 15 10 0 2 -7 4 -15 4 -8 0 -15
-4 -15 -10z" />
    <path d="M780 6870 c0 -7 3 -10 7 -7 3 4 3 10 0 14 -4 3 -7 0 -7 -7z" />
    <path d="M700 6829 c0 -5 5 -7 10 -4 6 3 10 8 10 11 0 2 -4 4 -10 4 -5 0 -10
-5 -10 -11z" />
    <path d="M533 6763 c4 -3 10 -3 14 0 3 4 0 7 -7 7 -7 0 -10 -3 -7 -7z" />
    <path d="M390 6700 c0 -5 5 -10 10 -10 6 0 10 5 10 10 0 6 -4 10 -10 10 -5 0
-10 -4 -10 -10z" />
    <path d="M310 6670 c0 -5 7 -7 15 -4 8 4 15 8 15 10 0 2 -7 4 -15 4 -8 0 -15
-4 -15 -10z" />
    <path d="M233 6633 c4 -3 10 -3 14 0 3 4 0 7 -7 7 -7 0 -10 -3 -7 -7z" />
    <path d="M11593 1343 c9 -2 23 -2 30 0 6 3 -1 5 -18 5 l-30 0 18 -5z" />
    <path d="M12338 1343 c6 -2 18 -2 25 0 6 3 1 5 -13 5 -14 0 -19 -2 -12 -5z" />
    <path d="M11453 1303 c4 -3 10 -3 14 0 3 4 0 7 -7 7 -7 0 -10 -3 -7 -7z" />
    <path d="M11296 1245 c-11 -8 -27 -15 -36 -15 -9 0 -25 -7 -36 -15 l-19 -15
18 6 17 6 0 -16 0 -16 40 0 40 0 0 40 c0 22 -1 40 -2 40 -2 0 -12 -7 -22 -15z" />
    <path d="M12803 1183 c4 -3 10 -3 14 0 3 4 0 7 -7 7 -7 0 -10 -3 -7 -7z" />
    <path d="M11063 1143 c4 -3 10 -3 14 0 3 4 0 7 -7 7 -7 0 -10 -3 -7 -7z" />
    <path d="M12880 1130 c0 -5 5 -10 10 -10 6 0 10 5 10 10 0 6 -4 10 -10 10 -5
0 -10 -4 -10 -10z" />
    <path d="M10980 1110 l-15 -10 18 0 c9 0 17 5 17 10 0 12 -1 12 -20 0z" />
    <path d="M12952 1064 l3 -39 55 -3 55 -3 -22 20 c-12 12 -25 21 -29 21 -3 0
-19 10 -36 21 l-29 21 3 -38z m43 -24 c-3 -5 -13 -10 -21 -10 -8 0 -14 5 -14
10 0 6 9 10 21 10 l20 0 -6 -10z" />
    <path d="M10915 1070 c-3 -5 -1 -10 4 -10 6 0 11 5 11 10 0 6 -2 10 -4 10 -3
0 -8 -4 -11 -10z" />
    <path d="M10833 1043 c4 -3 10 -3 14 0 3 4 0 7 -7 7 -7 0 -10 -3 -7 -7z" />
    <path d="M10673 983 c4 -3 10 -3 14 0 3 4 0 7 -7 7 -7 0 -10 -3 -7 -7z" />
    <path d="M13110 970 l0 -20 27 0 26 0 -18 20 c-10 11 -22 20 -27 20 -4 0 -8
-9 -8 -20z" />
    <path d="M13190 911 c0 -6 5 -13 10 -16 l10 -6 0 15 c0 9 -4 16 -10 16 -5 0
-10 -4 -10 -9z" />
    <path d="M10425 880 c-8 -13 5 -13 25 0 l15 10 -17 0 c-9 0 -20 -4 -23 -10z" />
    <path d="M10328 832 c-16 -9 -28 -21 -28 -27 l0 -10 40 -1 40 -1 0 28 0 29
-12 0 c-7 0 -25 -8 -40 -18z" />
    <path d="M13290 805 c0 -8 7 -15 16 -15 l16 0 -12 15 c-7 8 -14 15 -16 15 -2
0 -4 -7 -4 -15z" />
    <path d="M10053 713 c4 -3 10 -3 14 0 3 4 0 7 -7 7 -7 0 -10 -3 -7 -7z" />
    <path d="M13363 713 c4 -3 10 -3 14 0 3 4 0 7 -7 7 -7 0 -10 -3 -7 -7z" />
    <path d="M9974 678 l-7 -11 11 7 c12 7 16 16 8 16 -3 0 -8 -5 -12 -12z" />
    <path d="M13423 614 l0 -51 40 -1 39 -2 -28 33 c-16 19 -34 42 -41 53 l-11 19
1 -51z" />
    <path d="M9885 640 l-6 -10 15 0 c9 0 16 5 16 10 0 6 -4 10 -9 10 -6 0 -13 -4
-16 -10z" />
    <path d="M9810 610 l-15 -10 18 0 c9 0 17 5 17 10 0 12 -1 12 -20 0z" />
    <path d="M13526 497 c3 -10 9 -15 12 -12 3 3 0 11 -7 18 l-12 12 7 -18z" />
    <path d="M9503 483 c4 -3 10 -3 14 0 3 4 0 7 -7 7 -7 0 -10 -3 -7 -7z" />
    <path d="M9420 450 l-15 -10 12 0 c6 0 15 5 18 10 8 12 4 12 -15 0z" />
    <path d="M9345 410 l-6 -10 15 0 c9 0 16 5 16 10 0 6 -4 10 -9 10 -6 0 -13 -4
-16 -10z" />
    <path d="M9233 363 l-43 -15 14 -14 c8 -8 31 -14 50 -14 l36 0 0 30 c0 17 -3
29 -7 29 -5 -1 -27 -8 -50 -16z" />
    <path d="M13600 353 c0 -4 5 -15 10 -23 l10 -15 0 17 c0 9 -4 20 -10 23 -5 3
-10 3 -10 -2z" />
    <path d="M8883 203 c4 -3 10 -3 14 0 3 4 0 7 -7 7 -7 0 -10 -3 -7 -7z" />
    <path d="M8790 180 l-15 -10 23 0 c12 0 22 5 22 10 0 13 -11 13 -30 0z" />
    <path d="M8705 140 c-3 -5 -15 -10 -26 -10 l-19 0 0 -20 0 -20 40 0 40 0 0 30
0 30 -14 0 c-8 0 -18 -4 -21 -10z" />
    <path d="M13705 100 c3 -5 8 -10 11 -10 3 0 2 5 -1 10 -3 6 -8 10 -11 10 -3 0
-2 -4 1 -10z" />
    <path d="M8408 13 c7 -3 16 -2 19 1 4 3 -2 6 -13 5 l-19 -1 13 -5z" />
  </g>
  <g transform="translate(0.000000,961.000000) scale(0.100000,-0.100000)" fill="#000000" stroke="none" />
  <g transform="translate(0.000000,961.000000) scale(0.100000,-0.100000)" fill="#000000" stroke="none" />
  <g transform="translate(0.000000,961.000000) scale(0.100000,-0.100000)" fill="#000000" stroke="none" />
  <g transform="translate(0.000000,961.000000) scale(0.100000,-0.100000)" fill="#000000" stroke="none" />
  <g transform="translate(0.000000,961.000000) scale(0.100000,-0.100000)" fill="#000000" stroke="none" />
  <g transform="translate(0.000000,961.000000) scale(0.100000,-0.100000)" fill="#000000" stroke="none" />
  <g transform="translate(0.000000,961.000000) scale(0.100000,-0.100000)" fill="#000000" stroke="none" />
  <g transform="translate(0.000000,961.000000) scale(0.100000,-0.100000)" fill="#0000ff" stroke="none" />
  <g transform="translate(0.000000,961.000000) scale(0.100000,-0.100000)" fill="#00ffff" stroke="none" />
  <g transform="translate(0.000000,961.000000) scale(0.100000,-0.100000)" fill="#ff00ff" stroke="none" />
  <g transform="translate(0.000000,961.000000) scale(0.100000,-0.100000)" fill="#000000" stroke="none" />
  <g transform="translate(0.000000,961.000000) scale(0.100000,-0.100000)" fill="#ffff00" stroke="none" />
  <g transform="translate(0.000000,961.000000) scale(0.100000,-0.100000)" fill="#00ff00" stroke="none" />
  <g transform="translate(0.000000,961.000000) scale(0.100000,-0.100000)" fill="#ff0000" stroke="none" />
  <g transform="translate(0.000000,961.000000) scale(0.100000,-0.100000)" fill="#c0c0c0" stroke="none" />
  <g transform="translate(0.000000,961.000000) scale(0.100000,-0.100000)" fill="#ffffff" stroke="none" />
  <g transform="translate(0.000000,961.000000) scale(0.100000,-0.100000)" fill="#000000" stroke="none" />
</svg>