<svg xmlns="http://www.w3.org/2000/svg" width="18" height="18" viewBox="0 0 18 18">
  <path fill="#E64C3C" d="M13.7151692,5.61539712 C14.0406901,5.94091796 14.0406901,6.46858725 13.7151692,6.79394533 L8.1246745,12.3846029 C7.79915367,12.7099609 7.27164712,12.7099609 6.94612629,12.3846029 L4.28483075,9.72314454 C3.95930992,9.39778646 3.95930992,8.87011717 4.28483075,8.54475912 C4.61018879,8.21923829 5.13785808,8.21923829 5.46321617,8.54475912 L7.535319,10.616862 L12.5366211,5.61539712 C12.8621419,5.29003908 13.3898112,5.29003908 13.7151692,5.61539712 L13.7151692,5.61539712 Z M18,9 C18,4.02522787 13.9741211,0 9,0 C4.02522787,0 0,4.02587892 0,9 C0,13.9747721 4.02587892,18 9,18 C13.9747721,18 18,13.9741211 18,9 Z"/>
</svg>
