<?xml version="1.0" encoding="UTF-8"?>
<svg width="11px" height="11px" viewBox="0 0 11 11" version="1.1" xmlns="http://www.w3.org/2000/svg" xmlns:xlink="http://www.w3.org/1999/xlink">
    <title>close (2)</title>
    <g id="Page-1" stroke="none" stroke-width="1" fill="none" fill-rule="evenodd">
        <g id="landing-page" transform="translate(-349.000000, -451.000000)" fill="#D94F00" fill-rule="nonzero">
            <g id="Group-4" transform="translate(341.000000, 443.000000)">
                <g id="close-(2)" transform="translate(8.000000, 8.000000)">
                    <path d="M10.8884916,0.116223321 C10.7397661,-0.0323902455 10.4986823,-0.0323902455 10.3499569,0.116223321 L5.5023826,4.96170133 L0.65480833,0.116223321 C0.508701269,-0.0350075193 0.267569869,-0.0391951575 0.116273602,0.106848722 C-0.0350226643,0.252892602 -0.0392121141,0.493919729 0.106894947,0.64515057 C0.10994182,0.648338885 0.113083907,0.651432027 0.116273602,0.654525169 L4.96384788,5.5 L0.116273602,10.3454812 C-0.0350226643,10.4915727 -0.0392121141,10.7325522 0.106942555,10.883783 C0.253097224,11.0350139 0.494181017,11.0392015 0.645477283,10.8931101 C0.648666978,10.8900645 0.651761458,10.8869238 0.65480833,10.883783 L5.5023826,6.03830503 L10.3499569,10.883783 C10.5012531,11.0298745 10.7423369,11.0256869 10.8884916,10.874456 C11.0310757,10.726937 11.0310757,10.4930003 10.8884916,10.3454812 L6.04091733,5.5 L10.8884916,0.654525169 C11.0371695,0.505864015 11.0371695,0.264884475 10.8884916,0.116223321 Z" id="Path"></path>
                </g>
            </g>
        </g>
    </g>
</svg>