<?xml version="1.0" encoding="UTF-8"?>
<svg width="27px" height="13px" viewBox="0 0 27 13" version="1.1" xmlns="http://www.w3.org/2000/svg" xmlns:xlink="http://www.w3.org/1999/xlink">
    <!-- Generator: Sketch 58 (84663) - https://sketch.com -->
    <title>left-arrow (2)</title>
    <desc>Created with Sketch.</desc>
    <g id="Page-1" stroke="none" stroke-width="1" fill="none" fill-rule="evenodd">
        <g id="landing-page" transform="translate(-55.000000, -31.000000)" fill="#989898" fill-rule="nonzero">
            <g id="left-arrow-(2)" transform="translate(55.000000, 31.000000)">
                <path d="M25.9453133,5.45161237 L3.60926343,5.45161237 L7.30931537,1.79148129 C7.72217249,1.38302944 7.72375452,0.71924278 7.31284857,0.30885142 C6.90194263,-0.101592359 6.234115,-0.103112521 5.82125788,0.305286902 L0.310308838,5.75690287 C0.309939698,5.75721738 0.309676026,5.75758432 0.30935962,5.75789884 C-0.102442809,6.16635068 -0.103761167,6.83228654 0.309254152,7.24210128 C0.309623292,7.2424158 0.309886964,7.24278274 0.31020337,7.24309725 L5.82115241,12.6947132 C6.23395679,13.1030602 6.90178442,13.1016449 7.3127431,12.6911487 C7.72364905,12.2807573 7.72206702,11.6169707 7.3092099,11.2085188 L3.60926343,7.54838775 L25.9453133,7.54838775 C26.5278168,7.54838775 27,7.07902458 27,6.5 C27,5.92097554 26.5278168,5.45161237 25.9453133,5.45161237 Z" id="Path"></path>
            </g>
        </g>
    </g>
</svg>