<svg id="svg" version="1.1" xmlns="http://www.w3.org/2000/svg" xmlns:xlink="http://www.w3.org/1999/xlink" width="400" height="400" viewBox="0, 0, 400,400"><g id="svgg"><path id="path0" d="M196.600 0.400 C 196.464 0.620,195.933 0.800,195.420 0.800 C 184.357 0.800,168.674 9.419,160.738 19.861 C 159.128 21.980,158.515 22.407,153.389 24.986 C 136.219 33.625,123.521 44.521,112.119 60.400 C 110.776 62.270,109.317 64.450,108.876 65.245 C 107.307 68.076,106.997 68.603,106.783 68.800 C 106.280 69.263,101.925 78.511,100.473 82.200 C 91.691 104.508,90.707 128.879,97.613 153.045 C 98.486 156.099,99.200 158.997,99.200 159.484 C 99.200 159.971,99.573 161.367,100.029 162.585 C 101.663 166.953,103.784 165.338,108.743 155.950 C 112.734 148.397,113.351 144.834,111.806 138.253 C 110.975 134.714,110.331 134.806,119.678 137.130 C 134.528 140.823,149.067 143.290,164.800 144.786 C 167.330 145.027,170.120 145.307,171.000 145.410 C 185.303 147.070,218.358 146.750,235.000 144.790 C 253.336 142.631,263.928 140.788,278.447 137.229 C 282.104 136.333,285.370 135.600,285.706 135.600 C 286.235 135.600,286.288 136.369,286.100 141.379 C 285.951 145.382,286.039 147.748,286.388 149.079 C 290.421 164.473,296.759 169.847,298.796 159.600 C 299.459 156.268,299.662 156.083,300.967 157.633 C 301.560 158.338,302.185 158.754,302.356 158.557 C 303.614 157.114,306.649 145.114,308.062 136.000 C 308.776 131.397,308.776 112.203,308.062 107.600 C 304.763 86.318,297.559 69.615,284.860 53.800 C 282.308 50.622,273.081 41.248,270.464 39.175 C 269.509 38.419,268.249 37.381,267.664 36.869 C 263.525 33.249,250.025 25.335,242.700 22.235 C 239.016 20.676,238.301 20.168,236.245 17.655 C 234.143 15.086,233.207 14.153,230.568 12.000 C 223.212 5.997,215.549 2.623,206.000 1.183 C 204.130 0.901,202.429 0.519,202.220 0.335 C 201.683 -0.138,196.898 -0.083,196.600 0.400 M141.348 249.100 C 141.103 249.705,140.680 250.830,140.410 251.600 C 135.913 264.420,129.994 270.963,112.200 282.785 C 97.301 292.682,91.259 298.100,85.461 306.761 C 81.677 312.414,77.869 321.012,76.776 326.374 C 73.593 341.985,75.207 355.506,81.797 368.423 C 84.532 373.784,86.186 376.223,90.162 380.761 C 93.971 385.109,93.971 385.109,93.704 381.288 C 93.047 371.874,101.118 360.915,112.590 355.641 C 117.111 353.564,120.306 352.554,131.112 349.787 C 142.237 346.938,145.604 345.799,151.400 342.921 C 169.499 333.934,183.655 317.072,187.265 300.200 C 187.846 297.487,187.985 277.852,187.460 272.786 C 187.099 269.303,187.637 269.726,180.600 267.395 C 171.588 264.409,157.979 258.291,153.328 255.135 C 152.408 254.511,151.543 254.000,151.406 254.000 C 151.145 254.000,146.348 250.831,146.000 250.429 C 144.251 248.407,141.902 247.736,141.348 249.100 " stroke="none" fill="#040404" fill-rule="evenodd"></path><path id="path1" d="M318.114 342.180 C 315.679 342.941,313.198 344.467,308.067 348.361 C 295.881 357.607,290.684 361.045,283.000 364.945 C 253.478 379.927,208.836 383.907,167.988 375.197 C 154.283 372.275,128.079 365.025,110.709 359.350 L 107.617 358.340 105.283 360.136 C 97.886 365.828,93.873 373.008,93.902 380.500 C 93.919 384.969,93.912 384.976,91.755 382.700 C 83.939 374.455,78.440 363.659,76.046 351.856 C 75.606 349.687,75.191 347.886,75.123 347.854 C 74.406 347.511,69.526 346.000,69.137 346.000 C 68.628 346.000,68.305 346.327,64.748 350.452 C 53.767 363.189,44.352 388.313,46.847 398.223 L 47.295 400.000 199.242 400.000 L 351.189 400.000 351.751 398.655 C 355.199 390.402,354.949 380.945,350.985 369.732 C 344.497 351.379,329.338 338.673,318.114 342.180 " stroke="none" fill="#cb55b3" fill-rule="evenodd"></path><path id="path2" d="M234.000 14.600 C 234.746 15.370,235.447 16.000,235.557 16.000 C 235.667 16.000,235.146 15.370,234.400 14.600 C 233.654 13.830,232.953 13.200,232.843 13.200 C 232.733 13.200,233.254 13.830,234.000 14.600 M309.293 115.600 C 309.293 116.370,309.375 116.685,309.476 116.300 C 309.576 115.915,309.576 115.285,309.476 114.900 C 309.375 114.515,309.293 114.830,309.293 115.600 M309.293 128.000 C 309.293 128.770,309.375 129.085,309.476 128.700 C 309.576 128.315,309.576 127.685,309.476 127.300 C 309.375 126.915,309.293 127.230,309.293 128.000 M112.174 136.929 C 112.315 137.628,112.586 139.010,112.777 140.000 C 112.968 140.990,113.252 142.461,113.409 143.269 C 113.675 144.635,113.180 147.910,112.422 149.800 C 111.651 151.723,110.175 154.611,109.900 154.733 C 109.735 154.807,109.600 155.212,109.600 155.633 C 109.600 156.055,109.462 156.400,109.294 156.400 C 109.126 156.400,108.682 157.075,108.306 157.900 C 103.893 167.605,99.339 167.984,98.499 158.718 C 98.262 156.099,98.464 155.950,96.157 160.448 C 89.288 173.848,101.805 201.498,116.439 205.249 C 118.529 205.784,119.066 206.347,119.628 208.591 C 122.969 221.936,125.704 228.984,130.105 235.597 C 132.445 239.111,140.678 247.427,141.823 247.432 C 142.250 247.434,144.959 248.991,147.843 250.891 C 153.725 254.769,155.915 256.095,158.100 257.099 C 158.925 257.478,159.600 257.926,159.600 258.094 C 159.600 258.262,159.960 258.400,160.400 258.400 C 160.840 258.400,161.200 258.580,161.200 258.800 C 161.200 259.020,161.560 259.200,162.000 259.200 C 162.440 259.200,162.800 259.380,162.800 259.600 C 162.800 259.820,163.053 260.000,163.362 260.000 C 163.671 260.000,164.616 260.343,165.462 260.763 C 169.004 262.519,173.881 264.402,183.764 267.830 C 185.504 268.434,187.218 269.214,187.572 269.564 C 187.927 269.914,188.663 270.258,189.209 270.330 C 189.754 270.401,191.902 270.896,193.982 271.430 C 198.733 272.649,199.897 272.642,204.928 271.370 C 210.954 269.846,220.002 266.944,225.353 264.819 C 229.204 263.289,228.857 262.820,228.935 269.668 L 229.000 275.400 223.116 276.884 C 212.115 279.658,190.422 281.178,189.235 279.257 C 188.582 278.200,188.464 279.515,188.444 288.055 C 188.415 300.056,187.544 304.581,183.873 311.800 C 182.179 315.130,178.504 320.902,177.930 321.133 C 177.749 321.207,177.600 321.445,177.600 321.662 C 177.600 321.879,177.375 322.295,177.100 322.585 C 176.825 322.876,175.970 323.880,175.200 324.816 C 169.597 331.632,159.944 339.659,154.500 342.029 C 153.785 342.341,153.200 342.731,153.200 342.898 C 153.200 343.064,152.840 343.200,152.400 343.200 C 151.960 343.200,151.600 343.380,151.600 343.600 C 151.600 343.820,151.347 344.000,151.038 344.000 C 150.729 344.000,149.694 344.386,148.738 344.857 C 146.908 345.759,146.272 346.020,144.000 346.800 C 143.230 347.064,142.240 347.429,141.800 347.610 C 141.360 347.791,140.550 348.031,140.000 348.142 C 139.450 348.253,138.370 348.521,137.600 348.736 C 136.830 348.952,133.030 349.947,129.157 350.948 C 119.224 353.514,115.974 354.614,110.900 357.127 C 108.304 358.413,108.304 358.503,110.900 359.293 C 112.055 359.645,114.890 360.506,117.200 361.207 C 121.145 362.405,127.504 364.353,130.200 365.190 C 167.391 376.740,199.096 381.515,223.258 379.204 C 243.125 377.303,252.441 375.823,262.392 372.986 C 278.595 368.367,289.898 362.218,308.000 348.178 C 314.378 343.230,317.851 341.617,322.265 341.551 C 323.699 341.529,324.720 341.383,324.536 341.227 C 319.726 337.150,312.875 333.753,303.600 330.845 C 301.510 330.190,296.290 328.550,292.000 327.201 C 282.084 324.083,279.187 323.183,274.000 321.608 C 271.690 320.907,268.810 320.011,267.600 319.616 C 266.390 319.222,263.510 318.319,261.200 317.610 C 258.890 316.901,256.010 315.994,254.800 315.594 C 253.590 315.194,250.710 314.299,248.400 313.605 C 231.619 308.562,231.300 308.005,229.980 281.400 C 229.313 267.966,229.508 263.576,230.800 262.927 C 231.350 262.651,233.960 261.398,236.600 260.143 C 250.274 253.643,262.498 244.300,268.291 235.920 C 272.404 229.971,274.753 224.131,278.479 210.600 C 279.687 206.212,279.886 205.788,280.800 205.662 C 286.961 204.813,296.255 195.439,301.086 185.200 C 305.119 176.654,305.810 168.063,303.003 161.345 C 302.510 160.165,302.490 159.766,302.897 159.244 C 303.351 158.663,303.327 158.658,302.653 159.188 C 301.975 159.722,301.825 159.676,301.038 158.688 C 299.907 157.271,299.601 157.316,299.594 158.900 C 299.581 161.793,297.189 166.000,295.557 166.000 C 294.651 166.000,290.400 161.898,290.400 161.024 C 290.400 160.718,290.265 160.407,290.100 160.333 C 289.505 160.069,288.070 156.696,285.958 150.600 C 285.563 149.459,285.422 147.154,285.467 142.565 L 285.529 136.131 282.465 136.886 C 280.779 137.302,278.770 137.804,278.000 138.002 C 276.269 138.447,270.224 139.860,268.600 140.199 C 263.907 141.179,259.292 142.005,257.200 142.240 C 256.210 142.351,255.040 142.604,254.600 142.802 C 254.160 142.999,252.900 143.255,251.800 143.370 C 250.700 143.484,248.450 143.767,246.800 143.998 C 230.176 146.328,220.037 146.984,200.600 146.986 C 178.953 146.989,165.485 146.044,146.600 143.199 C 145.060 142.967,142.990 142.683,142.000 142.568 C 141.010 142.453,139.840 142.197,139.400 142.000 C 138.960 141.803,137.790 141.553,136.800 141.444 C 135.810 141.336,134.100 141.066,133.000 140.844 C 127.916 139.820,124.862 139.142,122.000 138.401 C 121.230 138.202,119.790 137.862,118.800 137.645 C 117.810 137.428,115.856 136.893,114.459 136.455 L 111.918 135.658 112.174 136.929 M74.486 339.218 C 74.413 340.428,73.976 341.017,71.519 343.217 C 69.221 345.274,68.796 345.823,69.419 345.928 C 69.848 346.000,71.169 346.412,72.353 346.844 C 75.038 347.822,74.849 348.167,74.699 342.554 C 74.629 339.939,74.533 338.438,74.486 339.218 M332.390 344.683 C 332.934 345.077,334.194 345.993,335.190 346.717 L 337.000 348.034 335.539 346.717 C 334.736 345.993,333.476 345.077,332.739 344.683 C 331.451 343.993,331.438 343.993,332.390 344.683 M65.578 349.100 L 64.200 350.600 65.700 349.222 C 67.096 347.938,67.384 347.600,67.078 347.600 C 67.012 347.600,66.337 348.275,65.578 349.100 M338.400 349.400 C 339.146 350.170,339.847 350.800,339.957 350.800 C 340.067 350.800,339.546 350.170,338.800 349.400 C 338.054 348.630,337.353 348.000,337.243 348.000 C 337.133 348.000,337.654 348.630,338.400 349.400 M59.846 356.600 C 59.491 357.150,58.909 358.095,58.553 358.700 L 57.905 359.800 58.710 358.826 C 59.660 357.676,60.921 355.600,60.669 355.600 C 60.571 355.600,60.201 356.050,59.846 356.600 M344.585 357.100 C 345.202 358.035,345.783 358.800,345.876 358.800 C 346.164 358.800,344.633 356.366,344.032 355.869 C 343.720 355.611,343.968 356.165,344.585 357.100 M354.520 386.000 C 354.520 387.210,354.595 387.705,354.687 387.100 C 354.778 386.495,354.778 385.505,354.687 384.900 C 354.595 384.295,354.520 384.790,354.520 386.000 M353.450 392.450 C 353.309 393.153,353.269 393.802,353.359 393.892 C 353.450 393.983,353.648 393.491,353.800 392.800 C 353.952 392.109,353.993 391.459,353.891 391.358 C 353.789 391.256,353.591 391.747,353.450 392.450 M46.120 394.400 C 46.120 395.610,46.195 396.105,46.287 395.500 C 46.378 394.895,46.378 393.905,46.287 393.300 C 46.195 392.695,46.120 393.190,46.120 394.400 " stroke="none" fill="#dbab8b" fill-rule="evenodd"></path><path id="path3" d="M0.000 200.000 L 0.000 400.000 23.435 400.000 L 46.870 400.000 46.535 398.300 C 45.832 394.731,46.403 389.234,48.208 382.200 C 48.893 379.530,50.801 373.901,51.191 373.400 C 51.362 373.180,51.637 372.550,51.801 372.000 C 52.228 370.570,55.964 363.087,57.935 359.711 C 61.504 353.600,66.980 347.115,73.106 341.745 C 74.370 340.636,74.418 340.481,74.621 336.800 C 74.818 333.223,75.216 330.441,75.997 327.200 C 76.613 324.643,77.287 322.210,77.605 321.400 C 77.778 320.960,78.483 319.160,79.173 317.400 C 82.840 308.039,90.479 297.993,98.800 291.586 C 99.790 290.824,100.690 290.102,100.800 289.982 C 101.086 289.669,108.459 284.578,112.000 282.247 C 119.619 277.232,124.776 273.192,129.422 268.600 C 134.009 264.066,136.493 260.240,138.772 254.200 C 139.270 252.880,139.822 251.440,139.999 251.000 C 140.175 250.560,140.534 249.627,140.797 248.926 L 141.275 247.652 136.690 243.126 C 127.885 234.435,124.263 227.103,119.628 208.591 C 119.066 206.347,118.529 205.784,116.439 205.249 C 108.847 203.303,98.842 191.041,95.149 179.156 C 93.115 172.611,93.960 163.646,97.078 158.684 C 98.015 157.192,98.071 154.983,97.202 153.800 C 97.040 153.580,96.785 152.860,96.636 152.200 C 96.367 151.013,95.947 149.309,95.157 146.200 C 92.529 135.866,91.829 120.133,93.401 106.800 C 93.878 102.760,96.140 92.609,97.190 89.800 C 97.355 89.360,97.710 88.280,97.981 87.400 C 99.650 81.964,103.740 72.787,106.629 67.995 C 107.493 66.562,108.455 64.897,108.768 64.295 C 109.080 63.693,109.485 63.200,109.668 63.200 C 109.850 63.200,110.000 62.975,110.000 62.700 C 110.001 62.425,110.451 61.677,111.000 61.038 C 111.550 60.399,112.000 59.736,112.000 59.566 C 112.000 59.396,112.226 59.019,112.502 58.729 C 112.778 58.438,114.083 56.761,115.402 55.002 C 122.807 45.126,137.357 32.720,148.200 27.038 C 149.080 26.577,149.890 26.099,150.000 25.975 C 150.110 25.851,152.093 24.836,154.407 23.718 C 157.287 22.327,158.928 21.271,159.607 20.372 C 161.732 17.558,162.628 16.522,164.775 14.390 C 165.999 13.175,167.720 11.646,168.600 10.993 C 169.480 10.339,170.290 9.702,170.400 9.576 C 172.691 6.956,183.293 2.326,190.138 0.956 C 191.932 0.597,193.475 0.235,193.567 0.151 C 193.658 0.068,150.143 -0.000,96.867 -0.000 L 0.000 0.000 0.000 200.000 M205.261 0.195 C 205.369 0.302,206.967 0.676,208.814 1.027 C 215.486 2.292,226.359 7.050,228.400 9.597 C 228.510 9.734,228.979 10.106,229.443 10.423 C 231.588 11.891,234.586 14.728,236.501 17.102 C 238.656 19.773,238.943 19.955,245.800 22.967 C 248.180 24.013,249.545 24.700,253.400 26.794 C 256.691 28.581,258.592 29.755,258.733 30.087 C 258.807 30.259,259.077 30.404,259.333 30.408 C 259.866 30.418,267.234 35.708,270.452 38.392 C 276.094 43.097,283.635 51.050,287.717 56.600 C 288.526 57.700,289.333 58.780,289.511 59.000 C 290.571 60.315,292.400 63.210,292.400 63.572 C 292.400 63.807,292.547 64.000,292.726 64.000 C 292.905 64.000,293.351 64.585,293.717 65.300 C 294.082 66.015,294.924 67.500,295.587 68.600 C 298.294 73.092,302.790 83.336,304.190 88.200 C 304.569 89.520,305.025 90.960,305.203 91.400 C 305.381 91.840,305.734 93.100,305.988 94.200 C 306.242 95.300,306.611 96.830,306.806 97.600 C 309.721 109.072,310.242 127.597,307.998 140.000 C 307.325 143.722,306.234 148.781,305.669 150.800 C 304.761 154.045,303.076 159.033,302.748 159.444 C 302.535 159.712,302.637 160.469,303.003 161.345 C 305.810 168.063,305.119 176.654,301.086 185.200 C 296.255 195.439,286.961 204.813,280.800 205.662 C 279.886 205.788,279.687 206.212,278.479 210.600 C 274.753 224.131,272.404 229.971,268.291 235.920 C 262.498 244.300,250.274 253.643,236.600 260.143 C 233.960 261.398,231.350 262.651,230.800 262.927 C 228.051 264.307,230.213 299.721,233.399 305.494 C 235.568 309.426,236.913 310.153,248.400 313.605 C 250.710 314.299,253.590 315.194,254.800 315.594 C 256.010 315.994,258.890 316.901,261.200 317.610 C 263.510 318.319,266.390 319.222,267.600 319.616 C 268.810 320.011,271.690 320.907,274.000 321.608 C 279.187 323.183,282.084 324.083,292.000 327.201 C 296.290 328.550,301.510 330.190,303.600 330.845 C 311.966 333.468,318.080 336.351,322.932 339.961 C 324.069 340.807,326.193 341.890,327.650 342.366 C 338.450 345.895,348.318 358.581,352.725 374.600 C 355.270 383.854,355.126 390.865,352.248 397.749 C 351.891 398.601,351.600 399.456,351.600 399.649 C 351.600 399.847,362.178 400.000,375.800 400.000 L 400.000 400.000 400.000 200.000 L 400.000 0.000 302.533 0.000 C 248.927 0.000,205.154 0.088,205.261 0.195 " stroke="none" fill="#fbfbfb" fill-rule="evenodd"></path><path id="path4" d="M283.800 136.207 C 282.920 136.487,282.503 136.735,282.874 136.758 C 283.245 136.781,284.010 136.624,284.574 136.410 L 285.600 136.020 285.676 138.510 L 285.751 141.000 285.897 138.642 C 286.074 135.797,285.861 135.550,283.800 136.207 M114.200 136.400 C 115.396 136.914,116.395 136.914,115.600 136.400 C 115.270 136.187,114.640 136.022,114.200 136.034 L 113.400 136.056 114.200 136.400 M117.000 137.200 C 117.440 137.389,118.160 137.544,118.600 137.544 L 119.400 137.544 118.600 137.200 C 118.160 137.011,117.440 136.856,117.000 136.856 L 116.200 136.856 117.000 137.200 M279.800 137.200 L 279.000 137.544 279.800 137.544 C 280.240 137.544,280.960 137.389,281.400 137.200 L 282.200 136.856 281.400 136.856 C 280.960 136.856,280.240 137.011,279.800 137.200 M112.238 139.000 C 112.570 140.984,112.802 141.304,112.794 139.767 C 112.791 139.125,112.604 138.330,112.379 138.000 C 112.086 137.570,112.046 137.854,112.238 139.000 M120.400 138.000 C 120.730 138.213,121.360 138.378,121.800 138.366 L 122.600 138.344 121.800 138.000 C 120.604 137.486,119.605 137.486,120.400 138.000 M276.200 138.000 C 275.467 138.315,275.484 138.346,276.400 138.366 C 276.950 138.378,277.670 138.213,278.000 138.000 C 278.787 137.491,277.384 137.491,276.200 138.000 M123.600 138.800 C 123.930 139.013,124.650 139.178,125.200 139.166 C 126.116 139.146,126.133 139.115,125.400 138.800 C 124.216 138.291,122.813 138.291,123.600 138.800 M273.000 138.800 L 272.200 139.144 273.000 139.144 C 273.440 139.144,274.160 138.989,274.600 138.800 L 275.400 138.456 274.600 138.456 C 274.160 138.456,273.440 138.611,273.000 138.800 M127.000 139.600 C 127.440 139.789,128.250 139.938,128.800 139.932 L 129.800 139.920 128.800 139.600 C 128.250 139.424,127.440 139.274,127.000 139.268 L 126.200 139.256 127.000 139.600 M269.600 139.600 L 268.600 139.920 269.600 139.932 C 270.150 139.938,270.960 139.789,271.400 139.600 L 272.200 139.256 271.400 139.268 C 270.960 139.274,270.150 139.424,269.600 139.600 M130.800 140.400 C 131.130 140.613,131.940 140.773,132.600 140.754 C 133.776 140.721,133.780 140.714,132.800 140.400 C 131.270 139.910,130.042 139.910,130.800 140.400 M265.600 140.400 C 264.620 140.714,264.624 140.721,265.800 140.754 C 266.460 140.773,267.270 140.613,267.600 140.400 C 268.358 139.910,267.130 139.910,265.600 140.400 M134.800 141.200 C 135.130 141.413,135.940 141.573,136.600 141.554 C 137.776 141.521,137.780 141.514,136.800 141.200 C 135.270 140.710,134.042 140.710,134.800 141.200 M261.600 141.200 C 260.620 141.514,260.624 141.521,261.800 141.554 C 262.460 141.573,263.270 141.413,263.600 141.200 C 264.358 140.710,263.130 140.710,261.600 141.200 M285.334 144.000 C 285.334 145.650,285.405 146.325,285.491 145.500 C 285.578 144.675,285.578 143.325,285.491 142.500 C 285.405 141.675,285.334 142.350,285.334 144.000 M112.868 144.600 C 112.876 146.782,112.982 147.482,113.200 146.800 C 113.626 145.470,113.626 143.192,113.200 142.200 C 112.971 141.668,112.860 142.471,112.868 144.600 M139.400 142.000 C 139.536 142.220,140.312 142.382,141.124 142.360 C 142.450 142.324,142.498 142.288,141.600 142.000 C 140.155 141.537,139.114 141.537,139.400 142.000 M257.000 142.000 L 255.800 142.305 257.200 142.347 C 257.970 142.369,258.870 142.213,259.200 142.000 C 259.939 141.523,258.876 141.523,257.000 142.000 M144.000 142.800 C 144.330 143.013,145.320 143.169,146.200 143.147 C 147.741 143.107,147.756 143.094,146.600 142.800 C 144.732 142.325,143.264 142.325,144.000 142.800 M252.200 142.800 C 251.067 143.088,251.093 143.108,252.676 143.153 C 253.598 143.179,254.464 143.020,254.600 142.800 C 254.879 142.348,253.975 142.348,252.200 142.800 M149.200 143.576 C 149.739 143.946,153.968 144.211,153.567 143.850 C 153.475 143.768,152.320 143.580,151.000 143.432 C 149.304 143.243,148.776 143.286,149.200 143.576 M246.800 143.600 L 245.400 143.895 247.200 143.941 C 248.190 143.967,249.270 143.813,249.600 143.600 C 250.322 143.134,249.016 143.134,246.800 143.600 M155.000 144.378 C 155.754 144.723,160.324 144.972,159.967 144.649 C 159.875 144.566,158.540 144.389,157.000 144.255 C 155.176 144.097,154.479 144.139,155.000 144.378 M241.000 144.400 L 239.400 144.686 241.400 144.737 C 242.500 144.765,243.670 144.613,244.000 144.400 C 244.711 143.941,243.566 143.941,241.000 144.400 M161.800 145.177 C 162.552 145.522,167.926 145.775,167.567 145.449 C 167.475 145.365,165.960 145.188,164.200 145.054 C 162.134 144.897,161.284 144.941,161.800 145.177 M233.800 145.200 L 231.800 145.474 234.400 145.509 C 235.830 145.528,237.360 145.389,237.800 145.200 C 238.784 144.777,236.882 144.777,233.800 145.200 M170.600 146.017 C 172.146 146.343,179.905 146.549,179.567 146.255 C 179.475 146.176,177.060 146.014,174.200 145.895 C 170.934 145.760,169.595 145.806,170.600 146.017 M224.200 146.000 L 221.000 146.253 224.600 146.279 C 226.580 146.294,228.740 146.168,229.400 146.000 C 230.926 145.612,229.106 145.612,224.200 146.000 M182.800 146.860 C 185.692 147.203,215.621 147.207,218.200 146.865 C 219.300 146.719,211.290 146.600,200.400 146.600 C 189.510 146.600,181.590 146.717,182.800 146.860 M285.644 148.172 C 285.601 149.304,285.853 150.282,287.119 153.909 C 288.040 156.549,288.068 155.684,287.155 152.783 C 286.707 151.362,286.194 149.480,286.015 148.600 C 285.732 147.219,285.682 147.160,285.644 148.172 M112.446 148.267 C 112.421 148.524,112.284 149.064,112.141 149.467 C 111.940 150.036,111.994 150.097,112.379 149.742 C 112.652 149.491,112.789 148.951,112.684 148.542 C 112.579 148.134,112.472 148.010,112.446 148.267 M111.055 151.855 C 110.676 152.649,110.448 153.381,110.549 153.482 C 110.649 153.583,111.041 153.014,111.418 152.218 C 111.796 151.422,112.023 150.690,111.924 150.591 C 111.825 150.491,111.433 151.060,111.055 151.855 M288.000 156.221 C 288.000 156.845,289.788 160.386,290.107 160.393 C 290.275 160.397,289.939 159.455,289.359 158.300 C 288.204 156.001,288.000 155.689,288.000 156.221 M299.456 157.078 C 299.315 157.218,299.200 157.927,299.200 158.652 C 299.200 163.849,296.054 166.590,292.977 164.073 C 292.524 163.703,292.779 163.985,293.543 164.700 C 294.308 165.415,295.256 166.000,295.650 166.000 C 297.197 166.000,299.581 161.709,299.594 158.900 C 299.601 157.313,299.890 157.275,301.118 158.700 L 302.066 159.800 301.214 158.512 C 300.251 157.055,299.825 156.708,299.456 157.078 M98.480 158.800 C 98.480 159.350,98.624 160.250,98.800 160.800 L 99.120 161.800 99.120 160.800 C 99.120 160.250,98.976 159.350,98.800 158.800 L 98.480 157.800 98.480 158.800 M106.986 159.700 L 106.352 161.000 107.167 160.000 C 107.952 159.037,108.208 158.400,107.810 158.400 C 107.706 158.400,107.335 158.985,106.986 159.700 M290.422 161.000 C 290.427 161.529,291.542 162.991,291.769 162.765 C 291.866 162.668,291.602 162.141,291.182 161.594 C 290.761 161.047,290.420 160.780,290.422 161.000 M104.393 163.609 C 103.203 165.162,101.825 165.527,100.767 164.570 C 100.039 163.911,99.990 163.908,100.230 164.534 C 100.569 165.417,101.873 166.118,102.508 165.759 C 103.365 165.274,104.860 163.826,105.251 163.100 C 105.831 162.024,105.421 162.267,104.393 163.609 M145.353 249.524 C 145.731 250.135,153.285 255.029,155.600 256.163 L 157.000 256.848 156.000 256.033 C 155.450 255.585,154.873 255.214,154.717 255.209 C 154.561 255.204,152.340 253.840,149.780 252.179 C 147.220 250.517,145.228 249.322,145.353 249.524 M157.200 256.956 C 157.200 257.079,157.740 257.459,158.400 257.800 C 159.060 258.141,159.600 258.257,159.600 258.057 C 159.600 257.857,159.285 257.582,158.900 257.446 C 158.515 257.311,157.975 257.095,157.700 256.966 C 157.425 256.838,157.200 256.834,157.200 256.956 M225.800 264.634 C 221.263 266.523,211.015 269.831,204.928 271.370 C 199.875 272.648,198.728 272.651,193.907 271.398 C 191.786 270.846,189.589 270.357,189.025 270.310 C 188.461 270.264,188.000 270.075,188.000 269.891 C 188.000 269.258,179.774 266.093,179.316 266.550 C 179.235 266.631,180.121 266.999,181.284 267.367 C 182.448 267.735,184.323 268.400,185.450 268.844 L 187.500 269.652 187.804 275.326 C 187.971 278.447,188.188 280.730,188.286 280.400 C 188.826 278.576,188.819 278.584,189.207 279.211 C 190.422 281.178,211.945 279.701,223.116 276.884 L 229.000 275.400 229.132 273.200 C 229.297 270.459,228.817 263.594,228.463 263.617 C 228.318 263.626,227.120 264.084,225.800 264.634 M176.200 265.600 C 177.080 266.007,178.070 266.341,178.400 266.341 C 178.730 266.341,178.280 266.007,177.400 265.600 C 176.520 265.193,175.530 264.859,175.200 264.859 C 174.870 264.859,175.320 265.193,176.200 265.600 M187.864 296.336 C 187.685 298.171,187.628 299.761,187.736 299.870 C 188.035 300.168,188.486 295.997,188.328 294.400 C 188.239 293.509,188.071 294.214,187.864 296.336 M187.000 302.400 C 186.848 303.091,186.814 303.747,186.924 303.857 C 187.034 303.967,187.248 303.491,187.400 302.800 C 187.552 302.109,187.586 301.453,187.476 301.343 C 187.366 301.233,187.152 301.709,187.000 302.400 M186.200 305.200 C 186.050 305.673,186.017 306.150,186.127 306.260 C 186.237 306.370,186.450 306.073,186.600 305.600 C 186.750 305.127,186.783 304.650,186.673 304.540 C 186.563 304.430,186.350 304.727,186.200 305.200 M183.931 310.750 C 182.903 312.868,181.079 316.085,179.878 317.900 C 178.677 319.715,177.808 321.196,177.947 321.191 C 178.754 321.162,186.491 307.522,185.968 307.052 C 185.876 306.968,184.959 308.633,183.931 310.750 M172.000 327.987 C 172.000 328.736,163.790 335.647,159.531 338.482 C 157.160 340.061,155.290 341.423,155.376 341.509 C 155.618 341.751,162.319 337.151,165.634 334.467 C 169.179 331.596,173.167 327.600,172.486 327.600 C 172.219 327.600,172.000 327.774,172.000 327.987 M144.000 346.400 C 143.010 346.815,142.380 347.163,142.600 347.172 C 143.150 347.194,145.922 346.211,146.259 345.874 C 146.720 345.414,145.890 345.607,144.000 346.400 M140.200 347.600 C 139.486 347.907,139.515 347.947,140.476 347.972 C 141.068 347.987,141.664 347.820,141.800 347.600 C 142.095 347.122,141.311 347.122,140.200 347.600 M137.000 348.443 C 136.340 348.648,132.650 349.627,128.800 350.618 C 124.950 351.609,121.440 352.600,121.000 352.820 C 119.923 353.360,120.484 353.232,129.200 350.956 C 133.050 349.951,136.799 348.980,137.532 348.799 C 138.949 348.449,139.711 347.977,138.767 348.034 C 138.455 348.053,137.660 348.237,137.000 348.443 M118.400 353.600 C 117.867 353.945,117.867 353.988,118.400 353.988 C 118.730 353.988,119.270 353.813,119.600 353.600 C 120.133 353.255,120.133 353.212,119.600 353.212 C 119.270 353.212,118.730 353.387,118.400 353.600 M116.000 354.400 C 115.467 354.745,115.467 354.788,116.000 354.788 C 116.330 354.788,116.870 354.613,117.200 354.400 C 117.733 354.055,117.733 354.012,117.200 354.012 C 116.870 354.012,116.330 354.187,116.000 354.400 M109.700 357.270 C 108.985 357.712,108.403 358.282,108.406 358.537 C 108.411 358.871,108.494 358.876,108.706 358.556 C 108.868 358.312,109.585 357.812,110.300 357.446 C 111.015 357.079,111.600 356.694,111.600 356.590 C 111.600 356.247,111.019 356.455,109.700 357.270 M206.700 379.895 C 207.855 379.976,209.745 379.976,210.900 379.895 C 212.055 379.814,211.110 379.748,208.800 379.748 C 206.490 379.748,205.545 379.814,206.700 379.895 " stroke="none" fill="#c1977a" fill-rule="evenodd"></path><path id="path5" d="M193.600 0.400 C 193.270 0.613,192.550 0.793,192.000 0.800 C 183.170 0.908,168.977 9.129,161.026 18.739 C 158.417 21.893,158.108 22.125,153.453 24.420 C 139.040 31.528,124.578 43.099,116.206 54.220 C 114.889 55.969,113.698 57.490,113.559 57.600 C 111.881 58.933,102.707 74.997,100.881 79.800 C 99.086 84.523,98.656 85.711,97.839 88.200 C 92.856 103.391,91.486 118.334,93.421 136.400 C 93.911 140.975,95.821 149.195,97.860 155.508 C 98.377 157.108,98.814 158.728,98.832 159.108 C 98.850 159.502,98.948 159.591,99.060 159.314 C 99.168 159.047,98.527 156.257,97.634 153.114 C 89.779 125.449,92.032 98.594,104.307 73.600 C 105.549 71.070,106.663 68.910,106.783 68.800 C 106.997 68.603,107.307 68.076,108.876 65.245 C 117.072 50.457,135.009 34.234,153.389 24.986 C 158.515 22.407,159.128 21.980,160.738 19.861 C 168.674 9.419,184.357 0.800,195.420 0.800 C 195.933 0.800,196.464 0.620,196.600 0.400 C 196.920 -0.118,194.402 -0.118,193.600 0.400 M202.220 0.335 C 202.429 0.519,204.130 0.901,206.000 1.183 C 214.218 2.423,222.426 5.707,228.036 10.000 C 232.289 13.255,233.791 14.656,236.245 17.655 C 238.326 20.199,238.905 20.612,242.600 22.187 C 250.146 25.406,263.502 33.229,267.664 36.869 C 268.249 37.381,269.509 38.419,270.464 39.175 C 281.385 47.826,292.921 63.084,299.514 77.600 C 303.433 86.228,306.319 96.355,308.062 107.600 C 308.776 112.203,308.776 131.397,308.062 136.000 C 307.242 141.293,306.031 147.067,304.931 150.930 C 304.378 152.871,304.010 154.543,304.112 154.645 C 304.320 154.853,305.245 152.047,305.973 149.000 C 306.235 147.900,306.606 146.370,306.795 145.600 C 308.181 139.976,309.600 127.934,309.600 121.800 C 309.600 115.666,308.181 103.624,306.795 98.000 C 306.606 97.230,306.242 95.700,305.988 94.600 C 305.734 93.500,305.383 92.240,305.208 91.800 C 305.033 91.360,304.438 89.560,303.884 87.800 C 296.193 63.344,276.513 39.346,254.414 27.478 C 249.682 24.937,246.543 23.347,245.200 22.814 C 240.189 20.824,239.387 20.266,234.805 15.582 C 227.157 7.764,218.423 2.902,209.000 1.218 C 207.460 0.942,205.787 0.556,205.281 0.359 C 204.116 -0.096,201.710 -0.115,202.220 0.335 M111.206 135.900 C 111.210 136.332,111.325 136.431,111.506 136.160 C 111.668 135.918,112.070 135.617,112.400 135.492 C 112.801 135.339,112.701 135.253,112.100 135.232 C 111.495 135.210,111.202 135.430,111.206 135.900 M285.924 137.000 C 286.014 137.770,286.158 138.400,286.244 138.400 C 286.330 138.400,286.400 137.770,286.400 137.000 C 286.400 136.230,286.256 135.600,286.080 135.600 C 285.904 135.600,285.834 136.230,285.924 137.000 M281.800 136.400 C 281.296 136.617,281.222 136.744,281.600 136.744 C 281.930 136.744,282.560 136.589,283.000 136.400 C 283.504 136.183,283.578 136.056,283.200 136.056 C 282.870 136.056,282.240 136.211,281.800 136.400 M118.600 137.200 C 119.040 137.389,119.670 137.544,120.000 137.544 C 120.378 137.544,120.304 137.417,119.800 137.200 C 119.360 137.011,118.730 136.856,118.400 136.856 C 118.022 136.856,118.096 136.983,118.600 137.200 M278.600 137.200 C 278.096 137.417,278.022 137.544,278.400 137.544 C 278.730 137.544,279.360 137.389,279.800 137.200 C 280.304 136.983,280.378 136.856,280.000 136.856 C 279.670 136.856,279.040 137.011,278.600 137.200 M121.800 138.000 C 122.240 138.189,122.870 138.344,123.200 138.344 C 123.578 138.344,123.504 138.217,123.000 138.000 C 122.560 137.811,121.930 137.656,121.600 137.656 C 121.222 137.656,121.296 137.783,121.800 138.000 M112.509 142.400 C 112.509 143.390,112.587 143.795,112.682 143.300 C 112.778 142.805,112.778 141.995,112.682 141.500 C 112.587 141.005,112.509 141.410,112.509 142.400 M285.740 144.000 C 285.740 145.870,285.809 146.635,285.893 145.700 C 285.977 144.765,285.977 143.235,285.893 142.300 C 285.809 141.365,285.740 142.130,285.740 144.000 M154.100 143.876 C 154.485 143.976,155.115 143.976,155.500 143.876 C 155.885 143.775,155.570 143.693,154.800 143.693 C 154.030 143.693,153.715 143.775,154.100 143.876 M243.700 143.876 C 244.085 143.976,244.715 143.976,245.100 143.876 C 245.485 143.775,245.170 143.693,244.400 143.693 C 243.630 143.693,243.315 143.775,243.700 143.876 M160.705 144.683 C 161.202 144.779,161.922 144.775,162.305 144.675 C 162.687 144.575,162.280 144.496,161.400 144.501 C 160.520 144.505,160.207 144.587,160.705 144.683 M237.100 144.682 C 237.595 144.778,238.405 144.778,238.900 144.682 C 239.395 144.587,238.990 144.509,238.000 144.509 C 237.010 144.509,236.605 144.587,237.100 144.682 M164.500 145.076 C 164.885 145.176,165.515 145.176,165.900 145.076 C 166.285 144.975,165.970 144.893,165.200 144.893 C 164.430 144.893,164.115 144.975,164.500 145.076 M112.501 146.600 C 112.505 147.480,112.587 147.793,112.683 147.295 C 112.779 146.798,112.775 146.078,112.675 145.695 C 112.575 145.313,112.496 145.720,112.501 146.600 M168.500 145.487 C 169.105 145.578,170.095 145.578,170.700 145.487 C 171.305 145.395,170.810 145.320,169.600 145.320 C 168.390 145.320,167.895 145.395,168.500 145.487 M229.305 145.487 C 229.914 145.579,230.814 145.577,231.305 145.482 C 231.797 145.387,231.300 145.311,230.200 145.314 C 229.100 145.317,228.697 145.395,229.305 145.487 M173.500 145.882 C 173.995 145.978,174.805 145.978,175.300 145.882 C 175.795 145.787,175.390 145.709,174.400 145.709 C 173.410 145.709,173.005 145.787,173.500 145.882 M225.105 145.883 C 225.602 145.979,226.322 145.975,226.705 145.875 C 227.087 145.775,226.680 145.696,225.800 145.701 C 224.920 145.705,224.607 145.787,225.105 145.883 M181.100 146.293 C 182.035 146.377,183.565 146.377,184.500 146.293 C 185.435 146.209,184.670 146.140,182.800 146.140 C 180.930 146.140,180.165 146.209,181.100 146.293 M216.711 146.293 C 217.651 146.378,219.091 146.377,219.911 146.291 C 220.730 146.205,219.960 146.136,218.200 146.137 C 216.440 146.139,215.770 146.209,216.711 146.293 M189.700 146.696 C 190.965 146.775,193.035 146.775,194.300 146.696 C 195.565 146.616,194.530 146.551,192.000 146.551 C 189.470 146.551,188.435 146.616,189.700 146.696 M206.900 146.696 C 208.165 146.775,210.235 146.775,211.500 146.696 C 212.765 146.616,211.730 146.551,209.200 146.551 C 206.670 146.551,205.635 146.616,206.900 146.696 M286.056 148.800 C 286.056 149.130,286.211 149.760,286.400 150.200 C 286.617 150.704,286.744 150.778,286.744 150.400 C 286.744 150.070,286.589 149.440,286.400 149.000 C 286.183 148.496,286.056 148.422,286.056 148.800 M303.192 156.673 C 302.475 158.916,302.192 159.027,300.899 157.580 C 300.019 156.596,299.647 156.401,299.402 156.797 C 299.193 157.135,299.232 157.227,299.512 157.054 C 299.753 156.906,300.437 157.426,301.038 158.214 C 301.907 159.354,302.221 159.538,302.584 159.122 C 303.162 158.461,304.139 155.605,303.877 155.343 C 303.768 155.235,303.460 155.833,303.192 156.673 M298.650 160.050 C 298.317 161.717,298.640 162.040,299.000 160.400 C 299.152 159.709,299.193 159.059,299.091 158.958 C 298.989 158.856,298.791 159.347,298.650 160.050 M140.468 250.100 C 135.188 264.329,130.366 269.967,114.200 280.808 C 108.697 284.499,100.393 290.328,100.000 290.776 C 99.890 290.902,99.080 291.540,98.200 292.194 C 92.012 296.792,83.968 306.851,80.680 314.100 C 78.654 318.567,77.773 320.824,77.127 323.200 C 75.344 329.761,75.116 331.471,75.014 339.000 L 74.917 346.200 75.229 339.200 C 75.401 335.350,75.716 331.390,75.927 330.400 C 76.139 329.410,76.502 327.684,76.734 326.564 C 77.895 320.952,81.621 312.497,85.461 306.761 C 91.259 298.100,97.301 292.682,112.200 282.785 C 125.930 273.663,133.403 266.711,136.908 259.800 C 138.245 257.164,139.441 254.364,140.410 251.600 C 141.543 248.372,141.791 247.961,142.501 248.144 C 142.886 248.244,143.100 248.162,142.977 247.963 C 142.320 246.899,141.349 247.726,140.468 250.100 M165.200 261.400 C 165.750 261.714,166.380 261.972,166.600 261.972 C 166.820 261.972,166.550 261.714,166.000 261.400 C 165.450 261.086,164.820 260.828,164.600 260.828 C 164.380 260.828,164.650 261.086,165.200 261.400 M187.301 271.000 C 187.305 271.880,187.387 272.193,187.483 271.695 C 187.579 271.198,187.575 270.478,187.475 270.095 C 187.375 269.713,187.296 270.120,187.301 271.000 M187.724 277.800 C 187.726 279.120,187.801 279.612,187.890 278.893 C 187.979 278.174,187.977 277.094,187.886 276.493 C 187.795 275.892,187.722 276.480,187.724 277.800 M188.162 287.000 C 188.162 290.520,188.224 291.906,188.298 290.081 C 188.372 288.256,188.372 285.376,188.297 283.681 C 188.222 281.986,188.161 283.480,188.162 287.000 M187.701 295.400 C 187.705 296.280,187.787 296.593,187.883 296.095 C 187.979 295.598,187.975 294.878,187.875 294.495 C 187.775 294.113,187.696 294.520,187.701 295.400 M187.249 299.800 C 187.216 300.240,187.096 301.050,186.983 301.600 L 186.777 302.600 187.206 301.619 C 187.442 301.079,187.561 300.269,187.472 299.819 C 187.313 299.021,187.307 299.021,187.249 299.800 M182.600 312.800 C 182.259 313.460,182.069 314.000,182.179 314.000 C 182.289 314.000,182.659 313.460,183.000 312.800 C 183.341 312.140,183.531 311.600,183.421 311.600 C 183.311 311.600,182.941 312.140,182.600 312.800 M174.549 324.684 C 173.477 325.940,172.809 326.839,173.064 326.683 C 173.623 326.339,176.954 322.400,176.686 322.400 C 176.582 322.400,175.620 323.428,174.549 324.684 M169.923 329.809 C 168.891 330.794,168.179 331.600,168.340 331.600 C 168.501 331.600,169.428 330.790,170.400 329.800 C 172.677 327.480,172.358 327.486,169.923 329.809 M166.175 333.300 L 165.000 334.600 166.300 333.425 C 167.512 332.330,167.784 332.000,167.475 332.000 C 167.406 332.000,166.821 332.585,166.175 333.300 M131.800 349.600 C 131.296 349.817,131.222 349.944,131.600 349.944 C 131.930 349.944,132.560 349.789,133.000 349.600 C 133.504 349.383,133.578 349.256,133.200 349.256 C 132.870 349.256,132.240 349.411,131.800 349.600 M128.600 350.400 C 128.096 350.617,128.022 350.744,128.400 350.744 C 128.730 350.744,129.360 350.589,129.800 350.400 C 130.304 350.183,130.378 350.056,130.000 350.056 C 129.670 350.056,129.040 350.211,128.600 350.400 " stroke="none" fill="#989898" fill-rule="evenodd"></path></g></svg>