<svg xmlns="http://www.w3.org/2000/svg" width="66" height="71" viewBox="0 0 66 71">
  <path fill="#E0AAA5" d="M54.6338571,47.854 L44.319,45.7760667 C43.2252857,45.5536 42.4285714,44.5785333 42.4285714,43.4567333 L42.4285714,40.754 C52.7292857,39.7694667 54.2142857,37.6536667 54.2142857,35.5 C54.2142857,29.1336667 49.9997143,14.3514667 49.302,11.9469333 C49.2171429,8.23126667 48.5382857,6.13913333 46.8458571,4.31206667 C45.6484286,3.0104 43.89,2.70746667 42.471,2.46606667 C41.9147143,2.36666667 41.1462857,2.23886667 40.8634286,2.08266667 C38.3507143,0.714733333 35.8662857,0.0568 32.901,0 C26.6922857,0.2556 19.0598571,4.22213333 16.4481429,11.4736 C16.2595714,12.1504667 11.7857143,28.1586 11.7857143,35.5 C11.7857143,38.5624667 15.2365714,40.1765333 23.5714286,40.9149333 L23.5714286,43.4567333 C23.5714286,44.5785333 22.7747143,45.5536 21.6762857,45.7760667 L11.3755714,47.8492667 C4.785,49.1509333 0,55.0060667 0,61.77 L0,66.2666667 C0,68.8747333 2.11671429,71 4.71428571,71 L61.2857143,71 C63.8832857,71 66,68.8747333 66,66.2666667 L66,61.77 C66,55.0060667 61.215,49.1509333 54.6338571,47.854 Z"/>
</svg>
