<svg xmlns="http://www.w3.org/2000/svg" width="19" height="19" viewBox="0 0 19 19">
  <path fill="#e04805" d="M10.7179487,8.55 L10.7179487,10.925 L16.4666667,10.925 C15.8820513,14.25 13.1538462,16.625 9.74358974,16.625 C5.74871795,16.625 2.43589744,13.395 2.43589744,9.5 C2.43589744,5.605 5.74871795,2.375 9.74358974,2.375 C11.7897436,2.375 13.5435897,3.23 14.8102564,4.56 L16.5641026,2.85 C14.8102564,1.14 12.4717949,0 9.74358974,0 C4.38461538,0 0,4.275 0,9.5 C0,14.725 4.38461538,19 9.74358974,19 C15.1025641,19 19,14.725 19,9.5 L19,8.55 L10.7179487,8.55 Z"/>
</svg>
