<?xml version="1.0" encoding="UTF-8"?>
<svg width="29px" height="29px" viewBox="0 0 29 29" version="1.1" xmlns="http://www.w3.org/2000/svg" xmlns:xlink="http://www.w3.org/1999/xlink">
    <!-- Generator: Sketch 58 (84663) - https://sketch.com -->
    <title>scroll</title>
    <desc>Created with Sketch.</desc>
    <g id="Page-1" stroke="none" stroke-width="1" fill="none" fill-rule="evenodd">
        <g id="landing-page" transform="translate(-214.000000, -125.000000)" fill="#5B5A5A" fill-rule="nonzero">
            <g id="scroll" transform="translate(214.000000, 125.000000)">
                <path d="M25.9414062,21.5864944 L25.9414062,9.27025606 C25.9414062,9.08905029 25.8546753,8.91868594 25.7082061,8.81204224 L24.3098907,7.79538725 L25.4108429,7.10729219 C25.5688171,7.00861357 25.6681595,6.83847046 25.6765671,6.65239717 C25.6847534,6.46632382 25.60112,6.28799438 25.4526596,6.17559814 L24.4309158,5.40143584 L24.4309158,5.04101562 L25.375,5.04101562 C25.687851,5.04101562 25.9414062,4.78746036 25.9414062,4.47460937 L25.9414062,3.34179687 C25.9414062,1.49920654 24.4421997,0 22.5996094,0 L3.28515625,0 C3.27940371,0 3.27409366,0.000663760156 3.2685623,0.000885009766 C3.25550839,0.000663760156 3.24289702,0 3.22984317,0 C2.33797456,0 1.50938418,0.440513625 0.896736131,1.24056245 C0.318382277,1.99569702 0,2.99133301 0,4.04405215 C0,5.93664551 1.23879243,7.4765625 2.76145171,7.4765625 L5.89505005,7.4765625 L5.89505005,16.4541016 C5.89505005,16.6461487 5.99217988,16.8249207 6.15325166,16.9293518 L7.26371768,17.6493072 L6.08399961,18.7033539 C5.96385957,18.8106613 5.89505005,18.9644317 5.89505005,19.1257248 L5.89505005,24.0344314 C5.89505005,24.0649643 5.89814755,24.0948334 5.9027939,24.1240387 C5.89814755,24.1534653 5.89505005,24.1833344 5.89505005,24.2138672 C5.89505005,25.6548843 6.26719668,26.8677902 6.97100069,27.7213821 C7.65090942,28.5457688 8.61778262,29 9.69329072,29 L25.2617187,29 C27.3231277,29 29,27.3231277 29,25.2617187 C29,23.4326248 27.679123,21.9070893 25.9414062,21.5864944 L25.9414062,21.5864944 Z M4.64873506,6.34375 C4.81555937,6.02935029 4.91003418,5.66649629 4.91003418,5.27664946 C4.91003418,3.97081758 4.06418608,3.05859375 2.85282901,3.05859375 C2.53997803,3.05859375 2.28642276,3.31214902 2.28642276,3.625 C2.28642276,3.93785098 2.53997803,4.19140625 2.85282901,4.19140625 C3.43162539,4.19140625 3.77722168,4.5971832 3.77722168,5.27664946 C3.77722168,5.9698334 3.25373837,6.34375 2.76145171,6.34375 C1.87865449,6.34375 1.1328125,5.29058838 1.1328125,4.04405215 C1.1328125,2.43886568 2.07357788,1.1328125 3.22984317,1.1328125 C4.03077695,1.1328125 4.65692139,1.38172148 5.09035493,1.87245943 C5.6244583,2.4766998 5.89505005,3.45706938 5.89505005,4.78613281 L5.89505005,6.34375 L4.64873506,6.34375 Z M7.8449478,27.0005417 C7.3104019,26.352272 7.02786255,25.3887177 7.02786255,24.2138672 C7.02786255,24.1833344 7.02476504,24.1534653 7.0201187,24.1240387 C7.02476504,24.0948334 7.02786255,24.0649643 7.02786255,24.0344314 L7.02786255,19.3790588 L8.57131958,17.9997711 C8.7029648,17.8822861 8.77243804,17.7099304 8.75872041,17.5338135 C8.74522403,17.3579178 8.65030669,17.1981735 8.50228882,17.1021499 L7.02786255,16.1463394 L7.02786255,4.78613281 C7.02786255,3.17917632 6.66434477,1.95034029 5.94815063,1.1328125 L22.5996094,1.1328125 C23.8176041,1.1328125 24.8085937,2.1238022 24.8085937,3.34179687 L24.8085937,3.90820312 L23.8645096,3.90820312 C23.5518799,3.90820312 23.2981033,4.16175839 23.2981033,4.47460937 L23.2981033,5.68286894 C23.2981033,5.86031343 23.3812942,6.02735898 23.5226746,6.13444522 L24.1136398,6.58226016 L22.998085,7.27942656 C22.8383408,7.37921143 22.7387771,7.55178833 22.7321396,7.73985293 C22.725502,7.92791748 22.8128967,8.10713193 22.9651184,8.21775821 L24.8085937,9.55854795 L24.8085937,21.5234375 L10.4085999,21.5234375 C10.3807221,21.5234375 10.3532867,21.5260925 10.3262939,21.5300751 C10.2718658,21.5260925 10.2169952,21.5234375 10.1614609,21.5234375 C8.9567413,21.5234375 8.01287842,22.4898682 8.01287842,23.7233505 C8.01287842,25.0294037 8.85872652,25.9414062 10.0700836,25.9414062 C10.3829346,25.9414062 10.6364898,25.687851 10.6364898,25.375 C10.6364898,25.062149 10.3829346,24.8085937 10.0700836,24.8085937 C9.4912872,24.8085937 9.14569092,24.4028168 9.14569092,23.7233505 C9.14569092,23.0301666 9.66917422,22.65625 10.1614609,22.65625 C11.0442581,22.65625 11.7901001,23.7094116 11.7901001,24.9559478 C11.7901001,26.5611343 10.849556,27.8671875 9.69329072,27.8671875 C8.95165254,27.8671875 8.3124542,27.5676117 7.8449478,27.0005417 L7.8449478,27.0005417 Z M25.2617187,27.8671875 L11.9394455,27.8671875 C11.9686508,27.8317871 11.9978562,27.7963867 12.0261765,27.7594375 C12.5691299,27.0505447 12.8828659,26.1294708 12.9193726,25.1484375 L21.75,25.1484375 C22.062851,25.1484375 22.3164062,24.8948822 22.3164062,24.5820312 C22.3164062,24.2691803 22.062851,24.015625 21.75,24.015625 L12.8167114,24.015625 C12.6994477,23.5040894 12.4892578,23.0405655 12.2095947,22.65625 L25.2617187,22.65625 C26.6983108,22.65625 27.8671875,23.8251267 27.8671875,25.2617187 C27.8671875,26.6983108 26.6983108,27.8671875 25.2617187,27.8671875 Z" id="Shape"></path>
                <path d="M10.5,6 C10.6314453,6 10.7599609,5.9464844 10.8535157,5.8535156 C10.9464844,5.7605469 11,5.6314453 11,5.5 C11,5.3685547 10.9464844,5.2394531 10.8535157,5.1464844 C10.7599609,5.0535156 10.6314453,5 10.5,5 C10.3679687,5 10.2394531,5.0535156 10.1464843,5.1464844 C10.0535156,5.2394531 10,5.3685547 10,5.5 C10,5.6314453 10.0535156,5.7605469 10.1464843,5.8535156 C10.2394531,5.9464844 10.3679687,6 10.5,6 Z" id="Path"></path>
                <path d="M12.5475936,6 L20.4524064,6 C20.7548663,6 21,5.7761719 21,5.5 C21,5.2238281 20.7548663,5 20.4524064,5 L12.5475936,5 C12.2451337,5 12,5.2238281 12,5.5 C12,5.7761719 12.2451337,6 12.5475936,6 Z" id="Path"></path>
                <path d="M10.531401,8 L20.468599,8 C20.762115,8 21,7.7761719 21,7.5 C21,7.2238281 20.762115,7 20.468599,7 L10.531401,7 C10.2380926,7 10,7.2238281 10,7.5 C10,7.7761719 10.2380926,8 10.531401,8 Z" id="Path"></path>
                <path d="M10.531401,12 L20.468599,12 C20.762115,12 21,11.7761719 21,11.5 C21,11.2238281 20.762115,11 20.468599,11 L10.531401,11 C10.2380926,11 10,11.2238281 10,11.5 C10,11.7761719 10.2380926,12 10.531401,12 Z" id="Path"></path>
                <path d="M10.531401,15 L20.468599,15 C20.762115,15 21,14.7761719 21,14.5 C21,14.2238281 20.762115,14 20.468599,14 L10.531401,14 C10.2380926,14 10,14.2238281 10,14.5 C10,14.7761719 10.2380926,15 10.531401,15 Z" id="Path"></path>
                <path d="M10.531401,18 L20.468599,18 C20.762115,18 21,17.7761719 21,17.5 C21,17.2238281 20.762115,17 20.468599,17 L10.531401,17 C10.2380926,17 10,17.2238281 10,17.5 C10,17.7761719 10.2380926,18 10.531401,18 Z" id="Path"></path>
                <path d="M23.5,24 C23.3683593,24 23.2394531,24.0535156 23.1464844,24.1464844 C23.0535156,24.2394531 23,24.3685547 23,24.5 C23,24.6314453 23.0533203,24.7605469 23.1464844,24.8535156 C23.2394531,24.9464844 23.3683593,25 23.5,25 C23.6314453,25 23.7603515,24.9464844 23.8533203,24.8535156 C23.9464843,24.7605469 24,24.6314453 24,24.5 C24,24.3685547 23.9464843,24.2394531 23.8533203,24.1464844 C23.7603515,24.0535156 23.6314453,24 23.5,24 Z" id="Path"></path>
            </g>
        </g>
    </g>
</svg>