<?xml version="1.0" encoding="UTF-8"?>
<svg width="27px" height="27px" viewBox="0 0 27 27" version="1.1" xmlns="http://www.w3.org/2000/svg" xmlns:xlink="http://www.w3.org/1999/xlink">
    <!-- Generator: Sketch 58 (84663) - https://sketch.com -->
    <title>share (2)</title>
    <desc>Created with Sketch.</desc>
    <g id="Page-1" stroke="none" stroke-width="1" fill="none" fill-rule="evenodd">
        <g id="landing-page" transform="translate(-124.000000, -610.000000)" fill="#5B5A5A" fill-rule="nonzero">
            <g id="share-(2)" transform="translate(124.000000, 610.000000)">
                <path d="M6.09997777,24 C6.00156577,24 5.80474179,23.8888889 5.7063298,23.7777778 C5.50950581,23.5555556 5.50950581,23.2222222 5.7063298,23 C6.09997777,22.5555556 6.29680175,22.1111111 6.29680175,21.5555556 C6.29680175,21 6.09997777,20.4444444 5.7063298,20.1111111 C5.50950581,19.8888889 5.50950581,19.5555556 5.7063298,19.3333333 L7.67456965,16.4444444 C7.87139363,16.1111111 7.96980563,15.6666667 7.77298164,15.2222222 C7.77298164,15.1111111 7.77298164,15.1111111 7.67456965,15.1111111 C7.67456965,15.1111111 7.57615766,15.1111111 7.47774566,15.2222222 L3.83650194,19.2222222 C3.63967795,19.4444444 3.34444197,19.4444444 3.14761799,19.2222222 C2.950794,19 2.950794,18.6666667 3.14761799,18.4444444 L6.78886172,14.4444444 C7.08409769,14.1111111 7.47774566,14 7.87139363,14 C8.2650416,14.1111111 8.56027758,14.3333333 8.75710157,14.6666667 C9.15074954,15.4444444 9.05233755,16.3333333 8.56027758,17 L6.78886172,19.5555556 C7.18250969,20.1111111 7.37933367,20.7777778 7.37933367,21.4444444 C7.37933367,22.3333333 7.08409769,23.1111111 6.49362574,23.7777778 C6.39521375,24 6.29680175,24 6.09997777,24 L6.09997777,24 Z" id="Path"></path>
                <path d="M9.71428571,27 L0.571428571,27 C0.228571429,27 0,26.7676349 0,26.4190871 L0,20.7261411 C0,18.7510373 0.8,16.8921162 2.17142857,15.3817427 L4.34285714,13.1742739 C4.57142857,12.9419087 4.91428571,12.9419087 5.14285714,13.1742739 C5.37142857,13.406639 5.37142857,13.7551867 5.14285714,13.9875519 L2.97142857,16.1950207 C1.82857143,17.3568465 1.14285714,18.9834025 1.14285714,20.7261411 L1.14285714,25.8381743 L9.14285714,25.8381743 L9.14285714,24.7925311 C9.14285714,24.560166 9.25714286,24.4439834 9.37142857,24.3278008 C10.2857143,23.746888 10.7428571,22.8174274 10.8571429,21.7717842 C10.8571429,21.4232365 11.0857143,21.1908714 11.4285714,21.1908714 C11.7714286,21.1908714 12,21.4232365 12,21.7717842 C12,23.0497925 11.3142857,24.3278008 10.2857143,25.1410788 L10.2857143,26.4190871 C10.2857143,26.7676349 10.0571429,27 9.71428571,27 L9.71428571,27 Z" id="Path"></path>
                <path d="M18.5463354,13 C18.4315214,13 18.4315214,13 18.3167074,13 C17.8574515,12.8882682 17.5130095,12.6648045 17.2833815,12.3296089 C16.8241255,11.547486 16.9389395,10.6536313 17.5130095,9.98324022 L19.5796613,7.41340782 C19.1204054,6.8547486 18.8907774,6.18435754 18.8907774,5.51396648 C18.8907774,4.62011173 19.2352194,3.83798883 19.9241033,3.16759777 C20.1537313,2.94413408 20.4981733,2.94413408 20.7278012,3.16759777 C20.9574292,3.39106145 20.9574292,3.72625698 20.7278012,3.94972067 C20.2685453,4.39664804 20.0389173,4.84357542 20.0389173,5.40223464 C20.0389173,5.96089385 20.2685453,6.51955307 20.7278012,6.8547486 C20.9574292,7.07821229 20.9574292,7.41340782 20.7278012,7.63687151 L18.4315214,10.5418994 C18.2018934,10.877095 18.0870794,11.3240223 18.3167074,11.7709497 C18.3167074,11.8826816 18.4315214,11.8826816 18.5463354,11.8826816 C18.5463354,11.8826816 18.6611494,11.8826816 18.7759634,11.7709497 L23.0240811,7.74860335 C23.2537091,7.52513966 23.598151,7.52513966 23.827779,7.74860335 C24.057407,7.97206704 24.057407,8.30726257 23.827779,8.53072626 L19.5796613,12.5530726 C19.2352194,12.8882682 18.8907774,13 18.5463354,13 L18.5463354,13 Z" id="Path"></path>
                <path d="M22.3142857,14 C22.2,14 21.9714286,14 21.9714286,13.8833333 C21.7428571,13.65 21.7428571,13.3 21.9714286,13.0666667 L24.1428571,10.85 C25.2857143,9.68333333 25.9714286,8.05 25.9714286,6.3 L25.9714286,1.16666667 L17.9714286,1.16666667 L17.9714286,2.21666667 C17.9714286,2.45 17.8571429,2.56666667 17.7428571,2.68333333 C16.8285714,3.26666667 16.3714286,4.2 16.2571429,5.25 C16.1428571,5.6 15.9142857,5.83333333 15.5714286,5.83333333 C15.2285714,5.83333333 15,5.6 15,5.25 C15,3.96666667 15.6857143,2.68333333 16.7142857,1.86666667 L16.7142857,0.583333333 C16.7142857,0.233333333 16.9428571,0 17.2857143,0 L26.4285714,0 C26.7714286,0 27,0.233333333 27,0.583333333 L27,6.3 C27,8.28333333 26.2,10.15 24.8285714,11.6666667 L22.6571429,13.8833333 C22.6571429,13.8833333 22.4285714,14 22.3142857,14 L22.3142857,14 Z" id="Path"></path>
                <path d="M4.56737589,18 C4.22695035,18 4,17.7723577 4,17.4308943 L4,4.56910569 C4,4.22764228 4.22695035,4 4.56737589,4 L19.4326241,4 C19.7730496,4 20,4.22764228 20,4.56910569 C20,4.91056911 19.7730496,5.13821138 19.4326241,5.13821138 L5.13475177,5.13821138 L5.13475177,17.4308943 C5.13475177,17.7723577 4.90780142,18 4.56737589,18 Z" id="Path"></path>
                <path d="M22.4366197,23 L7.78873239,23 C7.67605634,23 7.56338028,23 7.45070423,23 C7.11267606,22.8861789 7,22.6585366 7,22.3170732 C7,21.9756098 7.33802817,21.8617886 7.67605634,21.8617886 L21.8732394,21.8617886 L21.8732394,9.56910569 C21.8732394,9.22764228 22.0985915,9 22.4366197,9 C22.7746479,9 23,9.22764228 23,9.56910569 L23,22.4308943 C23,22.7723577 22.7746479,23 22.4366197,23 Z" id="Path"></path>
            </g>
        </g>
    </g>
</svg>