<?xml version="1.0" encoding="UTF-8"?>
<svg width="77px" height="63px" viewBox="0 0 77 63" version="1.1" xmlns="http://www.w3.org/2000/svg" xmlns:xlink="http://www.w3.org/1999/xlink">
    <!-- Generator: Sketch 58 (84663) - https://sketch.com -->
    <title>Group 8</title>
    <desc>Created with Sketch.</desc>
    <defs>
        <polygon id="path-1" points="0.0987681102 0.123458826 56.9130062 0.123458826 56.9130062 63 0.0987681102 63"></polygon>
    </defs>
    <g id="Page-1" stroke="none" stroke-width="1" fill="none" fill-rule="evenodd">
        <g id="landing-page" transform="translate(-149.000000, -302.000000)">
            <g id="Group-8" transform="translate(149.000000, 302.000000)">
                <path d="M40.7680906,30.2057566 L3.33995915,1.3904803 C2.64512731,0.859789601 1.7977333,0.872076817 1.11169186,1.4148597 C0.4213529,1.9638837 0,2.96441413 0,4.05017492 L0,58.95004 C0,60.0358008 0.4213529,61.0363312 1.11169186,61.5851602 C1.46154956,61.8595747 1.85145238,62 2.24155054,62 C2.6181701,62 2.99928253,61.8718619 3.33995915,61.6095396 L39.2053539,34.1597046 C39.9093668,33.6167267 40.3486912,32.604104 40.3486912,31.5 C40.3486912,30.3959158 41.4721035,30.7485394 40.7680906,30.2057566" id="Fill-1" fill="#E04805"></path>
                <path d="M39.4067551,32.2747247 C38.565013,32.9825065 38,34.3935843 38,34.3935843 L73.651441,61.60954 C73.9931906,61.871667 74.3750885,62 74.7526778,62 C75.1437804,62 75.534883,61.8595748 75.8854457,61.5851607 C76.5775622,61.0361373 77,60.0356081 77,58.9500436 L77,4.05004817 C77,2.96428865 76.5775622,1.96395444 75.8854457,1.41493108 C75.1976378,0.871953805 74.3480619,0.859861638 73.651441,1.39055171 L43.1773603,28.8405494 C42.697344,29.307073 40.6852318,31.1996921 39.4067551,32.2747247" id="Fill-3" fill="#BF4008"></path>
                <g id="Group-7" transform="translate(20.000000, 0.000000)">
                    <mask id="mask-2" fill="white">
                        <use xlink:href="#path-1"></use>
                    </mask>
                    <g id="Clip-6"></g>
                    <path d="M0.126657931,48.9425604 L16.5849166,62.5681925 C17.3489131,63.1526264 18.4077372,63.1429189 19.1609234,62.5450132 L56.6089407,31.6411358 C56.7762062,31.5030509 56.9130062,31.2118245 56.9130062,30.9939 L56.9130062,2.20091887 C56.9130062,0.511607547 55.0166752,-0.468854717 53.6553579,0.516560377 L22.1255131,29.5930415 C21.9659131,29.7402396 21.7017476,29.9773811 21.5384131,30.1200226 L0.125282069,48.8304283 C0.0895096552,48.8591547 0.0899027586,48.9144283 0.126657931,48.9425604" id="Fill-5" fill="#E24F05" mask="url(#mask-2)"></path>
                </g>
            </g>
        </g>
    </g>
</svg>