<?xml version="1.0" encoding="UTF-8"?>
<svg width="70px" height="57px" viewBox="0 0 70 57" version="1.1" xmlns="http://www.w3.org/2000/svg" xmlns:xlink="http://www.w3.org/1999/xlink">
    <!-- Generator: Sketch 58 (84663) - https://sketch.com -->
    <title>Group 8</title>
    <desc>Created with Sketch.</desc>
    <defs>
        <polygon id="path-1" points="0.0901221721 0.111682918 51.9207448 0.111682918 51.9207448 57 0.0901221721 57"></polygon>
    </defs>
    <g id="Page-1" stroke="none" stroke-width="1" fill="none" fill-rule="evenodd">
        <g id="landing-page" transform="translate(-161.000000, -50.000000)">
            <g id="Group-8" transform="translate(161.000000, 50.000000)">
                <path d="M36.7907159,26.8118421 L3.01393319,0.358473719 C2.38688983,-0.128717743 1.62234469,-0.117437676 1.00323412,0.380854804 C0.3802453,0.884876842 0,1.80339658 0,2.80016058 L0,53.2000367 C0,54.1968007 0.3802453,55.1153205 1.00323412,55.6191635 C1.31878307,55.871264 1.67082288,56 2.0226864,56 C2.36256259,56 2.70649332,55.8825441 3.01393319,55.6415445 L35.3804413,30.441696 C36.01577,29.9432245 36.4122335,29.0136037 36.4122335,28 C36.4122335,26.9865936 37.4260447,27.3103136 36.7907159,26.8118421" id="Fill-1" fill="#8c8c8c"></path>
                <path d="M35.2985367,28.7113695 C34.5215479,29.3609582 34,30.6563754 34,30.6563754 L66.9088572,55.6415445 C67.2243168,55.8825441 67.5770169,56 67.9253784,56 C68.2865751,56 68.6474103,55.871264 68.971005,55.6191635 C69.6098786,55.1153205 70,54.1968007 70,53.2000367 L70,2.80016058 C70,1.80339658 69.6098786,0.884876842 68.971005,0.380854804 C68.3362894,-0.117437676 67.5520694,-0.128717743 66.9088572,0.358473719 L38.7790778,25.5585013 C38.3359881,25.9869648 36.4788438,27.7244532 35.2985367,28.7113695" id="Fill-3" fill="#e2e1e1"></path>
                <g id="Group-7" transform="translate(18.000000, 0.000000)">
                    <mask id="mask-2" fill="#8c8c8c">
                        <use xlink:href="#path-1"></use>
                    </mask>
                    <g id="Clip-6"></g>
                    <path d="M0.115475862,44.2813462 L15.1302069,56.6092991 C15.8270069,57.1380726 16.7929517,57.1292896 17.480069,56.5883274 L51.6431724,28.6276764 C51.7957655,28.5027425 51.9207448,28.2392519 51.9207448,28.0420821 L51.9207448,1.99128962 C51.9207448,0.462865094 50.1905793,-0.424219811 48.9486759,0.467346226 L20.1846069,26.7746387 C20.0390069,26.9078179 19.7981931,27.1223745 19.6491862,27.2514311 L0.1144,44.1800726 C0.0815862069,44.2060632 0.0821241379,44.2558934 0.115475862,44.2813462" id="Fill-5" fill="#8c8c8c" mask="url(#mask-2)"></path>
                </g>
            </g>
        </g>
    </g>
</svg>