<?xml version="1.0" encoding="UTF-8"?>
<svg width="17px" height="19px" viewBox="0 0 17 19" version="1.1" xmlns="http://www.w3.org/2000/svg" xmlns:xlink="http://www.w3.org/1999/xlink">
    <!-- Generator: Sketch 58 (84663) - https://sketch.com -->
    <title>logout (5)</title>
    <desc>Created with Sketch.</desc>
    <g id="Page-1" stroke="none" stroke-width="1" fill="none" fill-rule="evenodd">
        <g id="landing-page" transform="translate(-18.000000, -309.000000)" fill="#807F7F" fill-rule="nonzero">
            <g id="logout-(5)" transform="translate(26.500000, 318.500000) rotate(270.000000) translate(-26.500000, -318.500000) translate(17.000000, 310.000000)">
                <path d="M18.2752983,8.04292976 L16.3367015,6.60281934 C15.9857993,6.34218105 15.5,6.60714466 15.5,7.05996174 L15.5,9.940108 C15.5,10.3947894 15.9868255,10.6570311 16.3366661,10.3972504 L18.2752629,8.95717727 C18.5753133,8.73427374 18.5744994,8.26527398 18.2752983,8.04292976 Z" id="Path"></path>
                <path d="M15.2434063,11.7984912 C14.9978656,11.6565028 14.6835501,11.7403396 14.5414454,11.9859598 C13.3346,14.0721212 11.0787348,15.4725531 8.50081363,15.4725531 C4.65573216,15.4725873 1.52751055,12.3446638 1.52751055,8.50001712 C1.52751055,4.65537048 4.65573216,1.52741265 8.50077938,1.52741265 C11.0804131,1.52741265 13.3353193,2.92921448 14.5413769,5.01397174 C14.6834473,5.25959186 14.9978313,5.34339449 15.2433378,5.2014403 C15.4889471,5.05938338 15.5728605,4.7451321 15.4308243,4.49954623 C14.042863,2.1003322 11.4505567,0.5 8.50077938,0.5 C4.07871648,0.5 0.5,4.07799881 0.5,8.50001712 C0.5,12.9216587 4.07833973,16.5 8.50077938,16.5 C11.4518239,16.5 14.0434795,14.8985376 15.4308928,12.5003853 C15.572929,12.2547994 15.4890156,11.9405824 15.2434063,11.7984912 Z" id="Path"></path>
                <path d="M6.98381049,7.5 C6.71661808,7.5 6.5,7.72383333 6.5,8 C6.5,8.27613333 6.71661808,8.5 6.98381049,8.5 L14.5,8.5 L14.5,7.5 L6.98381049,7.5 L6.98381049,7.5 Z" id="Path"></path>
            </g>
        </g>
    </g>
</svg>