<svg id="svg" version="1.1" xmlns="http://www.w3.org/2000/svg" xmlns:xlink="http://www.w3.org/1999/xlink" width="400" height="400" viewBox="0, 0, 400,400"><g id="svgg"><path id="path0" d="M192.800 0.402 C 192.250 0.588,190.360 0.875,188.600 1.039 C 186.840 1.203,185.695 1.406,186.056 1.489 C 186.850 1.674,197.617 0.516,197.919 0.214 C 198.263 -0.130,193.897 0.030,192.800 0.402 M202.473 0.207 C 202.762 0.496,214.766 1.671,215.555 1.487 C 215.910 1.405,214.760 1.216,213.000 1.067 C 211.240 0.918,209.032 0.617,208.094 0.398 C 206.329 -0.014,202.109 -0.158,202.473 0.207 M180.800 2.021 C 180.152 2.242,180.645 2.280,182.200 2.131 C 183.520 2.004,184.675 1.832,184.767 1.750 C 185.090 1.459,181.786 1.684,180.800 2.021 M216.833 1.745 C 216.925 1.825,218.260 1.989,219.800 2.109 C 221.498 2.241,222.128 2.202,221.400 2.011 C 220.184 1.691,216.527 1.478,216.833 1.745 M176.600 2.800 L 175.800 3.144 176.600 3.144 C 177.040 3.144,177.760 2.989,178.200 2.800 L 179.000 2.456 178.200 2.456 C 177.760 2.456,177.040 2.611,176.600 2.800 M224.200 2.800 C 224.640 2.989,225.450 3.138,226.000 3.132 L 227.000 3.120 226.000 2.800 C 225.450 2.624,224.640 2.474,224.200 2.468 L 223.400 2.456 224.200 2.800 M173.000 3.600 L 172.200 3.944 173.000 3.944 C 173.440 3.944,174.160 3.789,174.600 3.600 L 175.400 3.256 174.600 3.256 C 174.160 3.256,173.440 3.411,173.000 3.600 M228.200 3.600 C 228.640 3.789,229.360 3.944,229.800 3.944 L 230.600 3.944 229.800 3.600 C 229.360 3.411,228.640 3.256,228.200 3.256 L 227.400 3.256 228.200 3.600 M232.000 4.400 C 232.330 4.613,232.870 4.788,233.200 4.788 C 233.733 4.788,233.733 4.745,233.200 4.400 C 232.870 4.187,232.330 4.012,232.000 4.012 C 231.467 4.012,231.467 4.055,232.000 4.400 M234.800 5.200 C 235.130 5.413,235.760 5.578,236.200 5.566 L 237.000 5.544 236.200 5.200 C 235.004 4.686,234.005 4.686,234.800 5.200 M164.400 6.000 C 163.867 6.345,163.867 6.388,164.400 6.388 C 164.730 6.388,165.270 6.213,165.600 6.000 C 166.133 5.655,166.133 5.612,165.600 5.612 C 165.270 5.612,164.730 5.787,164.400 6.000 M237.600 6.000 C 237.930 6.213,238.470 6.388,238.800 6.388 C 239.333 6.388,239.333 6.345,238.800 6.000 C 238.470 5.787,237.930 5.612,237.600 5.612 C 237.067 5.612,237.067 5.655,237.600 6.000 M150.800 11.200 C 150.030 11.622,149.513 11.974,149.651 11.983 C 150.065 12.011,152.800 10.805,152.800 10.595 C 152.800 10.246,152.225 10.420,150.800 11.200 M146.889 13.061 C 145.729 13.639,144.842 14.175,144.919 14.252 C 145.082 14.416,149.200 12.407,149.200 12.164 C 149.200 11.916,149.155 11.933,146.889 13.061 M256.000 13.567 C 256.550 14.015,257.148 14.386,257.328 14.391 C 257.508 14.396,258.408 14.909,259.328 15.532 C 261.456 16.973,262.000 17.288,262.000 17.080 C 262.000 16.826,257.981 14.213,256.398 13.437 L 255.000 12.752 256.000 13.567 M142.300 15.477 C 141.256 16.058,140.463 16.597,140.540 16.673 C 140.700 16.834,144.400 14.814,144.400 14.566 C 144.400 14.315,144.343 14.340,142.300 15.477 M137.400 18.250 C 134.710 19.841,132.673 21.692,129.093 25.800 C 127.472 27.660,128.121 27.111,131.026 24.165 C 133.757 21.396,136.264 19.253,137.700 18.461 C 138.965 17.764,140.000 17.105,140.000 16.997 C 140.000 16.710,140.014 16.704,137.400 18.250 M263.586 18.278 C 264.348 18.895,265.968 20.175,267.186 21.123 L 269.400 22.845 267.600 21.176 C 266.610 20.258,264.990 18.978,264.000 18.331 L 262.200 17.155 263.586 18.278 M269.647 23.100 C 269.673 23.265,270.888 24.475,272.347 25.789 L 275.000 28.178 272.412 25.489 C 269.781 22.756,269.564 22.569,269.647 23.100 M275.601 29.400 C 276.151 30.060,276.645 30.675,276.700 30.767 C 276.755 30.858,276.888 30.845,276.996 30.738 C 277.104 30.630,276.609 30.015,275.897 29.371 L 274.603 28.200 275.601 29.400 M124.575 31.068 C 123.959 31.876,123.659 32.411,123.909 32.256 C 124.421 31.940,126.153 29.600,125.875 29.600 C 125.776 29.600,125.191 30.261,124.575 31.068 M277.940 32.316 C 278.433 33.009,279.044 33.704,279.297 33.860 C 279.550 34.017,279.354 33.577,278.860 32.884 C 278.367 32.191,277.756 31.496,277.503 31.340 C 277.250 31.183,277.446 31.623,277.940 32.316 M122.744 33.500 C 121.475 35.032,121.019 35.742,121.481 35.465 C 121.993 35.158,123.769 32.800,123.489 32.800 C 123.398 32.800,123.063 33.115,122.744 33.500 M119.457 38.194 C 118.655 39.400,118.000 40.522,118.000 40.687 C 118.000 40.964,118.844 39.792,120.582 37.100 C 120.972 36.495,121.207 36.000,121.103 36.000 C 120.998 36.000,120.258 36.987,119.457 38.194 M281.209 37.100 C 281.214 37.265,281.585 37.850,282.033 38.400 L 282.848 39.400 282.214 38.100 C 281.611 36.865,281.189 36.445,281.209 37.100 M283.079 40.300 C 283.367 41.094,284.400 42.697,284.400 42.350 C 284.400 42.002,283.163 39.600,282.983 39.600 C 282.896 39.600,282.939 39.915,283.079 40.300 M117.463 41.500 C 115.997 43.894,113.136 49.776,113.718 49.200 C 114.046 48.876,117.958 41.200,117.796 41.200 C 117.714 41.200,117.565 41.335,117.463 41.500 M285.230 44.600 C 285.226 45.156,286.770 48.300,286.786 47.771 C 286.794 47.536,286.447 46.636,286.016 45.771 C 285.585 44.907,285.231 44.380,285.230 44.600 M287.237 49.627 C 287.470 50.382,287.840 51.602,288.060 52.338 C 288.279 53.073,288.537 53.596,288.634 53.499 C 288.854 53.279,287.583 49.134,287.140 48.627 C 286.961 48.422,287.004 48.872,287.237 49.627 M112.674 51.131 C 111.768 53.397,111.848 53.769,112.822 51.817 C 113.256 50.946,113.552 50.057,113.480 49.840 C 113.408 49.623,113.045 50.204,112.674 51.131 M288.834 54.600 C 288.822 55.040,288.987 55.670,289.200 56.000 C 289.714 56.795,289.714 55.796,289.200 54.600 L 288.856 53.800 288.834 54.600 M110.846 56.267 C 110.821 56.524,110.684 57.064,110.541 57.467 C 110.340 58.036,110.394 58.097,110.779 57.742 C 111.052 57.491,111.189 56.951,111.084 56.542 C 110.979 56.134,110.872 56.010,110.846 56.267 M289.646 57.600 C 289.627 58.150,289.787 58.870,290.000 59.200 C 290.494 59.964,290.494 59.142,290.000 57.600 L 289.680 56.600 289.646 57.600 M110.049 59.200 C 110.016 59.530,109.889 60.250,109.767 60.800 C 109.575 61.664,109.607 61.703,109.999 61.088 C 110.248 60.697,110.375 59.977,110.281 59.488 C 110.186 59.000,110.082 58.870,110.049 59.200 M290.446 60.800 C 290.427 61.350,290.587 62.070,290.800 62.400 C 291.294 63.164,291.294 62.342,290.800 60.800 L 290.480 59.800 290.446 60.800 M108.985 64.585 C 108.830 65.823,108.800 66.934,108.919 67.052 C 109.037 67.170,109.261 66.254,109.415 65.015 C 109.570 63.777,109.600 62.666,109.481 62.548 C 109.363 62.430,109.139 63.346,108.985 64.585 M291.228 64.633 C 291.244 65.275,291.416 66.160,291.610 66.600 C 291.847 67.134,291.886 66.802,291.727 65.600 C 291.446 63.480,291.188 62.980,291.228 64.633 M187.200 65.424 C 177.442 66.208,171.200 66.888,167.200 67.603 C 146.727 71.263,134.104 76.648,131.191 82.964 C 126.607 92.904,122.017 106.519,119.585 117.393 C 118.619 121.710,118.609 134.821,119.560 148.000 C 121.475 174.525,121.992 183.880,121.996 192.076 C 121.998 196.188,121.846 199.648,121.658 199.764 C 121.320 199.973,120.256 196.632,119.059 191.600 C 115.812 177.946,113.745 168.387,110.195 150.600 C 108.730 143.257,108.114 140.760,108.271 142.800 C 108.398 144.450,108.640 145.980,108.808 146.200 C 108.977 146.420,109.213 147.410,109.334 148.400 C 109.454 149.390,109.738 151.100,109.964 152.200 C 110.820 156.369,111.830 161.484,112.353 164.300 C 112.547 165.345,112.903 167.100,113.145 168.200 C 113.386 169.300,113.934 171.831,114.363 173.826 C 116.780 185.058,120.629 200.389,121.168 200.928 C 123.451 203.211,123.262 190.877,120.404 151.200 C 119.268 135.430,119.106 122.199,119.999 118.200 C 121.298 112.385,122.527 107.633,123.208 105.800 C 123.371 105.360,123.908 103.650,124.400 102.000 C 124.892 100.350,125.478 98.550,125.701 98.000 C 126.207 96.753,126.492 96.013,127.623 93.000 C 128.119 91.680,128.677 90.429,128.862 90.220 C 129.048 90.011,129.200 89.611,129.200 89.330 C 129.200 88.829,130.940 84.756,132.330 82.003 C 133.404 79.877,141.775 74.400,143.951 74.400 C 144.204 74.400,144.723 74.241,145.105 74.047 C 159.390 66.780,200.356 63.710,228.197 67.819 C 238.113 69.283,249.383 71.840,252.095 73.241 C 252.477 73.438,253.064 73.600,253.400 73.600 C 253.736 73.600,254.323 73.759,254.705 73.953 C 255.087 74.148,255.850 74.489,256.400 74.711 C 259.070 75.790,264.873 78.769,266.928 80.116 C 268.058 80.856,269.575 83.882,272.244 90.718 C 273.250 93.293,274.224 95.760,274.410 96.200 C 274.595 96.640,274.976 97.720,275.255 98.600 C 275.535 99.480,275.907 100.371,276.082 100.580 C 276.257 100.789,276.400 101.363,276.400 101.856 C 276.400 102.349,276.580 102.864,276.800 103.000 C 277.020 103.136,277.200 103.766,277.200 104.400 C 277.200 105.034,277.359 105.651,277.554 105.771 C 277.749 105.892,277.999 106.487,278.110 107.095 C 278.222 107.703,278.972 110.720,279.778 113.800 L 281.243 119.400 281.054 127.600 C 280.950 132.110,280.676 137.510,280.445 139.600 C 280.214 141.690,279.835 145.200,279.603 147.400 C 279.370 149.600,278.999 153.020,278.778 155.000 C 277.836 163.430,277.565 166.057,277.169 170.600 C 276.656 176.475,276.252 189.836,276.562 190.645 C 276.883 191.481,278.400 190.623,278.400 189.605 C 278.400 189.183,278.563 188.424,278.763 187.919 C 278.962 187.413,279.700 185.110,280.402 182.800 C 281.104 180.490,282.006 177.610,282.405 176.400 C 283.709 172.449,287.582 160.266,288.444 157.400 C 288.908 155.860,289.448 154.187,289.644 153.681 C 289.840 153.176,290.000 152.331,290.000 151.805 C 290.000 151.278,290.160 150.748,290.356 150.627 C 290.551 150.506,290.813 149.821,290.937 149.104 C 291.061 148.387,291.273 147.170,291.408 146.400 C 291.544 145.630,291.810 144.640,292.000 144.200 C 292.465 143.120,292.786 138.979,292.351 139.666 C 292.165 139.960,292.009 140.617,292.006 141.128 C 291.988 143.937,288.513 155.781,280.015 182.000 C 279.409 183.870,278.674 186.345,278.381 187.500 C 276.688 194.179,276.491 183.358,278.018 167.600 C 278.242 165.290,278.954 158.630,279.602 152.800 C 282.185 129.539,282.478 123.177,281.235 117.372 C 279.479 109.164,275.246 95.882,272.195 89.000 C 271.902 88.340,271.281 86.829,270.814 85.643 C 269.511 82.328,268.068 80.105,266.670 79.263 C 258.770 74.503,247.813 70.586,237.300 68.764 C 236.145 68.564,234.165 68.210,232.900 67.977 C 223.727 66.291,215.249 65.598,201.800 65.435 C 194.760 65.349,188.190 65.344,187.200 65.424 M292.075 69.000 C 292.065 69.660,292.211 70.560,292.400 71.000 L 292.744 71.800 292.725 71.000 C 292.714 70.560,292.568 69.660,292.400 69.000 L 292.095 67.800 292.075 69.000 M108.278 76.944 C 108.100 80.874,108.037 84.170,108.136 84.269 C 108.409 84.543,108.884 74.939,108.733 72.200 C 108.660 70.880,108.455 73.015,108.278 76.944 M292.806 73.633 C 292.809 74.385,292.992 75.270,293.212 75.600 C 293.491 76.019,293.533 75.658,293.350 74.400 C 293.025 72.159,292.798 71.840,292.806 73.633 M293.628 78.833 C 293.644 79.585,293.820 80.560,294.020 81.000 C 294.265 81.539,294.305 81.146,294.141 79.800 C 293.851 77.419,293.589 76.924,293.628 78.833 M294.428 84.833 C 294.444 85.805,294.621 86.960,294.821 87.400 C 295.062 87.928,295.104 87.384,294.943 85.800 C 294.649 82.899,294.390 82.412,294.428 84.833 M107.479 93.145 C 107.302 95.425,107.241 97.374,107.343 97.477 C 107.638 97.771,108.077 92.787,107.932 90.800 C 107.844 89.594,107.694 90.368,107.479 93.145 M295.400 103.800 C 295.400 111.280,295.517 115.870,295.660 114.000 C 295.991 109.685,295.986 96.218,295.653 92.800 C 295.514 91.370,295.400 96.320,295.400 103.800 M106.652 103.134 C 106.477 105.188,106.423 106.956,106.530 107.064 C 106.803 107.336,107.313 101.592,107.124 100.385 C 107.039 99.843,106.826 101.080,106.652 103.134 M106.163 118.800 C 106.163 122.430,106.223 123.915,106.298 122.100 C 106.372 120.285,106.372 117.315,106.298 115.500 C 106.223 113.685,106.163 115.170,106.163 118.800 M294.694 121.400 C 294.537 122.280,294.430 123.900,294.455 125.000 C 294.499 126.911,294.517 126.875,294.863 124.200 C 295.269 121.053,295.139 118.900,294.694 121.400 M293.785 131.385 C 293.630 132.623,293.593 133.727,293.703 133.837 C 293.813 133.947,294.030 133.023,294.185 131.785 C 294.339 130.546,294.376 129.443,294.266 129.333 C 294.156 129.223,293.939 130.146,293.785 131.385 M106.463 130.200 C 106.454 130.640,106.595 131.720,106.777 132.600 L 107.108 134.200 107.114 132.800 C 107.117 132.030,106.976 130.950,106.800 130.400 C 106.541 129.591,106.477 129.553,106.463 130.200 M107.275 135.800 C 107.286 136.240,107.432 137.140,107.600 137.800 L 107.905 139.000 107.925 137.800 C 107.935 137.140,107.789 136.240,107.600 135.800 L 107.256 135.000 107.275 135.800 M293.049 136.215 C 292.912 136.573,292.816 137.256,292.836 137.733 C 292.862 138.347,292.985 138.208,293.259 137.256 C 293.657 135.872,293.494 135.058,293.049 136.215 M277.395 212.666 C 276.958 213.252,276.411 213.927,276.181 214.166 C 275.951 214.405,275.149 215.496,274.399 216.591 C 273.134 218.439,272.404 219.402,271.400 220.545 C 271.180 220.795,270.022 222.170,268.827 223.600 C 264.203 229.132,256.264 236.629,250.191 241.199 C 248.876 242.188,247.710 243.089,247.600 243.200 C 247.490 243.311,246.905 243.656,246.300 243.968 C 245.695 244.280,245.200 244.685,245.200 244.868 C 245.200 245.050,245.026 245.200,244.813 245.200 C 244.601 245.200,243.307 245.924,241.938 246.809 C 238.634 248.944,229.860 253.331,227.600 253.978 C 226.610 254.261,225.292 254.679,224.671 254.907 C 223.107 255.480,216.299 255.434,213.400 254.830 C 207.863 253.676,206.971 253.460,206.400 253.138 C 202.208 250.775,199.148 250.644,194.925 252.648 C 189.827 255.067,180.712 256.040,175.306 254.742 C 170.016 253.473,163.048 250.981,159.800 249.199 C 159.140 248.836,157.430 247.930,156.000 247.185 C 153.637 245.953,145.280 240.611,144.800 240.026 C 144.690 239.891,144.150 239.495,143.600 239.146 C 139.499 236.538,128.967 226.474,123.677 220.107 C 119.856 215.509,118.412 214.452,118.998 216.681 C 119.254 217.658,119.327 217.703,119.573 217.037 C 119.810 216.396,120.330 216.846,122.813 219.837 C 146.109 247.896,176.484 261.894,195.108 253.153 C 199.026 251.313,200.490 251.229,203.800 252.649 C 211.245 255.844,221.176 256.798,227.000 254.876 C 242.790 249.666,264.102 232.447,275.984 215.300 C 277.974 212.428,278.528 212.179,278.214 214.300 C 278.048 215.416,278.088 215.595,278.368 215.000 C 279.451 212.696,278.706 210.908,277.395 212.666 M277.429 217.029 C 277.281 217.615,277.238 218.172,277.332 218.266 C 277.427 218.360,277.624 217.958,277.771 217.371 C 277.919 216.785,277.962 216.228,277.868 216.134 C 277.773 216.040,277.576 216.442,277.429 217.029 M276.667 219.867 C 276.520 220.013,276.411 220.508,276.425 220.967 C 276.449 221.733,276.482 221.723,276.834 220.842 C 277.226 219.863,277.144 219.389,276.667 219.867 M120.412 220.400 C 120.412 220.730,120.587 221.270,120.800 221.600 C 121.145 222.133,121.188 222.133,121.188 221.600 C 121.188 221.270,121.013 220.730,120.800 220.400 C 120.455 219.867,120.412 219.867,120.412 220.400 M122.801 225.720 C 122.799 226.273,124.050 228.484,124.251 228.282 C 124.357 228.177,124.074 227.485,123.623 226.745 C 123.172 226.005,122.802 225.544,122.801 225.720 M273.800 228.661 C 273.464 229.465,273.282 230.215,273.395 230.328 C 273.508 230.441,273.600 230.435,273.600 230.316 C 273.600 230.196,273.872 229.446,274.205 228.649 C 274.538 227.852,274.721 227.200,274.611 227.200 C 274.501 227.200,274.136 227.858,273.800 228.661 M129.598 236.835 C 130.282 237.844,131.654 239.554,132.647 240.635 L 134.452 242.600 132.526 240.149 C 129.013 235.677,128.152 234.703,129.598 236.835 M269.846 236.986 C 269.491 237.528,269.200 238.092,269.200 238.238 C 269.200 238.385,268.562 239.426,267.783 240.552 C 266.705 242.111,266.635 242.296,267.490 241.326 C 268.109 240.626,269.107 239.141,269.709 238.026 C 270.862 235.891,270.937 235.320,269.846 236.986 M138.587 247.187 C 140.992 249.599,143.009 251.525,143.068 251.465 C 143.219 251.315,134.758 242.800,134.458 242.800 C 134.323 242.800,136.182 244.774,138.587 247.187 M264.055 245.081 C 263.095 246.303,262.494 247.189,262.719 247.050 C 263.395 246.632,266.501 242.798,266.137 242.830 C 265.952 242.846,265.015 243.859,264.055 245.081 M258.885 250.679 C 256.024 253.690,256.451 253.780,259.410 250.790 C 260.711 249.475,261.601 248.412,261.387 248.427 C 261.174 248.441,260.048 249.455,258.885 250.679 M145.400 253.401 C 147.902 255.740,153.607 260.145,153.581 259.718 C 153.570 259.543,152.552 258.680,151.318 257.800 C 150.084 256.920,148.877 256.020,148.635 255.800 C 148.393 255.580,147.116 254.530,145.797 253.466 L 143.400 251.531 145.400 253.401 M254.471 254.871 C 253.522 255.755,252.804 256.538,252.875 256.609 C 252.947 256.680,253.781 256.014,254.729 255.129 C 255.678 254.245,256.396 253.462,256.325 253.391 C 256.253 253.320,255.419 253.986,254.471 254.871 M251.078 257.813 C 250.460 258.356,250.114 258.800,250.308 258.800 C 250.502 258.800,251.083 258.350,251.600 257.800 C 252.795 256.528,252.531 256.534,251.078 257.813 M248.105 260.125 C 247.393 260.606,246.808 261.144,246.805 261.320 C 246.802 261.497,247.430 261.160,248.200 260.573 C 248.970 259.986,249.600 259.436,249.600 259.353 C 249.600 259.127,249.519 259.169,248.105 260.125 M154.097 260.233 C 154.227 260.444,155.191 261.232,156.237 261.984 C 157.284 262.735,158.033 263.178,157.903 262.967 C 157.773 262.756,156.809 261.968,155.763 261.216 C 154.716 260.465,153.967 260.022,154.097 260.233 M159.700 264.467 C 161.418 265.994,161.714 268.986,160.720 274.785 C 160.037 278.765,160.305 279.249,164.723 282.019 C 176.647 289.496,194.961 293.767,206.831 291.840 C 212.304 290.952,224.227 287.425,225.380 286.353 C 225.589 286.159,226.009 286.000,226.313 286.000 C 227.421 286.000,237.623 280.725,238.968 279.456 C 240.270 278.228,240.329 278.061,239.985 276.576 C 239.784 275.709,239.615 273.164,239.610 270.920 L 239.600 266.841 241.100 265.742 C 244.586 263.190,243.135 263.796,238.635 266.773 C 215.535 282.051,180.381 281.512,161.710 265.594 C 161.320 265.261,160.370 264.571,159.600 264.061 L 158.200 263.134 159.700 264.467 " stroke="none" fill="#8e5c3a" fill-rule="evenodd"></path><path id="path1" d="M138.600 306.138 C 137.940 306.341,137.040 306.641,136.600 306.806 C 136.160 306.970,133.460 307.844,130.600 308.748 C 127.740 309.652,120.630 311.941,114.800 313.834 C 108.970 315.727,103.030 317.643,101.600 318.091 C 100.170 318.538,98.640 319.042,98.200 319.209 C 97.500 319.475,83.334 324.049,77.200 325.991 C 75.990 326.373,74.010 326.917,72.800 327.199 C 49.228 332.682,30.563 348.862,21.578 371.600 C 20.375 374.646,20.185 375.245,18.669 380.800 C 17.815 383.928,16.937 388.355,16.235 393.071 C 15.902 395.310,15.528 397.560,15.403 398.071 C 14.906 400.107,4.673 400.000,200.506 400.000 C 376.557 400.000,384.365 399.957,385.527 398.985 C 385.597 398.927,385.371 397.196,385.024 395.139 C 384.677 393.083,384.206 390.230,383.976 388.800 C 378.968 357.580,358.912 335.268,328.800 327.420 C 325.041 326.440,319.359 324.685,309.800 321.553 C 305.180 320.039,300.320 318.457,299.000 318.038 C 297.680 317.619,291.830 315.727,286.000 313.834 C 280.170 311.941,273.060 309.652,270.200 308.748 C 267.340 307.844,264.640 306.973,264.200 306.812 C 261.234 305.728,260.800 305.661,260.800 306.286 C 260.800 307.054,256.624 314.690,251.878 322.600 C 233.597 353.067,213.444 371.876,200.352 370.689 C 190.993 369.840,173.008 353.631,155.429 330.200 C 148.638 321.148,140.765 309.081,140.050 306.625 C 139.832 305.879,139.646 305.816,138.600 306.138 " stroke="none" fill="#9ccb34" fill-rule="evenodd"></path><path id="path2" d="M0.000 200.000 L 0.000 400.000 7.400 400.000 L 14.800 400.000 14.800 398.606 C 14.800 397.839,14.971 396.444,15.180 395.506 C 15.390 394.568,15.760 392.540,16.004 391.000 C 18.162 377.383,21.959 367.143,28.538 357.200 C 37.195 344.115,50.733 333.485,64.200 329.198 C 65.080 328.918,66.160 328.559,66.600 328.400 C 68.755 327.621,70.336 327.200,71.105 327.200 C 71.571 327.200,72.064 327.020,72.200 326.800 C 72.336 326.580,72.829 326.400,73.295 326.400 C 73.762 326.400,74.696 326.222,75.372 326.004 C 76.047 325.787,78.220 325.081,80.200 324.437 C 82.180 323.793,88.660 321.704,94.600 319.795 C 100.540 317.886,108.010 315.469,111.200 314.424 C 114.390 313.379,119.430 311.754,122.400 310.814 C 125.370 309.874,128.160 308.965,128.600 308.794 C 129.040 308.623,134.518 306.821,140.774 304.789 C 151.554 301.287,152.244 301.004,154.007 299.355 C 156.487 297.035,157.855 294.288,158.465 290.400 C 159.391 284.510,159.668 281.153,159.854 273.560 L 160.057 265.319 156.780 262.960 C 154.977 261.662,153.299 260.420,153.051 260.200 C 152.803 259.980,151.520 258.990,150.200 258.001 C 148.880 257.012,147.710 256.110,147.600 255.999 C 147.490 255.887,146.230 254.816,144.800 253.619 C 139.473 249.161,133.758 243.064,128.475 236.200 C 127.259 234.621,125.600 231.982,125.600 231.628 C 125.600 231.393,125.464 231.200,125.298 231.200 C 125.131 231.200,124.741 230.615,124.430 229.900 C 124.119 229.185,123.756 228.510,123.624 228.400 C 123.355 228.176,121.297 223.961,120.108 221.200 C 117.932 216.145,117.582 212.841,119.418 214.674 C 120.120 215.375,120.137 215.373,119.909 214.600 C 119.163 212.073,117.259 205.235,117.039 204.291 C 116.840 203.437,116.298 202.966,114.690 202.248 C 108.831 199.630,102.798 192.833,98.207 183.674 C 90.468 168.235,90.083 154.913,97.109 145.678 C 99.332 142.756,103.392 140.400,106.204 140.400 C 107.568 140.400,107.669 140.324,107.403 139.500 C 107.024 138.324,106.539 134.889,105.949 129.200 C 105.112 121.134,105.270 114.965,106.830 94.800 C 107.026 92.270,107.372 86.060,107.598 81.000 C 108.215 67.214,108.914 59.824,109.642 59.374 C 109.839 59.252,110.000 58.771,110.000 58.305 C 110.000 57.176,111.074 53.817,112.047 51.905 C 112.241 51.523,112.400 51.011,112.400 50.768 C 112.400 49.528,120.065 35.662,121.717 33.911 C 121.983 33.630,122.692 32.741,123.294 31.935 C 123.896 31.129,124.616 30.229,124.896 29.935 C 125.175 29.641,126.213 28.410,127.202 27.200 C 132.908 20.220,137.756 16.790,149.800 11.213 C 151.340 10.499,152.913 9.755,153.295 9.558 C 153.677 9.361,154.262 9.200,154.595 9.200 C 154.928 9.200,155.200 9.059,155.200 8.887 C 155.200 8.715,156.055 8.325,157.100 8.020 C 158.145 7.715,159.270 7.322,159.600 7.147 C 160.708 6.558,168.973 3.977,172.000 3.274 C 172.990 3.044,174.610 2.668,175.600 2.437 C 177.339 2.033,182.839 1.130,187.800 0.434 C 189.146 0.245,148.432 0.076,95.100 0.049 L 0.000 0.000 0.000 200.000 M215.000 0.606 C 224.892 1.901,225.431 1.996,232.200 3.620 C 236.043 4.543,242.547 6.576,243.695 7.214 C 244.077 7.426,244.664 7.600,245.000 7.600 C 245.336 7.600,245.923 7.766,246.305 7.968 C 248.033 8.884,252.388 10.800,252.741 10.800 C 252.957 10.800,253.193 10.935,253.267 11.100 C 253.340 11.265,254.300 11.843,255.400 12.385 C 262.664 15.961,271.400 22.989,276.802 29.600 C 277.791 30.810,278.876 32.107,279.213 32.482 C 281.802 35.363,287.619 47.328,289.236 53.100 C 289.436 53.815,289.792 55.075,290.027 55.900 C 291.052 59.507,291.887 63.386,292.243 66.200 C 292.354 67.080,292.606 68.160,292.802 68.600 C 292.998 69.040,293.251 70.210,293.364 71.200 C 293.478 72.190,293.762 74.170,293.997 75.600 C 296.990 93.834,297.043 111.758,294.176 135.707 C 294.024 136.976,293.742 138.112,293.550 138.231 C 292.595 138.821,293.203 140.400,294.385 140.400 C 298.522 140.400,306.400 146.796,306.400 150.154 C 306.400 150.484,306.580 150.864,306.800 151.000 C 307.020 151.136,307.200 151.599,307.200 152.029 C 307.200 152.459,307.361 153.123,307.558 153.505 C 309.733 157.728,308.492 170.755,305.207 178.200 C 299.699 190.678,291.975 200.563,286.489 202.153 C 286.110 202.262,285.048 202.547,284.128 202.784 C 282.300 203.256,282.175 203.477,281.049 208.200 C 280.491 210.542,279.415 214.196,278.812 215.800 C 278.122 217.635,277.600 219.500,277.600 220.134 C 277.600 220.506,277.438 221.123,277.239 221.505 C 277.040 221.887,276.649 223.010,276.369 224.000 C 276.090 224.990,275.712 225.971,275.530 226.180 C 275.349 226.389,275.200 226.796,275.200 227.084 C 275.200 228.388,270.414 238.106,268.331 241.031 C 263.062 248.430,253.289 257.780,244.379 263.945 L 241.000 266.283 241.015 273.242 C 241.031 281.239,241.942 290.575,242.980 293.400 C 245.252 299.580,246.434 300.371,260.026 304.803 C 278.677 310.886,282.521 312.134,293.200 315.576 C 306.939 320.005,323.918 325.493,325.428 325.993 C 326.104 326.217,327.038 326.400,327.505 326.400 C 327.971 326.400,328.464 326.580,328.600 326.800 C 328.736 327.020,329.229 327.200,329.695 327.200 C 330.508 327.200,332.504 327.747,334.200 328.435 C 334.640 328.614,335.900 329.052,337.000 329.409 C 340.739 330.622,345.869 333.065,349.987 335.592 C 363.518 343.896,372.860 354.923,379.648 370.600 C 381.885 375.768,386.000 394.000,386.000 398.746 L 386.000 400.000 393.000 400.000 L 400.000 400.000 400.000 200.000 L 400.000 0.000 305.500 0.041 C 225.717 0.076,211.623 0.164,215.000 0.606 " stroke="none" fill="#fbfbfb" fill-rule="evenodd"></path><path id="path3" d="M179.600 66.643 C 165.143 68.064,150.826 71.137,145.105 74.047 C 144.723 74.241,144.204 74.400,143.951 74.400 C 141.775 74.400,133.404 79.877,132.330 82.003 C 130.940 84.756,129.200 88.829,129.200 89.330 C 129.200 89.611,129.048 90.011,128.862 90.220 C 128.677 90.429,128.119 91.680,127.623 93.000 C 127.128 94.320,126.560 95.805,126.361 96.300 C 125.457 98.553,125.241 99.181,124.400 102.000 C 123.908 103.650,123.371 105.360,123.208 105.800 C 122.527 107.633,121.298 112.385,119.999 118.200 C 119.106 122.199,119.268 135.430,120.404 151.200 C 123.262 190.877,123.451 203.211,121.168 200.928 C 120.629 200.389,116.780 185.058,114.363 173.826 C 113.934 171.831,113.386 169.300,113.145 168.200 C 112.903 167.100,112.541 165.300,112.340 164.200 C 112.139 163.100,111.800 161.345,111.587 160.300 C 111.374 159.255,111.020 157.500,110.800 156.400 C 110.580 155.300,110.209 153.455,109.976 152.300 C 109.744 151.145,109.456 149.390,109.338 148.400 C 109.219 147.410,108.960 146.429,108.761 146.220 C 108.563 146.011,108.379 145.111,108.353 144.220 C 108.327 143.329,108.192 142.126,108.053 141.546 L 107.800 140.492 105.142 141.187 C 92.213 144.570,88.881 163.056,97.821 181.800 C 102.428 191.459,108.439 198.642,114.256 201.440 C 117.366 202.936,117.290 202.826,118.404 207.400 C 118.672 208.500,119.213 210.390,119.606 211.600 C 120.412 214.083,120.909 215.955,120.963 216.713 C 120.984 216.996,121.182 217.356,121.405 217.513 C 121.629 217.671,122.619 218.786,123.605 219.991 C 128.729 226.244,139.423 236.490,143.600 239.146 C 144.150 239.495,144.690 239.891,144.800 240.026 C 145.280 240.611,153.637 245.953,156.000 247.185 C 157.430 247.930,159.140 248.836,159.800 249.199 C 163.048 250.981,170.016 253.473,175.306 254.742 C 180.712 256.040,189.827 255.067,194.925 252.648 C 199.148 250.644,202.208 250.775,206.400 253.138 C 206.971 253.460,207.863 253.676,213.400 254.830 C 216.299 255.434,223.107 255.480,224.671 254.907 C 225.292 254.679,226.610 254.261,227.600 253.978 C 229.860 253.331,238.634 248.944,241.938 246.809 C 243.307 245.924,244.601 245.200,244.813 245.200 C 245.026 245.200,245.200 245.050,245.200 244.868 C 245.200 244.685,245.695 244.280,246.300 243.968 C 246.905 243.656,247.490 243.311,247.600 243.200 C 247.710 243.089,248.876 242.188,250.191 241.199 C 257.523 235.682,265.101 228.283,271.436 220.455 C 271.856 219.936,272.389 219.306,272.619 219.055 C 272.849 218.805,273.651 217.700,274.400 216.600 C 275.149 215.500,275.951 214.405,276.181 214.166 C 276.411 213.927,276.958 213.252,277.395 212.666 C 278.401 211.317,278.712 211.324,278.886 212.700 C 279.007 213.664,279.082 213.577,279.487 212.000 C 279.741 211.010,280.153 209.480,280.401 208.600 C 280.650 207.720,280.990 206.370,281.157 205.600 C 281.669 203.237,282.250 202.526,283.885 202.264 C 289.733 201.328,296.586 194.241,302.402 183.115 C 312.113 164.536,308.841 144.361,295.600 141.178 C 294.390 140.887,293.175 140.481,292.900 140.276 C 292.517 139.989,292.400 140.374,292.400 141.927 C 292.400 143.041,292.239 144.052,292.042 144.174 C 291.845 144.295,291.582 145.071,291.458 145.897 C 290.928 149.407,290.692 150.420,290.356 150.627 C 290.160 150.748,290.000 151.278,290.000 151.805 C 290.000 152.331,289.840 153.176,289.644 153.681 C 289.448 154.187,288.883 155.950,288.388 157.600 C 287.894 159.250,287.169 161.590,286.779 162.800 C 283.707 172.315,281.505 179.232,280.412 182.800 C 279.704 185.110,278.962 187.413,278.763 187.919 C 278.563 188.424,278.400 189.183,278.400 189.605 C 278.400 190.623,276.883 191.481,276.562 190.645 C 276.252 189.836,276.656 176.475,277.169 170.600 C 277.565 166.057,277.836 163.430,278.778 155.000 C 278.999 153.020,279.370 149.600,279.603 147.400 C 279.835 145.200,280.214 141.690,280.445 139.600 C 280.676 137.510,280.950 132.110,281.054 127.600 L 281.243 119.400 279.778 113.800 C 278.972 110.720,278.222 107.703,278.110 107.095 C 277.999 106.487,277.749 105.892,277.554 105.771 C 277.359 105.651,277.200 105.034,277.200 104.400 C 277.200 103.766,277.020 103.136,276.800 103.000 C 276.580 102.864,276.400 102.349,276.400 101.856 C 276.400 101.363,276.257 100.789,276.082 100.580 C 275.907 100.371,275.535 99.480,275.255 98.600 C 274.976 97.720,274.595 96.640,274.410 96.200 C 274.224 95.760,273.250 93.293,272.244 90.718 C 269.575 83.882,268.058 80.856,266.928 80.116 C 264.873 78.769,259.070 75.790,256.400 74.711 C 255.850 74.489,255.087 74.148,254.705 73.953 C 254.323 73.759,253.736 73.600,253.400 73.600 C 253.064 73.600,252.477 73.438,252.095 73.241 C 249.383 71.840,238.113 69.283,228.197 67.819 C 215.764 65.984,192.124 65.412,179.600 66.643 M107.693 88.000 C 107.693 88.770,107.775 89.085,107.876 88.700 C 107.976 88.315,107.976 87.685,107.876 87.300 C 107.775 86.915,107.693 87.230,107.693 88.000 M106.101 111.000 C 106.105 111.880,106.187 112.193,106.283 111.695 C 106.379 111.198,106.375 110.478,106.275 110.095 C 106.175 109.713,106.096 110.120,106.101 111.000 M160.512 270.326 C 160.480 273.528,160.580 274.957,160.783 274.200 C 161.210 272.610,161.287 265.701,160.881 265.450 C 160.706 265.342,160.539 267.536,160.512 270.326 M239.695 271.000 C 239.695 273.420,239.832 275.940,240.000 276.600 C 240.195 277.365,240.305 276.205,240.305 273.400 C 240.305 270.980,240.168 268.460,240.000 267.800 C 239.805 267.035,239.695 268.195,239.695 271.000 M238.875 279.489 C 237.594 280.735,227.436 286.000,226.313 286.000 C 226.009 286.000,225.589 286.159,225.380 286.353 C 223.059 288.510,206.444 292.401,199.600 292.391 C 188.019 292.374,164.980 284.618,160.959 279.382 C 160.622 278.943,160.402 279.824,160.031 283.104 C 159.764 285.467,159.451 287.850,159.337 288.400 C 159.223 288.950,158.978 290.328,158.792 291.463 C 157.706 298.089,154.623 300.955,145.300 304.003 C 139.149 306.014,139.305 305.733,141.879 310.165 C 156.211 334.842,181.265 362.496,195.345 369.181 C 210.513 376.381,234.921 354.058,258.139 311.751 C 261.579 305.483,261.774 306.054,255.500 304.003 C 249.317 301.982,247.459 301.026,245.505 298.863 C 244.198 297.417,243.682 296.510,242.500 293.578 C 242.133 292.668,241.335 287.505,240.493 280.600 L 240.200 278.200 238.875 279.489 " stroke="none" fill="#a5663a" fill-rule="evenodd"></path><path id="path4" d="M187.800 0.434 C 182.839 1.130,177.339 2.033,175.600 2.437 C 174.610 2.668,172.990 3.044,172.000 3.274 C 169.552 3.842,165.975 4.931,159.643 7.034 C 159.336 7.136,159.165 7.299,159.263 7.396 C 159.361 7.494,161.035 7.028,162.984 6.361 C 167.225 4.909,176.305 2.629,180.200 2.037 C 181.740 1.804,184.185 1.430,185.633 1.206 C 187.081 0.983,188.971 0.787,189.833 0.772 C 190.695 0.756,191.760 0.589,192.200 0.400 C 193.254 -0.053,191.155 -0.036,187.800 0.434 M208.600 0.400 C 209.040 0.589,210.265 0.756,211.323 0.772 C 213.118 0.798,214.630 0.982,221.800 2.044 C 228.007 2.964,234.875 4.577,240.183 6.363 C 242.153 7.026,243.844 7.489,243.940 7.393 C 244.036 7.297,243.864 7.136,243.557 7.034 C 236.327 4.632,233.383 3.809,227.000 2.404 C 221.201 1.128,206.590 -0.464,208.600 0.400 M156.500 8.139 C 155.785 8.374,155.200 8.697,155.200 8.858 C 155.200 9.020,156.010 8.875,157.000 8.538 C 157.990 8.201,158.800 7.852,158.800 7.762 C 158.800 7.522,157.964 7.659,156.500 8.139 M244.800 7.889 C 245.130 8.014,247.155 8.889,249.300 9.835 C 251.445 10.780,253.200 11.385,253.200 11.177 C 253.200 10.970,253.009 10.800,252.775 10.800 C 252.395 10.800,248.105 8.922,246.305 7.968 C 245.923 7.766,245.293 7.614,244.905 7.632 C 244.348 7.657,244.326 7.710,244.800 7.889 M144.400 13.700 C 135.361 18.676,131.944 21.361,127.220 27.200 C 126.242 28.410,127.523 27.240,130.067 24.600 C 134.827 19.662,136.354 18.558,144.406 14.236 C 146.273 13.233,147.530 12.430,147.200 12.451 C 146.870 12.472,145.610 13.034,144.400 13.700 M256.800 13.371 C 256.800 13.465,257.925 14.215,259.300 15.037 C 271.214 22.164,282.067 34.848,286.620 46.964 C 287.025 48.044,287.427 48.718,287.513 48.462 C 287.832 47.505,280.246 33.102,278.844 32.000 C 278.704 31.890,277.783 30.810,276.797 29.600 C 272.577 24.419,267.118 19.618,260.721 15.461 C 257.404 13.305,256.800 12.983,256.800 13.371 M123.600 31.512 C 122.830 32.551,121.983 33.630,121.717 33.911 C 121.044 34.625,117.063 41.103,116.255 42.800 C 115.489 44.408,115.781 43.998,118.777 39.250 C 119.975 37.353,121.991 34.405,123.259 32.700 C 124.526 30.995,125.436 29.606,125.281 29.612 C 125.127 29.619,124.370 30.474,123.600 31.512 M113.441 48.223 C 112.868 49.473,112.408 50.700,112.418 50.948 C 112.428 51.197,112.970 50.247,113.622 48.837 C 114.274 47.428,114.734 46.201,114.645 46.112 C 114.555 46.022,114.014 46.972,113.441 48.223 M287.630 49.400 C 287.614 49.620,287.952 50.700,288.382 51.800 C 288.811 52.900,289.158 53.440,289.152 53.000 C 289.140 52.160,287.681 48.707,287.630 49.400 M111.067 53.867 C 110.920 54.013,110.811 54.508,110.825 54.967 C 110.849 55.733,110.882 55.723,111.234 54.842 C 111.626 53.863,111.544 53.389,111.067 53.867 M289.234 54.400 C 289.246 54.730,289.411 55.360,289.600 55.800 L 289.944 56.600 289.966 55.800 C 289.978 55.360,289.813 54.730,289.600 54.400 C 289.255 53.867,289.215 53.867,289.234 54.400 M110.273 56.553 C 110.123 56.945,110.011 57.566,110.025 57.933 C 110.042 58.375,110.181 58.274,110.437 57.634 C 110.649 57.103,110.761 56.482,110.685 56.254 C 110.609 56.027,110.424 56.161,110.273 56.553 M290.046 57.200 C 290.065 57.530,290.224 58.250,290.400 58.800 L 290.720 59.800 290.754 58.800 C 290.773 58.250,290.613 57.530,290.400 57.200 C 290.055 56.667,290.016 56.667,290.046 57.200 M109.467 59.467 C 109.320 59.613,109.218 60.288,109.241 60.967 L 109.282 62.200 109.610 60.803 C 109.953 59.347,109.917 59.016,109.467 59.467 M290.834 60.600 C 290.872 61.966,291.538 63.242,291.566 62.000 C 291.578 61.450,291.413 60.730,291.200 60.400 C 290.880 59.905,290.816 59.940,290.834 60.600 M108.649 63.015 C 108.512 63.373,108.424 64.776,108.454 66.133 L 108.509 68.600 108.822 65.601 C 109.141 62.545,109.095 61.854,108.649 63.015 M291.653 64.600 C 291.676 65.040,291.832 65.940,292.000 66.600 L 292.305 67.800 292.347 66.400 C 292.369 65.630,292.213 64.730,292.000 64.400 C 291.681 63.906,291.620 63.942,291.653 64.600 M292.646 70.071 C 292.997 72.356,293.200 72.510,293.200 70.490 C 293.200 69.587,293.016 68.733,292.791 68.594 C 292.521 68.427,292.472 68.931,292.646 70.071 M107.898 72.800 C 107.738 74.010,107.633 77.700,107.664 81.000 L 107.721 87.000 108.063 79.800 C 108.431 72.058,108.365 69.262,107.898 72.800 M293.445 74.800 C 293.590 76.010,293.774 77.075,293.854 77.167 C 294.207 77.570,293.946 73.738,293.584 73.200 C 293.303 72.782,293.261 73.267,293.445 74.800 M294.253 79.800 C 294.395 81.120,294.576 82.275,294.656 82.367 C 295.004 82.768,294.748 78.539,294.391 78.000 C 294.120 77.589,294.076 78.157,294.253 79.800 M295.069 85.800 C 295.200 87.560,295.374 89.075,295.454 89.167 C 295.771 89.528,295.521 84.150,295.187 83.400 C 294.962 82.898,294.918 83.791,295.069 85.800 M107.103 90.400 C 106.940 91.610,106.830 93.950,106.858 95.600 L 106.910 98.600 107.260 94.800 C 107.686 90.178,107.571 86.935,107.103 90.400 M295.800 104.047 C 295.800 111.831,295.919 117.300,296.065 116.200 C 296.418 113.532,296.428 93.417,296.077 91.447 C 295.925 90.592,295.800 96.262,295.800 104.047 M106.259 100.688 C 106.121 101.519,106.033 103.910,106.062 106.000 L 106.116 109.800 106.446 104.621 C 106.780 99.369,106.713 97.942,106.259 100.688 M105.457 114.493 C 105.118 119.240,105.727 130.901,106.444 133.400 C 106.692 134.262,106.718 134.036,106.537 132.600 C 106.399 131.500,106.175 125.920,106.039 120.200 C 105.798 110.090,105.782 109.931,105.457 114.493 M295.278 120.400 C 295.232 121.390,295.108 123.460,295.003 125.000 C 294.835 127.471,294.860 127.612,295.221 126.200 C 295.446 125.320,295.569 123.250,295.495 121.600 C 295.419 119.906,295.325 119.384,295.278 120.400 M294.473 129.600 C 294.428 130.590,294.299 132.120,294.185 133.000 C 294.007 134.389,294.036 134.471,294.407 133.619 C 294.642 133.080,294.771 131.550,294.694 130.219 C 294.577 128.202,294.541 128.099,294.473 129.600 M106.852 136.400 C 106.830 137.390,106.987 138.470,107.200 138.800 C 107.695 139.566,107.704 138.527,107.223 136.200 L 106.892 134.600 106.852 136.400 M293.662 135.600 C 293.622 136.150,293.477 137.050,293.340 137.600 C 293.149 138.368,293.203 138.496,293.573 138.153 C 293.851 137.894,293.987 137.050,293.895 136.153 C 293.804 135.274,293.703 135.034,293.662 135.600 M292.923 139.751 C 292.981 140.318,293.633 140.667,295.600 141.182 C 311.200 145.268,312.317 169.771,297.863 190.800 C 293.584 197.025,287.999 201.606,283.885 202.264 C 282.250 202.526,281.669 203.237,281.157 205.600 C 280.990 206.370,280.677 207.630,280.463 208.400 C 278.956 213.803,278.466 215.800,278.613 215.946 C 278.705 216.039,278.855 215.864,278.945 215.557 C 279.036 215.251,279.417 214.010,279.793 212.800 C 280.169 211.590,280.735 209.520,281.049 208.200 C 281.970 204.338,282.407 203.250,283.125 203.043 C 283.496 202.936,284.548 202.654,285.463 202.418 C 291.826 200.776,299.276 191.637,305.207 178.200 C 308.492 170.755,309.733 157.728,307.558 153.505 C 307.361 153.123,307.200 152.459,307.200 152.029 C 307.200 151.599,307.020 151.136,306.800 151.000 C 306.580 150.864,306.400 150.484,306.400 150.154 C 306.400 146.810,298.524 140.400,294.414 140.400 C 293.659 140.400,293.187 140.158,293.052 139.700 C 292.875 139.099,292.857 139.106,292.923 139.751 M107.600 139.933 C 107.600 140.203,106.990 140.400,106.157 140.400 C 103.394 140.400,99.314 142.780,97.109 145.678 C 90.083 154.913,90.468 168.235,98.207 183.674 C 102.798 192.833,108.831 199.630,114.690 202.248 C 116.298 202.966,116.840 203.437,117.039 204.291 C 117.181 204.901,117.841 207.290,118.505 209.600 C 119.169 211.910,119.735 214.250,119.762 214.800 C 119.822 216.004,120.329 216.891,120.792 216.605 C 120.978 216.490,120.968 215.902,120.771 215.298 C 119.562 211.595,118.832 209.158,118.404 207.400 C 117.290 202.826,117.366 202.936,114.256 201.440 C 108.439 198.642,102.428 191.459,97.821 181.800 C 88.892 163.080,92.322 144.198,105.200 141.171 C 107.517 140.626,108.327 140.193,107.873 139.740 C 107.723 139.590,107.600 139.677,107.600 139.933 M118.175 214.522 C 117.966 215.065,119.143 219.055,120.236 221.514 C 122.224 225.983,123.434 228.381,123.706 228.390 C 123.874 228.395,123.484 227.356,122.840 226.080 C 119.998 220.450,117.955 214.230,119.200 215.000 C 119.420 215.136,119.600 215.076,119.600 214.866 C 119.600 214.256,118.389 213.963,118.175 214.522 M277.645 218.200 C 277.353 219.300,277.024 220.538,276.914 220.950 C 276.786 221.432,276.873 221.602,277.157 221.426 C 277.401 221.276,277.600 220.702,277.600 220.150 C 277.600 219.599,277.791 218.790,278.025 218.353 C 278.259 217.916,278.389 217.253,278.313 216.879 C 278.237 216.506,277.936 217.100,277.645 218.200 M276.036 223.639 C 275.765 224.543,275.439 225.580,275.313 225.942 C 275.162 226.373,275.216 226.462,275.472 226.200 C 275.977 225.680,276.990 222.456,276.729 222.195 C 276.618 222.085,276.306 222.735,276.036 223.639 M274.286 228.417 C 273.914 229.366,273.686 230.219,273.781 230.314 C 274.024 230.558,275.246 227.538,275.091 227.074 C 275.021 226.864,274.659 227.468,274.286 228.417 M124.169 229.200 C 124.296 229.530,124.511 230.115,124.646 230.500 C 124.782 230.885,125.059 231.200,125.261 231.200 C 125.624 231.200,125.275 230.406,124.383 229.200 C 123.988 228.667,123.965 228.667,124.169 229.200 M125.600 231.805 C 125.600 232.221,128.211 235.986,128.504 235.993 C 128.671 235.997,128.151 235.010,127.347 233.800 C 125.980 231.741,125.600 231.307,125.600 231.805 M271.840 234.040 C 271.486 234.749,271.274 235.407,271.369 235.502 C 271.464 235.597,271.838 235.101,272.200 234.400 C 272.562 233.699,272.774 233.041,272.671 232.938 C 272.568 232.835,272.194 233.331,271.840 234.040 M270.540 236.643 C 268.315 242.676,254.393 256.692,242.917 264.452 L 240.034 266.402 240.211 270.301 C 240.308 272.445,240.477 276.360,240.585 279.000 C 241.022 289.666,242.467 295.501,245.505 298.863 C 247.539 301.115,249.340 301.995,256.800 304.383 C 260.430 305.545,263.760 306.633,264.200 306.800 C 264.640 306.967,267.340 307.844,270.200 308.748 C 273.060 309.652,280.170 311.941,286.000 313.834 C 291.830 315.727,297.680 317.619,299.000 318.038 C 300.320 318.457,305.180 320.039,309.800 321.553 C 319.359 324.685,325.041 326.440,328.800 327.420 C 358.912 335.268,378.968 357.580,383.976 388.800 C 384.206 390.230,384.677 393.083,385.024 395.139 C 385.371 397.196,385.597 398.925,385.527 398.980 C 385.457 399.036,385.040 399.283,384.600 399.529 C 383.856 399.944,383.878 399.977,384.900 399.988 C 386.511 400.006,386.455 399.175,383.980 386.200 C 383.006 381.098,380.883 373.454,379.648 370.600 C 372.860 354.923,363.518 343.896,349.987 335.592 C 345.869 333.065,340.739 330.622,337.000 329.409 C 335.900 329.052,334.640 328.614,334.200 328.435 C 332.504 327.747,330.508 327.200,329.695 327.200 C 329.229 327.200,328.736 327.020,328.600 326.800 C 328.464 326.580,327.971 326.400,327.505 326.400 C 327.038 326.400,326.104 326.217,325.428 325.993 C 323.918 325.493,306.939 320.005,293.200 315.576 C 282.521 312.134,278.677 310.886,260.026 304.803 C 246.434 300.371,245.252 299.580,242.980 293.400 C 241.942 290.575,241.031 281.239,241.015 273.242 L 241.000 266.283 244.379 263.945 C 255.657 256.141,272.982 238.049,271.039 236.106 C 270.918 235.985,270.693 236.226,270.540 236.643 M129.025 236.800 C 130.306 239.353,139.626 249.289,144.800 253.619 C 146.230 254.816,147.490 255.887,147.600 255.999 C 147.710 256.110,148.880 257.012,150.200 258.001 C 151.520 258.990,152.803 259.980,153.051 260.200 C 153.299 260.420,154.977 261.662,156.780 262.960 L 160.057 265.319 159.854 273.560 C 159.668 281.153,159.391 284.510,158.465 290.400 C 157.855 294.288,156.487 297.035,154.007 299.355 C 152.244 301.004,151.554 301.287,140.774 304.789 C 134.518 306.821,129.040 308.623,128.600 308.794 C 128.160 308.965,125.370 309.874,122.400 310.814 C 119.430 311.754,114.390 313.379,111.200 314.424 C 108.010 315.469,100.540 317.886,94.600 319.795 C 88.660 321.704,82.180 323.793,80.200 324.437 C 78.220 325.081,76.047 325.787,75.372 326.004 C 74.696 326.222,73.762 326.400,73.295 326.400 C 72.829 326.400,72.336 326.580,72.200 326.800 C 72.064 327.020,71.571 327.200,71.105 327.200 C 70.336 327.200,68.755 327.621,66.600 328.400 C 66.160 328.559,65.080 328.918,64.200 329.198 C 50.733 333.485,37.195 344.115,28.538 357.200 C 21.959 367.143,18.162 377.383,16.004 391.000 C 15.760 392.540,15.390 394.568,15.180 395.506 C 14.469 398.697,14.655 400.000,15.824 400.000 C 16.404 400.000,16.740 399.827,16.600 399.600 C 16.464 399.380,16.074 399.200,15.733 399.200 C 15.267 399.200,15.177 398.945,15.371 398.171 C 15.513 397.605,15.902 395.310,16.235 393.071 C 16.937 388.355,17.815 383.928,18.669 380.800 C 20.185 375.245,20.375 374.646,21.578 371.600 C 30.563 348.862,49.228 332.682,72.800 327.199 C 74.010 326.917,75.990 326.373,77.200 325.991 C 83.334 324.049,97.500 319.475,98.200 319.209 C 98.640 319.042,100.170 318.538,101.600 318.091 C 103.030 317.643,108.970 315.727,114.800 313.834 C 120.630 311.941,127.740 309.652,130.600 308.748 C 133.460 307.844,136.160 306.967,136.600 306.800 C 137.040 306.633,140.370 305.545,144.000 304.383 C 158.135 299.859,159.612 297.168,160.344 274.600 C 160.688 263.998,161.376 265.754,155.073 261.134 C 144.145 253.124,137.921 247.307,129.862 237.574 C 129.236 236.818,128.860 236.470,129.025 236.800 " stroke="none" fill="#d6e0ad" fill-rule="evenodd"></path><path id="path5" d="M197.944 0.189 C 197.806 0.327,194.477 0.785,190.547 1.207 C 182.995 2.017,179.350 2.530,176.400 3.198 C 175.410 3.423,173.970 3.710,173.200 3.836 C 172.430 3.963,171.350 4.210,170.800 4.385 C 170.250 4.560,168.450 5.104,166.800 5.593 C 165.150 6.082,163.487 6.644,163.105 6.841 C 162.723 7.038,162.084 7.200,161.685 7.200 C 161.286 7.200,160.789 7.343,160.580 7.518 C 160.371 7.693,159.480 8.066,158.600 8.346 C 157.720 8.626,156.280 9.184,155.400 9.586 C 154.520 9.988,153.080 10.625,152.200 11.003 C 149.890 11.993,144.526 14.632,142.200 15.923 C 141.100 16.534,139.120 17.645,137.800 18.393 C 133.223 20.987,124.927 30.225,119.505 38.767 C 116.595 43.351,112.696 51.484,111.627 55.200 C 111.342 56.190,110.962 57.360,110.782 57.800 C 110.602 58.240,110.344 59.230,110.209 60.000 C 110.074 60.770,109.790 62.390,109.577 63.600 C 109.363 64.810,109.010 69.490,108.791 74.000 C 108.013 90.004,107.635 96.266,107.128 101.600 C 106.464 108.582,106.454 128.785,107.112 132.800 C 107.383 134.450,107.774 136.970,107.982 138.400 C 108.368 141.062,111.818 158.937,113.192 165.400 C 115.569 176.576,116.901 182.527,119.059 191.600 C 120.256 196.632,121.320 199.973,121.658 199.764 C 121.846 199.648,121.998 196.188,121.996 192.076 C 121.992 183.880,121.475 174.525,119.560 148.000 C 118.609 134.821,118.619 121.710,119.585 117.393 C 122.017 106.519,126.607 92.904,131.191 82.964 C 133.363 78.255,141.685 73.705,154.167 70.402 C 158.146 69.349,160.049 68.937,167.000 67.627 C 169.018 67.247,171.981 66.869,180.400 65.919 C 187.310 65.139,212.127 65.284,219.600 66.147 C 226.348 66.926,229.703 67.388,232.900 67.977 C 234.165 68.209,236.145 68.564,237.300 68.764 C 247.813 70.586,258.770 74.503,266.670 79.263 C 268.068 80.105,269.511 82.328,270.814 85.643 C 271.281 86.829,271.902 88.340,272.195 89.000 C 275.246 95.882,279.479 109.164,281.235 117.372 C 282.478 123.177,282.185 129.539,279.602 152.800 C 278.954 158.630,278.242 165.290,278.018 167.600 C 276.491 183.358,276.688 194.179,278.381 187.500 C 278.674 186.345,279.409 183.870,280.015 182.000 C 288.290 156.468,290.796 148.019,292.054 141.400 C 292.264 140.300,292.617 138.590,292.841 137.600 C 293.889 132.949,294.568 125.658,295.230 111.926 C 295.875 98.548,295.157 86.981,292.853 73.600 C 291.748 67.186,290.936 62.938,290.443 61.000 C 290.220 60.120,289.860 58.680,289.645 57.800 C 288.110 51.528,286.969 48.405,283.951 42.200 C 281.382 36.919,279.969 34.715,276.015 29.819 C 272.618 25.613,265.462 19.426,260.019 15.989 C 255.607 13.204,248.586 9.703,244.800 8.401 C 244.030 8.136,243.040 7.776,242.600 7.600 C 241.415 7.127,239.627 6.555,237.600 6.000 C 236.610 5.729,235.350 5.369,234.800 5.200 C 232.926 4.624,230.604 4.060,228.200 3.597 C 226.880 3.343,225.080 2.966,224.200 2.759 C 220.947 1.995,198.350 -0.217,197.944 0.189 M275.984 215.300 C 264.102 232.447,242.790 249.666,227.000 254.876 C 221.176 256.798,211.245 255.844,203.800 252.649 C 200.490 251.229,199.026 251.313,195.108 253.153 C 176.482 261.895,146.109 247.897,122.808 219.831 C 119.622 215.993,119.018 215.915,120.391 219.518 C 121.286 221.865,125.185 230.043,125.580 230.400 C 125.702 230.510,126.042 231.068,126.336 231.639 C 128.588 236.020,139.717 248.487,145.800 253.444 C 147.120 254.520,148.290 255.490,148.400 255.601 C 148.510 255.712,149.680 256.611,151.000 257.600 C 152.320 258.589,153.490 259.498,153.600 259.620 C 153.710 259.742,155.418 261.003,157.395 262.421 C 159.372 263.839,161.312 265.270,161.705 265.600 C 182.010 282.623,220.658 281.722,243.400 263.695 C 243.620 263.521,244.430 262.942,245.200 262.408 C 245.970 261.875,246.690 261.331,246.800 261.200 C 246.910 261.069,247.630 260.523,248.400 259.988 C 249.817 259.003,250.489 258.443,254.149 255.200 C 257.276 252.429,262.423 247.201,264.200 244.990 C 265.080 243.896,265.900 242.910,266.021 242.800 C 267.550 241.417,270.710 235.890,272.996 230.600 C 273.376 229.720,273.938 228.477,274.244 227.839 C 274.550 227.200,274.800 226.355,274.800 225.962 C 274.800 225.569,274.980 225.136,275.200 225.000 C 275.420 224.864,275.600 224.324,275.600 223.800 C 275.600 223.276,275.780 222.736,276.000 222.600 C 276.220 222.464,276.400 221.911,276.400 221.371 C 276.400 220.831,276.564 220.077,276.764 219.695 C 277.078 219.094,278.400 213.721,278.400 213.043 C 278.400 212.268,277.506 213.104,275.984 215.300 " stroke="none" fill="#2d1f1f" fill-rule="evenodd"></path></g></svg>