<?xml version="1.0" encoding="UTF-8"?>
<svg width="34px" height="34px" viewBox="0 0 34 34" version="1.1" xmlns="http://www.w3.org/2000/svg" xmlns:xlink="http://www.w3.org/1999/xlink">
    <title>Group 3</title>
    <g id="Page-1" stroke="none" stroke-width="1" fill="none" fill-rule="evenodd">
        <g id="landing-page" transform="translate(-272.000000, -201.000000)">
            <g id="Group-3" transform="translate(272.000000, 201.000000)">
                <circle id="Oval" fill="#E9E8E8" cx="17" cy="17" r="17"></circle>
                <g id="plus" transform="translate(10.000000, 10.000000)" fill="#E04805" fill-rule="nonzero">
                    <path d="M13.2999167,6.29998077 L7.70001923,6.29998077 L7.70001923,0.699955131 C7.70001923,0.313640408 7.38637882,0 6.9999359,0 C6.61362118,0 6.29998077,0.313640408 6.29998077,0.699955131 L6.29998077,6.29998077 L0.699955131,6.29998077 C0.313640408,6.29998077 0,6.61362118 0,6.9999359 C0,7.38637882 0.313640408,7.70001923 0.699955131,7.70001923 L6.29998077,7.70001923 L6.29998077,13.2999167 C6.29998077,13.6863596 6.61362118,14 6.9999359,14 C7.38637882,14 7.70001923,13.6863596 7.70001923,13.2999167 L7.70001923,7.70001923 L13.2999167,7.70001923 C13.6863596,7.70001923 14,7.38637882 14,6.9999359 C14,6.61362118 13.6863596,6.29998077 13.2999167,6.29998077 Z" id="Path"></path>
                </g>
            </g>
        </g>
    </g>
</svg>