<?xml version="1.0" encoding="UTF-8"?>
<svg width="180px" height="145px" viewBox="0 0 260 225" version="1.1" xmlns="http://www.w3.org/2000/svg" xmlns:xlink="http://www.w3.org/1999/xlink">
    <title>Group 155</title>
    <defs>
        <path d="M0.005,22.11 L40.336,22.11 C40.436,19.214 38.743,16.594 36.544,15.133 L36.544,15.133 C34.345,13.671 31.783,13.131 29.294,12.521 L29.294,12.521 C26.803,11.909 24.249,11.16 22.239,9.381 L22.239,9.381 C20.065,7.455 18.722,4.366 18.697,1.232 L18.697,1.232 L3.052,0.904 L0.005,22.11 Z" id="path-1"></path>
        <path d="M19.687,1.064 C16.562,2.106 -2.608,26.436 0.724,43.272 L0.724,43.272 C4.598,62.846 41.911,69.982 41.911,69.982 L41.911,69.982 L43.778,66.34 C44.369,66.818 44.969,67.289 45.574,67.757 L45.574,67.757 C47.258,69.055 48.983,70.315 50.703,71.518 L50.703,71.518 C61.27,78.92 71.681,84.256 71.681,84.256 L71.681,84.256 L86.77,69.371 L69.234,47.758 C69.234,47.758 67.807,21.454 66.381,17.581 L66.381,17.581 C64.952,13.706 53.535,5.346 53.535,5.346 L53.535,5.346 C45.786,12.483 37.426,0.861 37.426,0.861 L37.426,0.861 C37.426,0.861 31.928,0.462 26.91,0.462 L26.91,0.462 C23.9,0.462 21.063,0.605 19.687,1.064 L19.687,1.064 Z" id="path-3"></path>
        <polygon id="path-5" points="0 225 259.367 225 259.367 0.004 0 0.004"></polygon>
        <path d="M5.487,1.383 C2.89,2.906 1.113,5.895 0.797,9.057 L0.797,9.057 C0.55,11.531 1.173,14.104 2.571,16.075 L2.571,16.075 C4.83,19.257 9.117,20.551 12.598,19.101 L12.598,19.101 C19.256,16.327 19.822,5.609 13.925,1.596 L13.925,1.596 C12.631,0.715 11.104,0.28 9.571,0.28099828 L9.571,0.28099828 C8.155,0.28099828 6.733,0.651 5.487,1.383 L5.487,1.383 Z" id="path-7"></path>
        <path d="M5.487,1.383 C2.89,2.906 1.113,5.895 0.797,9.057 L0.797,9.057 C0.55,11.531 1.173,14.104 2.571,16.075 L2.571,16.075 C4.83,19.257 9.117,20.551 12.598,19.101 L12.598,19.101 C19.256,16.327 19.822,5.609 13.925,1.596 L13.925,1.596 C12.631,0.715 11.104,0.28 9.571,0.28099828 L9.571,0.28099828 C8.155,0.28099828 6.733,0.651 5.487,1.383 L5.487,1.383 Z" id="path-9"></path>
        <path d="M4.841,0.576 C2.539,1.3 0.848,3.387 0.516,5.776 L0.516,5.776 C0.183,8.164 1.179,10.767 3.011,12.537 L3.011,12.537 C4.443,13.921 6.37,14.808 8.303,14.908 L8.303,14.908 C11.426,15.069 14.371,13.016 15.188,10.107 L15.188,10.107 C16.559,5.232 11.769,0.265 6.892,0.265999849 L6.892,0.265999849 C6.205,0.265999849 5.515,0.365 4.841,0.576 L4.841,0.576 Z" id="path-11"></path>
        <path d="M4.841,0.576 C2.539,1.3 0.848,3.387 0.516,5.776 L0.516,5.776 C0.183,8.164 1.179,10.767 3.011,12.537 L3.011,12.537 C4.443,13.921 6.37,14.808 8.303,14.908 L8.303,14.908 C11.426,15.069 14.371,13.016 15.188,10.107 L15.188,10.107 C16.559,5.232 11.769,0.265 6.892,0.265999849 L6.892,0.265999849 C6.205,0.265999849 5.515,0.365 4.841,0.576 L4.841,0.576 Z" id="path-13"></path>
        <path d="M2.825,1.988 C1.588,3.146 0.754,4.745 0.587,6.384 L0.587,6.384 C0.319,9.029 1.939,11.618 4.375,12.435 L4.375,12.435 C9.036,13.997 14.132,8.752 12.907,4.047 L12.907,4.047 C12.39,2.061 10.689,0.537 8.673,0.153 L8.673,0.153 C8.317,0.086 7.955,0.053 7.59,0.053 L7.59,0.053 C5.885,0.053 4.127,0.768 2.825,1.988 L2.825,1.988 Z" id="path-15"></path>
        <path d="M2.825,1.988 C1.588,3.146 0.754,4.745 0.587,6.384 L0.587,6.384 C0.319,9.029 1.939,11.618 4.375,12.435 L4.375,12.435 C9.036,13.997 14.132,8.752 12.907,4.047 L12.907,4.047 C12.39,2.061 10.689,0.537 8.673,0.153 L8.673,0.153 C8.317,0.086 7.955,0.053 7.59,0.053 L7.59,0.053 C5.885,0.053 4.127,0.768 2.825,1.988 L2.825,1.988 Z" id="path-17"></path>
        <path d="M0.354,23.24 C0.446,35.568 9.199,47.895 25.876,46.105 L25.876,46.105 C37.436,44.865 47.005,33.645 46.406,22.033 L46.406,22.033 C45.807,10.422 35.134,0.246 23.507,0.201 L23.507,0.201 C23.468,0.201 23.425,0.201 23.386,0.201 L23.386,0.201 C7.744,0.2 0.268,11.72 0.354,23.24 L0.354,23.24 Z" id="path-19"></path>
        <path d="M0.354,23.24 C0.446,35.568 9.199,47.895 25.876,46.105 L25.876,46.105 C37.436,44.865 47.005,33.645 46.406,22.033 L46.406,22.033 C45.807,10.422 35.134,0.246 23.507,0.201 L23.507,0.201 C23.468,0.201 23.425,0.201 23.386,0.201 L23.386,0.201 C7.744,0.2 0.268,11.72 0.354,23.24" id="path-21"></path>
        <path d="M0.911,15.777 C0.972,24.123 6.898,32.469 18.189,31.257 L18.189,31.257 C26.017,30.418 32.496,22.822 32.09,14.959 L32.09,14.959 C31.684,7.098 24.458,0.209 16.587,0.179 L16.587,0.179 C16.56,0.178 16.533,0.178 16.506,0.178 L16.506,0.178 C5.915,0.178 0.853,7.978 0.911,15.777" id="path-23"></path>
        <polyline id="path-25" points="0.918 37.626 50.553 58.654 59.681 41.84 19.874 0.449"></polyline>
        <polygon id="path-27" points="0.918 37.626 50.553 58.654 59.681 41.84 19.874 0.449"></polygon>
        <polyline id="path-29" points="0.28 29.364 33.514 28.778 31.323 0.55"></polyline>
    </defs>
    <g id="Page-1" stroke="none" stroke-width="1" fill="none" fill-rule="evenodd">
        <g id="Quiz-instructions" transform="translate(-64.000000, -321.000000)">
            <g id="Group-155" transform="translate(64.000000, 321.000000)">
                <g id="Group-13" transform="translate(0.000000, 11.996000)">
                    <path d="M209.0306,204.1097 C209.6216,192.8237 214.5416,182.1287 221.6546,176.7137 C228.7676,171.2987 237.8496,171.3047 244.9596,176.7287 C252.0686,182.1527 258.7826,192.8227 259.3666,204.1097" id="Fill-1" fill="#6FD08C"></path>
                    <path d="M9.3616,204.1829 L8.1206,204.0359 C8.1416,203.8569 10.3056,185.9499 16.0076,168.2759 C19.3646,157.8649 23.2786,149.5609 27.6376,143.5939 C33.1626,136.0339 39.4346,132.1999 46.2816,132.1999 C53.1286,132.1999 59.3916,136.0339 64.8976,143.5949 C69.2436,149.5619 73.1356,157.8659 76.4686,168.2769 C82.1276,185.9519 84.2476,203.8589 84.2676,204.0369 L83.0256,204.1809 C83.0056,204.0029 80.8966,186.2019 75.2736,168.6419 C71.9816,158.3629 68.1496,150.1809 63.8836,144.3259 C58.6266,137.1089 52.7046,133.4499 46.2816,133.4499 C39.8576,133.4499 33.9256,137.1089 28.6516,144.3259 C24.3706,150.1819 20.5186,158.3639 17.2016,168.6429 C11.5356,186.2039 9.3826,204.0049 9.3616,204.1829" id="Fill-3" fill="#FFFFFF"></path>
                    <path d="M82.598,204.1097 C87.967,196.1837 92.664,189.3547 94.703,180.0017 C96.743,170.6487 95.894,160.3807 90.805,152.2717 C85.716,144.1637 75.958,138.7397 66.506,140.2567 C58.165,141.5967 51.306,147.9297 47.204,155.3147 C43.103,162.7007 41.327,171.1137 39.605,179.3827 C36.341,171.9637 28.127,167.1127 20.035,167.5857 C11.943,168.0577 4.447,173.6797 1.484,181.2257 C-1.479,188.7707 0.107,197.8447 5.252,204.1097" id="Fill-5" fill="#ED6A5E"></path>
                    <path d="M79.4622,204.1097 C80.4642,183.9067 88.8002,164.7617 100.8542,155.0687 C112.9062,145.3757 128.2962,145.3847 140.3442,155.0947 C152.3912,164.8037 163.7682,183.9047 164.7572,204.1097" id="Fill-7" fill="#FFFFFF"></path>
                    <path d="M128.6312,30.8802 C125.4072,31.3532 122.0802,31.3092 118.9732,30.2292 C115.8642,29.1492 112.9842,26.9602 111.2762,23.8092 C108.4052,18.5092 109.5002,11.0522 113.3762,6.6632 C117.2532,2.2742 123.4142,0.9862 128.6072,2.9242 C131.1922,3.8882 133.6172,5.5802 136.3292,5.8132 C139.0422,6.0452 142.2232,3.9662 142.0852,0.8702 C148.0272,3.4212 153.8782,6.4212 159.8192,8.9712 C158.6392,10.1592 160.0192,12.2132 161.2182,13.3772 C162.4162,14.5412 164.0282,14.9402 165.4762,15.6492 C169.5162,17.6272 172.3732,22.4162 172.5012,27.4262 C172.6292,32.4372 170.0222,37.4072 166.0892,39.6512 C162.1562,41.8952 157.1032,41.2942 153.6612,38.1742" id="Fill-9" fill="#000000"></path>
                    <path d="M90.0521,182.9036 L87.0051,204.1096 L127.3351,204.1096 C127.4361,201.2146 125.7421,198.5936 123.5441,197.1326 C121.3451,195.6716 118.7821,195.1316 116.2931,194.5206 C113.8031,193.9096 111.2491,193.1606 109.2391,191.3816 C107.0651,189.4556 105.7221,186.3666 105.6971,183.2316" id="Fill-11" fill="#000000"></path>
                </g>
                <g id="Group-16" transform="translate(87.000000, 193.996000)">
                    <mask id="mask-2" fill="white">
                        <use xlink:href="#path-1"></use>
                    </mask>
                    <g id="Clip-15"></g>
                    <path d="M14.7767,31.0003 C14.2577,25.9773 12.1277,21.1303 8.7787,17.3513 C5.4297,13.5713 0.8747,10.8733 -4.0493,9.7533 L-3.7723,8.5343 C1.4047,9.7123 6.1937,12.5493 9.7147,16.5213 C13.2347,20.4943 15.4747,25.5913 16.0197,30.8713 L14.7767,31.0003 Z" id="Fill-14" fill="#FFFFFF" mask="url(#mask-2)"></path>
                </g>
                <g id="Group-75" transform="translate(82.000000, -0.004000)">
                    <path d="M97.2064,105.5101 L88.5024,115.3441 C88.5024,115.3441 100.5694,123.1351 102.2294,122.3821 C103.2244,121.9311 102.8784,121.1441 102.8784,121.1441 C102.8784,121.1441 104.0044,122.0791 104.8044,121.7291 C105.6034,121.3771 105.4524,120.4901 105.4524,120.4901 C105.4524,120.4901 106.5434,121.1561 107.0704,120.1051 C107.6464,118.9561 105.3024,115.4431 102.7554,112.1521" id="Fill-17" fill="#604F46"></path>
                    <path d="M104.8909,120.7649 C104.8789,120.7409 103.7039,118.3649 101.4379,116.0569 L102.3289,115.1809 C104.7449,117.6409 105.9639,120.1129 106.0139,120.2159 L104.8909,120.7649 Z" id="Fill-19" fill="#000000"></path>
                    <path d="M102.3724,121.511 C102.3574,121.49 100.8724,119.452 99.2534,117.862 L100.1294,116.97 C101.8244,118.635 103.3214,120.69 103.3844,120.777 L102.3724,121.511 Z" id="Fill-21" fill="#000000"></path>
                    <path d="M98.3519,112.5384 C97.6079,112.5384 96.8659,112.3764 96.2009,112.0454 L96.7569,110.9264 C97.9389,111.5144 99.4489,111.3864 100.5139,110.6084 L101.2509,111.6174 C100.4179,112.2264 99.3839,112.5384 98.3519,112.5384" id="Fill-23" fill="#000000"></path>
                    <path d="M102.7552,112.1517 C104.6822,112.8667 107.6762,112.8377 107.6262,110.9487 C107.5742,108.9717 105.1262,109.4227 103.0062,108.5857 C100.8862,107.7487 97.2062,105.5097 97.2062,105.5097" id="Fill-25" fill="#604F46"></path>
                    <polygon id="Fill-27" fill="#604F46" points="52.3704 35.803 52.3814 42.765 69.2244 45.886 68.5164 40.311 70.1004 28.064 60.5094 17.702"></polygon>
                    <path d="M63.4388,26.3489 C63.8628,30.1839 66.0008,33.7519 69.0628,36.0839 L70.0518,28.4329 L67.1948,25.3279 C65.9358,25.6689 64.7218,26.0109 63.4388,26.3489" id="Fill-29" fill="#000000"></path>
                    <path d="M60.4857,11.3987 L60.5767,12.1687 L62.2537,26.6137 C62.2537,26.6137 67.2467,35.2487 75.7257,30.8917 C80.4317,28.4667 83.7967,19.7507 83.6507,12.2197 C83.6447,11.9797 83.6367,11.7427 83.6257,11.5057 L83.6207,11.3997 C83.6187,11.3537 83.6167,11.3047 83.6127,11.2557 C83.6107,11.2327 83.6107,11.2087 83.6087,11.1847 C83.5897,10.9097 83.5667,10.6357 83.5367,10.3637 C83.5197,10.1687 83.4987,9.9807 83.4697,9.7907 C83.4387,9.5437 83.3997,9.2967 83.3597,9.0547 C82.9227,6.4787 81.9747,4.2087 80.4047,2.6107 C80.0487,2.2477 79.6637,1.9157 79.2407,1.6277 C79.0477,1.4927 78.8457,1.3677 78.6377,1.2527 C78.4727,1.1577 78.2987,1.0697 78.1257,0.9877 C77.6657,0.7747 77.1777,0.6007 76.6557,0.4707 C76.6077,0.4607 76.5587,0.4457 76.5087,0.4357 C72.0517,-0.6493 68.7367,0.4407 66.3157,2.2787 C63.2587,4.5997 61.6307,8.1257 60.9227,10.0447 C60.8977,10.1137 60.8727,10.1797 60.8487,10.2457 L60.8167,10.3397 L60.7547,10.5287 C60.6957,10.7087 60.6447,10.8637 60.6047,10.9917 C60.5477,11.1687 60.5127,11.2947 60.4967,11.3547 C60.4887,11.3837 60.4857,11.3987 60.4857,11.3987" id="Fill-31" fill="#604F46"></path>
                    <path d="M74.6429,22.9632 C74.4959,22.9632 74.3479,22.9452 74.2029,22.9092 L74.5069,21.6962 C74.6619,21.7352 74.8189,21.7092 74.9519,21.6222 C75.0839,21.5352 75.1719,21.4012 75.1989,21.2452 L76.1069,15.8512 L77.3389,16.0582 L76.4309,21.4522 C76.3469,21.9492 76.0579,22.3932 75.6359,22.6682 C75.3389,22.8622 74.9929,22.9632 74.6429,22.9632" id="Fill-33" fill="#000000"></path>
                    <path d="M72.6487,15.4715 C72.5477,15.8725 72.2337,16.1395 71.9477,16.0675 C71.6607,15.9955 71.5097,15.6125 71.6107,15.2105 C71.7117,14.8085 72.0257,14.5415 72.3127,14.6145 C72.5987,14.6865 72.7507,15.0705 72.6487,15.4715" id="Fill-35" fill="#000000"></path>
                    <path d="M80.5413,17.4539 C80.4393,17.8549 80.1263,18.1219 79.8393,18.0499 C79.5523,17.9779 79.4013,17.5949 79.5023,17.1929 C79.6043,16.7909 79.9173,16.5249 80.2043,16.5969 C80.4913,16.6689 80.6423,17.0529 80.5413,17.4539" id="Fill-37" fill="#000000"></path>
                    <path d="M71.7122,11.6233 C71.4752,11.6243 71.2322,11.6383 71.0252,11.7083 C70.8172,11.7773 70.6512,11.9123 70.6442,12.0723 C70.6302,12.3373 71.0212,12.5463 71.3842,12.6693 C72.1622,12.9343 73.0332,13.0553 73.8712,13.0173 C74.1682,13.0033 74.4962,12.9543 74.6312,12.7813 C74.9452,12.3783 74.1422,12.0293 73.8062,11.9233 C73.1512,11.7163 72.4072,11.6203 71.7122,11.6233" id="Fill-39" fill="#000000"></path>
                    <path d="M80.0609,13.4881 C79.8569,13.4561 79.6459,13.4361 79.4599,13.4701 C79.2739,13.5051 79.1149,13.6051 79.0879,13.7501 C79.0439,13.9891 79.3539,14.2341 79.6519,14.3971 C80.2889,14.7451 81.0229,14.9761 81.7479,15.0571 C82.0029,15.0861 82.2909,15.0861 82.4289,14.9461 C82.7479,14.6231 82.0999,14.1941 81.8239,14.0501 C81.2869,13.7711 80.6589,13.5811 80.0609,13.4881" id="Fill-41" fill="#000000"></path>
                    <path d="M63.595,12.0247 C63.303,11.1077 62.428,10.4417 61.481,10.2717 C60.534,10.1017 59.542,10.3837 58.739,10.9137 C56.905,12.1227 56.099,14.6817 56.91,16.7237 C57.723,18.7657 60.065,20.0737 62.229,19.6927" id="Fill-43" fill="#604F46"></path>
                    <path d="M60.306,16.472 L59.075,16.255 C59.244,15.289 59.708,14.377 60.373,13.654 L59.514,13.461 L59.788,12.242 L61.878,12.711 L62.073,13.851 C61.154,14.425 60.493,15.405 60.306,16.472" id="Fill-45" fill="#000000"></path>
                    <path d="M60.9222,10.0447 C63.9672,10.9007 67.3032,10.7347 70.2302,9.5247 C73.1832,8.3027 75.6752,6.0257 77.2222,3.2307 C78.4012,6.5037 80.6822,9.3807 83.6122,11.2557 C83.6102,11.2327 83.6102,11.2087 83.6092,11.1847 C83.5902,10.9097 83.5672,10.6357 83.5362,10.3637 C83.5202,10.1687 83.4982,9.9807 83.4702,9.7907 C83.4392,9.5437 83.4002,9.2967 83.3592,9.0547 C82.9232,6.4787 81.9752,4.2087 80.4042,2.6107 C80.0492,2.2477 79.6632,1.9157 79.2402,1.6277 C79.0472,1.4927 78.8462,1.3677 78.6382,1.2527 C78.4732,1.1577 78.2992,1.0697 78.1252,0.9877 C77.6652,0.7747 77.1782,0.6007 76.6552,0.4707 C76.6082,0.4607 76.5592,0.4457 76.5092,0.4357 C72.0522,-0.6493 68.7362,0.4407 66.3162,2.2787 C63.2592,4.5997 61.6302,8.1257 60.9222,10.0447" id="Fill-47" fill="#000000"></path>
                    <path d="M25.511,72.1546 C25.511,72.1546 27.899,72.1136 31.287,73.4576 C31.923,73.7086 32.594,74.0086 33.289,74.3696 C37.146,76.3506 41.798,80.1136 45.698,87.2436 C48.566,92.4896 54.291,97.9056 60.574,102.7566 C62.258,104.0546 63.983,105.3156 65.701,106.5186 C76.27,113.9206 86.681,119.2566 86.681,119.2566 L101.77,104.3716 L84.235,82.7586 C84.235,82.7586 82.807,56.4546 81.38,52.5806 C79.952,48.7066 68.534,40.3456 68.534,40.3456 C60.785,47.4826 52.426,35.8606 52.426,35.8606 L25.511,72.1546 Z" id="Fill-49" fill="#ED6A5E"></path>
                    <path d="M73.636,188.9153 L80.311,209.2723 L116.457,191.3863 C115.263,188.7463 112.584,187.1483 109.965,186.8143 C107.346,186.4793 104.81,187.1323 102.307,187.6883 C99.805,188.2463 97.184,188.7073 94.593,188.0033 C91.79,187.2423 89.217,185.0693 87.803,182.2703" id="Fill-51" fill="#000000"></path>
                    <path d="M0.1888,198.6722 L33.6568,198.6722 L42.6248,133.2922 L45.5098,139.9602 L69.2418,194.7972 L100.4938,179.7252 L65.7018,106.5192 L62.2868,99.3302 L61.1938,97.0302 L36.7578,72.5612 C35.5658,73.0262 34.4098,73.6312 33.2898,74.3692 C28.0068,77.8462 23.5468,84.2342 19.7878,92.3492 C3.0638,128.4432 0.1888,198.6722 0.1888,198.6722" id="Fill-53" fill="#6FD08C"></path>
                    <path d="M19.7874,92.3489 C33.0394,104.7559 58.1354,107.6339 58.1354,107.6339 L60.5734,102.7559 L62.2864,99.3299 L61.1934,97.0309 L36.7584,72.5609 C35.5654,73.0259 34.4094,73.6309 33.2894,74.3699 C28.0074,77.8459 23.5474,84.2339 19.7874,92.3489" id="Fill-55" fill="#4DBC6A"></path>
                    <path d="M36.7581,72.5608 L62.2861,99.3308 L67.9221,88.0588 L45.2891,68.0768 L45.2891,61.5518 C45.2891,61.5518 35.5661,73.0258 36.7581,72.5608" id="Fill-57" fill="#E24B44"></path>
                    <path d="M69.4564,95.2034 C71.8384,96.2524 73.5344,95.9094 73.8974,94.6024 C74.1964,93.5304 70.4924,92.1434 67.1764,91.4434 C64.9464,90.9724 62.4814,90.0814 62.4814,90.0814" id="Fill-59" fill="#604F46"></path>
                    <path d="M62.4818,90.0813 L56.3788,101.7093 C56.3788,101.7093 69.9598,106.3923 71.3908,105.2643 C72.2488,104.5883 71.7248,103.9053 71.7248,103.9053 C71.7248,103.9053 73.0428,104.5463 73.7348,104.0143 C74.4268,103.4813 74.0688,102.6563 74.0688,102.6563 C74.0688,102.6563 75.2868,103.0423 75.5468,101.8943 C75.8328,100.6423 72.7158,97.7913 69.4568,95.2033" id="Fill-61" fill="#604F46"></path>
                    <path d="M73.5892,103.0569 C73.5712,103.0359 71.8622,101.0099 69.1102,99.3109 L69.7672,98.2469 C72.7002,100.0589 74.4752,102.1669 74.5482,102.2559 L73.5892,103.0569 Z" id="Fill-63" fill="#000000"></path>
                    <path d="M71.3216,104.3831 C71.3016,104.3671 69.3726,102.7421 67.4206,101.5851 L68.0576,100.5101 C70.1016,101.7221 72.0466,103.3601 72.1286,103.4291 L71.3216,104.3831 Z" id="Fill-65" fill="#000000"></path>
                    <path d="M8.2171,198.4827 L6.9701,198.4057 C6.9841,198.1737 8.4461,174.9097 12.3251,148.9717 C17.5441,114.0757 24.4151,91.2227 32.7471,81.0467 L33.7141,81.8387 C25.6431,91.6967 18.6741,114.9747 13.5621,149.1577 C9.6911,175.0407 8.2321,198.2517 8.2171,198.4827" id="Fill-67" fill="#000000"></path>
                    <polygon id="Fill-69" fill="#4DBC6A" points="42.6243 133.2903 42.6243 133.2923 45.5103 139.9603 45.6853 110.9763"></polygon>
                    <path d="M45.2894,61.552 L42.8424,69.3 L65.4764,88.263 L56.9114,104.983 C56.9114,104.983 19.5984,97.846 15.7244,78.272 C12.3924,61.436 31.5614,37.106 34.6864,36.064 C38.3564,34.841 52.4264,35.861 52.4264,35.861" id="Fill-71" fill="#ED6A5E"></path>
                    <path d="M20.9261,87.762 L19.9121,87.032 C22.8961,82.893 23.9231,79.113 22.9671,75.794 C21.5081,70.734 15.8791,68.402 15.8221,68.379 L16.2921,67.22 C16.5461,67.324 22.5421,69.809 24.1671,75.448 C25.2361,79.154 24.1461,83.297 20.9261,87.762" id="Fill-73" fill="#000000"></path>
                </g>
                <g id="Group-78" transform="translate(97.000000, 34.996000)">
                    <mask id="mask-4" fill="white">
                        <use xlink:href="#path-3"></use>
                    </mask>
                    <g id="Clip-77"></g>
                    <path d="M46.9915,13.5569 C42.8175,13.5569 38.5855,10.9569 35.9395,6.7679 C33.4925,2.8909 32.5935,-1.7271 32.0355,-5.7321 L33.2735,-5.9051 C33.8125,-2.0311 34.6765,2.4239 36.9975,6.1009 C39.4155,9.9299 43.2435,12.3069 46.9915,12.3069 L47.0125,12.3069 C51.2015,12.2969 55.1835,9.0839 56.0785,4.9929 L57.3005,5.2589 C56.2845,9.9009 51.7665,13.5449 47.0155,13.5569 L46.9915,13.5569 Z" id="Fill-76" fill="#FFFFFF" mask="url(#mask-4)"></path>
                </g>
                <g id="Group-93" transform="translate(0.000000, -0.004000)">
                    <path d="M154.8294,25.6155 C154.1044,25.2515 153.5354,24.5585 153.2684,23.7155 C153.0074,22.8915 153.0494,21.9665 153.3824,21.1775 L154.5334,21.6635 C154.3174,22.1755 154.2904,22.8015 154.4604,23.3375 C154.6234,23.8535 154.9714,24.2885 155.3904,24.4985 L154.8294,25.6155 Z" id="Fill-79" fill="#000000"></path>
                    <polyline id="Fill-81" fill="#B4ADEA" points="156.6107 159.8577 146.4467 140.7707 209.5437 140.7707 220.8237 159.8577"></polyline>
                    <mask id="mask-6" fill="white">
                        <use xlink:href="#path-5"></use>
                    </mask>
                    <g id="Clip-84"></g>
                    <polygon id="Fill-83" fill="#B4ADEA" mask="url(#mask-6)" points="178.277 216.11 242.491 216.11 242.491 159.858 178.277 159.858"></polygon>
                    <polygon id="Fill-85" fill="#ED6A5E" mask="url(#mask-6)" points="156.599 216.11 178.277 216.11 178.277 159.858 156.599 159.858"></polygon>
                    <polygon id="Fill-86" fill="#FFFFFF" mask="url(#mask-6)" points="214.423 203.481 242.49 203.481 242.49 189.276 214.423 189.276"></polygon>
                    <path d="M186.6331,178.6224 L185.5401,178.0164 C186.6781,175.9664 188.1031,174.1324 189.7781,172.5644 C191.1041,171.3234 192.3961,170.9564 193.4131,171.5314 C194.3791,172.0764 194.6331,173.1684 194.8581,174.1314 C195.0261,174.8514 195.1851,175.5314 195.5831,175.9134 C196.1421,176.4464 197.0581,176.2274 197.3251,176.1484 C197.7371,176.0254 198.1401,175.8304 198.5661,175.6234 C198.8901,175.4654 199.2261,175.3024 199.5781,175.1674 C202.2471,174.1424 205.4071,175.0264 207.2631,177.3204 L206.2911,178.1064 C204.7961,176.2594 202.1621,175.5134 200.0271,176.3344 C199.7241,176.4504 199.4271,176.5944 199.1121,176.7474 C198.6601,176.9674 198.1931,177.1944 197.6811,177.3474 C196.5321,177.6884 195.4251,177.4904 194.7201,176.8164 C194.0521,176.1784 193.8331,175.2414 193.6411,174.4154 C193.4501,173.5994 193.2861,172.8944 192.7991,172.6194 C192.1201,172.2364 191.1501,172.9934 190.6311,173.4774 C189.0531,174.9554 187.7071,176.6854 186.6331,178.6224" id="Fill-87" fill="#000000" mask="url(#mask-6)"></path>
                    <polygon id="Fill-88" fill="#FFFFFF" mask="url(#mask-6)" points="186.088 182.934 203.402 182.934 203.402 181.684 186.088 181.684"></polygon>
                    <polygon id="Fill-89" fill="#000000" mask="url(#mask-6)" points="186.087 187.669 198.3 187.669 198.3 186.419 186.087 186.419"></polygon>
                    <polyline id="Fill-90" fill="#ED6A5E" mask="url(#mask-6)" points="242.4905 159.8577 252.6535 140.7707 189.5565 140.7707 178.2765 159.8577"></polyline>
                    <path d="M130.512,216.219 L129.282,216 C129.297,215.91 130.921,206.98 135.197,198.171 C137.721,192.971 140.664,188.822 143.946,185.837 C148.092,182.067 152.785,180.155 157.895,180.155 C163.005,180.155 167.692,182.067 171.825,185.838 C175.095,188.823 178.023,192.973 180.529,198.173 C184.772,206.982 186.363,215.912 186.378,216.002 L185.147,216.217 C185.132,216.129 183.565,207.347 179.392,198.693 C176.956,193.643 174.123,189.625 170.972,186.753 C167.079,183.203 162.679,181.405 157.895,181.405 C153.11,181.405 148.702,183.204 144.796,186.753 C141.634,189.626 138.786,193.644 136.332,198.695 C132.127,207.349 130.528,216.131 130.512,216.219" id="Fill-91" fill="#000000" mask="url(#mask-6)"></path>
                    <path d="M54.598,175.1009 C51.118,176.5509 46.829,175.2569 44.571,172.0749 C43.173,170.1039 42.55,167.5309 42.797,165.0569 C43.113,161.8949 44.89,158.9059 47.487,157.3829 C50.083,155.8599 53.436,155.9009 55.925,157.5959 C61.822,161.6099 61.256,172.3279 54.598,175.1009" id="Fill-92" fill="#6FD08C" mask="url(#mask-6)"></path>
                </g>
                <g id="Group-100" transform="translate(42.000000, 155.996000)">
                    <g id="Group-96">
                        <mask id="mask-8" fill="white">
                            <use xlink:href="#path-7"></use>
                        </mask>
                        <g id="Clip-95"></g>
                        <polygon id="Fill-94" fill="#262626" mask="url(#mask-8)" points="11.013 13.8987 10.174 13.2727 18.358 2.2927 19.198 2.9187"></polygon>
                    </g>
                    <g id="Group-99">
                        <mask id="mask-10" fill="white">
                            <use xlink:href="#path-9"></use>
                        </mask>
                        <g id="Clip-98"></g>
                        <polygon id="Fill-97" fill="#262626" mask="url(#mask-10)" points="9.8372 11.1829 -3.1448 1.1319 -2.5048 0.3039 10.4782 10.3559"></polygon>
                    </g>
                </g>
                <g id="Group-105" transform="translate(31.000000, 155.996000)">
                    <polygon id="Fill-101" fill="#262626" points="27.4866 60.1819 19.1496 0.4969 20.1856 0.3529 28.5226 60.0359"></polygon>
                    <path d="M15.1878,31.1067 C14.3708,34.0157 11.4268,36.0687 8.3038,35.9077 C6.3708,35.8077 4.4438,34.9207 3.0108,33.5377 C1.1798,31.7677 0.1828,29.1657 0.5158,26.7767 C0.8478,24.3867 2.5398,22.2997 4.8408,21.5767 C10.2938,19.8637 16.7508,25.5437 15.1878,31.1067" id="Fill-103" fill="#6FD08C"></path>
                </g>
                <g id="Group-112" transform="translate(31.000000, 176.996000)">
                    <g id="Group-108">
                        <mask id="mask-12" fill="white">
                            <use xlink:href="#path-11"></use>
                        </mask>
                        <g id="Clip-107"></g>
                        <polygon id="Fill-106" fill="#262626" mask="url(#mask-12)" points="-1.3337 10.6478 -1.4387 9.6068 9.5693 8.4908 9.6753 9.5318"></polygon>
                    </g>
                    <g id="Group-111">
                        <mask id="mask-14" fill="white">
                            <use xlink:href="#path-13"></use>
                        </mask>
                        <g id="Clip-110"></g>
                        <polygon id="Fill-109" fill="#262626" mask="url(#mask-14)" points="12.5257 11.3186 11.5327 10.9886 14.7887 1.1746 15.7817 1.5056"></polygon>
                    </g>
                </g>
                <g id="Group-119" transform="translate(32.000000, 178.996000)">
                    <polygon id="Fill-113" fill="#262626" points="24.4612 20.7659 0.6692 1.0019 1.3382 0.1969 25.1302 19.9609"></polygon>
                    <path d="M30.3753,18.4349 C27.9383,17.6179 26.3183,15.0299 26.5873,12.3839 C26.7543,10.7459 27.5883,9.1459 28.8243,7.9879 C30.4053,6.5059 32.6583,5.7699 34.6733,6.1539 C36.6883,6.5369 38.3903,8.0619 38.9073,10.0469 C40.1323,14.7519 35.0353,19.9969 30.3753,18.4349" id="Fill-115" fill="#6FD08C"></path>
                    <polygon id="Fill-117" fill="#262626" points="25.0853 21.0647 24.3393 20.3317 37.1823 7.2687 37.9283 8.0027"></polygon>
                </g>
                <g id="Group-126" transform="translate(58.000000, 184.996000)">
                    <g id="Group-122">
                        <mask id="mask-16" fill="white">
                            <use xlink:href="#path-15"></use>
                        </mask>
                        <g id="Clip-121"></g>
                        <polygon id="Fill-120" fill="#262626" mask="url(#mask-16)" points="14.2454 8.0755 6.6394 7.0875 6.7724 6.0495 14.3804 7.0375"></polygon>
                    </g>
                    <g id="Group-125">
                        <mask id="mask-18" fill="white">
                            <use xlink:href="#path-17"></use>
                        </mask>
                        <g id="Clip-124"></g>
                        <polygon id="Fill-123" fill="#262626" mask="url(#mask-18)" points="3.4788 9.3528 2.8678 -0.1332 3.9118 -0.2012 4.5228 9.2858"></polygon>
                    </g>
                </g>
                <path d="M207.8753,86.1008 C219.4363,84.8608 229.0053,73.6408 228.4063,62.0288 C227.8073,50.4168 217.1343,40.2428 205.5073,40.1975674 C173.0023,40.0738 175.5743,89.5668 207.8753,86.1008" id="Fill-127" fill="#B4ADEA"></path>
                <g id="Group-135" transform="translate(182.000000, 39.996000)">
                    <g id="Group-131">
                        <mask id="mask-20" fill="white">
                            <use xlink:href="#path-19"></use>
                        </mask>
                        <g id="Clip-130"></g>
                        <path d="M57.2327,46.3499 C46.2867,40.3629 37.6377,31.2419 33.5047,21.3249 C29.3437,11.3419 29.9477,1.0329 35.1607,-6.9621 L36.2077,-6.2781 C31.2237,1.3639 30.6597,11.2489 34.6587,20.8439 C38.6847,30.5029 47.1307,39.3999 57.8327,45.2529 L57.2327,46.3499 Z" id="Fill-129" fill="#FFFFFF" mask="url(#mask-20)"></path>
                    </g>
                    <g id="Group-134">
                        <mask id="mask-22" fill="white">
                            <use xlink:href="#path-21"></use>
                        </mask>
                        <g id="Clip-133"></g>
                        <path d="M23.9437,24.6976 C22.6207,26.7386 21.3897,28.8166 20.2607,30.9266 C14.1417,42.3526 10.7967,54.9106 10.5867,67.2416 C10.5547,69.0516 10.5817,71.1386 11.2937,72.9856 C12.0217,74.8726 13.4667,76.2566 15.0667,76.5956 C16.5927,76.9196 18.4067,76.3106 19.8017,75.0066 C21.1767,73.7206 22.0727,71.9406 22.7667,70.3696 C28.0217,58.4766 28.5387,43.5886 24.3007,26.1166 C24.1877,25.6466 24.0697,25.1736 23.9437,24.6976 M15.9227,77.9336 C15.5467,77.9336 15.1727,77.8966 14.8067,77.8186 C12.7977,77.3916 11.0057,75.7136 10.1277,73.4346 C9.3347,71.3796 9.3027,69.1486 9.3367,67.2196 C9.5497,54.6906 12.9467,41.9366 19.1587,30.3366 C20.4707,27.8856 21.9177,25.4746 23.4867,23.1176 C23.0667,21.7956 22.5417,20.5016 21.8137,19.3246 C20.4527,17.1226 18.4907,15.6466 16.4317,15.2756 C13.8077,14.8016 10.9127,15.9636 7.5797,18.8246 C1.9017,23.6976 -2.4263,29.9996 -4.9363,37.0476 L-6.1143,36.6286 C-3.5313,29.3756 0.9227,22.8906 6.7647,17.8766 C10.4017,14.7556 13.6367,13.5016 16.6537,14.0456 C19.0607,14.4786 21.3297,16.1636 22.8777,18.6676 C23.4967,19.6676 23.9747,20.7316 24.3677,21.8196 C29.6517,14.1696 36.2377,7.1116 43.7597,1.0796 L44.5427,2.0546 C36.8547,8.2186 30.1607,15.4656 24.8567,23.3186 C25.1037,24.1566 25.3157,24.9966 25.5157,25.8216 C29.8197,43.5666 29.2797,58.7246 23.9107,70.8756 C23.1657,72.5616 22.1957,74.4806 20.6557,75.9196 C19.2627,77.2216 17.5577,77.9336 15.9227,77.9336" id="Fill-132" fill="#FFFFFF" mask="url(#mask-22)"></path>
                    </g>
                </g>
                <path d="M68.1898,81.2531 C76.0168,80.4131 82.4958,72.8171 82.0898,64.9551 C81.6838,57.0941 74.4588,50.2051 66.5858,50.1749423 C44.5798,50.0911 46.3208,83.6001 68.1898,81.2531" id="Fill-136" fill="#6FD08C"></path>
                <g id="Group-140" transform="translate(50.000000, 49.996000)">
                    <mask id="mask-24" fill="white">
                        <use xlink:href="#path-23"></use>
                    </mask>
                    <g id="Clip-139"></g>
                    <path d="M22.4544,51.5228 L21.3214,50.9938 C25.8484,41.3198 23.9984,29.0378 16.8264,21.1248 C9.6534,13.2108 -2.3896,10.1688 -12.4586,13.7268 L-12.8746,12.5478 C-2.3436,8.8288 10.2514,12.0098 17.7524,20.2858 C25.2544,28.5608 27.1864,41.4058 22.4544,51.5228" id="Fill-138" fill="#000000" mask="url(#mask-24)"></path>
                </g>
                <polygon id="Fill-141" fill="#B4ADEA" points="62.553 134.6496 12.917 113.6226 31.874 76.4446 71.681 117.8366"></polygon>
                <g id="Group-149" transform="translate(12.000000, 75.996000)">
                    <g id="Group-145">
                        <mask id="mask-26" fill="white">
                            <use xlink:href="#path-25"></use>
                        </mask>
                        <g id="Clip-144"></g>
                        <path d="M20.1439,23.4417 C15.7739,30.0997 11.9789,37.3087 8.8549,44.9347 C7.4689,48.3187 6.1669,51.9667 6.0289,55.7237 C5.8789,59.7697 7.2789,63.5307 9.5959,65.3047 C10.9439,66.3377 12.5869,66.7037 14.3479,66.3617 C16.8349,65.8787 19.3069,64.0087 20.7999,61.4807 C23.6309,56.6857 23.7859,50.2597 23.6559,45.8427 C23.4289,38.1717 22.2299,30.6177 20.1439,23.4417 M13.0749,67.7377 C11.5239,67.7377 10.0799,67.2507 8.8349,66.2967 C5.6459,63.8537 4.6489,59.2097 4.7799,55.6767 C4.9249,51.7257 6.2689,47.9517 7.6979,44.4617 C10.9899,36.4267 15.0179,28.8507 19.6759,21.8847 C17.0199,13.3437 13.0979,5.3777 8.0599,-1.5593 L9.0719,-2.2933 C14.0019,4.4967 17.8809,12.2537 20.5689,20.5687 C26.1849,12.4037 32.6769,5.1087 39.8699,-1.0703 L40.6839,-0.1213 C33.3359,6.1897 26.7249,13.6847 21.0449,22.0877 C23.3449,29.6637 24.6649,37.6717 24.9059,45.8067 C25.0399,50.3787 24.8729,57.0437 21.8759,62.1167 C20.1819,64.9857 17.4559,67.0317 14.5859,67.5877 C14.0739,67.6877 13.5689,67.7377 13.0749,67.7377" id="Fill-143" fill="#FFFFFF" mask="url(#mask-26)"></path>
                    </g>
                    <g id="Group-148">
                        <mask id="mask-28" fill="white">
                            <use xlink:href="#path-27"></use>
                        </mask>
                        <g id="Clip-147"></g>
                        <path d="M53.1927,68.6683 C47.1637,60.0973 43.5117,49.7963 42.6317,38.8823 C41.7537,27.9683 43.7087,17.2163 48.2867,7.7893 L49.4107,8.3353 C44.9297,17.5623 43.0167,28.0903 43.8787,38.7813 C44.7407,49.4743 48.3147,59.5603 54.2147,67.9493 L53.1927,68.6683 Z" id="Fill-146" fill="#FFFFFF" mask="url(#mask-28)"></path>
                    </g>
                </g>
                <polygon id="Fill-150" fill="#ED6A5E" points="242.3235 90.5461 211.2805 119.3601 244.5135 118.7751"></polygon>
                <g id="Group-154" transform="translate(211.000000, 89.996000)">
                    <mask id="mask-30" fill="white">
                        <use xlink:href="#path-29"></use>
                    </mask>
                    <g id="Clip-153"></g>
                    <path d="M11.429,40.4212 L10.41,39.6962 C14.228,34.3232 16.347,28.2312 15.94,23.7942 C15.552,19.5752 12.806,17.0222 8.771,17.1162 L8.74,15.8662 C13.484,15.7442 16.731,18.7422 17.184,23.6802 C17.617,28.4002 15.412,34.8152 11.429,40.4212" id="Fill-152" fill="#000000" mask="url(#mask-30)"></path>
                </g>
            </g>
        </g>
    </g>
</svg>