<svg id="svg" version="1.1" xmlns="http://www.w3.org/2000/svg" xmlns:xlink="http://www.w3.org/1999/xlink" width="400" height="400" viewBox="0, 0, 400,400"><g id="svgg"><path id="path0" d="M189.600 61.233 C 158.022 63.062,136.277 76.888,129.259 99.600 C 126.842 107.423,126.800 108.022,126.800 134.756 L 126.800 159.263 124.878 161.532 C 122.944 163.814,121.707 166.041,120.729 169.000 C 119.948 171.363,119.968 203.442,120.752 206.000 C 121.769 209.318,125.331 215.190,126.334 215.203 C 127.530 215.219,129.530 218.158,130.188 220.866 C 132.250 229.351,141.129 250.808,142.878 251.533 C 143.055 251.607,143.200 251.844,143.200 252.061 C 143.200 252.278,143.740 253.241,144.400 254.200 C 145.060 255.159,145.600 256.061,145.600 256.204 C 145.600 256.573,150.294 263.454,151.986 265.565 L 153.400 267.331 153.374 281.965 C 153.349 296.235,153.325 296.670,152.408 299.400 C 150.195 305.985,146.201 310.795,140.087 314.237 C 136.639 316.178,128.422 320.635,126.200 321.770 C 124.880 322.444,123.710 323.086,123.600 323.198 C 123.490 323.309,122.680 323.778,121.800 324.239 C 120.920 324.701,119.390 325.535,118.400 326.093 C 117.410 326.650,115.430 327.731,114.000 328.494 C 112.570 329.257,110.590 330.334,109.600 330.887 C 108.610 331.441,106.540 332.568,105.000 333.393 C 103.460 334.218,101.255 335.411,100.100 336.046 C 98.945 336.681,97.055 337.719,95.900 338.353 C 94.745 338.987,92.630 340.130,91.200 340.893 C 89.770 341.656,87.970 342.636,87.200 343.072 C 86.430 343.508,84.360 344.641,82.600 345.591 C 79.058 347.503,74.129 350.868,72.052 352.793 C 70.548 354.187,70.592 354.282,73.500 355.871 C 74.215 356.262,74.800 356.799,74.800 357.064 C 74.800 357.329,75.160 357.660,75.600 357.800 C 76.040 357.940,76.400 358.222,76.400 358.427 C 76.400 358.632,76.630 358.800,76.912 358.800 C 77.193 358.800,77.683 359.160,78.000 359.600 C 78.317 360.040,78.773 360.400,79.013 360.400 C 79.253 360.400,79.798 360.720,80.225 361.111 C 80.651 361.502,81.630 362.258,82.400 362.792 C 83.170 363.325,84.091 364.086,84.447 364.481 C 84.803 364.876,85.388 365.200,85.747 365.200 C 86.106 365.200,86.400 365.380,86.400 365.600 C 86.400 365.820,86.681 366.000,87.024 366.000 C 87.367 366.000,87.536 366.180,87.400 366.400 C 87.264 366.620,87.523 366.800,87.976 366.800 C 88.429 366.800,88.800 366.980,88.800 367.200 C 88.800 367.420,89.070 367.600,89.400 367.600 C 89.730 367.600,90.000 367.780,90.000 368.000 C 90.000 368.220,90.270 368.400,90.600 368.400 C 90.930 368.400,91.200 368.564,91.200 368.764 C 91.200 368.965,92.092 369.573,93.182 370.116 C 94.272 370.659,95.082 371.185,94.982 371.284 C 94.883 371.384,95.296 371.714,95.901 372.018 C 96.505 372.322,97.495 372.905,98.100 373.313 C 98.705 373.721,99.200 373.939,99.200 373.798 C 99.200 373.657,99.674 373.915,100.254 374.371 C 100.834 374.827,101.644 375.200,102.054 375.200 C 102.464 375.200,102.800 375.380,102.800 375.600 C 102.800 375.820,103.120 376.000,103.512 376.000 C 103.903 376.000,104.483 376.360,104.800 376.800 C 105.117 377.240,105.697 377.600,106.088 377.600 C 106.480 377.600,106.800 377.780,106.800 378.000 C 106.800 378.220,107.160 378.400,107.600 378.400 C 108.040 378.400,108.400 378.580,108.400 378.800 C 108.400 379.020,108.634 379.200,108.920 379.200 C 109.656 379.200,111.593 380.141,111.597 380.500 C 111.599 380.665,111.789 380.800,112.019 380.800 C 112.250 380.800,113.184 381.160,114.094 381.600 C 115.005 382.040,115.986 382.400,116.275 382.400 C 116.564 382.400,116.800 382.580,116.800 382.800 C 116.800 383.020,117.034 383.200,117.320 383.200 C 118.056 383.200,119.993 384.141,119.997 384.500 C 119.999 384.665,120.349 384.800,120.776 384.800 C 121.203 384.800,121.664 384.980,121.800 385.200 C 121.936 385.420,122.391 385.600,122.811 385.600 C 123.232 385.600,124.217 385.960,125.000 386.400 C 125.783 386.840,126.779 387.200,127.212 387.200 C 127.645 387.200,128.000 387.380,128.000 387.600 C 128.000 387.820,128.349 388.000,128.776 388.000 C 129.203 388.000,129.664 388.180,129.800 388.400 C 129.936 388.620,130.476 388.800,131.000 388.800 C 131.524 388.800,132.064 388.980,132.200 389.200 C 132.336 389.420,132.977 389.600,133.624 389.600 C 134.271 389.600,134.800 389.740,134.800 389.911 C 134.800 390.350,139.181 391.600,140.720 391.600 C 141.424 391.600,142.000 391.780,142.000 392.000 C 142.000 392.220,142.450 392.400,143.000 392.400 C 143.550 392.400,144.000 392.580,144.000 392.800 C 144.000 393.020,144.529 393.200,145.176 393.200 C 145.823 393.200,146.464 393.380,146.600 393.600 C 146.736 393.820,147.456 394.000,148.200 394.000 C 148.944 394.000,149.664 394.180,149.800 394.400 C 149.936 394.620,150.767 394.800,151.647 394.800 C 152.612 394.800,153.149 394.959,153.000 395.200 C 152.848 395.447,153.529 395.600,154.776 395.600 C 155.889 395.600,156.800 395.780,156.800 396.000 C 156.800 396.220,157.610 396.400,158.600 396.400 C 159.590 396.400,160.400 396.580,160.400 396.800 C 160.400 397.020,161.401 397.200,162.624 397.200 C 164.004 397.200,164.753 397.352,164.600 397.600 C 164.446 397.850,165.263 398.000,166.776 398.000 C 168.109 398.000,169.200 398.166,169.200 398.368 C 169.200 398.571,170.505 398.831,172.100 398.947 C 173.695 399.062,177.250 399.359,180.000 399.606 C 186.944 400.230,224.196 399.964,224.875 399.285 C 225.161 398.999,226.488 398.800,228.104 398.800 C 229.660 398.800,230.749 398.642,230.621 398.434 C 230.497 398.233,231.521 397.973,232.898 397.856 C 236.735 397.531,238.962 397.154,239.380 396.759 C 239.589 396.562,240.523 396.400,241.456 396.400 C 242.389 396.400,243.264 396.220,243.400 396.000 C 243.536 395.780,244.447 395.600,245.424 395.600 C 246.401 395.600,247.200 395.420,247.200 395.200 C 247.200 394.980,247.931 394.800,248.824 394.800 C 249.717 394.800,250.348 394.639,250.226 394.442 C 250.104 394.245,250.678 393.982,251.502 393.857 C 255.081 393.316,256.000 393.091,256.000 392.756 C 256.000 392.560,256.529 392.400,257.176 392.400 C 257.823 392.400,258.448 392.245,258.565 392.056 C 258.682 391.867,259.620 391.596,260.649 391.455 C 261.678 391.314,262.717 391.049,262.960 390.866 C 263.202 390.682,264.750 390.131,266.400 389.641 C 268.050 389.150,269.850 388.556,270.400 388.321 C 270.950 388.086,271.760 387.763,272.200 387.603 C 272.640 387.444,273.782 386.928,274.738 386.457 C 275.694 385.986,276.808 385.600,277.214 385.600 C 277.620 385.600,278.064 385.420,278.200 385.200 C 278.336 384.980,278.797 384.800,279.224 384.800 C 279.651 384.800,280.001 384.665,280.003 384.500 C 280.007 384.141,281.944 383.200,282.680 383.200 C 282.966 383.200,283.200 383.020,283.200 382.800 C 283.200 382.580,283.539 382.400,283.954 382.400 C 284.805 382.400,286.883 381.417,286.610 381.143 C 286.512 381.045,287.235 380.728,288.216 380.438 C 289.197 380.149,290.000 379.785,290.000 379.631 C 290.000 379.476,290.630 379.102,291.400 378.800 C 292.170 378.498,292.800 378.104,292.800 377.925 C 292.800 377.746,293.210 377.600,293.712 377.600 C 294.213 377.600,294.883 377.240,295.200 376.800 C 295.517 376.360,296.097 376.000,296.488 376.000 C 296.880 376.000,297.200 375.820,297.200 375.600 C 297.200 375.380,297.491 375.200,297.846 375.200 C 298.418 375.200,302.282 373.330,302.800 372.802 C 302.910 372.690,303.495 372.344,304.100 372.032 C 304.705 371.720,305.200 371.315,305.200 371.132 C 305.200 370.950,305.448 370.800,305.751 370.800 C 306.054 370.800,306.530 370.526,306.808 370.190 C 307.086 369.855,307.397 369.664,307.499 369.766 C 307.601 369.868,308.127 369.509,308.668 368.968 C 309.209 368.427,309.787 368.069,309.953 368.171 C 310.119 368.273,310.507 368.007,310.815 367.579 C 311.124 367.150,311.657 366.800,312.000 366.800 C 312.343 366.800,312.883 366.440,313.200 366.000 C 313.517 365.560,314.057 365.200,314.400 365.200 C 314.743 365.200,315.283 364.840,315.600 364.400 C 315.917 363.960,316.407 363.600,316.688 363.600 C 316.970 363.600,317.200 363.420,317.200 363.200 C 317.200 362.980,317.430 362.800,317.712 362.800 C 317.993 362.800,318.483 362.440,318.800 362.000 C 319.117 361.560,319.607 361.200,319.888 361.200 C 320.170 361.200,320.400 361.020,320.400 360.800 C 320.400 360.580,320.630 360.400,320.912 360.400 C 321.193 360.400,321.683 360.040,322.000 359.600 C 322.317 359.160,322.762 358.800,322.988 358.800 C 323.215 358.800,324.188 358.080,325.151 357.200 C 326.113 356.320,327.013 355.597,327.151 355.594 C 328.171 355.569,328.440 354.856,327.740 354.030 C 324.979 350.772,321.398 348.790,290.400 333.360 C 257.404 316.936,252.188 314.293,250.540 313.159 C 248.361 311.660,244.400 307.641,244.400 306.929 C 244.400 306.638,244.239 306.400,244.042 306.400 C 243.665 306.400,241.200 301.560,241.200 300.820 C 241.200 300.583,241.039 300.077,240.843 299.695 C 239.898 297.855,239.600 293.390,239.600 281.049 L 239.600 267.946 241.300 265.832 C 244.568 261.769,244.854 261.392,245.511 260.300 C 245.875 259.695,246.314 259.200,246.486 259.200 C 246.659 259.200,246.800 259.026,246.800 258.813 C 246.800 258.600,247.846 256.845,249.124 254.913 C 254.241 247.177,258.760 238.369,262.827 228.200 C 263.250 227.143,265.600 220.332,265.600 220.164 C 265.600 220.092,266.886 219.387,268.457 218.599 C 273.423 216.106,278.800 210.216,278.800 207.268 C 278.800 206.879,279.025 206.335,279.300 206.060 C 280.061 205.299,280.018 170.756,279.253 168.800 C 277.879 165.286,276.593 163.027,274.975 161.285 L 273.223 159.400 273.204 134.800 C 273.189 114.915,273.072 109.587,272.596 107.000 C 266.561 74.209,237.951 58.433,189.600 61.233 " stroke="none" fill="#e3ebeb" fill-rule="evenodd"></path><path id="path1" d="M178.300 0.275 C 176.375 0.361,174.800 0.604,174.800 0.816 C 174.800 1.027,173.551 1.200,172.024 1.200 C 170.497 1.200,169.136 1.380,169.000 1.600 C 168.864 1.820,167.784 2.000,166.600 2.000 C 165.416 2.000,164.336 2.180,164.200 2.400 C 164.064 2.620,163.063 2.800,161.976 2.800 C 160.889 2.800,160.000 2.980,160.000 3.200 C 160.000 3.420,159.201 3.600,158.224 3.600 C 157.247 3.600,156.336 3.780,156.200 4.000 C 156.064 4.220,155.243 4.400,154.376 4.400 C 153.509 4.400,152.800 4.580,152.800 4.800 C 152.800 5.020,152.080 5.200,151.200 5.200 C 150.320 5.200,149.600 5.380,149.600 5.600 C 149.600 5.820,148.880 6.000,148.000 6.000 C 147.120 6.000,146.400 6.180,146.400 6.400 C 146.400 6.620,145.860 6.800,145.200 6.800 C 144.540 6.800,144.000 6.980,144.000 7.200 C 144.000 7.420,143.370 7.600,142.600 7.600 C 141.830 7.600,141.200 7.760,141.200 7.956 C 141.200 8.152,140.615 8.402,139.900 8.512 C 138.266 8.762,137.294 9.015,135.900 9.555 C 135.295 9.789,134.800 9.859,134.800 9.710 C 134.800 9.562,134.584 9.656,134.320 9.920 C 134.056 10.184,133.514 10.400,133.115 10.400 C 132.716 10.400,132.077 10.559,131.695 10.753 C 131.313 10.948,130.460 11.329,129.800 11.600 C 129.140 11.871,128.287 12.252,127.905 12.447 C 127.523 12.641,126.848 12.800,126.405 12.800 C 125.962 12.800,125.600 12.980,125.600 13.200 C 125.600 13.420,125.240 13.600,124.800 13.600 C 124.360 13.600,124.000 13.780,124.000 14.000 C 124.000 14.220,123.561 14.400,123.024 14.400 C 122.487 14.400,121.936 14.580,121.800 14.800 C 121.664 15.020,121.203 15.200,120.776 15.200 C 120.349 15.200,120.000 15.380,120.000 15.600 C 120.000 15.820,119.640 16.000,119.200 16.000 C 118.760 16.000,118.400 16.180,118.400 16.400 C 118.400 16.620,118.128 16.800,117.795 16.800 C 117.207 16.800,116.782 16.967,114.905 17.938 C 114.413 18.192,113.738 18.400,113.405 18.400 C 113.072 18.400,112.799 18.535,112.799 18.700 C 112.798 18.865,111.808 19.450,110.600 20.000 C 109.392 20.550,108.402 21.135,108.401 21.300 C 108.401 21.465,108.040 21.600,107.600 21.600 C 107.160 21.600,106.800 21.780,106.800 22.000 C 106.800 22.220,106.440 22.400,106.000 22.400 C 105.560 22.400,105.200 22.580,105.200 22.800 C 105.200 23.020,104.964 23.200,104.675 23.200 C 104.387 23.200,103.764 23.560,103.292 24.000 C 102.820 24.440,102.156 24.800,101.817 24.800 C 101.478 24.800,101.200 24.980,101.200 25.200 C 101.200 25.420,101.061 25.555,100.892 25.500 C 100.415 25.345,97.200 26.879,97.200 27.261 C 97.200 27.447,97.013 27.600,96.784 27.600 C 96.310 27.600,93.869 29.245,93.667 29.700 C 93.593 29.865,93.228 30.000,92.855 30.000 C 92.482 30.000,91.917 30.360,91.600 30.800 C 91.283 31.240,90.743 31.600,90.400 31.600 C 90.057 31.600,89.517 31.960,89.200 32.400 C 88.883 32.840,88.343 33.200,88.000 33.200 C 87.657 33.200,87.117 33.560,86.800 34.000 C 86.483 34.440,85.943 34.800,85.600 34.800 C 85.257 34.800,84.717 35.160,84.400 35.600 C 84.083 36.040,83.620 36.400,83.371 36.400 C 83.122 36.400,82.397 36.897,81.759 37.504 C 81.122 38.112,79.970 39.054,79.200 39.599 C 77.644 40.699,76.590 41.535,75.755 42.329 C 75.450 42.619,75.195 42.709,75.188 42.529 C 75.181 42.348,74.992 42.515,74.768 42.900 C 74.544 43.285,73.854 43.862,73.236 44.181 C 72.618 44.501,71.270 45.581,70.241 46.581 C 69.211 47.582,68.197 48.400,67.987 48.400 C 67.776 48.400,65.630 50.380,63.218 52.800 C 60.805 55.220,58.921 57.200,59.030 57.200 C 59.139 57.200,58.817 57.626,58.314 58.146 C 57.811 58.667,57.341 59.043,57.268 58.981 C 57.045 58.792,48.000 68.055,48.000 68.472 C 48.000 68.687,47.287 69.569,46.416 70.431 C 45.544 71.294,44.921 72.000,45.031 72.000 C 45.253 72.000,44.660 72.774,43.318 74.238 C 42.833 74.767,42.546 75.200,42.679 75.200 C 42.813 75.200,42.535 75.536,42.061 75.947 C 41.588 76.358,41.200 76.826,41.200 76.986 C 41.200 77.147,40.660 77.783,40.000 78.400 C 39.340 79.017,38.800 79.720,38.800 79.964 C 38.800 80.208,38.260 80.972,37.600 81.663 C 36.940 82.354,36.400 83.122,36.400 83.371 C 36.400 83.620,36.040 84.083,35.600 84.400 C 35.160 84.717,34.800 85.257,34.800 85.600 C 34.800 85.943,34.440 86.483,34.000 86.800 C 33.560 87.117,33.200 87.657,33.200 88.000 C 33.200 88.343,32.840 88.883,32.400 89.200 C 31.960 89.517,31.600 90.057,31.600 90.400 C 31.600 90.743,31.240 91.283,30.800 91.600 C 30.360 91.917,30.000 92.482,30.000 92.855 C 30.000 93.228,29.865 93.593,29.700 93.667 C 29.245 93.869,27.600 96.310,27.600 96.784 C 27.600 97.013,27.447 97.200,27.261 97.200 C 26.879 97.200,25.345 100.415,25.500 100.892 C 25.555 101.061,25.420 101.200,25.200 101.200 C 24.980 101.200,24.800 101.478,24.800 101.817 C 24.800 102.156,24.440 102.820,24.000 103.292 C 23.560 103.764,23.200 104.387,23.200 104.675 C 23.200 104.964,23.020 105.200,22.800 105.200 C 22.580 105.200,22.400 105.560,22.400 106.000 C 22.400 106.440,22.220 106.800,22.000 106.800 C 21.780 106.800,21.600 107.160,21.600 107.600 C 21.600 108.040,21.465 108.401,21.300 108.401 C 21.135 108.402,20.550 109.392,20.000 110.600 C 19.450 111.808,18.865 112.798,18.700 112.799 C 18.535 112.799,18.400 113.072,18.400 113.405 C 18.400 113.738,18.192 114.413,17.938 114.905 C 16.967 116.782,16.800 117.207,16.800 117.795 C 16.800 118.128,16.620 118.400,16.400 118.400 C 16.180 118.400,16.000 118.760,16.000 119.200 C 16.000 119.640,15.820 120.000,15.600 120.000 C 15.380 120.000,15.200 120.360,15.200 120.800 C 15.200 121.240,15.020 121.600,14.800 121.600 C 14.580 121.600,14.400 122.140,14.400 122.800 C 14.400 123.460,14.220 124.000,14.000 124.000 C 13.780 124.000,13.600 124.360,13.600 124.800 C 13.600 125.240,13.420 125.600,13.200 125.600 C 12.980 125.600,12.800 126.039,12.800 126.576 C 12.800 127.113,12.620 127.664,12.400 127.800 C 12.180 127.936,12.000 128.315,12.000 128.643 C 12.000 128.971,11.640 129.984,11.200 130.894 C 10.760 131.805,10.400 132.840,10.400 133.195 C 10.400 133.550,10.184 134.056,9.920 134.320 C 9.656 134.584,9.562 134.800,9.710 134.800 C 9.859 134.800,9.789 135.295,9.555 135.900 C 9.015 137.294,8.762 138.266,8.512 139.900 C 8.402 140.615,8.152 141.200,7.956 141.200 C 7.760 141.200,7.600 141.830,7.600 142.600 C 7.600 143.370,7.420 144.000,7.200 144.000 C 6.980 144.000,6.800 144.540,6.800 145.200 C 6.800 145.860,6.620 146.400,6.400 146.400 C 6.180 146.400,6.000 147.120,6.000 148.000 C 6.000 148.880,5.820 149.600,5.600 149.600 C 5.380 149.600,5.200 150.320,5.200 151.200 C 5.200 152.080,5.020 152.800,4.800 152.800 C 4.580 152.800,4.400 153.509,4.400 154.376 C 4.400 155.243,4.220 156.064,4.000 156.200 C 3.780 156.336,3.600 157.247,3.600 158.224 C 3.600 159.201,3.420 160.000,3.200 160.000 C 2.980 160.000,2.800 160.889,2.800 161.976 C 2.800 163.063,2.620 164.064,2.400 164.200 C 2.180 164.336,2.000 165.416,2.000 166.600 C 2.000 167.784,1.820 168.864,1.600 169.000 C 1.380 169.136,1.200 170.482,1.200 171.990 C 1.200 173.829,1.035 174.788,0.700 174.900 C -0.032 175.144,-0.032 224.856,0.700 225.100 C 1.035 225.212,1.200 226.171,1.200 228.010 C 1.200 229.518,1.380 230.864,1.600 231.000 C 1.820 231.136,2.000 232.216,2.000 233.400 C 2.000 234.584,2.180 235.664,2.400 235.800 C 2.620 235.936,2.800 236.937,2.800 238.024 C 2.800 239.111,2.980 240.000,3.200 240.000 C 3.420 240.000,3.600 240.709,3.600 241.576 C 3.600 242.443,3.780 243.264,4.000 243.400 C 4.220 243.536,4.400 244.447,4.400 245.424 C 4.400 246.401,4.580 247.200,4.800 247.200 C 5.020 247.200,5.200 247.920,5.200 248.800 C 5.200 249.680,5.380 250.400,5.600 250.400 C 5.820 250.400,6.000 251.019,6.000 251.776 C 6.000 252.533,6.180 253.264,6.400 253.400 C 6.620 253.536,6.800 254.177,6.800 254.824 C 6.800 255.471,6.980 256.000,7.200 256.000 C 7.420 256.000,7.600 256.630,7.600 257.400 C 7.600 258.170,7.780 258.800,8.000 258.800 C 8.220 258.800,8.400 259.329,8.400 259.976 C 8.400 260.623,8.585 261.267,8.811 261.407 C 9.036 261.546,9.182 261.872,9.133 262.130 C 9.033 262.666,11.232 269.695,11.595 270.000 C 11.726 270.110,12.082 271.010,12.386 272.000 C 12.690 272.990,13.088 273.971,13.270 274.180 C 13.451 274.389,13.600 274.884,13.600 275.280 C 13.600 275.676,13.780 276.000,14.000 276.000 C 14.220 276.000,14.400 276.349,14.400 276.776 C 14.400 277.203,14.580 277.664,14.800 277.800 C 15.020 277.936,15.200 278.487,15.200 279.024 C 15.200 279.561,15.380 280.000,15.600 280.000 C 15.820 280.000,16.000 280.360,16.000 280.800 C 16.000 281.240,16.180 281.600,16.400 281.600 C 16.620 281.600,16.800 281.960,16.800 282.400 C 16.800 282.840,16.980 283.200,17.200 283.200 C 17.420 283.200,17.600 283.549,17.600 283.976 C 17.600 284.403,17.780 284.864,18.000 285.000 C 18.220 285.136,18.400 285.597,18.400 286.024 C 18.400 286.451,18.580 286.800,18.800 286.800 C 19.020 286.800,19.200 287.160,19.200 287.600 C 19.200 288.040,19.380 288.400,19.600 288.400 C 19.820 288.400,20.000 288.760,20.000 289.200 C 20.000 289.640,20.180 290.000,20.400 290.000 C 20.620 290.000,20.800 290.360,20.800 290.800 C 20.800 291.240,20.980 291.600,21.200 291.600 C 21.420 291.600,21.600 291.878,21.600 292.217 C 21.600 292.556,21.960 293.220,22.400 293.692 C 22.840 294.164,23.200 294.787,23.200 295.075 C 23.200 295.364,23.380 295.600,23.600 295.600 C 23.820 295.600,24.000 295.960,24.000 296.400 C 24.000 296.840,24.180 297.200,24.400 297.200 C 24.620 297.200,24.800 297.434,24.800 297.720 C 24.800 298.480,25.746 300.393,26.124 300.397 C 26.302 300.399,26.336 300.580,26.200 300.800 C 26.064 301.020,26.124 301.200,26.333 301.200 C 26.542 301.200,26.992 301.896,27.332 302.747 C 27.673 303.598,28.187 304.543,28.476 304.847 C 28.764 305.151,29.254 305.892,29.564 306.493 C 29.874 307.095,30.459 307.942,30.864 308.377 C 31.269 308.811,31.600 309.404,31.600 309.695 C 31.600 309.986,31.960 310.483,32.400 310.800 C 32.840 311.117,33.200 311.657,33.200 312.000 C 33.200 312.343,33.560 312.883,34.000 313.200 C 34.440 313.517,34.800 313.980,34.800 314.229 C 34.800 314.478,35.340 315.246,36.000 315.937 C 36.660 316.628,37.200 317.392,37.200 317.636 C 37.200 317.880,37.740 318.583,38.400 319.200 C 39.060 319.817,39.600 320.537,39.600 320.800 C 39.600 321.063,40.140 321.783,40.800 322.400 C 41.460 323.017,42.005 323.674,42.011 323.860 C 42.017 324.047,42.739 325.010,43.616 326.000 C 45.843 328.515,46.064 328.800,45.789 328.800 C 45.656 328.800,46.459 329.688,47.573 330.774 C 48.688 331.860,49.600 332.930,49.600 333.152 C 49.600 333.573,56.815 340.883,58.432 342.100 C 58.944 342.485,59.221 342.800,59.047 342.800 C 58.873 342.800,60.486 344.510,62.631 346.600 C 64.776 348.690,66.696 350.400,66.897 350.400 C 67.098 350.400,67.951 351.116,68.791 351.991 L 70.320 353.582 71.860 352.151 C 72.707 351.364,74.733 349.814,76.362 348.706 C 79.099 346.845,80.207 346.199,85.200 343.554 C 86.190 343.029,87.090 342.510,87.200 342.400 C 87.310 342.290,88.390 341.683,89.600 341.051 C 90.810 340.419,92.610 339.447,93.600 338.891 C 94.590 338.336,96.570 337.260,98.000 336.501 C 99.430 335.741,101.140 334.801,101.800 334.411 C 102.460 334.020,104.440 332.932,106.200 331.991 C 109.389 330.287,111.715 329.029,115.700 326.854 C 116.855 326.223,118.610 325.278,119.600 324.754 C 120.590 324.229,121.490 323.710,121.600 323.600 C 121.710 323.490,122.520 323.028,123.400 322.573 C 124.862 321.818,129.645 319.233,132.600 317.601 C 133.260 317.237,135.780 315.873,138.200 314.569 C 145.516 310.630,150.554 304.749,152.119 298.323 C 152.355 297.352,152.602 290.374,152.683 282.328 L 152.829 268.056 148.614 261.868 C 146.296 258.464,144.400 255.482,144.400 255.240 C 144.400 254.998,144.241 254.800,144.047 254.800 C 143.852 254.800,143.590 254.485,143.464 254.100 C 143.338 253.715,142.692 252.500,142.027 251.400 C 138.089 244.882,132.823 232.553,130.608 224.667 C 130.042 222.650,129.373 220.280,129.122 219.400 C 128.804 218.287,128.171 217.432,127.042 216.590 C 123.290 213.793,120.548 208.828,119.628 203.167 C 119.012 199.379,119.105 174.556,119.749 171.000 C 120.255 168.198,122.228 163.200,122.828 163.200 C 123.003 163.200,123.249 162.877,123.374 162.483 C 123.499 162.088,124.241 161.087,125.022 160.259 L 126.442 158.754 126.374 133.477 C 126.327 115.655,126.438 107.868,126.753 107.074 C 126.999 106.455,127.200 105.477,127.200 104.902 C 127.200 104.327,127.376 103.304,127.591 102.628 C 129.243 97.441,129.935 95.673,131.831 91.800 C 137.268 80.691,148.227 71.060,160.550 66.559 C 161.458 66.228,163.190 65.596,164.400 65.156 C 165.610 64.716,167.320 64.197,168.200 64.004 C 169.080 63.810,170.520 63.452,171.400 63.207 C 172.934 62.781,174.988 62.404,180.200 61.593 C 195.665 59.184,214.828 59.915,229.600 63.477 C 250.420 68.497,265.305 81.003,270.976 98.241 C 272.735 103.589,272.800 103.826,272.800 104.902 C 272.800 105.477,273.004 106.455,273.254 107.074 C 273.578 107.879,273.685 115.395,273.629 133.473 L 273.550 158.746 275.140 160.433 C 276.014 161.361,276.970 162.589,277.264 163.160 C 277.558 163.732,277.889 164.290,278.000 164.400 C 278.246 164.645,279.028 166.313,279.405 167.400 C 281.329 172.937,281.473 202.010,279.601 207.000 C 277.517 212.559,274.082 216.503,269.198 218.946 C 266.512 220.290,266.194 220.578,265.702 222.112 C 265.404 223.041,264.990 224.205,264.780 224.700 C 264.143 226.209,263.705 227.319,263.004 229.200 C 261.412 233.478,257.331 242.178,254.656 247.000 C 252.329 251.193,248.721 256.995,248.354 257.133 C 248.159 257.207,248.000 257.488,248.000 257.758 C 248.000 258.028,247.680 258.598,247.289 259.025 C 246.898 259.451,246.142 260.430,245.608 261.200 C 245.075 261.970,244.531 262.690,244.400 262.800 C 244.269 262.910,243.725 263.630,243.192 264.400 C 242.658 265.170,241.895 266.156,241.495 266.592 C 241.096 267.028,240.669 267.784,240.546 268.272 C 240.075 270.149,240.656 297.751,241.197 299.200 C 242.455 302.570,242.643 302.997,243.700 304.900 C 243.975 305.395,244.299 305.890,244.419 306.000 C 244.540 306.110,245.073 306.830,245.604 307.600 C 246.610 309.060,247.783 310.245,250.054 312.098 C 250.794 312.702,264.810 319.897,281.200 328.087 C 297.590 336.276,311.060 343.117,311.133 343.289 C 311.207 343.460,311.503 343.600,311.791 343.600 C 313.888 343.600,328.333 352.568,328.382 353.900 C 328.411 354.696,328.763 354.504,330.400 352.800 C 331.246 351.920,332.122 351.200,332.348 351.200 C 332.574 351.200,334.703 349.230,337.079 346.821 C 342.316 341.514,341.514 342.316,346.821 337.079 C 349.230 334.703,351.200 332.584,351.200 332.371 C 351.200 332.157,352.190 330.993,353.400 329.783 C 354.610 328.573,355.600 327.429,355.600 327.242 C 355.600 327.054,356.320 326.113,357.200 325.151 C 358.080 324.188,358.800 323.264,358.800 323.097 C 358.800 322.929,359.340 322.228,360.000 321.537 C 360.660 320.846,361.200 320.078,361.200 319.829 C 361.200 319.580,361.560 319.117,362.000 318.800 C 362.440 318.483,362.800 318.020,362.800 317.771 C 362.800 317.522,363.340 316.754,364.000 316.063 C 364.660 315.372,365.200 314.575,365.200 314.292 C 365.200 314.009,365.560 313.517,366.000 313.200 C 366.440 312.883,366.800 312.343,366.800 312.000 C 366.800 311.657,367.160 311.117,367.600 310.800 C 368.040 310.483,368.400 309.969,368.400 309.659 C 368.400 309.348,368.716 308.803,369.103 308.447 C 369.489 308.091,370.074 307.260,370.403 306.600 C 370.731 305.940,371.315 305.051,371.700 304.625 C 372.085 304.198,372.400 303.613,372.400 303.325 C 372.400 303.036,372.580 302.800,372.800 302.800 C 373.020 302.800,373.200 302.440,373.200 302.000 C 373.200 301.560,373.347 301.200,373.526 301.200 C 373.924 301.200,375.200 298.599,375.200 297.786 C 375.200 297.464,375.380 297.200,375.600 297.200 C 375.820 297.200,376.000 296.880,376.000 296.488 C 376.000 296.097,376.360 295.517,376.800 295.200 C 377.240 294.883,377.600 294.303,377.600 293.912 C 377.600 293.520,377.780 293.200,378.000 293.200 C 378.220 293.200,378.400 292.840,378.400 292.400 C 378.400 291.960,378.580 291.600,378.800 291.600 C 379.020 291.600,379.200 291.255,379.200 290.833 C 379.200 290.412,379.335 290.007,379.500 289.933 C 379.665 289.860,380.225 288.900,380.744 287.800 C 381.263 286.700,381.848 285.487,382.044 285.105 C 382.240 284.723,382.400 284.138,382.400 283.805 C 382.400 283.472,382.580 283.200,382.800 283.200 C 383.020 283.200,383.200 282.840,383.200 282.400 C 383.200 281.960,383.380 281.600,383.600 281.600 C 383.820 281.600,384.000 281.240,384.000 280.800 C 384.000 280.360,384.147 280.000,384.328 280.000 C 384.508 280.000,384.900 279.100,385.200 278.000 C 385.500 276.900,385.892 276.000,386.072 276.000 C 386.253 276.000,386.400 275.728,386.400 275.395 C 386.400 275.062,386.580 274.432,386.800 273.995 C 387.020 273.558,387.380 272.842,387.600 272.405 C 387.820 271.968,388.000 271.263,388.000 270.839 C 388.000 270.414,388.135 270.007,388.300 269.933 C 388.726 269.744,391.624 260.785,391.611 259.700 C 391.605 259.205,391.780 258.800,392.000 258.800 C 392.220 258.800,392.400 258.170,392.400 257.400 C 392.400 256.630,392.580 256.000,392.800 256.000 C 393.020 256.000,393.200 255.471,393.200 254.824 C 393.200 254.177,393.380 253.536,393.600 253.400 C 393.820 253.264,394.000 252.533,394.000 251.776 C 394.000 251.019,394.180 250.400,394.400 250.400 C 394.620 250.400,394.800 249.680,394.800 248.800 C 394.800 247.920,394.980 247.200,395.200 247.200 C 395.420 247.200,395.600 246.300,395.600 245.200 C 395.600 244.100,395.780 243.200,396.000 243.200 C 396.220 243.200,396.400 242.491,396.400 241.624 C 396.400 240.757,396.580 239.936,396.800 239.800 C 397.020 239.664,397.200 238.663,397.200 237.576 C 397.200 236.489,397.380 235.600,397.600 235.600 C 397.822 235.600,398.000 234.533,398.000 233.200 C 398.000 231.867,398.178 230.800,398.400 230.800 C 398.628 230.800,398.800 229.611,398.800 228.033 C 398.800 226.176,398.964 225.212,399.300 225.100 C 399.693 224.969,399.800 219.591,399.800 200.000 C 399.800 180.409,399.693 175.031,399.300 174.900 C 398.964 174.788,398.800 173.824,398.800 171.967 C 398.800 170.389,398.628 169.200,398.400 169.200 C 398.178 169.200,398.000 168.133,398.000 166.800 C 398.000 165.467,397.822 164.400,397.600 164.400 C 397.380 164.400,397.200 163.410,397.200 162.200 C 397.200 160.990,397.020 160.000,396.800 160.000 C 396.580 160.000,396.400 159.291,396.400 158.424 C 396.400 157.557,396.220 156.736,396.000 156.600 C 395.780 156.464,395.600 155.553,395.600 154.576 C 395.600 153.599,395.420 152.800,395.200 152.800 C 394.980 152.800,394.800 152.080,394.800 151.200 C 394.800 150.320,394.620 149.600,394.400 149.600 C 394.180 149.600,394.000 148.981,394.000 148.224 C 394.000 147.467,393.820 146.736,393.600 146.600 C 393.380 146.464,393.200 145.823,393.200 145.176 C 393.200 144.529,393.020 144.000,392.800 144.000 C 392.580 144.000,392.400 143.370,392.400 142.600 C 392.400 141.830,392.220 141.200,392.000 141.200 C 391.780 141.200,391.600 140.771,391.600 140.246 C 391.600 139.355,390.715 136.018,389.997 134.200 C 389.823 133.760,389.464 132.770,389.200 132.000 C 388.618 130.307,388.029 128.840,387.553 127.905 C 387.359 127.523,387.200 126.848,387.200 126.405 C 387.200 125.962,387.020 125.600,386.800 125.600 C 386.580 125.600,386.400 125.240,386.400 124.800 C 386.400 124.360,386.220 124.000,386.000 124.000 C 385.780 124.000,385.600 123.561,385.600 123.024 C 385.600 122.487,385.420 121.936,385.200 121.800 C 384.980 121.664,384.800 121.203,384.800 120.776 C 384.800 120.349,384.620 120.000,384.400 120.000 C 384.180 120.000,384.000 119.640,384.000 119.200 C 384.000 118.760,383.820 118.400,383.600 118.400 C 383.380 118.400,383.200 118.128,383.200 117.795 C 383.200 117.462,383.039 116.877,382.842 116.495 C 382.645 116.113,381.881 114.540,381.144 113.000 C 380.407 111.460,379.668 110.140,379.502 110.067 C 379.336 109.993,379.200 109.588,379.200 109.167 C 379.200 108.745,379.020 108.400,378.800 108.400 C 378.580 108.400,378.400 108.040,378.400 107.600 C 378.400 107.160,378.220 106.800,378.000 106.800 C 377.780 106.800,377.600 106.522,377.600 106.183 C 377.600 105.844,377.240 105.180,376.800 104.708 C 376.360 104.236,376.000 103.613,376.000 103.325 C 376.000 103.036,375.820 102.800,375.600 102.800 C 375.380 102.800,375.200 102.524,375.200 102.187 C 375.200 101.573,373.314 97.577,372.847 97.200 C 372.710 97.090,372.345 96.508,372.035 95.907 C 371.726 95.305,371.141 94.458,370.736 94.023 C 370.331 93.589,370.000 92.996,370.000 92.705 C 370.000 92.414,369.640 91.917,369.200 91.600 C 368.760 91.283,368.400 90.743,368.400 90.400 C 368.400 90.057,368.040 89.517,367.600 89.200 C 367.160 88.883,366.800 88.343,366.800 88.000 C 366.800 87.657,366.440 87.117,366.000 86.800 C 365.560 86.483,365.200 85.943,365.200 85.600 C 365.200 85.257,364.840 84.717,364.400 84.400 C 363.960 84.083,363.600 83.620,363.600 83.371 C 363.600 83.122,363.060 82.354,362.400 81.663 C 361.740 80.972,361.200 80.208,361.200 79.964 C 361.200 79.720,360.660 79.017,360.000 78.400 C 359.340 77.783,358.799 77.126,358.798 76.940 C 358.797 76.753,357.987 75.708,356.998 74.617 C 356.009 73.526,355.200 72.492,355.200 72.319 C 355.200 72.146,354.300 71.085,353.200 69.961 C 352.100 68.838,351.200 67.750,351.200 67.544 C 351.200 67.338,349.310 65.297,347.000 63.009 C 344.690 60.722,342.800 58.965,342.800 59.106 C 342.800 59.247,342.485 58.944,342.100 58.433 C 340.860 56.785,331.976 48.000,331.550 48.000 C 331.323 48.000,330.439 47.273,329.585 46.384 C 328.731 45.496,327.890 44.778,327.716 44.789 C 327.437 44.807,325.260 43.096,323.785 41.700 C 323.495 41.425,323.153 41.200,323.025 41.200 C 322.897 41.200,322.228 40.660,321.537 40.000 C 320.846 39.340,320.126 38.800,319.937 38.800 C 319.748 38.800,319.028 38.260,318.337 37.600 C 317.646 36.940,316.878 36.400,316.629 36.400 C 316.380 36.400,315.917 36.040,315.600 35.600 C 315.283 35.160,314.743 34.800,314.400 34.800 C 314.057 34.800,313.517 34.440,313.200 34.000 C 312.883 33.560,312.343 33.200,312.000 33.200 C 311.657 33.200,311.117 32.840,310.800 32.400 C 310.483 31.960,309.943 31.600,309.600 31.600 C 309.257 31.600,308.717 31.240,308.400 30.800 C 308.083 30.360,307.671 30.000,307.484 30.000 C 307.297 30.000,306.359 29.460,305.400 28.800 C 304.441 28.140,303.463 27.600,303.228 27.600 C 302.993 27.600,302.800 27.447,302.800 27.261 C 302.800 26.879,299.585 25.345,299.108 25.500 C 298.939 25.555,298.800 25.420,298.800 25.200 C 298.800 24.980,298.522 24.800,298.183 24.800 C 297.844 24.800,297.180 24.440,296.708 24.000 C 296.236 23.560,295.613 23.200,295.325 23.200 C 295.036 23.200,294.800 23.020,294.800 22.800 C 294.800 22.580,294.440 22.400,294.000 22.400 C 293.560 22.400,293.200 22.220,293.200 22.000 C 293.200 21.780,292.840 21.600,292.400 21.600 C 291.960 21.600,291.600 21.454,291.600 21.275 C 291.600 21.096,290.970 20.702,290.200 20.400 C 289.430 20.098,288.800 19.704,288.800 19.525 C 288.800 19.346,288.440 19.200,288.000 19.200 C 287.560 19.200,287.200 19.020,287.200 18.800 C 287.200 18.580,286.935 18.400,286.612 18.400 C 286.289 18.400,285.383 18.040,284.600 17.600 C 283.817 17.160,282.821 16.800,282.388 16.800 C 281.955 16.800,281.600 16.620,281.600 16.400 C 281.600 16.180,281.240 16.000,280.800 16.000 C 280.360 16.000,280.000 15.820,280.000 15.600 C 280.000 15.380,279.640 15.200,279.200 15.200 C 278.760 15.200,278.400 15.020,278.400 14.800 C 278.400 14.580,277.860 14.400,277.200 14.400 C 276.540 14.400,276.000 14.220,276.000 14.000 C 276.000 13.780,275.640 13.600,275.200 13.600 C 274.760 13.600,274.400 13.420,274.400 13.200 C 274.400 12.980,274.038 12.800,273.595 12.800 C 273.152 12.800,272.477 12.641,272.095 12.447 C 271.713 12.252,270.860 11.871,270.200 11.600 C 269.540 11.329,268.687 10.948,268.305 10.753 C 267.923 10.559,267.284 10.400,266.885 10.400 C 266.486 10.400,265.944 10.184,265.680 9.920 C 265.416 9.656,265.200 9.562,265.200 9.710 C 265.200 9.859,264.705 9.789,264.100 9.555 C 262.706 9.015,261.734 8.762,260.100 8.512 C 259.385 8.402,258.800 8.152,258.800 7.956 C 258.800 7.760,258.170 7.600,257.400 7.600 C 256.630 7.600,256.000 7.420,256.000 7.200 C 256.000 6.980,255.460 6.800,254.800 6.800 C 254.140 6.800,253.600 6.620,253.600 6.400 C 253.600 6.180,252.880 6.000,252.000 6.000 C 251.120 6.000,250.400 5.820,250.400 5.600 C 250.400 5.380,249.680 5.200,248.800 5.200 C 247.920 5.200,247.200 5.020,247.200 4.800 C 247.200 4.580,246.491 4.400,245.624 4.400 C 244.757 4.400,243.936 4.220,243.800 4.000 C 243.664 3.780,242.753 3.600,241.776 3.600 C 240.799 3.600,240.000 3.420,240.000 3.200 C 240.000 2.980,239.111 2.800,238.024 2.800 C 236.937 2.800,235.936 2.620,235.800 2.400 C 235.664 2.180,234.483 2.000,233.176 2.000 C 231.859 2.000,230.800 1.822,230.800 1.600 C 230.800 1.372,229.611 1.200,228.033 1.200 C 226.198 1.200,225.211 1.034,225.103 0.708 C 224.941 0.222,187.291 -0.126,178.300 0.275 " stroke="none" fill="#546383" fill-rule="evenodd"></path><path id="path2" d="M192.900 60.676 C 193.285 60.776,193.915 60.776,194.300 60.676 C 194.685 60.575,194.370 60.493,193.600 60.493 C 192.830 60.493,192.515 60.575,192.900 60.676 M205.700 60.676 C 206.085 60.776,206.715 60.776,207.100 60.676 C 207.485 60.575,207.170 60.493,206.400 60.493 C 205.630 60.493,205.315 60.575,205.700 60.676 " stroke="none" fill="#929aac" fill-rule="evenodd"></path><path id="path3" d="" stroke="none" fill="#9ca4b4" fill-rule="evenodd"></path><path id="path4" d="M196.500 60.298 C 198.425 60.371,201.575 60.371,203.500 60.298 C 205.425 60.225,203.850 60.165,200.000 60.165 C 196.150 60.165,194.575 60.225,196.500 60.298 M190.500 60.676 C 190.885 60.776,191.515 60.776,191.900 60.676 C 192.285 60.575,191.970 60.493,191.200 60.493 C 190.430 60.493,190.115 60.575,190.500 60.676 M208.100 60.676 C 208.485 60.776,209.115 60.776,209.500 60.676 C 209.885 60.575,209.570 60.493,208.800 60.493 C 208.030 60.493,207.715 60.575,208.100 60.676 M221.400 62.000 C 221.840 62.189,222.470 62.344,222.800 62.344 C 223.178 62.344,223.104 62.217,222.600 62.000 C 222.160 61.811,221.530 61.656,221.200 61.656 C 220.822 61.656,220.896 61.783,221.400 62.000 M173.000 62.800 C 172.496 63.017,172.422 63.144,172.800 63.144 C 173.130 63.144,173.760 62.989,174.200 62.800 C 174.704 62.583,174.778 62.456,174.400 62.456 C 174.070 62.456,173.440 62.611,173.000 62.800 M225.800 62.800 C 226.240 62.989,226.870 63.144,227.200 63.144 C 227.578 63.144,227.504 63.017,227.000 62.800 C 226.560 62.611,225.930 62.456,225.600 62.456 C 225.222 62.456,225.296 62.583,225.800 62.800 M158.400 67.400 C 157.094 68.147,157.551 68.155,159.254 67.416 C 159.994 67.094,160.330 66.831,160.000 66.830 C 159.670 66.829,158.950 67.086,158.400 67.400 M138.175 82.100 L 137.000 83.400 138.300 82.225 C 139.015 81.579,139.600 80.994,139.600 80.925 C 139.600 80.616,139.270 80.888,138.175 82.100 M134.779 86.431 C 133.871 87.768,133.189 88.922,133.264 88.997 C 133.339 89.071,134.166 87.977,135.103 86.566 C 136.039 85.155,136.721 84.000,136.617 84.000 C 136.514 84.000,135.687 85.094,134.779 86.431 M126.600 107.600 C 126.448 108.291,126.407 108.941,126.509 109.042 C 126.611 109.144,126.809 108.653,126.950 107.950 C 127.283 106.283,126.960 105.960,126.600 107.600 M273.740 116.400 C 273.740 118.270,273.809 119.035,273.893 118.100 C 273.977 117.165,273.977 115.635,273.893 114.700 C 273.809 113.765,273.740 114.530,273.740 116.400 M126.131 116.200 C 126.133 117.740,126.205 118.321,126.292 117.491 C 126.379 116.661,126.377 115.401,126.289 114.691 C 126.200 113.981,126.129 114.660,126.131 116.200 M120.249 168.215 C 120.112 168.573,120.015 169.166,120.034 169.533 C 120.053 169.900,120.227 169.669,120.421 169.020 C 120.798 167.758,120.665 167.133,120.249 168.215 M280.581 187.400 C 280.581 195.760,280.634 199.237,280.699 195.126 C 280.764 191.016,280.764 184.176,280.700 179.926 C 280.635 175.677,280.582 179.040,280.581 187.400 M119.381 187.400 C 119.380 195.320,119.434 198.617,119.499 194.726 C 119.565 190.835,119.565 184.355,119.500 180.326 C 119.434 176.297,119.381 179.480,119.381 187.400 M125.000 214.748 C 125.660 215.477,126.740 216.446,127.400 216.901 C 128.818 217.880,128.498 217.534,125.800 215.174 C 124.322 213.881,124.113 213.770,125.000 214.748 M274.181 215.300 L 272.600 217.000 274.300 215.419 C 275.881 213.948,276.184 213.600,275.881 213.600 C 275.816 213.600,275.051 214.365,274.181 215.300 M270.900 217.646 C 269.537 218.519,269.095 219.106,270.300 218.443 C 271.218 217.939,272.656 216.827,272.400 216.819 C 272.290 216.816,271.615 217.188,270.900 217.646 M249.014 255.835 C 248.641 256.404,248.405 256.938,248.489 257.022 C 248.573 257.107,248.958 256.641,249.344 255.988 C 250.206 254.528,249.948 254.409,249.014 255.835 M151.961 266.654 C 152.751 267.850,152.794 268.530,152.900 281.254 L 153.011 294.600 153.104 281.200 L 153.196 267.800 152.165 266.600 L 151.134 265.400 151.961 266.654 M240.623 267.289 C 239.976 268.212,239.737 292.923,240.347 295.786 C 240.486 296.438,240.543 290.530,240.472 282.658 C 240.360 270.098,240.423 268.225,240.982 267.372 C 241.779 266.155,241.468 266.083,240.623 267.289 M148.399 306.100 C 147.810 306.904,147.713 307.184,148.145 306.833 C 148.801 306.300,149.793 304.800,149.489 304.800 C 149.413 304.800,148.922 305.385,148.399 306.100 M145.781 309.300 L 144.200 311.000 145.900 309.419 C 147.481 307.948,147.784 307.600,147.481 307.600 C 147.416 307.600,146.651 308.365,145.781 309.300 M321.200 348.521 C 321.200 348.612,322.235 349.351,323.500 350.163 C 324.765 350.975,325.308 351.221,324.706 350.710 C 323.518 349.700,321.200 348.253,321.200 348.521 " stroke="none" fill="#8189a1" fill-rule="evenodd"></path><path id="path5" d="M198.300 60.693 C 199.235 60.777,200.765 60.777,201.700 60.693 C 202.635 60.609,201.870 60.540,200.000 60.540 C 198.130 60.540,197.365 60.609,198.300 60.693 M188.713 61.095 C 189.876 61.176,191.676 61.176,192.713 61.093 C 193.751 61.011,192.800 60.945,190.600 60.946 C 188.400 60.947,187.551 61.014,188.713 61.095 M207.513 61.095 C 208.676 61.176,210.476 61.176,211.513 61.093 C 212.551 61.011,211.600 60.945,209.400 60.946 C 207.200 60.947,206.351 61.014,207.513 61.095 M181.100 61.882 C 181.595 61.978,182.405 61.978,182.900 61.882 C 183.395 61.787,182.990 61.709,182.000 61.709 C 181.010 61.709,180.605 61.787,181.100 61.882 M217.100 61.882 C 217.595 61.978,218.405 61.978,218.900 61.882 C 219.395 61.787,218.990 61.709,218.000 61.709 C 217.010 61.709,216.605 61.787,217.100 61.882 M146.400 74.849 C 145.006 76.071,145.005 76.072,146.288 75.219 C 146.996 74.748,147.682 74.191,147.812 73.981 C 148.197 73.357,147.877 73.554,146.400 74.849 M256.783 77.700 C 257.764 78.745,258.619 79.600,258.683 79.600 C 258.984 79.600,258.666 79.241,256.900 77.583 L 255.000 75.800 256.783 77.700 M141.190 79.500 L 138.200 82.600 141.389 79.600 C 143.142 77.950,144.657 76.555,144.755 76.500 C 144.853 76.445,144.764 76.400,144.557 76.400 C 144.349 76.400,142.834 77.795,141.190 79.500 M260.600 81.600 C 261.459 82.480,262.252 83.200,262.362 83.200 C 262.472 83.200,261.859 82.480,261.000 81.600 C 260.141 80.720,259.348 80.000,259.238 80.000 C 259.128 80.000,259.741 80.720,260.600 81.600 M263.616 85.363 C 264.368 86.409,265.156 87.373,265.367 87.503 C 265.578 87.633,265.135 86.884,264.384 85.837 C 263.632 84.791,262.844 83.827,262.633 83.697 C 262.422 83.567,262.865 84.316,263.616 85.363 M135.923 85.500 C 135.218 86.321,134.690 87.200,134.901 87.200 C 134.983 87.200,135.449 86.660,135.937 86.000 C 136.901 84.696,136.892 84.372,135.923 85.500 M132.600 90.800 C 132.259 91.460,132.069 92.000,132.179 92.000 C 132.289 92.000,132.659 91.460,133.000 90.800 C 133.341 90.140,133.531 89.600,133.421 89.600 C 133.311 89.600,132.941 90.140,132.600 90.800 M128.046 102.467 C 128.021 102.834,127.896 103.464,127.770 103.867 C 127.552 104.562,127.563 104.563,127.997 103.887 C 128.248 103.496,128.373 102.866,128.273 102.487 C 128.111 101.868,128.088 101.866,128.046 102.467 M272.493 106.000 C 272.493 106.770,272.575 107.085,272.676 106.700 C 272.776 106.315,272.776 105.685,272.676 105.300 C 272.575 104.915,272.493 105.230,272.493 106.000 M127.293 106.400 C 127.293 107.170,127.375 107.485,127.476 107.100 C 127.576 106.715,127.576 106.085,127.476 105.700 C 127.375 105.315,127.293 105.630,127.293 106.400 M273.297 134.825 L 273.200 159.450 274.500 160.625 L 275.800 161.800 274.703 160.581 L 273.606 159.363 273.500 134.781 L 273.394 110.200 273.297 134.825 M126.497 134.978 L 126.400 159.356 125.309 160.578 L 124.218 161.800 125.512 160.589 L 126.806 159.378 126.700 134.989 L 126.594 110.600 126.497 134.978 M279.909 184.600 C 279.969 192.300,280.073 199.320,280.139 200.200 C 280.206 201.080,280.278 195.590,280.300 188.000 C 280.323 180.410,280.219 173.390,280.070 172.400 C 279.922 171.410,279.849 176.900,279.909 184.600 M120.093 172.400 C 120.093 173.170,120.175 173.485,120.276 173.100 C 120.376 172.715,120.376 172.085,120.276 171.700 C 120.175 171.315,120.093 171.630,120.093 172.400 M119.779 187.600 C 119.779 194.970,119.833 197.985,119.899 194.300 C 119.965 190.615,119.965 184.585,119.899 180.900 C 119.833 177.215,119.779 180.230,119.779 187.600 M120.101 202.600 C 120.105 203.480,120.187 203.793,120.283 203.295 C 120.379 202.798,120.375 202.078,120.275 201.695 C 120.175 201.313,120.096 201.720,120.101 202.600 M126.033 215.300 C 126.125 215.355,126.740 215.850,127.400 216.400 L 128.600 217.400 127.630 216.300 C 127.097 215.695,126.482 215.200,126.264 215.200 C 126.045 215.200,125.942 215.245,126.033 215.300 M272.370 216.300 L 271.400 217.400 272.600 216.400 C 273.260 215.850,273.875 215.355,273.967 215.300 C 274.058 215.245,273.955 215.200,273.736 215.200 C 273.518 215.200,272.903 215.695,272.370 216.300 M143.815 253.900 C 145.156 255.985,145.600 256.577,145.600 256.280 C 145.600 255.896,143.555 252.800,143.301 252.800 C 143.195 252.800,143.426 253.295,143.815 253.900 M148.364 261.133 C 148.580 261.536,149.071 262.121,149.455 262.433 C 149.887 262.784,149.790 262.504,149.201 261.700 C 148.151 260.265,147.757 259.998,148.364 261.133 M240.044 267.347 C 239.719 267.738,239.621 271.824,239.700 281.647 L 239.811 295.400 239.905 281.580 C 239.975 271.474,240.129 267.631,240.480 267.280 C 240.744 267.016,240.856 266.800,240.729 266.800 C 240.602 266.800,240.294 267.046,240.044 267.347 M153.378 280.200 C 153.378 287.020,153.432 289.866,153.499 286.525 C 153.566 283.184,153.566 277.604,153.499 274.125 C 153.433 270.646,153.378 273.380,153.378 280.200 M240.400 298.576 C 240.400 299.113,240.547 299.644,240.728 299.755 C 240.908 299.867,240.977 299.427,240.882 298.779 C 240.672 297.349,240.400 297.235,240.400 298.576 M141.200 313.200 C 140.210 313.858,139.539 314.397,139.709 314.398 C 140.057 314.400,143.200 312.374,143.200 312.147 C 143.200 311.892,143.042 311.975,141.200 313.200 M134.700 316.827 C 133.875 317.263,133.200 317.708,133.200 317.818 C 133.200 317.927,133.920 317.649,134.800 317.200 C 135.680 316.751,136.400 316.297,136.400 316.192 C 136.400 315.930,136.397 315.931,134.700 316.827 M318.400 347.379 C 318.400 347.489,318.940 347.859,319.600 348.200 C 320.260 348.541,320.800 348.731,320.800 348.621 C 320.800 348.511,320.260 348.141,319.600 347.800 C 318.940 347.459,318.400 347.269,318.400 347.379 M76.522 349.029 L 75.400 350.058 76.700 349.154 C 77.415 348.657,78.000 348.193,78.000 348.125 C 78.000 347.809,77.558 348.080,76.522 349.029 M327.081 353.387 C 327.477 353.931,327.966 354.381,328.170 354.387 C 328.373 354.394,328.117 353.950,327.600 353.400 C 326.401 352.123,326.157 352.118,327.081 353.387 " stroke="none" fill="#acacbc" fill-rule="evenodd"></path></g></svg>