<?xml version="1.0" encoding="UTF-8"?>
<svg width="15px" height="19px" viewBox="0 0 15 19" version="1.1" xmlns="http://www.w3.org/2000/svg" xmlns:xlink="http://www.w3.org/1999/xlink">
    <!-- Generator: Sketch 58 (84663) - https://sketch.com -->
    <title>user (7)</title>
    <desc>Created with Sketch.</desc>
    <g id="Page-1" stroke="none" stroke-width="1" fill="none" fill-rule="evenodd">
        <g id="landing-page" transform="translate(-22.000000, -480.000000)" fill="#807F7F" fill-rule="nonzero">
            <g id="user-(7)" transform="translate(22.000000, 480.000000)">
                <path d="M7.5,9 C8.73639531,9 9.8068736,8.55654284 10.6817865,7.68160221 C11.5564143,6.80680416 12,5.7364345 12,4.49985746 C12,3.26370807 11.5565568,2.19319584 10.681644,1.31811272 C9.80673106,0.443457199 8.73625278,0 7.5,0 C6.26346216,0 5.19312637,0.443457199 4.31835603,1.31825525 C3.44358568,2.19305331 3,3.26356554 3,4.49985746 C3,5.7364345 3.44358568,6.80694669 4.31835603,7.68174475 C5.19341147,8.55640027 6.26388975,9 7.5,9 Z M5.0926354,2.09241662 C5.76385811,1.42117265 6.55125117,1.09488738 7.49999998,1.09488738 C8.44860626,1.09488738 9.23614193,1.42117265 9.90750713,2.09241662 C10.5787298,2.76380309 10.9051473,3.55136367 10.9051473,4.49985746 C10.9051473,5.44863633 10.5787298,6.23605437 9.90750713,6.90744084 C9.23614193,7.57882735 8.44860626,7.90511262 7.49999998,7.90511262 C6.55153627,7.90511262 5.76414317,7.57868481 5.0926354,6.90744084 C4.4212702,6.23619691 4.0948527,5.44863633 4.0948527,4.49985746 C4.0948527,3.55136367 4.4212702,2.76380309 5.0926354,2.09241662 Z" id="Shape"></path>
                <path d="M14.9636502,14.5306306 C14.9393712,14.1537065 14.8902646,13.7425434 14.8179765,13.3083575 C14.7450025,12.8709249 14.6510416,12.4574005 14.5385629,12.0794433 C14.4222434,11.6887941 14.2643616,11.3030151 14.0688955,10.9333225 C13.8662966,10.5496096 13.6281709,10.2154843 13.3609653,9.94053929 C13.0815517,9.6529022 12.7394517,9.4216414 12.3438558,9.25295535 C11.9496315,9.08515473 11.5127476,9.00014757 11.0454122,9.00014757 C10.8618798,9.00014757 10.6843828,9.08117005 10.341597,9.32128572 C10.1306308,9.46931035 9.88386343,9.64050532 9.60842769,9.82985287 C9.37290819,9.99130746 9.05385263,10.1425789 8.65976554,10.2795348 C8.27528028,10.4133916 7.88489678,10.4812793 7.49945132,10.4812793 C7.11428023,10.4812793 6.72389672,10.4133916 6.33913714,10.2795348 C5.94546154,10.1427264 5.62626881,9.99145503 5.39116083,9.83000044 C5.11833128,9.64242387 4.87142673,9.4712289 4.65730563,9.32113815 C4.31479416,9.08102248 4.13729721,9 3.95376484,9 C3.48629223,9 3.04954552,9.08515473 2.65545843,9.25310292 C2.2601368,9.42149382 1.91789969,9.65275462 1.63821169,9.94068686 C1.3710061,10.2157795 1.13288038,10.5497573 0.93041865,10.9333225 C0.735226879,11.3030151 0.577207967,11.6886465 0.460888491,12.0795909 C0.348546913,12.4575481 0.254586024,12.8709249 0.181612013,13.3083575 C0.109186678,13.7419531 0.0602172849,14.1532638 0.0359383463,14.5310734 C0.0120708891,14.9004708 0,15.2849216 0,15.6733571 C0,16.6831122 0.298343005,17.5005682 0.886661669,18.1034401 C1.46771037,18.6983427 2.23640654,19 3.17148892,19 L11.8285111,19 C12.7633191,19 13.5320153,18.6983427 14.1132012,18.1034401 C14.701657,17.5010109 15,16.6832598 15,15.6732094 C15,15.2834457 14.9876548,14.898995 14.9636502,14.5306306 L14.9636502,14.5306306 Z M13.3867531,17.282147 C13.0028165,17.6753051 12.4930958,17.8664237 11.8283739,17.8664237 L3.17148892,17.8664237 C2.50662983,17.8664237 1.99690914,17.6753051 1.61310972,17.2822946 C1.23658029,16.8966632 1.05359657,16.3702386 1.05359657,15.6733571 C1.05359657,15.310896 1.06470726,14.9530099 1.08692869,14.6094393 C1.10860141,14.2723624 1.15290707,13.9020794 1.21861112,13.5086262 C1.28349214,13.1200431 1.36606801,12.7553683 1.46428115,12.4252276 C1.55851636,12.1086645 1.68704392,11.7952006 1.84643451,11.4932481 C1.99855514,11.2054635 2.17358306,10.958559 2.36671729,10.7596187 C2.54736911,10.5735179 2.77506997,10.4212134 3.04337291,10.306985 C3.29151197,10.2013164 3.57037694,10.1434643 3.87310936,10.134757 C3.91000786,10.1558612 3.97571191,10.1961511 4.08215521,10.2708275 C4.29874537,10.4226892 4.54839331,10.5959504 4.82437772,10.7855931 C5.13547746,10.9989964 5.53628582,11.1917384 6.01514349,11.3580632 C6.50470033,11.5283726 7.0039962,11.6148556 7.49958848,11.6148556 C7.99518081,11.6148556 8.49461383,11.5283726 8.98389636,11.3582107 C9.4631655,11.1915908 9.86383674,10.9989964 10.175348,10.7852979 C10.4577793,10.5910802 10.7004316,10.4228368 10.9170218,10.2708275 C11.0234651,10.1962987 11.0891691,10.1558612 11.1260676,10.134757 C11.4289372,10.1434643 11.7078022,10.2013164 11.9560784,10.306985 C12.2242442,10.4212134 12.4519451,10.5736655 12.6325969,10.7596187 C12.8257311,10.9584114 13.000759,11.2053159 13.1528797,11.4933957 C13.3124074,11.7952006 13.4410721,12.1088121 13.5351702,12.4250801 C13.6335205,12.7556635 13.7162335,13.1201907 13.7809774,13.5084786 C13.8465443,13.9026698 13.8909871,14.2731003 13.9126598,14.6095869 L13.9126598,14.6098821 C13.9350184,14.9521244 13.9462663,15.3098629 13.9464034,15.6733571 C13.9462663,16.3703862 13.7632825,16.8966632 13.3867531,17.282147 L13.3867531,17.282147 Z" id="Shape"></path>
            </g>
        </g>
    </g>
</svg>