<svg id="Layer_1" data-name="Layer 1" xmlns="http://www.w3.org/2000/svg" viewBox="0 0 221.78 93.53"><defs><style>.cls-1{fill:#004266;}.cls-2{fill:#fbdbda;}.cls-3{fill:#57829a;}.cls-4{fill:#638ba1;}.cls-5{fill:#ed312a;}.cls-6{fill:#fefefe;}.cls-7{fill:#fdfdfd;}</style></defs><path class="cls-1" d="M204.19,57.54a3.58,3.58,0,0,1-1.86.17c-6.31,0-12.62.06-18.93,0-1.65,0-1.64.57-1.16,1.75,1.54,3.81,4.63,5.34,8.48,5.67A31.11,31.11,0,0,0,201.1,64c1.05-.27,1.28,0,1.37.94.17,1.88.44,3.74.69,5.61.08.68.05,1.19-.78,1.43-6.17,1.74-12.38,2.52-18.62.52-6.88-2.22-10.31-7.28-11.17-14.2a22.37,22.37,0,0,1,1.29-11.61c3.67-8.79,15.23-12.71,23.46-7.84,4.46,2.63,6.29,6.9,6.92,11.82.33.67-.14,1.45.29,2.11v3.09C204.12,56.35,204.64,57.05,204.19,57.54Z"/><path class="cls-2" d="M45.54,12c0,.09,0,.18,0,.28a2,2,0,0,1-2.77,0,2.62,2.62,0,0,1,0-.28Z"/><path class="cls-3" d="M204.55,52.77a2.66,2.66,0,0,1-.29-2.11.34.34,0,0,1,.29.05Z"/><path class="cls-4" d="M204.19,57.54c0-.58-.14-1.2.36-1.68v1.71Z"/><path class="cls-5" d="M42.78,12.26h2.77C61.36,13.33,73.09,23.19,76.9,38.62c-.15.77-.84,1.05-1.39,1.42C71.32,42.88,69.38,47,68.7,51.83a22.68,22.68,0,0,0,1.87,12.84A1.32,1.32,0,0,1,70.7,66,34.35,34.35,0,0,1,52,78c-19,4.68-38.52-8.59-40.89-27.89C8.65,30.28,22.61,13.62,42.78,12.26Z"/><path class="cls-1" d="M70.7,66a23.47,23.47,0,0,1-2.26-15.56A16.15,16.15,0,0,1,76.9,38.62a18.73,18.73,0,0,1,12.75-1.16c6.4,1.72,9.17,6.54,10.24,12.63a24.83,24.83,0,0,1,.28,6c-.09,1.23-.48,1.72-1.85,1.7-6.36-.09-12.72,0-19.08,0-1.9,0-2,.12-1.26,1.89,1.56,3.7,4.64,5.18,8.41,5.49A31,31,0,0,0,96.76,64c1.09-.28,1.28.08,1.37,1,.21,1.87.45,3.73.7,5.6.1.69,0,1.18-.78,1.41-6.15,1.75-12.34,2.46-18.6.55A16.42,16.42,0,0,1,70.7,66Z"/><path class="cls-1" d="M151.41,60.77a141.19,141.19,0,0,0,7-21.38c.32-1.34.8-1.82,2.24-1.74,2.67.14,5.35,0,8.17,0-1.4,5.23-3,10.2-4.79,15.12a168.07,168.07,0,0,1-7.9,18.54,2,2,0,0,1-2.2,1.4,49.33,49.33,0,0,0-5.16,0,1.87,1.87,0,0,1-2-1.13C142.46,63.46,136.21,47,134,37.69c3.16,0,6.27,0,9.37,0,.93,0,.74.9.87,1.42a153.55,153.55,0,0,0,6.58,20.3C151,59.79,151.15,60.15,151.41,60.77Z"/><path class="cls-1" d="M107.77,56.64c0-4.74,0-9.48,0-14.22A2.24,2.24,0,0,1,109,40.11c5.92-3.26,12.17-3.7,18.67-2.39.71.14,1,.46.82,1.18q-.61,3.1-1.15,6.22c-.16.91-.7.63-1.27.5a11.32,11.32,0,0,0-6.76.36,2.22,2.22,0,0,0-1.63,2.41c.08,7.48,0,15,.07,22.44,0,1.43-.21,2-1.83,1.92a63.16,63.16,0,0,0-6.88,0c-1.11,0-1.32-.34-1.31-1.36C107.8,66.47,107.77,61.56,107.77,56.64Z"/><path class="cls-6" d="M188.76,50.75c-1.89,0-3.79-.06-5.67,0-1.22.06-1.28-.34-1-1.37.95-3.54,3.28-5.55,6.66-5.57a6.69,6.69,0,0,1,6.78,5.43c.24,1,.29,1.6-1.1,1.51C192.55,50.66,190.65,50.75,188.76,50.75Z"/><path class="cls-7" d="M19.93,27.13c3.46,0,6.85.06,10.22,0,1.26,0,1.34.82,1.61,1.59q5.1,14.18,11.05,28c.4.93.83,1.83,1.42,3.13,1.78-4.23,3.44-8.07,5-11.95,2.58-6.33,5.09-12.7,7.31-19.18a2,2,0,0,1,2.33-1.6c2.63.11,5.28.1,7.91,0,1.46-.06,1.85.12,1.26,1.7q-4.44,11.86-9.59,23.43-4.29,9.61-9,19a2.13,2.13,0,0,1-2.31,1.49c-2.12-.12-4.24,0-6.36,0a1.41,1.41,0,0,1-1.51-.82A397.41,397.41,0,0,1,20,27.7,3.55,3.55,0,0,1,19.93,27.13Z"/><path class="cls-6" d="M84.39,50.75c-2,0-3.9,0-5.85,0-.87,0-1.06-.24-.88-1.09.73-3.52,3.25-5.78,6.62-5.84a6.75,6.75,0,0,1,7,5.64c.21.92.08,1.34-1,1.3C88.29,50.7,86.34,50.75,84.39,50.75Z"/></svg>