<?xml version="1.0" encoding="UTF-8"?>
<svg width="20px" height="20px" viewBox="0 0 20 20" version="1.1" xmlns="http://www.w3.org/2000/svg" xmlns:xlink="http://www.w3.org/1999/xlink">
    <!-- Generator: Sketch 58 (84663) - https://sketch.com -->
    <title>wallet (18)</title>
    <desc>Created with Sketch.</desc>
    <g id="Page-1" stroke="none" stroke-width="1" fill="none" fill-rule="evenodd">
        <g id="landing-page" transform="translate(-18.000000, -258.000000)" fill="#807F7F" fill-rule="nonzero">
            <g id="wallet-(18)" transform="translate(18.000000, 258.000000)">
                <path d="M8.8535,19.1465 C8.7605,19.05345 8.6315,19 8.5,19 C8.368,19 8.2395,19.05345 8.1465,19.1465 C8.0535,19.23955 8,19.3685 8,19.5 C8,19.6315 8.0535,19.7605 8.1465,19.85345 C8.2395,19.94645 8.3685,20 8.5,20 C8.6315,20 8.7605,19.9465 8.8535,19.85345 C8.9465,19.7605 9,19.6315 9,19.5 C9,19.3685 8.9465,19.2395 8.8535,19.1465 Z" id="Path"></path>
                <path d="M2.5,13 C2.22385,13 2,13.1587124 2,13.3545062 L2,16.6454938 C2,16.8412521 2.22385,17 2.5,17 C2.77615,17 3,16.8412521 3,16.6454938 L3,13.3545062 C3,13.1587479 2.77615,13 2.5,13 Z" id="Path"></path>
                <path d="M2.8535,11.14655 C2.7605,11.05355 2.6315,11 2.5,11 C2.3685,11 2.2395,11.0535 2.1465,11.14655 C2.0535,11.2395 2,11.36805 2,11.5 C2,11.6315 2.0535,11.7605 2.1465,11.8535 C2.2395,11.9465 2.3685,12 2.5,12 C2.6315,12 2.7605,11.94655 2.8535,11.8535 C2.9465,11.76045 3,11.6315 3,11.5 C3,11.3685 2.9465,11.23955 2.8535,11.14655 Z" id="Path"></path>
                <path d="M20,10.57454 C20,9.63813815 19.3255078,8.85696239 18.4375,8.69113756 L18.4375,6.15515181 C18.4375,5.07689931 17.5613281,4.19967031 16.484375,4.19967031 L14.443125,4.19967031 L10.3628906,0.114512997 C10.2103516,-0.038170999 9.96300781,-0.038170999 9.81042969,0.114512997 L8.90242187,1.02361635 L7.99441406,0.114512997 C7.841875,-0.038170999 7.59453125,-0.038170999 7.44199219,0.114512997 L3.3375,4.2239965 C3.29554687,4.2085873 3.25042969,4.19974853 3.203125,4.19974853 L1.953125,4.19974853 C0.876171875,4.19974853 0,5.07697753 0,6.15523003 C0,6.18374095 0.0009375,6.21205633 0.0021484375,6.24025437 C0.0007421875,6.25362986 0,6.26727912 0,6.28112393 L0,18.0445185 C0,19.122771 0.876171875,20 1.953125,20 L6.34113281,20 C6.556875,20 6.73175781,19.8248671 6.73175781,19.6089037 C6.73175781,19.3929403 6.556875,19.2178074 6.34113281,19.2178074 L1.953125,19.2178074 C1.30695312,19.2178074 0.78125,18.69147 0.78125,18.0445185 L0.78125,7.71848106 C1.10792969,7.96455885 1.51378906,8.11063332 1.953125,8.11063332 L10.1299219,8.11857258 L14.5675781,8.11857258 C14.5803125,8.11857258 14.5930469,8.11790771 14.6057031,8.11669531 C14.6064453,8.1166171 14.6071875,8.11649977 14.6079297,8.11642155 C15.1999609,8.17481222 15.6640625,8.67608035 15.6640625,9.28396134 L15.6640625,11.7087584 L10.9375,11.7087584 C9.86054687,11.7087584 8.984375,12.5859874 8.984375,13.6642399 C8.984375,14.7424924 9.86054687,15.6197214 10.9375,15.6197214 L15.6640625,15.6197214 L15.6640625,18.0445185 C15.6640625,18.69147 15.1383594,19.2178074 14.4921875,19.2178074 L9.62238281,19.2178074 C9.40664062,19.2178074 9.23175781,19.3929403 9.23175781,19.6089037 C9.23175781,19.8248671 9.40664062,20 9.62238281,20 L14.4921875,20 C15.5691406,20 16.4453125,19.122771 16.4453125,18.0445185 L16.4453125,17.88808 L16.484375,17.88808 C17.5613281,17.88808 18.4375,17.010851 18.4375,15.9325985 L18.4375,15.5803771 C19.3279297,15.3986738 20,14.6086202 20,13.6642399 L20,10.6527984 C20,10.6446245 19.9997656,10.6364897 19.9992578,10.6284331 C19.9997656,10.6105209 20,10.5925305 20,10.57454 Z M9.32851562,1.70334172 L10.0866797,0.944223801 L10.92375,1.78230407 C10.4244141,2.08340911 9.79710938,2.09127014 9.2909375,1.80620005 C9.30847656,1.7735044 9.32089844,1.73881416 9.32851562,1.70334172 Z M0.78125,6.15515181 C0.78125,5.50820031 1.30695312,4.98186291 1.953125,4.98186291 L2.58050781,4.98186291 L0.898359375,6.66604091 C0.823398438,6.51151876 0.78125,6.33818488 0.78125,6.15515181 Z M1.953125,7.32844072 C1.77457031,7.32844072 1.60527344,7.28807958 1.45367187,7.2162743 L7.71820313,0.944184691 L8.35,1.57674385 L2.60519531,7.32844072 L1.953125,7.32844072 Z M5.63980469,7.32844072 C5.69292969,7.26293209 5.749375,7.19988736 5.80949219,7.13973675 C6.27078125,6.67785202 6.88414063,6.4235221 7.53648438,6.4235221 C8.18882813,6.4235221 8.8021875,6.67789113 9.26347656,7.13973675 C9.32359375,7.19988736 9.38003906,7.2629712 9.43316406,7.32844072 L5.63980469,7.32844072 Z M13.8169531,7.32844072 L10.3687109,7.32844072 C10.2212109,7.05615947 10.0362891,6.80726579 9.81589844,6.58660925 C9.20703125,5.97700745 8.3975,5.64129038 7.53644531,5.64129038 C6.67539063,5.64129038 5.86585938,5.97700745 5.25699219,6.58660925 C5.0365625,6.80726579 4.85164063,7.05615947 4.70417969,7.32844072 L3.71003906,7.32844072 L8.68613281,2.34642137 C9.10304688,2.64607936 9.59472656,2.79641678 10.0866797,2.79641678 C10.5786328,2.79641678 11.0703125,2.64611847 11.4872266,2.34642137 L14.0379297,4.900202 C13.5252344,5.61524337 13.4514453,6.55019819 13.8169531,7.32844072 Z M14.6014063,7.14051895 C14.2924219,6.62689217 14.2924219,5.97794608 14.6014063,5.46435842 L15.4384766,6.30243868 L14.6014063,7.14051895 Z M15.3295703,7.51765311 L16.2671094,6.57898288 C16.4196484,6.42625977 16.4196484,6.17861759 16.2671094,6.02585538 L15.224375,4.98186291 L16.484375,4.98186291 C17.1305469,4.98186291 17.65625,5.50820031 17.65625,6.15515181 L17.65625,11.7087193 L16.4453125,11.7087193 L16.4453125,9.28392223 C16.4453125,8.50556237 15.9886719,7.83217276 15.3295703,7.51765311 Z M17.65625,15.9325594 C17.65625,16.5795109 17.1305469,17.1058483 16.484375,17.1058483 L16.4453125,17.1058483 L16.4453125,15.6196823 L17.65625,15.6196823 L17.65625,15.9325594 Z M19.21875,13.6642008 C19.21875,14.3111523 18.6930469,14.8374897 18.046875,14.8374897 L10.9375,14.8374897 C10.2913281,14.8374897 9.765625,14.3111523 9.765625,13.6642008 C9.765625,13.0172493 10.2913281,12.4909119 10.9375,12.4909119 L18.0859375,12.4909119 C18.5094922,12.4909119 18.9013672,12.3524638 19.21875,12.1183927 L19.21875,13.6642008 Z M18.4375,11.6525188 L18.4375,9.49656129 C18.8905078,9.64502144 19.21875,10.0720204 19.21875,10.57454 C19.21875,11.0770597 18.8905078,11.5040586 18.4375,11.6525188 Z" id="Shape"></path>
                <path d="M11.8535,13.1465 C11.7605,13.0535 11.6315,13 11.5,13 C11.3685,13 11.2395,13.05345 11.1465,13.1465 C11.0535,13.2395 11,13.3685 11,13.5 C11,13.6315 11.0535,13.7605 11.1465,13.85345 C11.2395,13.94645 11.3685,14 11.5,14 C11.6315,14 11.7605,13.9465 11.8535,13.85345 C11.9465,13.7605 12,13.6315 12,13.5 C12,13.3685 11.9465,13.2395 11.8535,13.1465 Z" id="Path"></path>
                <path d="M10.9216398,5.07832141 C10.8171461,4.97390624 10.6477786,4.97387949 10.5433116,5.07832141 L10.0783602,5.5432806 C9.9738933,5.64774928 9.97386655,5.81714637 10.0783602,5.9216418 C10.1305803,5.97386277 10.1990389,6 10.2675243,6 C10.3359829,6 10.4044683,5.97386277 10.4566884,5.9216418 L10.9216398,5.45668262 C11.0261067,5.35221394 11.0261335,5.18284359 10.9216398,5.07832141 Z" id="Path"></path>
            </g>
        </g>
    </g>
</svg>